<svg xmlns="http://www.w3.org/2000/svg" viewBox="0 0 64.14 70.62"><defs><style>.cls-1{fill:#fff;}</style></defs><g id="圖層_2" data-name="圖層 2"><g id="圖層_1-2" data-name="圖層 1"><g id="Group_364" data-name="Group 364"><g id="Group_355" data-name="Group 355"><g id="Group_353" data-name="Group 353"><path id="Path_99" data-name="Path 99" class="cls-1" d="M46.52,58.21H3a2.9,2.9,0,0,1-3-2.75V2.75A2.92,2.92,0,0,1,3,0h32.8a3.26,3.26,0,0,1,2.1.77l10.91,9.44a2.66,2.66,0,0,1,.94,2l-.23,43.27A2.91,2.91,0,0,1,46.52,58.21Zm-45.77-3v.26a2.15,2.15,0,0,0,2.15,2A2.88,2.88,0,0,1,.75,55.21Zm48.07,0a2.87,2.87,0,0,1-2.15,2.24,2.15,2.15,0,0,0,2.15-2Zm-47.08-.9v.26a2.16,2.16,0,0,0,2.15,2A2.88,2.88,0,0,1,1.74,54.32Zm46.09,0a2.88,2.88,0,0,1-2.15,2.24,2.15,2.15,0,0,0,2.15-2ZM4.76,2.28a2.17,2.17,0,0,0-2.3,2V53.93a2.16,2.16,0,0,0,2.3,2H44.82a2.16,2.16,0,0,0,2.29-2l.21-41.09a1.89,1.89,0,0,0-.67-1.43l-9.9-8.56a2.43,2.43,0,0,0-1.61-.58ZM47.69,11.5a2.83,2.83,0,0,1,.35.93,1.86,1.86,0,0,0-.35-.93Zm1-.37a2.75,2.75,0,0,1,.35.93,1.84,1.84,0,0,0-.36-.93ZM3.89,1.64a2.14,2.14,0,0,0-2.14,2V3.9A2.87,2.87,0,0,1,3.89,1.64ZM2.9.76a2.15,2.15,0,0,0-2.15,2V3A2.85,2.85,0,0,1,2.9.76Z"/></g><g id="Group_354" data-name="Group 354"><path id="Path_100" data-name="Path 100" class="cls-1" d="M46.32,58H3.25a2.91,2.91,0,0,1-3-2.75V2.94A2.91,2.91,0,0,1,3.25.19h32.5a3.16,3.16,0,0,1,2.1.76l10.8,9.34a2.62,2.62,0,0,1,.93,2l-.22,43A2.91,2.91,0,0,1,46.32,58ZM3.25.93a2.17,2.17,0,0,0-2.3,2V55.28a2.17,2.17,0,0,0,2.3,2H46.32a2.17,2.17,0,0,0,2.29-2l.23-43a1.9,1.9,0,0,0-.68-1.43L37.37,1.52A2.41,2.41,0,0,0,35.75.94ZM45,56.86H4.55a2.91,2.91,0,0,1-3-2.75v-50a2.92,2.92,0,0,1,3-2.75H35.22a3.22,3.22,0,0,1,2.1.77l10,8.67a2.62,2.62,0,0,1,.93,2l-.21,41.35a2.92,2.92,0,0,1-3,2.74ZM4.55,2.09a2.17,2.17,0,0,0-2.29,2v50a2.15,2.15,0,0,0,2.29,2H45a2.15,2.15,0,0,0,2.29-2l.22-41.35a1.9,1.9,0,0,0-.68-1.42l-10-8.67a2.41,2.41,0,0,0-1.62-.58Z"/></g></g><g id="Group_356" data-name="Group 356"><path id="Path_101" data-name="Path 101" class="cls-1" d="M51.88,62.58H11.49a2.83,2.83,0,0,1-3-2.64V58.35h.95v1.42a2.09,2.09,0,0,0,2.24,1.9h40a2.11,2.11,0,0,0,2.24-1.89l.21-39.28a1.78,1.78,0,0,0-.66-1.35l-3-2.38V15.58l3.7,2.92a2.5,2.5,0,0,1,.92,1.93L54.87,60A2.84,2.84,0,0,1,51.88,62.58Z"/><path id="Path_102" data-name="Path 102" class="cls-1" d="M50.46,13.84,55.64,18a2.52,2.52,0,0,1,.93,1.92l-.23,41.36a2.83,2.83,0,0,1-3,2.63H10a2.84,2.84,0,0,1-3-2.64V58.35H8v2.7A2.1,2.1,0,0,0,10.21,63H53.15a2.11,2.11,0,0,0,2.25-1.89L55.62,20A1.77,1.77,0,0,0,55,18.61L50.46,15Z"/><path id="Path_103" data-name="Path 103" class="cls-1" d="M52.65,63.26H10.71a2.83,2.83,0,0,1-3-2.65V58.35h1v2A2.09,2.09,0,0,0,11,62.28h41.4a2.1,2.1,0,0,0,2.24-1.89l.22-40.15a1.75,1.75,0,0,0-.66-1.34L50.46,16V14.67l4.47,3.54a2.53,2.53,0,0,1,.93,1.93l-.22,40.48A2.85,2.85,0,0,1,52.65,63.26Z"/><path id="Path_104" data-name="Path 104" class="cls-1" d="M50.46,15l4.2,3.32a2.5,2.5,0,0,1,.92,1.93l-.21,40.15a2.84,2.84,0,0,1-3,2.63H11a2.84,2.84,0,0,1-3-2.64v-2H9.24v1.59a2.09,2.09,0,0,0,2.24,1.9H51.87A2.1,2.1,0,0,0,54.11,60l.22-39.52a1.77,1.77,0,0,0-.66-1.35l-3.22-2.54Z"/><path id="Path_105" data-name="Path 105" class="cls-1" d="M50.46,14.08l5,4A2.53,2.53,0,0,1,56.37,20l-.23,41.11a2.85,2.85,0,0,1-3,2.63H10.21a2.84,2.84,0,0,1-3-2.65v-2.7H8.47v2.27a2.08,2.08,0,0,0,2.24,1.89H52.65a2.09,2.09,0,0,0,2.24-1.88l.22-40.49a1.76,1.76,0,0,0-.66-1.34l-4-3.16Z"/></g><g id="Group_357" data-name="Group 357"><path id="Path_106" data-name="Path 106" class="cls-1" d="M59.45,69.33H19.07a2.84,2.84,0,0,1-3-2.64v-1.6H17v1.42a2.1,2.1,0,0,0,2.25,1.9h40a2.11,2.11,0,0,0,2.25-1.88l.21-39.28a1.77,1.77,0,0,0-.66-1.35l-3-2.38V22.33l3.7,2.92a2.53,2.53,0,0,1,.93,1.93L62.45,66.7A2.85,2.85,0,0,1,59.45,69.33Z"/><path id="Path_107" data-name="Path 107" class="cls-1" d="M58,20.59l5.19,4.12a2.53,2.53,0,0,1,.92,1.92L63.92,68a2.85,2.85,0,0,1-3,2.63H17.58a2.83,2.83,0,0,1-3-2.64V65.1h.95v2.7a2.09,2.09,0,0,0,2.24,1.9H60.73A2.11,2.11,0,0,0,63,67.81l.22-41.11a1.79,1.79,0,0,0-.65-1.34L58,21.79Z"/><path id="Path_108" data-name="Path 108" class="cls-1" d="M60.22,70H18.29a2.86,2.86,0,0,1-3-2.65V65.1h1v2A2.1,2.1,0,0,0,18.56,69H60a2.11,2.11,0,0,0,2.24-1.89L62.41,27a1.81,1.81,0,0,0-.65-1.35L58,22.7V21.42L62.51,25a2.49,2.49,0,0,1,.92,1.93l-.21,40.48A2.86,2.86,0,0,1,60.22,70Z"/><path id="Path_109" data-name="Path 109" class="cls-1" d="M58,21.74l4.2,3.32A2.53,2.53,0,0,1,63.16,27L63,67.14a2.83,2.83,0,0,1-3,2.63H18.56a2.83,2.83,0,0,1-3-2.64v-2h1.25v1.59a2.09,2.09,0,0,0,2.24,1.89H59.45a2.09,2.09,0,0,0,2.24-1.88l.21-39.53a1.74,1.74,0,0,0-.65-1.35L58,23.28Z"/><path id="Path_110" data-name="Path 110" class="cls-1" d="M58,20.83l5,4a2.53,2.53,0,0,1,.93,1.93l-.22,41.1a2.85,2.85,0,0,1-3,2.64H17.78a2.85,2.85,0,0,1-3-2.65V65.1h1.26v2.27a2.09,2.09,0,0,0,2.24,1.9H60.22a2.12,2.12,0,0,0,2.25-1.89l.21-40.48A1.79,1.79,0,0,0,62,25.55l-4-3.16Z"/></g><g id="Group_358" data-name="Group 358"><path id="Rectangle_148" data-name="Rectangle 148" class="cls-1" d="M9.3,13.73H26.17a.37.37,0,0,1,.38.37v.52a.38.38,0,0,1-.37.38H9.3a.38.38,0,0,1-.38-.37h0V14.1A.37.37,0,0,1,9.3,13.73Z"/></g><g id="Group_359" data-name="Group 359"><path id="Rectangle_149" data-name="Rectangle 149" class="cls-1" d="M9.3,19.66H37.23a.38.38,0,0,1,.38.37v.53a.38.38,0,0,1-.37.37H9.3a.37.37,0,0,1-.38-.37h0V20A.38.38,0,0,1,9.3,19.66Z"/></g><g id="Group_360" data-name="Group 360"><path id="Rectangle_150" data-name="Rectangle 150" class="cls-1" d="M9.3,25.59H37.23a.38.38,0,0,1,.38.38v.52a.38.38,0,0,1-.37.38H9.3a.38.38,0,0,1-.38-.38h0V26A.38.38,0,0,1,9.3,25.59Z"/></g><g id="Group_361" data-name="Group 361"><path id="Rectangle_151" data-name="Rectangle 151" class="cls-1" d="M9.3,31.52H37.23a.38.38,0,0,1,.38.38v.52a.38.38,0,0,1-.37.38H9.3a.38.38,0,0,1-.38-.38h0V31.9A.38.38,0,0,1,9.3,31.52Z"/></g><g id="Group_362" data-name="Group 362"><path id="Rectangle_152" data-name="Rectangle 152" class="cls-1" d="M9.3,37.29H37.23a.38.38,0,0,1,.38.38v.52a.38.38,0,0,1-.37.38H9.3a.38.38,0,0,1-.38-.38h0v-.52A.38.38,0,0,1,9.3,37.29Z"/></g><g id="Group_363" data-name="Group 363"><path id="Rectangle_153" data-name="Rectangle 153" class="cls-1" d="M9.3,43.06H37.23a.38.38,0,0,1,.38.38V44a.38.38,0,0,1-.37.38H9.3A.38.38,0,0,1,8.92,44h0v-.52A.38.38,0,0,1,9.3,43.06Z"/></g></g></g></g></svg>