<svg xmlns="http://www.w3.org/2000/svg" viewBox="0 0 67.87 77.17"><defs><style>.cls-1,.cls-2{isolation:isolate;}.cls-2{font-size:63px;font-family:ArialRoundedMTBold, Arial Rounded MT Bold;}.cls-2,.cls-3{fill:#fff;}</style></defs><g id="圖層_2" data-name="圖層 2"><g id="圖層_1-2" data-name="圖層 1"><g id="_" data-name=" " class="cls-1"><text class="cls-2" transform="translate(14.01 54.23) rotate(4.89)">?</text></g><path id="Path_88" data-name="Path 88" class="cls-3" d="M24.09,77.17a2.45,2.45,0,0,1-.81-.13,2.14,2.14,0,0,1-1.5-1.9l-.49-9H13.88a14.7,14.7,0,0,1-9.77-3.58A11.7,11.7,0,0,1,0,53.74V29.4a11.7,11.7,0,0,1,4.11-8.8A14.65,14.65,0,0,1,13.88,17v2C7.33,19,2,23.67,2,29.39V53.73c0,5.72,5.33,10.38,11.88,10.38h9.3L23.78,75c0,.07.14.11.15.12a.41.41,0,0,0,.41-.08l9.54-11H54c6.55,0,11.87-4.66,11.87-10.38V29.39c0-4.16-2.83-7.91-7.21-9.54l.7-1.88a13.64,13.64,0,0,1,6.11,4.45,11.45,11.45,0,0,1,2.4,7V53.73a11.7,11.7,0,0,1-4.11,8.8A14.65,14.65,0,0,1,54,66.11H34.79L25.85,76.37A2.3,2.3,0,0,1,24.09,77.17Z"/></g></g></svg>