<svg xmlns="http://www.w3.org/2000/svg" viewBox="0 0 74.27 65.73"><defs><style>.cls-1{fill:#fff;}</style></defs><g id="圖層_2" data-name="圖層 2"><g id="圖層_1-2" data-name="圖層 1"><g id="Group_338" data-name="Group 338"><g id="Group_332" data-name="Group 332"><g id="Group_331" data-name="Group 331"><path id="Path_91" data-name="Path 91" class="cls-1" d="M3.58,63.71A34.74,34.74,0,0,1,48,21.72,34.75,34.75,0,0,1,70.54,64.21a1.22,1.22,0,0,0,2.35.65A37.19,37.19,0,0,0,26.12,19.21,37.19,37.19,0,0,0,1.24,64.35a1.22,1.22,0,0,0,2.35-.64Z"/></g></g><g id="Group_333" data-name="Group 333"><rect id="Rectangle_144" data-name="Rectangle 144" class="cls-1" x="31.37" y="42.46" width="7.91" height="1.22"/></g><g id="Group_334" data-name="Group 334"><path id="Path_92" data-name="Path 92" class="cls-1" d="M47.56,52.18A9.23,9.23,0,1,1,56.78,43,9.24,9.24,0,0,1,47.56,52.18Zm0-16.42a7.2,7.2,0,1,0,7.2,7.2,7.2,7.2,0,0,0-7.2-7.2Z"/></g><g id="Group_335" data-name="Group 335"><path id="Path_93" data-name="Path 93" class="cls-1" d="M23.16,52.18A9.23,9.23,0,1,1,32.38,43,9.25,9.25,0,0,1,23.16,52.18Zm0-16.42a7.2,7.2,0,1,0,7.2,7.2,7.2,7.2,0,0,0-7.2-7.2Z"/></g><g id="Group_336" data-name="Group 336"><path id="Path_94" data-name="Path 94" class="cls-1" d="M60.44.07,62,4.52a.05.05,0,0,0,0,.05L64.82,7a.2.2,0,0,1,0,.25L62,9.68a.05.05,0,0,0,0,.05l-1.54,4.45c0,.1-.12.1-.16,0L58.75,9.73a.1.1,0,0,0,0-.05L55.9,7.25a.2.2,0,0,1,0-.25l2.81-2.43a.1.1,0,0,0,0-.05L60.28.07C60.32,0,60.4,0,60.44.07Z"/></g></g></g></g></svg>