<svg xmlns="http://www.w3.org/2000/svg" viewBox="0 0 53.21 71.1"><defs><style>.cls-1{fill:#fff;}</style></defs><g id="圖層_2" data-name="圖層 2"><g id="圖層_1-2" data-name="圖層 1"><g id="Group_339" data-name="Group 339"><path id="Path_96" data-name="Path 96" class="cls-1" d="M30.89.59a31,31,0,0,1,9.83,3.69,27.35,27.35,0,0,1,7.42,6.3,22.58,22.58,0,0,1,4.3,8.11,19.21,19.21,0,0,1,.42,9c-1.26,6.47-5.81,11.93-12.49,15a6.73,6.73,0,0,0-4.07,4.61l-.12.65a8.31,8.31,0,0,1-4.54,5.74,12.66,12.66,0,0,1-8.19,1l-6-1.16a12.65,12.65,0,0,1-7.2-4,8.29,8.29,0,0,1-2.06-7l.12-.65a6.7,6.7,0,0,0-2-5.8c-5-5.33-7.22-12.1-6-18.57A19.38,19.38,0,0,1,4.12,9.29a22.72,22.72,0,0,1,7-5.9A27.45,27.45,0,0,1,20.39.32,31.38,31.38,0,0,1,30.89.59Zm-7,52.21c5,1,9.63-1.36,10.38-5.2l.12-.65a8.7,8.7,0,0,1,5.2-6.05A21.6,21.6,0,0,0,47,35.37a17.29,17.29,0,0,0,3.53-16.14,20.56,20.56,0,0,0-3.93-7.38A25.39,25.39,0,0,0,39.71,6a29.61,29.61,0,0,0-19-3.7,25.53,25.53,0,0,0-8.58,2.84A20.77,20.77,0,0,0,5.7,10.52,17.32,17.32,0,0,0,2.93,26.81a21.58,21.58,0,0,0,4.84,7.92,8.7,8.7,0,0,1,2.55,7.55l-.13.65c-.74,3.84,2.7,7.75,7.68,8.71Z"/><path id="Rectangle_145" data-name="Rectangle 145" class="cls-1" d="M15.09,50.6,27.22,53a3,3,0,0,1-1.16,5.95L13.94,56.55a3,3,0,0,1,1.15-5.95ZM26.44,57a1,1,0,0,0,.4-2L14.71,52.57a1,1,0,0,0-.39,2Z"/><path id="Rectangle_146" data-name="Rectangle 146" class="cls-1" d="M14.28,54.78l12.13,2.35a3,3,0,0,1-1.16,5.95L13.13,60.72a3,3,0,0,1,1.15-5.94Zm11.35,6.34a1,1,0,0,0,.39-2L13.9,56.74a1,1,0,0,0-.39,2Z"/><path id="Rectangle_147" data-name="Rectangle 147" class="cls-1" d="M13.45,59.07l12.12,2.36a3,3,0,0,1-1.15,5.94L12.29,65a3,3,0,0,1,1.16-5.95ZM24.8,65.41a1,1,0,0,0,.39-2L13.07,61a1,1,0,0,0-.4,2Z"/><path id="Path_97" data-name="Path 97" class="cls-1" d="M17.68,71c-3.5-.68-5.85-3.79-5.24-6.94l2,.38c-.4,2.06,1.24,4.13,3.66,4.6s4.71-.83,5.12-2.89l2,.38C24.53,69.64,21.18,71.65,17.68,71Z"/><path id="Path_98" data-name="Path 98" class="cls-1" d="M16.92,52.32l-1.85-.77c1.4-3.33.38-6.92-.7-10.72-1.18-4.14-2.41-8.43-.44-12.61,1.23-2.85,3.3-4.57,5.84-4.85a7.68,7.68,0,0,1,5.9,2,9.06,9.06,0,0,1,2.81-.7,7.26,7.26,0,0,1,3.94.73,6.19,6.19,0,0,1,2.88,3.15l0,.05,0,.06c1.52,5.39-1.23,10-3.88,14.5-1.9,3.19-3.85,6.49-4.14,10l-2-.17c.33-3.93,2.41-7.43,4.42-10.81,2.54-4.28,4.94-8.33,3.69-12.87a4.47,4.47,0,0,0-4.79-2.61,7.14,7.14,0,0,0-1.59.33,7.55,7.55,0,0,1,.51,7.45v0a2.78,2.78,0,0,1-2.46,1.78,4.34,4.34,0,0,1-3.55-2.41,3.84,3.84,0,0,1-.21-3.78,6.78,6.78,0,0,1,2.5-3.6,6.6,6.6,0,0,0-1-.6A5.32,5.32,0,0,0,20,25.35c-1.82.21-3.29,1.47-4.22,3.67l0,0c-1.66,3.51-.6,7.26.54,11.23S18.59,48.35,16.92,52.32Zm8.32-24.39a4.89,4.89,0,0,0-2,2.79l0,.17L23.1,31a1.92,1.92,0,0,0,.19,1.87A2.44,2.44,0,0,0,25,34.29c.1,0,.41,0,.72-.65a5.56,5.56,0,0,0-.51-5.71Z"/></g></g></g></svg>