<svg xmlns="http://www.w3.org/2000/svg" viewBox="0 0 74.27 65.73"><defs><style>.cls-1{fill:#fff;}</style></defs><g id="圖層_2" data-name="圖層 2"><g id="圖層_1-2" data-name="圖層 1"><g id="Group_340" data-name="Group 340"><g id="Group_332-2" data-name="Group 332-2"><g id="Group_331-2" data-name="Group 331-2"><path id="Path_91-2" data-name="Path 91-2" class="cls-1" d="M3.58,63.71A34.74,34.74,0,0,1,48,21.72,34.75,34.75,0,0,1,70.54,64.21a1.22,1.22,0,0,0,2.35.65A37.19,37.19,0,0,0,26.12,19.21,37.19,37.19,0,0,0,1.24,64.35a1.22,1.22,0,0,0,2.35-.64Z"/></g></g><g id="Group_333-2" data-name="Group 333-2"><rect id="Rectangle_144-2" data-name="Rectangle 144-2" class="cls-1" x="31.37" y="42.46" width="7.91" height="1.22"/></g><g id="Group_334-2" data-name="Group 334-2"><path id="Path_92-2" data-name="Path 92-2" class="cls-1" d="M47.56,52.18A9.23,9.23,0,1,1,56.78,43,9.24,9.24,0,0,1,47.56,52.18Zm0-16.42a7.2,7.2,0,1,0,7.2,7.2,7.2,7.2,0,0,0-7.2-7.2Z"/></g><g id="Group_335-2" data-name="Group 335-2"><path id="Path_93-2" data-name="Path 93-2" class="cls-1" d="M23.16,52.18A9.23,9.23,0,1,1,32.38,43,9.25,9.25,0,0,1,23.16,52.18Zm0-16.42a7.2,7.2,0,1,0,7.2,7.2,7.2,7.2,0,0,0-7.2-7.2Z"/></g><g id="Group_336-2" data-name="Group 336-2"><path id="Path_94-2" data-name="Path 94-2" class="cls-1" d="M60.44.07,62,4.52a.05.05,0,0,0,0,.05L64.82,7a.2.2,0,0,1,0,.25L62,9.68a.05.05,0,0,0,0,.05l-1.54,4.45c0,.1-.12.1-.16,0L58.75,9.73a.1.1,0,0,0,0-.05L55.9,7.25a.2.2,0,0,1,0-.25l2.81-2.43a.1.1,0,0,0,0-.05L60.28.07C60.32,0,60.4,0,60.44.07Z"/></g><g id="Group_337" data-name="Group 337"><path id="Path_95" data-name="Path 95" class="cls-1" d="M68,10.84l1,3a.05.05,0,0,0,0,0l1.91,1.65a.14.14,0,0,1,0,.17L69,17.36s0,0,0,0l-1,3c0,.07-.09.07-.11,0l-1-3,0,0-1.9-1.65a.12.12,0,0,1,0-.17l1.9-1.65,0,0,1-3C67.87,10.77,67.93,10.77,68,10.84Z"/></g></g></g></g></svg>