<svg id="icon" xmlns="http://www.w3.org/2000/svg" width="46" height="45" viewBox="0 0 46 45">
  <path id="Fill_1" data-name="Fill 1" d="M23,45C10.318,45,0,34.907,0,22.5S10.318,0,23,0,46,10.093,46,22.5,35.682,45,23,45ZM23,1.324A21.44,21.44,0,0,0,1.353,22.5,21.44,21.44,0,0,0,23,43.676,21.44,21.44,0,0,0,44.647,22.5,21.44,21.44,0,0,0,23,1.324Z" fill="#575757"/>
  <path id="Fill_3" data-name="Fill 3" d="M3.5,29a3.869,3.869,0,0,1-2.472-.813,2.878,2.878,0,0,1,0-4.41A3.868,3.868,0,0,1,3.5,22.954a3.869,3.869,0,0,1,2.472.823,2.879,2.879,0,0,1,0,4.41A3.869,3.869,0,0,1,3.5,29Zm1.443-9.512H2.057L1.006,4.544.876,0H6.125L6.037,4.544,4.943,19.487Z" transform="translate(20 8)" fill="#575757"/>
</svg>
