<svg xmlns="http://www.w3.org/2000/svg" width="1205" height="838" viewBox="0 0 1205 838">
  <g id="Group_2" data-name="Group 2" transform="translate(2210 1775)">
    <path id="Fill_1" data-name="Fill 1" d="M0,42H210V0H0Z" transform="translate(-2201 -1405)" fill="#323232"/>
    <path id="Stroke_2" data-name="Stroke 2" d="M0,0H261.565L897.506,605H1175" transform="translate(-2203 -1547)" fill="none" stroke="#231815" stroke-miterlimit="10" stroke-width="1"/>
    <path id="Fill_3" data-name="Fill 3" d="M5.822,11.643a5.821,5.821,0,1,1,5.822-5.821,5.823,5.823,0,0,1-5.822,5.821" transform="translate(-2207.725 -1553.653)" fill="#231815"/>
    <path id="Fill_5" data-name="Fill 5" d="M5.822,11.643A5.821,5.821,0,1,0,0,5.821a5.823,5.823,0,0,0,5.822,5.821" transform="translate(-1033.264 -949.065)" fill="#231815"/>
    <path id="Stroke_7" data-name="Stroke 7" d="M0,33.168H83.953L110.6,0h328.93" transform="translate(-1468.233 -1524.607)" fill="none" stroke="#c0e2aa" stroke-miterlimit="10" stroke-width="2"/>
    <path id="Fill_9" data-name="Fill 9" d="M5.822,11.643a5.821,5.821,0,1,1,5.822-5.821,5.823,5.823,0,0,1-5.822,5.821" transform="translate(-1473.765 -1497.261)" fill="#c0e2aa"/>
    <path id="Fill_11" data-name="Fill 11" d="M5.822,11.643A5.821,5.821,0,1,0,0,5.821a5.823,5.823,0,0,0,5.822,5.821" transform="translate(-1034.812 -1530.429)" fill="#c0e2aa"/>
    <path id="Stroke_13" data-name="Stroke 13" d="M0,0,166,165.973H350.748" transform="translate(-2196.248 -1109.217)" fill="none" stroke="#231815" stroke-miterlimit="10" stroke-width="1"/>
    <path id="Fill_15" data-name="Fill 15" d="M1.7,9.937a5.821,5.821,0,1,1,8.233,0,5.821,5.821,0,0,1-8.233,0" transform="translate(-2201.863 -1114.832)" fill="#231815"/>
    <path id="Fill_17" data-name="Fill 17" d="M5.822,11.643A5.821,5.821,0,1,0,0,5.821a5.823,5.823,0,0,0,5.822,5.821" transform="translate(-1851.614 -949.065)" fill="#231815"/>
    <path id="Stroke_19" data-name="Stroke 19" d="M0,0V193.418H209.228V0" transform="translate(-2199.742 -1425.408)" fill="none" stroke="#231815" stroke-miterlimit="10" stroke-width="1"/>
    <path id="Fill_21" data-name="Fill 21" d="M0,5.821a5.822,5.822,0,1,1,5.822,5.821A5.823,5.823,0,0,1,0,5.821" transform="translate(-2205.564 -1430.939)" fill="#231815"/>
    <path id="Fill_23" data-name="Fill 23" d="M11.644,5.821a5.822,5.822,0,1,0-5.822,5.821,5.823,5.823,0,0,0,5.822-5.821" transform="translate(-1996.337 -1430.939)" fill="#231815"/>
    <path id="Stroke_25" data-name="Stroke 25" d="M.774,0V85.427" transform="translate(-2095.903 -1351.204)" fill="none" stroke="#231815" stroke-miterlimit="10" stroke-width="1"/>
    <path id="Fill_27" data-name="Fill 27" d="M0,0,4.5,16.784,9,0Z" transform="translate(-2099.627 -1268.845)" fill="#231815"/>
    <path id="Stroke_29" data-name="Stroke 29" d="M0,0,50.713,50.706" transform="translate(-1922.694 -1595.241)" fill="none" stroke="#231815" stroke-miterlimit="10" stroke-width="1"/>
    <path id="Fill_31" data-name="Fill 31" d="M0,12.723,30.1,30.1,12.725,0Z" transform="translate(-1882.682 -1555.235)" fill="#231815"/>
    <path id="Stroke_33" data-name="Stroke 33" d="M0,0,30.571,30.567" transform="translate(-2075.567 -1032.808)" fill="none" stroke="#231815" stroke-miterlimit="10" stroke-width="1"/>
    <path id="Fill_35" data-name="Fill 35" d="M0,6.362l15.051,8.687L6.361,0Z" transform="translate(-2050.347 -1007.591)" fill="#231815"/>
    <path id="Stroke_37" data-name="Stroke 37" d="M0,0,15.861,15.859" transform="translate(-1577.744 -1039.776)" fill="none" stroke="#231815" stroke-miterlimit="10" stroke-width="1"/>
    <path id="Fill_39" data-name="Fill 39" d="M0,6.362l15.052,8.687L6.363,0Z" transform="translate(-1567.235 -1029.267)" fill="#231815"/>
    <path id="Stroke_41" data-name="Stroke 41" d="M.774,22.425V0" transform="translate(-1822.779 -1060.767)" fill="none" stroke="#231815" stroke-miterlimit="10" stroke-width="1" stroke-dasharray="4 4"/>
    <path id="Fill_43" data-name="Fill 43" d="M9,16.784,4.5,0,0,16.784Z" transform="translate(-1826.504 -1074.484)" fill="#231815"/>
    <path id="Stroke_45" data-name="Stroke 45" d="M.774,22.425V0" transform="translate(-1793.358 -1060.767)" fill="none" stroke="#231815" stroke-miterlimit="10" stroke-width="1" stroke-dasharray="4 4"/>
    <path id="Fill_47" data-name="Fill 47" d="M9,16.784,4.5,0,0,16.784Z" transform="translate(-1797.083 -1074.484)" fill="#231815"/>
    <path id="Stroke_49" data-name="Stroke 49" d="M.774,22.425V0" transform="translate(-1852.199 -1060.767)" fill="none" stroke="#231815" stroke-miterlimit="10" stroke-width="1" stroke-dasharray="4 4"/>
    <path id="Fill_51" data-name="Fill 51" d="M9,16.784,4.5,0,0,16.784Z" transform="translate(-1855.924 -1074.484)" fill="#231815"/>
    <path id="Stroke_53" data-name="Stroke 53" d="M.774,0V22.425" transform="translate(-1822.779 -1254.08)" fill="none" stroke="#231815" stroke-miterlimit="10" stroke-width="1" stroke-dasharray="4 4"/>
    <path id="Fill_55" data-name="Fill 55" d="M0,0,4.5,16.783,9,0Z" transform="translate(-1826.503 -1234.721)" fill="#231815"/>
    <path id="Stroke_57" data-name="Stroke 57" d="M.774,0V22.425" transform="translate(-1852.199 -1254.08)" fill="none" stroke="#231815" stroke-miterlimit="10" stroke-width="1" stroke-dasharray="4 4"/>
    <path id="Fill_59" data-name="Fill 59" d="M0,0,4.5,16.783,9,0Z" transform="translate(-1855.923 -1234.721)" fill="#231815"/>
    <path id="Stroke_61" data-name="Stroke 61" d="M.774,0V22.425" transform="translate(-1793.358 -1254.08)" fill="none" stroke="#231815" stroke-miterlimit="10" stroke-width="1" stroke-dasharray="4 4"/>
    <path id="Fill_63" data-name="Fill 63" d="M0,0,4.5,16.783,9,0Z" transform="translate(-1797.083 -1234.721)" fill="#231815"/>
    <path id="Stroke_65" data-name="Stroke 65" d="M85.438.774H0" transform="translate(-1321.154 -1556.319)" fill="none" stroke="#231815" stroke-miterlimit="10" stroke-width="1"/>
    <path id="Fill_67" data-name="Fill 67" d="M16.787,0,0,4.5,16.787,9Z" transform="translate(-1334.872 -1560.043)" fill="#231815"/>
    <path id="Stroke_69" data-name="Stroke 69" d="M85.438.774H0" transform="translate(-1226.699 -1695.661)" fill="none" stroke="#231815" stroke-miterlimit="10" stroke-width="1"/>
    <path id="Fill_71" data-name="Fill 71" d="M16.787,0,0,4.5,16.787,9Z" transform="translate(-1240.417 -1699.385)" fill="#231815"/>
    <path id="Stroke_73" data-name="Stroke 73" d="M85.437.774H0" transform="translate(-1785.685 -1661.599)" fill="none" stroke="#231815" stroke-miterlimit="10" stroke-width="1" stroke-dasharray="4 4"/>
    <path id="Fill_75" data-name="Fill 75" d="M16.787,0,0,4.5,16.787,9Z" transform="translate(-1799.404 -1665.323)" fill="#231815"/>
    <path id="Stroke_77" data-name="Stroke 77" d="M0,.774H85.438" transform="translate(-1438.617 -1695.661)" fill="none" stroke="#231815" stroke-miterlimit="10" stroke-width="1"/>
    <path id="Fill_79" data-name="Fill 79" d="M0,9,16.787,4.5,0,0Z" transform="translate(-1356.248 -1699.385)" fill="#231815"/>
    <path id="Stroke_81" data-name="Stroke 81" d="M0,.774H42.78" transform="translate(-1396.343 -1376.397)" fill="none" stroke="#231815" stroke-miterlimit="10" stroke-width="1"/>
    <path id="Fill_83" data-name="Fill 83" d="M0,9,16.787,4.5,0,0Z" transform="translate(-1356.63 -1380.121)" fill="#231815"/>
    <path id="Stroke_85" data-name="Stroke 85" d="M42.78.774H0" transform="translate(-1189.069 -1376.397)" fill="none" stroke="#231815" stroke-miterlimit="10" stroke-width="1" stroke-dasharray="4 4"/>
    <path id="Fill_87" data-name="Fill 87" d="M16.787,0,0,4.5,16.787,9Z" transform="translate(-1202.788 -1380.121)" fill="#231815"/>
    <path id="Clip_90" data-name="Clip 90" d="M0,838H1205V0H0Z" transform="translate(-2210 -1775)" fill="none"/>
    <path id="Fill_89" data-name="Fill 89" d="M0,142.438H13.936V0H0Z" transform="translate(-1445.892 -1632.985)" fill="#231815"/>
    <path id="Stroke_91" data-name="Stroke 91" d="M0,142.438H13.936V0H0Z" transform="translate(-1445.892 -1632.985)" fill="none" stroke="#231815" stroke-miterlimit="10" stroke-width="1" stroke-dasharray="4"/>
    <path id="Fill_92" data-name="Fill 92" d="M9.854,162.438,0,152.585,152.6,0l9.856,9.853Z" transform="translate(-1695.514 -1103.81)" fill="#c0e2aa"/>
    <path id="Fill_93" data-name="Fill 93" d="M0,13.934H215.815V0H0Z" transform="translate(-1929.683 -1108.519)" fill="#323232"/>
    <path id="Fill_94" data-name="Fill 94" d="M0,13.934H215.815V0H0Z" transform="translate(-1929.683 -1190.575)" fill="#323232"/>
    <path id="Stroke_95" data-name="Stroke 95" d="M0,0H118.24l43.643,24H354.207L399.534,0H515.771" transform="translate(-1544.471 -1667.819)" fill="none" stroke="#c0e2aa" stroke-miterlimit="10" stroke-width="2" stroke-dasharray="4 4"/>
    <path id="Fill_96" data-name="Fill 96" d="M5.822,11.643a5.821,5.821,0,1,1,5.822-5.821,5.823,5.823,0,0,1-5.822,5.821" transform="translate(-1550.001 -1673.641)" fill="#c0e2aa"/>
    <path id="Fill_97" data-name="Fill 97" d="M5.822,11.643A5.821,5.821,0,1,0,0,5.821a5.823,5.823,0,0,0,5.822,5.821" transform="translate(-1034.812 -1673.641)" fill="#c0e2aa"/>
    <path id="Stroke_98" data-name="Stroke 98" d="M8.129,16.257a8.128,8.128,0,1,1,8.129-8.128A8.13,8.13,0,0,1,8.129,16.257Z" transform="translate(-1231.453 -1439.434)" fill="none" stroke="#231815" stroke-miterlimit="10" stroke-width="1"/>
    <path id="Stroke_99" data-name="Stroke 99" d="M8.129,16.257a8.128,8.128,0,1,1,8.129-8.128A8.13,8.13,0,0,1,8.129,16.257Z" transform="translate(-1231.453 -1418.03)" fill="none" stroke="#231815" stroke-miterlimit="10" stroke-width="1"/>
    <path id="Stroke_100" data-name="Stroke 100" d="M8.129,16.257a8.128,8.128,0,1,1,8.129-8.128A8.13,8.13,0,0,1,8.129,16.257Z" transform="translate(-1231.453 -1396.627)" fill="none" stroke="#231815" stroke-miterlimit="10" stroke-width="1"/>
    <path id="Stroke_101" data-name="Stroke 101" d="M8.129,16.257a8.128,8.128,0,1,1,8.129-8.128A8.13,8.13,0,0,1,8.129,16.257Z" transform="translate(-1231.453 -1375.222)" fill="none" stroke="#231815" stroke-miterlimit="10" stroke-width="1"/>
    <path id="Stroke_102" data-name="Stroke 102" d="M8.129,16.257a8.128,8.128,0,1,1,8.129-8.128A8.13,8.13,0,0,1,8.129,16.257Z" transform="translate(-1231.453 -1353.276)" fill="none" stroke="#231815" stroke-miterlimit="10" stroke-width="1"/>
    <path id="Stroke_103" data-name="Stroke 103" d="M8.129,16.257a8.128,8.128,0,1,1,8.129-8.128A8.13,8.13,0,0,1,8.129,16.257Z" transform="translate(-1231.453 -1331.871)" fill="none" stroke="#231815" stroke-miterlimit="10" stroke-width="1"/>
    <path id="Stroke_104" data-name="Stroke 104" d="M8.129,16.257a8.128,8.128,0,1,1,8.129-8.128A8.13,8.13,0,0,1,8.129,16.257Z" transform="translate(-1254.68 -1439.434)" fill="none" stroke="#231815" stroke-miterlimit="10" stroke-width="1"/>
    <path id="Stroke_105" data-name="Stroke 105" d="M8.129,16.257a8.128,8.128,0,1,1,8.129-8.128A8.13,8.13,0,0,1,8.129,16.257Z" transform="translate(-1254.68 -1418.03)" fill="none" stroke="#231815" stroke-miterlimit="10" stroke-width="1"/>
    <path id="Stroke_106" data-name="Stroke 106" d="M8.129,16.257a8.128,8.128,0,1,1,8.129-8.128A8.13,8.13,0,0,1,8.129,16.257Z" transform="translate(-1254.68 -1396.627)" fill="none" stroke="#231815" stroke-miterlimit="10" stroke-width="1"/>
    <path id="Stroke_107" data-name="Stroke 107" d="M8.129,16.257a8.128,8.128,0,1,1,8.129-8.128A8.13,8.13,0,0,1,8.129,16.257Z" transform="translate(-1254.68 -1375.222)" fill="none" stroke="#231815" stroke-miterlimit="10" stroke-width="1"/>
    <path id="Stroke_108" data-name="Stroke 108" d="M8.129,16.257a8.128,8.128,0,1,1,8.129-8.128A8.13,8.13,0,0,1,8.129,16.257Z" transform="translate(-1254.68 -1353.276)" fill="none" stroke="#231815" stroke-miterlimit="10" stroke-width="1"/>
    <path id="Stroke_109" data-name="Stroke 109" d="M8.129,16.257a8.128,8.128,0,1,1,8.129-8.128A8.13,8.13,0,0,1,8.129,16.257Z" transform="translate(-1254.68 -1331.871)" fill="none" stroke="#231815" stroke-miterlimit="10" stroke-width="1"/>
    <path id="Stroke_110" data-name="Stroke 110" d="M8.129,16.257a8.128,8.128,0,1,1,8.129-8.128A8.13,8.13,0,0,1,8.129,16.257Z" transform="translate(-1277.906 -1439.434)" fill="none" stroke="#231815" stroke-miterlimit="10" stroke-width="1"/>
    <path id="Stroke_111" data-name="Stroke 111" d="M8.129,16.257a8.128,8.128,0,1,1,8.129-8.128A8.13,8.13,0,0,1,8.129,16.257Z" transform="translate(-1277.906 -1418.03)" fill="none" stroke="#231815" stroke-miterlimit="10" stroke-width="1"/>
    <path id="Stroke_112" data-name="Stroke 112" d="M8.129,16.257a8.128,8.128,0,1,1,8.129-8.128A8.13,8.13,0,0,1,8.129,16.257Z" transform="translate(-1277.906 -1396.627)" fill="none" stroke="#231815" stroke-miterlimit="10" stroke-width="1"/>
    <path id="Stroke_113" data-name="Stroke 113" d="M8.129,16.257a8.128,8.128,0,1,1,8.129-8.128A8.13,8.13,0,0,1,8.129,16.257Z" transform="translate(-1277.906 -1375.222)" fill="none" stroke="#231815" stroke-miterlimit="10" stroke-width="1"/>
    <path id="Stroke_114" data-name="Stroke 114" d="M8.129,16.257a8.128,8.128,0,1,1,8.129-8.128A8.13,8.13,0,0,1,8.129,16.257Z" transform="translate(-1277.906 -1353.276)" fill="none" stroke="#231815" stroke-miterlimit="10" stroke-width="1"/>
    <path id="Stroke_115" data-name="Stroke 115" d="M8.129,16.257a8.128,8.128,0,1,1,8.129-8.128A8.13,8.13,0,0,1,8.129,16.257Z" transform="translate(-1277.906 -1331.871)" fill="none" stroke="#231815" stroke-miterlimit="10" stroke-width="1"/>
    <path id="Stroke_116" data-name="Stroke 116" d="M8.129,16.257a8.128,8.128,0,1,1,8.129-8.128A8.13,8.13,0,0,1,8.129,16.257Z" transform="translate(-1301.133 -1439.434)" fill="none" stroke="#231815" stroke-miterlimit="10" stroke-width="1"/>
    <path id="Stroke_117" data-name="Stroke 117" d="M8.129,16.257a8.128,8.128,0,1,1,8.129-8.128A8.13,8.13,0,0,1,8.129,16.257Z" transform="translate(-1301.133 -1418.03)" fill="none" stroke="#231815" stroke-miterlimit="10" stroke-width="1"/>
    <path id="Stroke_118" data-name="Stroke 118" d="M8.129,16.257a8.128,8.128,0,1,1,8.129-8.128A8.13,8.13,0,0,1,8.129,16.257Z" transform="translate(-1301.133 -1396.627)" fill="none" stroke="#231815" stroke-miterlimit="10" stroke-width="1"/>
    <path id="Stroke_119" data-name="Stroke 119" d="M8.129,16.257a8.128,8.128,0,1,1,8.129-8.128A8.13,8.13,0,0,1,8.129,16.257Z" transform="translate(-1301.133 -1375.222)" fill="none" stroke="#231815" stroke-miterlimit="10" stroke-width="1"/>
    <path id="Stroke_120" data-name="Stroke 120" d="M8.129,16.257a8.128,8.128,0,1,1,8.129-8.128A8.13,8.13,0,0,1,8.129,16.257Z" transform="translate(-1301.133 -1353.276)" fill="none" stroke="#231815" stroke-miterlimit="10" stroke-width="1"/>
    <path id="Stroke_121" data-name="Stroke 121" d="M8.129,16.257a8.128,8.128,0,1,1,8.129-8.128A8.13,8.13,0,0,1,8.129,16.257Z" transform="translate(-1301.133 -1331.871)" fill="none" stroke="#231815" stroke-miterlimit="10" stroke-width="1"/>
    <path id="Stroke_122" data-name="Stroke 122" d="M8.129,16.257a8.128,8.128,0,1,1,8.129-8.128A8.13,8.13,0,0,1,8.129,16.257Z" transform="translate(-1324.36 -1439.434)" fill="none" stroke="#231815" stroke-miterlimit="10" stroke-width="1"/>
    <path id="Stroke_123" data-name="Stroke 123" d="M8.129,16.257a8.128,8.128,0,1,1,8.129-8.128A8.13,8.13,0,0,1,8.129,16.257Z" transform="translate(-1324.36 -1418.03)" fill="none" stroke="#231815" stroke-miterlimit="10" stroke-width="1"/>
    <path id="Stroke_124" data-name="Stroke 124" d="M8.129,16.257a8.128,8.128,0,1,1,8.129-8.128A8.13,8.13,0,0,1,8.129,16.257Z" transform="translate(-1324.36 -1396.627)" fill="none" stroke="#231815" stroke-miterlimit="10" stroke-width="1"/>
    <path id="Stroke_125" data-name="Stroke 125" d="M8.129,16.257a8.128,8.128,0,1,1,8.129-8.128A8.13,8.13,0,0,1,8.129,16.257Z" transform="translate(-1324.36 -1375.222)" fill="none" stroke="#231815" stroke-miterlimit="10" stroke-width="1"/>
    <path id="Stroke_126" data-name="Stroke 126" d="M8.129,16.257a8.128,8.128,0,1,1,8.129-8.128A8.13,8.13,0,0,1,8.129,16.257Z" transform="translate(-1324.36 -1353.276)" fill="none" stroke="#231815" stroke-miterlimit="10" stroke-width="1"/>
    <path id="Stroke_127" data-name="Stroke 127" d="M8.129,16.257a8.128,8.128,0,1,1,8.129-8.128A8.13,8.13,0,0,1,8.129,16.257Z" transform="translate(-1324.36 -1331.871)" fill="none" stroke="#231815" stroke-miterlimit="10" stroke-width="1"/>
    <path id="Stroke_128" data-name="Stroke 128" d="M0,23.224H42.471L57.955,0H311.788" transform="translate(-1882.441 -1643.048)" fill="none" stroke="#231815" stroke-miterlimit="10" stroke-width="1"/>
    <path id="Fill_129" data-name="Fill 129" d="M5.822,11.643a5.821,5.821,0,1,1,5.822-5.821,5.823,5.823,0,0,1-5.822,5.821" transform="translate(-1887.972 -1625.646)" fill="#231815"/>
    <path id="Fill_130" data-name="Fill 130" d="M5.822,11.643A5.821,5.821,0,1,0,0,5.821a5.823,5.823,0,0,0,5.822,5.821" transform="translate(-1576.766 -1648.869)" fill="#231815"/>
    <path id="Stroke_131" data-name="Stroke 131" d="M49.655,0a108.312,108.312,0,0,1-28.55,102.826A108.56,108.56,0,0,1,0,119.29" transform="translate(-1064.209 -1137.227)" fill="none" stroke="#231815" stroke-miterlimit="10" stroke-width="1"/>
    <path id="Fill_132" data-name="Fill 132" d="M12.7,0,0,11.856,16.931,7.942Z" transform="translate(-1076.41 -1023.522)" fill="#231815"/>
    <path id="Stroke_133" data-name="Stroke 133" d="M40.259,20.127A20.13,20.13,0,1,1,20.13,0,20.128,20.128,0,0,1,40.259,20.127Z" transform="translate(-1443.57 -1207.992)" fill="none" stroke="#231815" stroke-miterlimit="10" stroke-width="1"/>
    <path id="Clip_90-2" data-name="Clip 90" d="M0,838H1205V0H0Z" transform="translate(-2210 -1775)" fill="none"/>
    <text id="_" data-name="˜" transform="translate(-1445 -1219)" fill="#323232" font-size="22.951" font-family="LucidaGrande, Lucida Grande"><tspan x="0" y="22">˜</tspan></text>
    <text id="_2" data-name="˚˛˝" transform="translate(-2208 -1748)" fill="#323232" font-size="9.786" font-family="LucidaGrande, Lucida Grande" letter-spacing="0.005em"><tspan x="0" y="9">˚˛˝</tspan></text>
    <path id="Stroke_135" data-name="Stroke 135" d="M0,9,7,0" transform="translate(-2203 -1740)" fill="none" stroke="#323232" stroke-miterlimit="10" stroke-width="0.75"/>
    <text id="_3" data-name="˚˙˝" transform="translate(-1307 -1745)" fill="#323232" font-size="9.786" font-family="LucidaGrande, Lucida Grande" letter-spacing="0.005em"><tspan x="0" y="9">˚˙˝</tspan></text>
    <path id="Stroke_137" data-name="Stroke 137" d="M0,9,7,0" transform="translate(-1302 -1737)" fill="none" stroke="#323232" stroke-miterlimit="10" stroke-width="0.75"/>
    <text id="_4" data-name="˚ˆ˝" transform="translate(-1621 -1623)" fill="#323232" font-size="9.786" font-family="LucidaGrande, Lucida Grande" letter-spacing="0.005em"><tspan x="0" y="9">˚ˆ˝</tspan></text>
    <path id="Stroke_139" data-name="Stroke 139" d="M0,9,7,0" transform="translate(-1617 -1614)" fill="none" stroke="#323232" stroke-miterlimit="10" stroke-width="0.75"/>
    <text id="_5" data-name="˛˚˝" transform="translate(-1079 -1521)" fill="#323232" font-size="9.786" font-family="LucidaGrande, Lucida Grande" letter-spacing="0.005em"><tspan x="0" y="9">˛˚˝</tspan></text>
    <path id="Stroke_141" data-name="Stroke 141" d="M0,9.009,7.724,0" transform="translate(-1059.068 -1512.414)" fill="none" stroke="#323232" stroke-miterlimit="10" stroke-width="0.75"/>
    <path id="Clip_143" data-name="Clip 143" d="M0,838H1205V0H0Z" transform="translate(-2210 -1775)" fill="none"/>
    <text id="_6" data-name="˚ˇ˝" transform="translate(-1044.004 -1229.177)" fill="#323232" font-size="9.786" font-family="LucidaGrande, Lucida Grande" letter-spacing="0.005em"><tspan x="0" y="9">˚ˇ˝</tspan></text>
    <path id="Stroke_144" data-name="Stroke 144" d="M0,9.009,7.722,0" transform="translate(-1040.111 -1220.594)" fill="none" stroke="#323232" stroke-miterlimit="10" stroke-width="0.75"/>
    <path id="Clip_143-2" data-name="Clip 143" d="M0,838H1205V0H0Z" transform="translate(-2210 -1775)" fill="none"/>
    <text id="_7" data-name="˚˘˝" transform="translate(-1397 -1449)" fill="#323232" font-size="9.786" font-family="LucidaGrande, Lucida Grande" letter-spacing="0.005em"><tspan x="0" y="9">˚˘˝</tspan></text>
    <path id="Stroke_146" data-name="Stroke 146" d="M0,9,7,0" transform="translate(-1392 -1441)" fill="none" stroke="#323232" stroke-miterlimit="10" stroke-width="0.75"/>
    <text id="_8" data-name="˚ ˝" transform="translate(-2206 -1478)" fill="#323232" font-size="9.786" font-family="LucidaGrande, Lucida Grande" letter-spacing="0.005em"><tspan x="0" y="9">˚ ˝</tspan></text>
    <path id="Stroke_148" data-name="Stroke 148" d="M0,9,7,0" transform="translate(-2201 -1470)" fill="none" stroke="#323232" stroke-miterlimit="10" stroke-width="0.75"/>
    <text id="_9" data-name="˚ ˝" transform="translate(-1442 -995)" fill="#323232" font-size="9.786" font-family="LucidaGrande, Lucida Grande" letter-spacing="0.005em"><tspan x="0" y="9">˚ ˝</tspan></text>
    <path id="Stroke_150" data-name="Stroke 150" d="M0,9,7,0" transform="translate(-1437 -986)" fill="none" stroke="#323232" stroke-miterlimit="10" stroke-width="0.75"/>
    <text id="_10" data-name="˚ ˝" transform="translate(-1929 -1245)" fill="#323232" font-size="9.786" font-family="LucidaGrande, Lucida Grande" letter-spacing="0.005em"><tspan x="0" y="9">˚ ˝</tspan></text>
    <path id="Stroke_152" data-name="Stroke 152" d="M0,9,7,0" transform="translate(-1924 -1235)" fill="none" stroke="#323232" stroke-miterlimit="10" stroke-width="0.75"/>
    <text id="_11" data-name="˚ ˝" transform="translate(-2206 -1025)" fill="#323232" font-size="9.786" font-family="LucidaGrande, Lucida Grande" letter-spacing="0.005em"><tspan x="0" y="9">˚ ˝</tspan></text>
    <path id="Stroke_154" data-name="Stroke 154" d="M0,9.009,7.724,0" transform="translate(-2202.239 -1016.189)" fill="none" stroke="#323232" stroke-miterlimit="10" stroke-width="0.75"/>
    <path id="Fill_156" data-name="Fill 156" d="M41.526,20.76A20.763,20.763,0,1,1,20.763,0,20.763,20.763,0,0,1,41.526,20.76" transform="translate(-1628.166 -1684.85)" fill="#f7f7f7"/>
    <path id="Stroke_158" data-name="Stroke 158" d="M41.526,20.76A20.763,20.763,0,1,1,20.763,0,20.763,20.763,0,0,1,41.526,20.76Z" transform="translate(-1628.166 -1684.85)" fill="none" stroke="#231815" stroke-miterlimit="10" stroke-width="0.5"/>
    <path id="Fill_160" data-name="Fill 160" d="M41.207,20.6A20.6,20.6,0,1,1,20.6,0a20.6,20.6,0,0,1,20.6,20.6" transform="translate(-1657.519 -1684.532)" fill="#c0e2aa"/>
    <path id="Fill_162" data-name="Fill 162" d="M50.042,25.018A25.021,25.021,0,1,1,25.021,0,25.018,25.018,0,0,1,50.042,25.018" transform="translate(-1090.558 -1719.685)" fill="#f7f7f7"/>
    <path id="Stroke_164" data-name="Stroke 164" d="M50.042,25.018A25.021,25.021,0,1,1,25.021,0,25.018,25.018,0,0,1,50.042,25.018Z" transform="translate(-1090.558 -1719.685)" fill="none" stroke="#231815" stroke-miterlimit="10" stroke-width="0.5"/>
    <path id="Fill_166" data-name="Fill 166" d="M49.657,24.824A24.828,24.828,0,1,1,24.829,0,24.827,24.827,0,0,1,49.657,24.824" transform="translate(-1125.929 -1719.3)" fill="#c0e2aa"/>
    <path id="Fill_168" data-name="Fill 168" d="M49.657,24.824A24.828,24.828,0,1,1,24.829,0,24.827,24.827,0,0,1,49.657,24.824" transform="translate(-1499.103 -1719.3)" fill="#323232"/>
    <path id="Fill_170" data-name="Fill 170" d="M41.207,20.6A20.6,20.6,0,1,1,20.6,0a20.6,20.6,0,0,1,20.6,20.6" transform="translate(-1690.545 -1685.136)" fill="#323232"/>
    <path id="Fill_172" data-name="Fill 172" d="M148.142,74.062A74.071,74.071,0,1,1,74.071,0a74.067,74.067,0,0,1,74.071,74.062" transform="translate(-2209.613 -1697.236)" fill="#f7f7f7"/>
    <path id="Stroke_174" data-name="Stroke 174" d="M148.142,74.062A74.071,74.071,0,1,1,74.071,0,74.067,74.067,0,0,1,148.142,74.062Z" transform="translate(-2209.613 -1697.236)" fill="none" stroke="#231815" stroke-miterlimit="10" stroke-width="0.5"/>
    <path id="Fill_176" data-name="Fill 176" d="M148.766,74.374A74.383,74.383,0,1,1,74.382,0a74.379,74.379,0,0,1,74.384,74.374" transform="translate(-2158.085 -1695.538)" fill="#c0e2aa"/>
    <path id="Fill_178" data-name="Fill 178" d="M148.768,74.374A74.384,74.384,0,1,1,74.384,0a74.379,74.379,0,0,1,74.384,74.374" transform="translate(-2083.718 -1695.538)" fill="#323232"/>
    <path id="Fill_180" data-name="Fill 180" d="M50.4,25.2A25.2,25.2,0,1,1,25.2,0,25.2,25.2,0,0,1,50.4,25.2" transform="translate(-2175.752 -1456.484)" fill="#f7f7f7"/>
    <path id="Stroke_182" data-name="Stroke 182" d="M50.4,25.2A25.2,25.2,0,1,1,25.2,0,25.2,25.2,0,0,1,50.4,25.2Z" transform="translate(-2175.752 -1456.484)" fill="none" stroke="#231815" stroke-miterlimit="10" stroke-width="0.5"/>
    <path id="Fill_184" data-name="Fill 184" d="M50.784,25.386A25.392,25.392,0,1,1,25.393,0,25.389,25.389,0,0,1,50.784,25.386" transform="translate(-2095.7 -1456.433)" fill="#c0e2aa"/>
    <path id="Fill_186" data-name="Fill 186" d="M50.783,25.386A25.391,25.391,0,1,1,25.391,0,25.389,25.389,0,0,1,50.783,25.386" transform="translate(-2058.759 -1456.433)" fill="#323232"/>
    <path id="Fill_188" data-name="Fill 188" d="M50.4,25.2A25.2,25.2,0,1,1,25.2,0,25.2,25.2,0,0,1,50.4,25.2" transform="translate(-1587.345 -993.561)" fill="#323232"/>
    <path id="Fill_190" data-name="Fill 190" d="M50.784,25.386A25.392,25.392,0,1,1,25.393,0,25.389,25.389,0,0,1,50.784,25.386" transform="translate(-1532.068 -993.509)" fill="#c0e2aa"/>
    <path id="Fill_192" data-name="Fill 192" d="M50.784,25.386A25.392,25.392,0,1,1,25.393,0,25.389,25.389,0,0,1,50.784,25.386" transform="translate(-1498.225 -993.509)" fill="#f7f7f7"/>
    <path id="Stroke_194" data-name="Stroke 194" d="M50.784,25.386A25.392,25.392,0,1,1,25.393,0,25.389,25.389,0,0,1,50.784,25.386Z" transform="translate(-1498.225 -993.509)" fill="none" stroke="#231815" stroke-miterlimit="10" stroke-width="0.5"/>
    <path id="Fill_196" data-name="Fill 196" d="M.017,32.737A33.785,33.785,0,1,1,32.741,67.546,33.784,33.784,0,0,1,.017,32.737" transform="translate(-1926.454 -1176.45)" fill="#323232"/>
    <path id="Fill_198" data-name="Fill 198" d="M67.752,33.872A33.876,33.876,0,1,1,33.877,0,33.874,33.874,0,0,1,67.752,33.872" transform="translate(-1858.679 -1176.382)" fill="#f7f7f7"/>
    <path id="Stroke_200" data-name="Stroke 200" d="M67.752,33.872A33.876,33.876,0,1,1,33.877,0,33.874,33.874,0,0,1,67.752,33.872Z" transform="translate(-1858.679 -1176.382)" fill="none" stroke="#231815" stroke-miterlimit="10" stroke-width="0.5"/>
    <path id="Fill_202" data-name="Fill 202" d="M67.752,33.872A33.876,33.876,0,1,1,33.877,0,33.874,33.874,0,0,1,67.752,33.872" transform="translate(-1790.815 -1176.382)" fill="#c0e2aa"/>
    <path id="Fill_204" data-name="Fill 204" d="M.014,27.255A28.127,28.127,0,1,1,27.257,56.233,28.125,28.125,0,0,1,.014,27.255" transform="translate(-1223.462 -1583.031)" fill="#323232"/>
    <path id="Fill_206" data-name="Fill 206" d="M.014,27.255A28.127,28.127,0,1,1,27.257,56.233,28.125,28.125,0,0,1,.014,27.255" transform="translate(-1135.201 -1403.435)" fill="#f7f7f7"/>
    <path id="Stroke_208" data-name="Stroke 208" d="M.014,27.255A28.127,28.127,0,1,1,27.257,56.233,28.125,28.125,0,0,1,.014,27.255Z" transform="translate(-1135.201 -1403.435)" fill="none" stroke="#231815" stroke-miterlimit="10" stroke-width="0.5"/>
    <path id="Fill_210" data-name="Fill 210" d="M56.4,28.2A28.2,28.2,0,1,1,28.2,0,28.2,28.2,0,0,1,56.4,28.2" transform="translate(-1173.969 -1583.106)" fill="#f7f7f7"/>
    <path id="Stroke_212" data-name="Stroke 212" d="M56.4,28.2A28.2,28.2,0,1,1,28.2,0,28.2,28.2,0,0,1,56.4,28.2Z" transform="translate(-1173.969 -1583.106)" fill="none" stroke="#231815" stroke-miterlimit="10" stroke-width="0.5"/>
    <path id="Fill_214" data-name="Fill 214" d="M56.4,28.2A28.2,28.2,0,1,1,28.2,0,28.2,28.2,0,0,1,56.4,28.2" transform="translate(-1104.289 -1403.511)" fill="#323232"/>
    <path id="Fill_216" data-name="Fill 216" d="M.014,27.255A28.127,28.127,0,1,1,27.257,56.233,28.125,28.125,0,0,1,.014,27.255" transform="translate(-1195.59 -1076.757)" fill="#323232"/>
    <path id="Fill_218" data-name="Fill 218" d="M56.4,28.2A28.2,28.2,0,1,1,28.2,0,28.2,28.2,0,0,1,56.4,28.2" transform="translate(-1129.064 -1084.573)" fill="#f7f7f7"/>
    <path id="Stroke_220" data-name="Stroke 220" d="M56.4,28.2A28.2,28.2,0,1,1,28.2,0,28.2,28.2,0,0,1,56.4,28.2Z" transform="translate(-1129.064 -1084.573)" fill="none" stroke="#231815" stroke-miterlimit="10" stroke-width="0.5"/>
    <path id="Fill_222" data-name="Fill 222" d="M56.4,28.2A28.2,28.2,0,1,1,28.2,0,28.2,28.2,0,0,1,56.4,28.2" transform="translate(-1112.091 -1583.106)" fill="#c0e2aa"/>
    <path id="Fill_224" data-name="Fill 224" d="M56.4,28.2A28.2,28.2,0,1,1,28.2,0,28.2,28.2,0,0,1,56.4,28.2" transform="translate(-1466.683 -1403.511)" fill="#c0e2aa"/>
    <path id="Fill_226" data-name="Fill 226" d="M56.4,28.2A28.2,28.2,0,1,1,28.2,0,28.2,28.2,0,0,1,56.4,28.2" transform="translate(-1104.349 -1109.345)" fill="#c0e2aa"/>
    <path id="Fill_228" data-name="Fill 228" d="M56.566,56.56a33.134,33.134,0,1,1,0-46.856,33.141,33.141,0,0,1,0,46.856" transform="translate(-2188.185 -1148.567)" fill="#c0e2aa"/>
    <path id="Fill_230" data-name="Fill 230" d="M55.059,58.262a33.223,33.223,0,1,1,3.21-46.87,33.229,33.229,0,0,1-3.21,46.87" transform="translate(-2154.206 -1114.373)" fill="#323232"/>
    <path id="Fill_232" data-name="Fill 232" d="M56.718,56.712a33.223,33.223,0,1,1,0-46.981,33.23,33.23,0,0,1,0,46.981" transform="translate(-2142.421 -1102.59)" fill="#f7f7f7"/>
    <path id="Stroke_234" data-name="Stroke 234" d="M56.718,56.712a33.223,33.223,0,1,1,0-46.981A33.23,33.23,0,0,1,56.718,56.712Z" transform="translate(-2142.421 -1102.59)" fill="none" stroke="#231815" stroke-miterlimit="10" stroke-width="0.5"/>
    <path id="Stroke_236" data-name="Stroke 236" d="M0,.774H308.643" transform="translate(-1715.161 -943.596)" fill="none" stroke="#231815" stroke-miterlimit="10" stroke-width="1"/>
    <path id="Fill_238" data-name="Fill 238" d="M5.822,11.643a5.821,5.821,0,1,1,5.822-5.821,5.823,5.823,0,0,1-5.822,5.821" transform="translate(-1720.692 -948.643)" fill="#231815"/>
    <path id="Fill_240" data-name="Fill 240" d="M5.822,11.643A5.821,5.821,0,1,0,0,5.821a5.823,5.823,0,0,0,5.822,5.821" transform="translate(-1412.632 -948.643)" fill="#231815"/>
    <path id="Stroke_242" data-name="Stroke 242" d="M65.513,6.93A108.357,108.357,0,1,1,0,139.9" transform="translate(-1246.444 -1233.218)" fill="none" stroke="#231815" stroke-miterlimit="10" stroke-width="1" stroke-dasharray="4 4"/>
    <path id="Fill_244" data-name="Fill 244" d="M7.947,11.242a5.821,5.821,0,1,1,3.3-7.543,5.821,5.821,0,0,1-3.3,7.543" transform="translate(-1186.459 -1232.156)" fill="#231815"/>
    <path id="Fill_246" data-name="Fill 246" d="M11.425,4.235A5.822,5.822,0,1,0,7.41,11.423a5.824,5.824,0,0,0,4.015-7.188" transform="translate(-1252.148 -1098.87)" fill="#231815"/>
    <path id="Clip_249" data-name="Clip 249" d="M0,838H1205V0H0Z" transform="translate(-2210 -1775)" fill="none"/>
    <path id="Stroke_250" data-name="Stroke 250" d="M45.679,8.782v16.69A8.78,8.78,0,0,1,36.9,34.255H15.246L8.783,42.334V34.255A8.78,8.78,0,0,1,0,25.472V8.782A8.779,8.779,0,0,1,8.783,0H36.9A8.779,8.779,0,0,1,45.679,8.782Z" transform="translate(-1990.169 -1760.486)" fill="none" stroke="#231815" stroke-miterlimit="10" stroke-width="1"/>
    <path id="Stroke_251" data-name="Stroke 251" d="M45.679,8.782v16.69A8.78,8.78,0,0,1,36.9,34.255H15.246L8.783,42.334V34.255A8.78,8.78,0,0,1,0,25.472V8.782A8.779,8.779,0,0,1,8.783,0H36.9A8.779,8.779,0,0,1,45.679,8.782Z" transform="translate(-2076.881 -1512.767)" fill="none" stroke="#231815" stroke-miterlimit="10" stroke-width="1"/>
    <path id="Stroke_252" data-name="Stroke 252" d="M45.679,8.782v16.69A8.78,8.78,0,0,1,36.9,34.255H15.246L8.783,42.334V34.255A8.78,8.78,0,0,1,0,25.472V8.782A8.779,8.779,0,0,1,8.783,0H36.9A8.779,8.779,0,0,1,45.679,8.782Z" transform="translate(-2093.914 -1164.414)" fill="none" stroke="#231815" stroke-miterlimit="10" stroke-width="1"/>
    <path id="Stroke_253" data-name="Stroke 253" d="M45.679,8.782v16.69a8.78,8.78,0,0,1-8.784,8.783H15.246L8.784,42.334V34.255A8.78,8.78,0,0,1,0,25.472V8.782A8.78,8.78,0,0,1,8.784,0h28.11A8.78,8.78,0,0,1,45.679,8.782Z" transform="translate(-1451.312 -1457.031)" fill="none" stroke="#323232" stroke-miterlimit="10" stroke-width="0.75"/>
    <path id="Stroke_254" data-name="Stroke 254" d="M45.679,8.782v16.69a8.78,8.78,0,0,1-8.784,8.783H15.246L8.784,42.334V34.255A8.78,8.78,0,0,1,0,25.472V8.782A8.78,8.78,0,0,1,8.784,0h28.11A8.78,8.78,0,0,1,45.679,8.782Z" transform="translate(-1088.977 -1774.42)" fill="none" stroke="#323232" stroke-miterlimit="10" stroke-width="0.75"/>
    <path id="Stroke_255" data-name="Stroke 255" d="M45.679,8.782v16.69a8.78,8.78,0,0,1-8.784,8.783H15.246L8.784,42.334V34.255A8.78,8.78,0,0,1,0,25.472V8.782A8.78,8.78,0,0,1,8.784,0h28.11A8.78,8.78,0,0,1,45.679,8.782Z" transform="translate(-1520.992 -1048.296)" fill="none" stroke="#323232" stroke-miterlimit="10" stroke-width="0.75"/>
    <path id="Stroke_256" data-name="Stroke 256" d="M0,8.782v16.69a8.78,8.78,0,0,0,8.784,8.783H30.433l6.462,8.079V34.255a8.78,8.78,0,0,0,8.784-8.783V8.782A8.78,8.78,0,0,0,36.895,0H8.784A8.78,8.78,0,0,0,0,8.782Z" transform="translate(-1143.173 -1642.82)" fill="none" stroke="#323232" stroke-miterlimit="10" stroke-width="0.75"/>
    <path id="Stroke_257" data-name="Stroke 257" d="M0,8.782v16.69a8.78,8.78,0,0,0,8.784,8.783H30.433l6.462,8.079V34.255a8.78,8.78,0,0,0,8.784-8.783V8.782A8.78,8.78,0,0,0,36.895,0H8.784A8.78,8.78,0,0,0,0,8.782Z" transform="translate(-1136.979 -1169.058)" fill="none" stroke="#323232" stroke-miterlimit="10" stroke-width="0.75"/>
    <path id="Stroke_258" data-name="Stroke 258" d="M0,8.782v16.69a8.78,8.78,0,0,0,8.783,8.783h21.65L36.9,42.334V34.255a8.78,8.78,0,0,0,8.783-8.783V8.782A8.779,8.779,0,0,0,36.9,0H8.783A8.779,8.779,0,0,0,0,8.782Z" transform="translate(-1918.941 -1286.724)" fill="none" stroke="#323232" stroke-miterlimit="10" stroke-width="0.75"/>
    <path id="Stroke_259" data-name="Stroke 259" d="M0,8.782v16.69a8.78,8.78,0,0,0,8.783,8.783h21.65l6.462,8.079V34.255a8.78,8.78,0,0,0,8.784-8.783V8.782A8.78,8.78,0,0,0,36.895,0H8.783A8.779,8.779,0,0,0,0,8.782Z" transform="translate(-1672.739 -1738.81)" fill="none" stroke="#323232" stroke-miterlimit="10" stroke-width="0.75"/>
    <path id="Clip_249-2" data-name="Clip 249" d="M0,838H1205V0H0Z" transform="translate(-2210 -1775)" fill="none"/>
  </g>
</svg>
