<svg xmlns="http://www.w3.org/2000/svg" xmlns:xlink="http://www.w3.org/1999/xlink" width="563" height="875" viewBox="0 0 563 875">
  <defs>
    <clipPath id="clip-path">
      <path id="Clip_42" data-name="Clip 42" d="M0,0H27V22H0Z" transform="translate(0)" fill="none"/>
    </clipPath>
    <clipPath id="clip-path-2">
      <path id="Clip_75" data-name="Clip 75" d="M0,0H9V4H0Z" fill="none"/>
    </clipPath>
  </defs>
  <g id="taiwan" opacity="0.4">
    <path id="Fill_1" data-name="Fill 1" d="M40,9.466l-.749,1.972-2.037,2.941-1.175.674L34,13.708,31.652,14.8l-2.431,3.109-.311,1.85.472,1.512,2.74,1.6.862,1.847-.783,1.6-5.484,2.6L23.972,29l-2.663-.5L18.1,25.053l-2.35-.756-2.817-.338-2.509-2.351L8.3,21.354,6.426,18.834,5.171,17.741,3.84,14.211l.077-1.847L.939,10.6,0,8.243.939,7.4l2.978-.758L4.936,5.551l1.805-.082L8.932,4.8l2.822-1.43,3.761-1.43,1.1-.756L17,0l.2,2.071,1.955-.327,3.049.523,2.253,1.505,2.079.131.3,1.242-.06,3.012,2.378-2.948L28,3.316,29.033,2.4h1.034L32.51,5.082l1.155-.062L34.4,6.391l1.283.456L36.043,6l2.5.065-.611,1.766.247.982Z" transform="translate(483 122)" fill="#c0e2aa"/>
    <path id="Fill_3" data-name="Fill 3" d="M100.433,81.592,102,83.859,101.938,86l-.821,1.312L98.472,89.04l.821,3.867-.317,3.59-1,2.141-1.893,2.212-4.409,3.8-1.763,1.725-1.827.689-1.765,3.383-2.769,2.692-1.353,3.357-1.042,1.265-2.08.9H75.545L72.459,119l-1.838-.243-.683-1.344-.5-5.383-1.7-1.725-1.387-2.483-1.51-.966-3.088-3.039-.253-1.864-.693-.9-1.51-.623-1.638.139-3.024,1.519-11.78-.068-4.22.761-3.715,1.31-3.652-.552-1.7-1.243V99.327l.693-1.723,1.01-1.382.566-1.864L30.319,91.32l-1.261-.83.064-1.173,1.134-3.387,1.07-1.45L32.27,81.3,31.2,78.61l-.817-1.16-1.323-.968-.817-1.591-1.891-.275-1.261.55-1.07-.134L22.444,73.44l-1.889-.968L19.107,71.09l-1.512-.759-.819-1.243-2.205-1.937L12.3,65.975l-1.827-2.764-.883-1.937L8.586,59.892,7.58,59.479l.5-1.523L9.343,57.2l.63-1.246L8.964,54.707l-2.016.068L4.366,56.228,1.153,55.121,0,53.756l.406-.19,1.131-1.493.681-1.826L2.6,48.006l2.265-2.655,1.74-1L7.661,42.61l.98-.913,1.742-.164,1.51-.668.906-1.41,1.363-.58,1.51.911,1.059,1.248,2.8,2.156h1.057l.379-1.826-.6-1.992-.453-3.238L17.182,30.57l-2.869-1.992L12.422,28l-1.285-1.414-3.781-.994L3.2,25.255l-1.3-2.348.938-2.216V19.462l-.823-.388,1.174-1.615,1.533-3.172.825-2.519L8.254,8.6,7.786,7.369l.53-1.941L11.14,1.657l2.516.282.883-.83,1.638-.7L17.563.97l2.142.139,1.134-.7L22.727,0l1.638.693L26.127,2.08l.379,1.661,1.01,2.08-.757,2.216,2.646,1.8,3.654,1.386,1.51,1.246,2.269-1.026,1.385,1.111.253,1.523,1.387.968,7.431-.139,1.134,1.246.381,2.493L47.8,20.861l-1.008,1.523.5,1.523,2.52.416,1.259,1.939,6.425,4.43,3.277,3.046,2.267-.141,3.148-.83,1.136.552,2.142,2.355.755,2.491L73.5,40.238l2.393.416,2.016.693,1.387,2.214.125,1.934-.755.832L78.286,50.2l1.761,2.075-1.761,3.735.125,1.934,2.769-.689,1.512.137,3.15,2.073,1.136,1.659.249,1.8,1.263,1.107,2.14.552L90.5,66.656l-1.01,3.455V71.5l3.026,1.657-1.259,3.732.753,2.21,1.765,1.8,2.52,1.934,2.518-.552Z" transform="translate(337 175)" fill="#c0e2aa"/>
    <path id="Fill_5" data-name="Fill 5" d="M11.862,1.716l1.3,2.207,4.173.313,3.8.934L22.423,6.5l1.9.545L27.2,8.919l2.734,5.228.455,3.045L31,19.064l-.38,1.718H29.558L26.75,18.755l-1.061-1.173-1.518-.858-1.369.547-.91,1.325-1.516.625-1.749.156-.985.856-1.064,1.642-1.745.934-2.277,2.5-.38,2.105-.683,1.718-1.136,1.4L9.29,31,6.862,29.364l-.38-1.638L5.042,25.932H3.9l-1.439.78L.942,26.79,0,25.266l3.291-1.393,1.363-1.095L5.126,21.5l-.06-2.37,1.3-.06.416-.668.412-2.977.117-4.675L7.18,8.991l-1.346.3L5.008,8.021,6.723,4.19,7.785,3.037,9.85,0l.888,1.638Z" transform="translate(326 199)" fill="#c0e2aa"/>
    <path id="Fill_7" data-name="Fill 7" d="M106,104.7l-1.777.921h-1.774l-1.267.551-1.648,1.8-1.4,6.093L96.869,116l-.76,1.8-2.282,3.185-3.93,2.767-1.65.694L85.71,125l-2.534-1.938-1.777-1.8-.76-2.213,1.269-3.739-3.046-1.662v-1.384l1.017-3.461L80,106.726l-2.151-.555-1.271-1.107-.25-1.8L75.185,101.6l-3.168-2.077L70.5,99.387l-2.789.69-.124-1.938L69.355,94.4,67.582,92.32l.379-3.88.76-.833-.128-1.938L67.2,83.452l-2.029-.7-2.408-.414-3.3-2.079-.76-2.493-2.158-2.359-1.141-.553-3.168.831-2.284.139-3.3-3.049L40.192,68.34,38.925,66.4l-2.536-.417-.507-1.525L36.9,62.933l1.015-2.22-.381-2.5-1.141-1.248-7.481.139-1.393-.97-.255-1.525-1.4-1.113-2.282,1.028-1.52-1.248-3.68-1.389-2.661-1.8.762-2.222-1.017-2.081-.381-1.664-1.774-1.389-1.648-.694-1.9.414-1.141.694-2.155-.137-1.4-.558-1.648.694-.888.833L0,43.7l1.068-.891.116-1.425.711-.906,1.421-.647,1.768-2.8,1.667-1.54.533-1.169.235-2.594-.235-.778.888-.974.711-2.333,1.9-2.984,3.844-4.668,3.022-1.491,2.13-.453L21.375,17l2.6-2.467,2.19-1.427,1.184-.13,1.364-.842,2.367-.325,3.433-1.3,2.016-.128L40.381,8.7,42.1,7.272l2.07-.587,2.962-2.2,2.727-1.491,3.311-.523.593-.778,1.124.519L56.6.649,58.911,0l1.541.258.353.716,2.072.258.661.869,1.522,1.889,1.826,1.444,4.97,1,2.233,1.335,2.027.889,1.117,2.111.608,1.891.811,1.109,4.566.671,3.144.111,1.419.889L88.8,17.552l-.306,1.777.306,2.446,1.623,1,.507,1-.407,1.113L88.491,26l.811,1.557L89.2,29l-1.723,1.331-1.52.446-1.017,1.886-1.52,1.557H73.989l-.61,1.222.407,1.331.2,4.33-1.017,1.222-.3,1.777.3,1.444,2.13.667-.3,1.109-1.216,1.222-.61,1.331.3,1.444,1.522,2.22,1.423.887,1.216,1.886.809,2.553.1,1.886,1.316,1.664-.4.669-1.826.331.2,1.043,3.142,1.109,2.031,1.109h2.23l1.723-.662H88.9l2.635,1.107,1.522,1.444L94.985,71l1.723,1.664.914,2.551L98.735,77.1l.916.667-.407,1.773-1.419,1.553-2.132,1.773-.709,1.773.306,2.66,1.417,2.329,3.448,6.873,2.029,2.329,1.524.662,1.417,1.442-.1,2.66Z" transform="translate(345 133)" fill="#c0e2aa"/>
    <path id="Fill_9" data-name="Fill 9" d="M0,20.7l1.384-.325,1.3-.216.8-4.011,1.9-1.84,1.994-2.927,2.9-3.36,1.9-.435,2.6-1.948L17.35,4.553l.3-1.191,2.2-1.953L20.842,0l1.1.652.7,1.734.9.541,2.1.435,1,.868-.5,2.6.5,1.734,1.2.866.3,2.277-.3,1.515.9,1.409,1.8,1.734.8,1.191-1.3,1.844-.3,1.842,1.9,1.407,1.794.649,1.9,1.409.7,1.515.1,1.953-.4,1.407-1.992,2.381v1.085l1.6,2.057-1.2.649-.2.974,2.392,2.275,2.5,1.407,1.3-.327,2.2.327.7.866-.6.866h-2l-4.892.433-3.494-.219-1.893,1.518-.5,1.3v1.948l.7,2.273v2.706l2,1.946-.5,1.734L29.425,56l-2.594-.974H22.939l-2.1-1.513-1.3-2.492-2.1-.647-1.794-1.189-1-4.548-1.7-2.057h-1.5l-1.3,1.624-1.8.756-1.5-1.08-.3-3.031.2-1.518,3.1-3.139.2-4.115-.1-2.923L8.272,26.445l-1.6-1.626L3.879,24.6.884,22.979l-.7-.76Z" transform="translate(446 113)" fill="#c0e2aa"/>
    <path id="Fill_11" data-name="Fill 11" d="M105.11,10.789l1.054,3.413,1.7,4.323.25,1.881-1,3.068-1.066.49-.816,1.809-.125,3.84.25,1.673,1.13.9.316,1.532v2.44l-1.2,2.785-.439,1.744-.816,1.029-.564,1.742-.5,4.668.125,1.53.818.353,1.755-2.16,1.382.418.189,1.881.816,1.742,3.953,1.6,1.823-.7,2.576-1.95,2.071-.072,1-.624.63-1.183.88-.349,1.757.349L124,50.29l.3,2.134-1.056,2.043,1.444,2.3L125,60.737l-.943,1.114-1.255.418-1.632-.7L119.6,60.46h-1.948l-1.316.557-3.705-.21-1.13-.975-2.573,1.322-1.446.418-.753-1.6-.127-2.089-1.884-.906-1.441.418-2.007,1.463-1.948.7L93.8,59.411,90.4,58.369l-2.51-.488-3.7-1.6L81.05,54.468l-2.2-2.438-1.441-1.948-.189-1.74-1.13-1.4L74.585,45.9l-3.014.973-1.319.836-5.336.349-1.759.49L60.52,49.8,56.88,48.13,55,47.991,52.486,49.1l-1.509,2.858-3.642,1.6-.5,1.4-1.257,1.32-3.7.908-.88,1.322L39.8,61.987l-3.012.074-1.946.693L32.2,65.262l-.439,1.812-.939,1.183-1.571.834-1.882,2.087-1.632-.763-.568-1.463-1-.557-1.13.49-.814,1.391-.127,3.27-.625,1.948-.818,1.114L16.95,77l-3.705-1.6-2.637.072-.941.626-1.757-.072-1.382-.7-.753-1.044L2.51,74.144l-.986-.451L1.35,72.176l.82-.132-.059-1.753L.176,67.626,0,63.853l.647-.78L.82,61.448l-.585-.323L.409,50l-.29-.522.35-3.058,1-2.405.88-1.365,1.174-3.968,1.7-3.58L6.332,33.93l1.583-2.342,2.347-.652-3.93-.847.059-1.627,1.056-6.9.528-1.432,1.348.065V18.631H8.5l-1.056-1.3L8.21,15.7l-.587-.524,1.995-4.622L9.91,8.991,9.439,7.818l-1.817.323L8.971,6.189l3.809-2.6,1.176-1.237.644,1.04,2.228.979.409.975,1.117-1.5,1.874-1.235,3.048.52.647-1.567L24.1,0l1.408.132-.119,1.04,2.014.065,4.469,1.118,2.637,1.09,6.33-.583,4.6-.169,2.709-1.088,9.643.334L60.2,1.521l.9-.67,2.186,1.76,1.658.583,4.6,1.174,6.781,3.764,13.56-.251L95,9.138Z" transform="translate(167 431)" fill="#c0e2aa"/>
    <path id="Fill_13" data-name="Fill 13" d="M8.137,1.978,9.724.771,11.807,0l1.587.878,1.189,2.305,1.589.991,2.678-.44,1.29.549.793,1.1,1.388.985.5,1.647L25,9.662l-.595,1.425-1.093,1.318-1.091.329-.7,1.647-1.189.436-2.382-.767-1.287-.989-2.38,2.414L13.2,17.562,10.913,18l-2.38-2.741-.992-1.867-2.083-.878H2.183l-.99-.331.693-2.192.1-1.429L0,6.368V5.492l.992-.987,2.579-.44,1.687.44Z" transform="translate(220 507)" fill="#c0e2aa"/>
    <path id="Fill_15" data-name="Fill 15" d="M.041,79.175l1.241-.157,1.624-2.113.3-1.786.659-1.3.306-2.924.912-3.2.556-.758-.25-2.007L3.411,62.222H2.348L2.4,49.93l.253-2.765L3.308,44.4l1.472-1.627.961-2.982-.049-3.852.71-1.3.152-11.891.914-2.606,1.316-4.723.76-4.723,1.522-1.028,1.419.051,1.166.815,1.066-.055L16.9,12.213l2.382.11,2.791-1.145,1.875.11,1.776.869,2.129.166,2.482-1.848,1.318-1.79.659-1.737,1.117-1.14,3.041-1.9L39.917.977,42.705.813,45.239.161,47.574,0,48.89.6,49.7,2.062l.407,2.119,1.218.758,1.569.11,3.3-.815,1.519-.926.71-1.463L59.791.108l3.854.217,1.774.433,4.714,2.88,3.754,5.05,1.419,1.3h1.522l1.012-.652,2.333-2.389,1.243-.488,2.433-2.387,2.129-.219L87.4,4.4l1.877,1.521,1.774-.652L93.616,7.2,94.4,11.13l-.051,2.5.559,1.14,1.825,1.083,2.634.164,1.421.979.659,1.03v4.56l.556.869-.809.977L100.735,26V30.18l-1.421,2.873-.152,2.223-1.571,2H90.823l-1.166.977-1.269,2.875-.86,1.085-3.6.758-3.2,1.194-1.622-.164-.862.7v1.183l-1.47,1.952-.708,2.493-3.246,4.608-.809,2.765-1.928,2.6v4.122L68.614,66.6l.507,2.438-2.027,4.6-.253,1.508,2.232,3.793.253,2.219,1.725,2.816.657,1.516.051,2.652L71.4,89.554l-1.269.866-.86,1.244.2,1.841.559,1.083-.15,1.187,1.875,1.465,2.131,2.65,2.382,2.491,1.064,2.425-1.622,2.056-2.534.219-1.522.539L69.175,114.6l-.659,1.028.049,1.676,1.218.864,2.536,2.544,2.33,1.026,1.269.053.71,1.244,2.027,1.839.2,4.543-2.129,1.512-.353.811,3.852,3.882.61,1.408-1.117,2.054.1,1.784,1.269.484h1.828l3.343,1.731,1.673,1.729,3.45.595,3.193,2.92L96,148.165l2.384-1.567,2.123-.325.24,2.041-1.006,1.828-.06,1.266.588,1.954-.12,1.578L98.9,156.263l.24,3.154.471,1.261-.471,2.209.533,1.574-.475,2.527.946.881-.3,1.261-1.9,1.389v1.888l.83,2.71.593.758,1.954.756-.591.754-.12,1.828L99.2,180.98l-.058,2.459.413.82.06,5.352,1.421,3.279-2.6,2.143v1.7l-2.251,1.132-.3,2.774-4.674,2.391-1.958.569-.175,1.635.415,1.639-1.01,3.022.653,3.719,1.956,2.895,1.834,3.209-.118,1.7,1.241,1.635L92.809,224H91.033l-.948-.818-.531-3.275-1.186.066-1.361-.945-.415-1.2-1.716-1.574-.593-1.07-1.183.444-1.3-.13-1.3-1.51-2.307-.881-2.074.125L75.051,212.1l-1.6-.692-.708-1.321-1.365-.253-1.006,1.2-1.3.5-.888,1.89.293,2.708-1.421,1.007L67,218.776l-2.606.444-.646-.378-1.305-1.95-.355-1.578-1.123.319-.357-.881.473-4.347-.058-2.015.708-1.323v-1.321l-.651-1.58-.948-.879-.413-1.51-.888-.251L57.587,200.2l-1.894-4.281-.238-2.332.946-1.512,1.243-.692-.357-2.015.71-1.45,1.421.062.475-.754.058-2.018-.946-2.963.413-1.323.948-.064,1.776-1.325-.413-3.026-1.3-3.026.178-.943-1.776-2.018.235-.756L58,168.752l.533-2.081-.888-1.323.12-1.767-.653-1.705-.178-1.954-1.066-2.461-.591-.629-.3-1.7.533-1.7-2.307-4.039-.948-2.334-2.012-2.145-2.431-1.831-.175-.442.593-3.033-1.008-3.154-.888-1.954-.06-2.529L44.918,129.5l-3.67-3.85-2.664-2.272-1.3-3.156-.944-1.389-.71-.253L34.5,116.563l-6.336-4.676-5.8-3.409-4.738-2.34-3.313-2.147-1.836-.758L9.992,101.78,6.559,99.253l-.888-.444L3.186,95.965,1.941,94.194l-.3-1.325L0,92.049Z" transform="translate(228 651)" fill="#c0e2aa"/>
    <path id="Fill_17" data-name="Fill 17" d="M131.979,42.036l1.207.636L134,43.926v1.308l-1.937,2.779-1.276,1.363-.712,4.2L126.4,57.486l-1.072,1.391-1.147.487-1.756,1.557L119.9,64.595l-.536,1.963-.075,2.124-.613,1.308-.3,1.958-1.532,1.471L116,75.052l-2.217.327-2.83,3.266-1.225.408-6.042,5.227-.766,2.043-2.064,1.714L96.721,91.06l-1.683,2.858-2.372.245-1.072.734L91.443,98l-2.91,2.039-.226,1.552-.611.98L86.2,106.193l-.536,2.284-1.683,1.552-.383,1.14v2.039H80.847l-1.375-.651H76.181l-1.681.978-3.138,3.836L68.609,119h-5.28l-1.987-.57-1.911-.162-4.055-.9-1-.736-1.223.406-1.3,1.389-1.683-1.059H45.66l-1.913-2.2-4.974-.653-3.4-1.308-2.318-.287L30.9,114.313l-.411-.189.411-3.173V108.6l-.652-2.6L28.278,102.5l-.773-2.033L26.076,98.5l-1.608-1.716-4.821-4.508L16.61,89.8,9.823,85.731l-1.789-.444.181-2.354L7.5,82.424,5.415,83.76,3.93,81.41l1.306-.444.538-1.021L4.524,76.579,0,76.515l.773-3.753L.654,71.174l4.882-3.368,3.158-1.529,2.316-.189.6-2.418-.476-1.844-1.087-.691-.613-1.2L8.978,57l-.461-1.148L7.292,54.486l.155-1.905.768-.608L9.823,49.04l1.13-3.119.215-5.082,1.511-.9,1.429-.255.478-1.467,1.248-1.529.3-2.924,1.548-.893,1.074-1.08-.142-.712-2.243-1.639-.2-1.363,1.1-1.061v-.763L16.016,25.3l1.306-2.163L18.4,19.756l1.369,1.082,1.548.13,2.083-.7,2.68,2.439,2.656.87,2.329,2.73,1.427,1.2,1.225-.108.3-1.2.921.111,1.02.98,2.5.217,2.346-.872.816-1.418.814-2.507,1.532-2.075,2.142-1.2,2.652-.544.611-1.2V15.172l.919-.653L53.45,14.3l.611-1.2.306-2.513L55.182,9.5l3.47-.549,1.225-2.292h2.65l3.366-1.852,2.142-1.529,2.551-.982,4.49-.108,1.935-.546L78.131.657,80.275.108,82.823,1.42l1.939-.108L87.21,0l1.735.438,5.607,4.368L97.92,4.7l1.225-.655,1.02,1.856-.51.874L97.207,8.625l.1,1.856.611.765,4.589-.2.816.876-2.142,2.507.613.982,3.263,1.2,1.631.219,1.326,1.963-.306,1.967-2.243,3.6-.2,4.363.1,2.837,1.121,1.529.611,3.158-.51,1.529-1.223.761-.2,2.511,1.124,1.091,3.263.436,2.142.761,1.326,1.416,3.674-.217,2.243-2.724,1.429-.438,2.139.219,1.225,1.091,2.142.217.917-.544,2.551-.327Z" transform="translate(143 529)" fill="#c0e2aa"/>
    <path id="Fill_19" data-name="Fill 19" d="M158,3.245l-1.344,3.149-.526,3.26h-.583l-.761,1.984-.7,4.472.294,1.666-.294,1.852-.936,1.854.059,3-.353,2.3-.813,1.278v.958l-1.519-.254-1.813,1.212-3.452,5.366-.642,1.852.059,2.686-.877.384-.7,2.106v1.15l-.993,4.79,1.168.764-2.043,2.62-1.578.254-1.056,1.15-.526,1.788.526,3.512,1.17,1.722-.177,1.15.879.7.173,1.344-.875,2.554-.818.51-.353,2.87.7,1.786,2.221,1.662-1.576,1.852-1.756-.452-.408,1.216-1.287,1.34-.465,1.784-1.929.448-2.163-.194L130.241,80.8v1.214l-.7.574.469,1.4-1.756,1.084-.583,2.422v1.724L126.15,93.05l-.934,3.764-1.287.446.059,1.21-1.168,1.212-.471,1.848.059,1.786-.64.764-.877,2.426-2.806,2.932-.118.7-1.576,1.21-.82.062-1.282,1.34-.644,1.592-.408,2.742-.7.446-.463,2.166-.765,1.4-1.635,1.532-.173,1.4-.82.64-.642,1.976-.934,1.4-1.346.128-1.344,2.042v1.336l-.875.384-1.052-.766-1.228.7-2.747.066L97.047,133.2l-2.28,2.55-.173,2.353-.642.83,1.929,3.881,1.168,3.947v1.084l-1.578,1.208-.934-.51-1.751,1.974-.528,3.117-1.111.762.292,2.168-2.1,1.526-1.17.254-1.692,1.592-5.026,5.409-2.163,1.082L76.3,168.46l-2.4.446-4.09,2.545-3.393,3.433-3.038,1.274L61.749,177.3l-1.4,1.843L58.3,184.04l-1.109,4.387-.469,4.581.12,1.587-1.931,2.411-.583.192-2.749,2.543-.7,1.016L49.54,204.19,47.9,209.973l-1.637,4.065-1.986,7.557-.936,4.193-1.111,2.475-1.986,5.776-.936,1.4-1,3.553-1.109,1.777-1.464,5.206-.114,1.647-1.285,1.206-.175.888-1.462,3.237-.526,2.345-.289,5.9v4.374l.232,3.486.644,3.3v1.521l.463,1.054-2.094.326-2.354,1.577-1.4.162-3.154-2.932-3.4-.6-1.654-1.735L15.871,270h-1.8l-1.251-.489-.1-1.792,1.1-2.063-.6-1.415-3.805-3.9.351-.813,2.1-1.521-.2-4.562-2-1.848-.7-1.25-1.253-.055-2.3-1.028-2.5-2.556-1.2-.871-.049-1.683.653-1.033L4.758,236.1l1.5-.542,2.5-.22,1.6-2.063-1.052-2.439-2.351-2.5-2.1-2.663L3,224.2l.15-1.2L2.6,221.919l-.2-1.85.849-1.25,1.253-.871.351-1.415-.051-2.663-.649-1.526-1.7-2.829-.249-2.23L0,203.476l.251-1.515,2-4.626-.5-2.449L3.2,192.709v-4.141l1.906-2.612.8-2.778,3.2-4.63.7-2.5,1.451-1.963V172.9l.849-.708,1.6.162,3.154-1.2,3.554-.762.851-1.09,1.253-2.887,1.151-.981h6.681l1.551-2.016.152-2.234,1.4-2.887v-4.2l.452-1.579.8-.981-.549-.873v-4.581l-.653-1.035-1.4-.984-2.6-.164-1.8-1.088-.551-1.146.051-2.509-.771-3.943.8-1.25.1-3.111-.5-1.69L25.38,127.8l-3.8-.655-1.2-.981-1.249-4.421-.2-3.382-1.4-3.113v-6.482l4.6-6.444,1.451-1.639,1.754-2.84L25.93,95l3.657-2.349.649-1.148-.15-1.257-2-3.055-.152-1.039.7-1.641,2.552-3.934-.15-15.772,2.753-2.9.6-1.366,1.352-.819.75-.984-.549-1.916v-3.96l.75-1.585-.15-1.858-.5-.93.3-1.041,2.2-1.694,1.8-.273,1.251-.657L43,43.181l2.305-1.858,1.95-3.177,1-1.255,1.95-.058,5.007-1.368,4.557-2.605,4.3-1.916.511-.5.864.862.5,1.916,1.688,2.531-.063,2.806.689,2.326L70.646,45.4l1.566,1.436,2.377.41,2.379,1.163,2.44.753,2.062,1.3L82.661,51.9l.811,1.846,3.068,1.5,1.063-.408,2.5-1.986h1.817l.689.892,1.751.956.938,2.05,1,.834-.063,2.46.439,2.392,2.5,2.119.97,3.211,1.817.821,2,1.843L108.41,71.6l1.063.956.752,1.98.311,2.46,1.065.817,1.561.141,2.256-1.575,3.505-.134,2.69-1.641.188-12.64.75-1.464,1.942-1.846,1.314-1.982.811-1.984,1.568-5.4,2.5-4.718.811-4.105,1.629-1.09,1.249-1.3.065-4.037.374-2.053,2.254-2.257,1-2.477,1.817-2.394,1.627-2.533,1.69-3.149-.251-1.163-2.69-1.573-.313-2.33,1.563-5.065,1.937-3.493.877-2.123,1.253-1.438,1.878-.614.813-.892L150.9,0l4.065.687,1.251,1.3Z" transform="translate(296 523)" fill="#c0e2aa"/>
    <path id="Fill_21" data-name="Fill 21" d="M146.731,142.141l-2.564-1.949-1.773.655-1.873-1.529-1.418-.548-2.13.218-2.431,2.4-1.242.494-2.331,2.407-1.011.655h-1.523l-1.418-1.311-3.751-5.087-4.713-2.9-1.771-.436-3.851-.22-1.366,1.752-.71,1.476-1.52.933-3.3.817-1.57-.109-1.215-.764-.406-2.135-.81-1.476-1.317-.6-2.331.165-2.534.655-2.786.165-3.445,2.954-3.041,1.917-1.114,1.147-.659,1.75-1.317,1.805L81.012,147.3l-2.13-.165-1.775-.875-1.875-.109L72.447,147.3l-2.382-.111-2.179-1.748-1.063.053-1.165-.819-1.418-.056-1.523,1.04-.759,4.755-1.317,4.757-.913,2.623-.152,11.979-.71,1.311.051,3.88-.962,3-1.469,1.641-.661,2.785-.252,2.785-.049,12.383h1.065l1.976,2.73.252,2.021-.556.762-.915,3.222-.3,2.946-.659,1.309-.3,1.8-1.621,2.128-1.24.16-1.014,0-.6.851-.158,11.99-.46.511-1.657-.19-2.07-1.023-4.2-2.924-4.555-3.7-2.9-3.566-1.653-1.594h-.71L32.175,213.8l-2.485-1.974-1.358-.257-.571-.74.366-1.7-.768-1.615-2.07-2.094-2.958-3.5-3.041-4.67-.19-2.308-1-2.616-1.127-1.018-1.121-2.74.118-3.316,1.185-1.532,1.713-1.08-.058-3.063,1.773.511.06-1.915-.355-1.72.71-1.339-1.065-.64-1.657,1.585-1.238-2.479-.592-2.55-1.482-2.488-1.3-3.38-.71-1.02-3.608-9-1.418-3.254-2.132.062-.175-1.277L7.1,150.1l-1.833-5.934-.887-1.979-.592-2.554,2.01.381.89-1.02.115-1.658.77-1.79H6.443L5.5,137.078l.293,1.341-1.005.381-.413-1.465-1.3.126L2.9,136.438.353,129.8,0,128.072l2.2-1.915,2.3.289,3.381,1.316,4.942.657,1.9,2.216h4.482l1.672,1.065,1.294-1.395,1.215-.411.99.74,4.029.9,1.9.163,1.976.575h5.244l2.735-1.641,3.118-3.859,1.67-.984h3.272l1.364.655h2.735V124.4l.381-1.147,1.672-1.562.532-2.3,1.484-3.645.607-.986.225-1.559,2.891-2.051.15-3.121,1.065-.74,2.357-.244,1.672-2.877,4.106-3.04L71.611,99.4l.761-2.056,6-5.258,1.219-.413,2.81-3.286,2.2-.327.836-1.645,1.523-1.478.3-1.972.609-1.313.075-2.137.532-1.974,2.511-3.7,1.745-1.564,1.14-.492,1.065-1.4,3.648-3.938.708-4.218,1.268-1.373,1.925-2.8V56.749l-.808-1.262-1.2-.64,1.121-1.54-2.532-4.171-.2-2.081.808-6.8,5.675-.218.911,1.206,3.851.327,2.331-.327.3-2.742,1.927-1.32,3.952-1.425L120.15,34.1l2.23-1.538.607-1.974,1.826-1.758,2.838-.109,2.331-.768,1.418-1.908,1.418-2.638,1.116-1.318,1.824.109,2.429-.986,2.13-3.515,1.623-2.2.605-2.306,1.317-2.2,1.724-1.318,1.724-.109,3.849-2.2,1.116-2.417L153.8,3.2l4.459-.55,2.23-.663L162.1.894l4.055.216L166.533,0l5.023.274,4.106,1.979,1.875,1.373.406,2.362L178.7,7.25l.607,1.527,1.42.22.609,1.812-.306,4.449-1.418.824-2.838,1.1-2.025,3.4-1.165.714-1.016,2.965,2.786,1.371,1.42,1.211,2.23.986,6.584,4.828.406,1.7-.2,2.3-.447.434-.518.5-4.358,1.919-4.611,2.61L170.8,43.506l-1.976.053-1.016,1.262L165.836,48,163.5,49.868l-1.42,1.645-1.266.657-1.824.274-2.23,1.7-.3,1.046.5.931.152,1.865-.759,1.587v3.975l.558,1.917-.761.986-1.366.821-.609,1.373-2.784,2.9.15,15.815-2.583,3.942-.71,1.647.152,1.04,2.025,3.065.154,1.26-.659,1.151-3.7,2.353-.607,2.847-1.775,2.845-1.469,1.643-4.66,6.464v6.5l1.418,3.119.2,3.395,1.268,4.432,1.215.982,3.851.659,1.467,1.367.509,1.694-.1,3.119Z" transform="translate(177 516)" fill="#c0e2aa"/>
    <path id="Fill_23" data-name="Fill 23" d="M93.46,97h0l-1.311-1.425-2.116-.764L86.8,94.372l-1.109-1.1.2-2.521,1.211-.767.5-1.534L87,85.28l-1.109-1.534-.1-2.85.2-4.384,2.22-3.614.3-1.976-1.311-1.972-1.614-.222-3.229-1.205-.6-.989,2.116-2.519-.806-.878-4.537.2-.607-.765-.1-1.868,2.42-1.865.507-.876L79.74,56.094l-1.21.66-3.332.109-5.548-4.39-1.715-.436-2.421,1.316-1.916.109-2.523-1.314-2.118.547-1.11.987-1.918.549-4.439.106-2.522.989-2.117,1.536-3.331,1.863H40.9l-1.211,2.3-3.43.551-.806,1.093-.3,2.524L34.545,66.4l-3.126.221-.906.658V69.8l-.6,1.209-2.624.547-2.117,1.205-1.513,2.087-.807,2.516-.806,1.425-2.321.877-2.473-.218-1.007-.985-.909-.111-.3,1.207-1.209.107-1.414-1.2-2.3-2.741-2.629-.874L6.3,73.164l-1.473-.895-2.295.19-1.237-.575.238-3.328,1.634-3.578.16-1.184,3.955-2.062L8.29,58.748l.806-.7.438-1.457-.527-2.369L6.6,53.77l-.12-2.558.354-1.795-1.082-1.9.149-3.4L4.946,43.2l-1.235.768L3.3,42.626,4.36,41.54l1.352-3.589L6.9,36.411,4.838,35.168l-3.25-.359L.471,33.79,0,31.675l.059-3.335.824-1.151,2.944.51L5.945,27.4l.99.445,3.279.136.756,1.028,1.388.686,1.765.073.945-.619,2.649-.068,3.721,1.579,3.72-.387.822-1.1.63-1.922.125-3.224.82-1.372,1.135-.483,1.009.552.568,1.442,1.64.752L33.8,22.866l1.575-.824.945-1.167.443-1.786,2.649-2.468,1.956-.688,3.023-.073,1.2-3.431.884-1.306,3.721-.895,1.261-1.3.5-1.372,3.658-1.579L57.125,3.16l2.523-1.1L61.54,2.2,65.2,3.848l2.649-1.235,1.765-.485,5.36-.342L76.293.964,79.321,0l1.513,1.03,1.135,1.376.19,1.715,1.449,1.922,2.206,2.4,3.153,1.782,3.719,1.583,2.523.478,3.4,1.03,5.549.137,1.954-.686,2.019-1.443,1.447-.412,1.893.893.128,2.062.756,1.577,1.452-.412,2.584-1.306,1.135.962,3.721.207,1.322-.552h1.954l1.575,1.1,1.642.688,1.263-.412.943-1.1-.315-3.911-1.45-2.264,1.049-2.011,5.537-.2,1.412.438,1.613,1.1,4.846,1.319,3.427.109,1.818.771.6,1.868.3,6.042-.806,1.647-2.119,2.3.2,2.525,2.625,3.295,1.007,6.586,1.113,2.521,1.609,1.541,6.358.769H160.9l1.614-.989,3.734-.329,6.252.437,2.524.551h1.765L178,39.4,177.6,40.6l-4.036-.216-1.614,1.094-2.22.662-4.439.549-1.512,1.754-1.111,2.414-3.834,2.192-1.714.109L155.4,50.479l-1.311,2.194-.6,2.3-1.615,2.194-2.119,3.51-2.42.987-1.818-.112L144.4,62.873l-1.412,2.634-1.411,1.9-2.32.769-2.825.109-1.818,1.754-.6,1.972-2.22,1.538L130.28,75.2l-3.937,1.425-1.916,1.316-.3,2.74L121.808,81l-3.834-.327-.907-1.205-5.65.218-.806,6.8.2,2.081,2.521,4.162-1.115,1.538-2.619,0-2.52.331-.907.546-2.119-.22-1.213-1.1-2.116-.219-1.411.438-2.22,2.739L93.46,97ZM61.074,32.121l-2.623.44-1.009.989v.876L59.46,36.62l-.1,1.427-.7,2.192,1.009.333h3.329l2.119.876,1.009,1.868,2.42,2.743,2.321-.44,1.111-2.087,2.421-2.412,1.309.989,2.423.767,1.211-.438.707-1.647,1.11-.329,1.111-1.318.6-1.426-2.218-1.647-.507-1.645L78.73,33.44l-.808-1.1-1.31-.549-2.723.44-1.616-.989-1.209-2.3-1.616-.878-2.118.771-1.614,1.207-2.928,2.525-1.715-.44Z" transform="translate(164 476)" fill="#c0e2aa"/>
    <path id="Fill_25" data-name="Fill 25" d="M87.935,41.316,87.8,43.089l-4.311.491-2.042-.164-.3,1.646.754,2.056.758.821L83.492,50l-.453,3.042L81.9,54.519l-1.36.906-.832,2.794.758,1.314v6.576l-.53,3.767-1.06,4.354-1.514,2.63.758,3.7-.453.493.756,2.134,4.083,4.271,1.288.9,2.12.408,1.586-.9,1.516-.33L90,88.849l-.53,2.63-1.816,1.558-2.574.576L81.305,94,71.156,92.382l-5.144-1.235L52.393,91.4,45.58,87.7l-4.616-1.152L39.3,85.977l-2.2-1.726-.907.657-2.423.41-9.685-.327-2.723,1.067-4.618.166L10.4,86.8,7.747,85.728l-4.488-1.1.979-.253-.647-2.5L1.3,80.6l.588-1.341L0,78.623l2.18-2.558.884-.578,1.884.193,2-1.535.3-1.216,1.529-2.237.413-1.728,1.825-2.687,1.3-3.391,1.352-2.942-2.825-.512-.06-.767,3.653-5.757,1.705-5.058.53-.383,3.3-.066.356-3.072.53-.576,1.473-3.393,2.061-2.689.471-1.665,5.829-3.2,1.767-.64-.06-1.346,1-2.307.649.064,1.354-3.2-.824-.512-3.534-1.025-3.711.255-.764-.449.941-1.792,2.534-3.714,1.65-1.99,2.766-.062.53-2.307,1-1.152-.941-.961,2.355-3.206h6.125l1.531-1.41-.941-.833L45.64,4.231,47.76,2.117,48.7,0l2,.7,1.047.591,3.632,5.353.6,1.975,1.365,3.049-.53,1.646.53,2.224,1.814,1.316,4.692,2.224,1.893,1.235,2.116.493,2.725.989,2.5-.247,1.514.906L76.193,24.1l.832,4.118,1.665,1.975.3,1.646-.607.576-.379,1.728,1.365,3.865,3.781.906,2.574.164,1.814,1.975Z" transform="translate(190 348)" fill="#c0e2aa"/>
    <path id="Fill_27" data-name="Fill 27" d="M211,17.948l-.42.753-2.063,1.238-.534.989V23.4l-.766,2.807-1.147,2.885-1.147,1.567-3.748.906L199.8,33.052l-1.682,2.639-1.758.493-.841.989.153,5.029-.919,1.4-1.527.908-2.982.989-1.149,1.484.232,1.484-.693,1.155-1.454.738h-1.373l-2.063-1.07H182.52l-1.6-1.074-1.377-.41-3.287,1.074-3.825-.744-2.521-2.72-1.3.083-1.145,1.4-.841,2.885-.994,1.235-2.371.164-2.141-.742-1.988-.247-3.595,1.235L154,52.75l-1.988-.574-2.216-1.65-1.149.164-.725.908-2.448.659-2.216,3.708-1.532.493-7.033.083-2.524,4.038-2.218,2.388-2.982,2.717-2.065.5-4.585-.249-3.978.166-.919.43-.534,1.233-.841,3.3-.691,1.48-2.9,1.895-2.371.33-1.454-.247-1.452-1.07-1.375-.085-1.682.744L99.9,75.5l-1.377,1.484-1.377.659L93.707,77.4l-1.3-.91-.383-1.067-1.3.081-.383,1.32v2.22l-1.452,2.139-1.224-1.07-.23-2.467L86.6,76.486l-2.829-.821L81.627,73.69l-1.6.413-.841,1.15-.916,2.8-1.071.821L76.735,81.1l-.077,2.058L76.047,85.3l-1.147.74-1.6.166-2.448,1.89-1.375,2.964-.308,1.48L67.79,96.325l-1.682,1.318-1.452,1.973-1.3.987L59.911,102l-4.206-.9h-5.2l-1.908-.332-4.591-1.973-1.6-1.07-1.835-1.975-2.6-.164-3.821-.906-1.379-3.866.383-1.731.613-.574-.305-1.648-1.685-1.975-.839-4.117-1.6-1.644-1.53-.906-2.524.247-2.754-.989-2.141-.493-1.91-1.235L13.73,73.524l-1.835-1.316-.536-2.224.536-1.648-1.377-3.047L9.9,63.314l-3.67-5.356-1.058-.589.357-1.28-2.2-1.861-1.37-.449L0,52.433l1.844-5.261,1.19-.257L4.4,43.643l.058-1.474L5.413,39.6l1.433.257L8.33,36.715l.357,1.218-.295,2.5L6.547,44.287l-1.906-.451-1.25,3.849-1.071,2.5,1.134.387L5,46.594l1.192.515,1.129,1.739.357-1.354L7.02,45.954,9.1,40.949,10,38l1.254.128.355.9-1.011,1.029,1.185.638.42-1.922-.42-2.054-1.426-.9.774-.961-.534-1.412,1.665-3.336,1.129.706.6-.515,2.379,1.155.953-.77.417-2.76L17.2,25.678l.357-1.155,1.248-.512.893-1.992,2.917-2.824,1.129-1.863.118-1.542.774-1.348.118-1.284.953-1.284L26.3,8.405l.953-1.221,2.5-2.12L30.765,3.2h.774L32.69.185,34.712,2.32l2.928,5.5,1.276.619,1.657.206,1.276.757,3.758,4.744,2.037,2.82,2.614,2.681,4.236,1.871,3.313,1.788,5.226,3.3,2.166,1.65,3.632.413,2.741.825,2.039,1.65L75.9,33.683l1.975,1.1,2.169.617,5.032-.068,6.947-.481,1.463.068,1.848-.481,1.4-2.2-.127-3.368-.577-2.888.321-1.786,2.166-1.1,2.422-.068,2.164.344,1.848.619,6.691,1.371,2.614.689,2.037,1.856,1.465,1.784,1.276,2.89,1.276,1.306h2.547l1.848-.344,2.293-3.574,1.211-.961L130,28.187l4.907-.206,4.619-3.107.381-1.856,2.3-2.337,1.338-.961,5.1-.483,1.721-.963,1.657-2.749,2.676-1.992,1.211-2.341.955-.478,1.209.342.828,2.613.768.893,2.61-.342.447-2.82.572-1.029,2.1-1.79.893-3.368,2.037-1.79.893-.136.742-1.029,1.857.242,3.122-.344h3.567l2.1-.9L181.666,0l1.543,1.816.686,2.394-.3,1.982-.691,1.4.613,2.065,3.44,1.733,2.524.33,1.53,1.32L192,15.186l1.68,2.226,1.99-.164L198.5,15.02l4.361-1.32,3.363-.083,1.837.91,1.758,1.648Z" transform="translate(236 291)" fill="#c0e2aa"/>
    <path id="Fill_29" data-name="Fill 29" d="M153.8,4.957l.218,1.256.907.908L155,9.185l-.758.91-3.26.414L148.78,12l-1.063,1.65-2.8,1.819-1.972.659-1.974,4.462v2.974l.685,1.812,1.972.58,1.364,1.072,1.745,3.219,1.671.083,1.061,1.322V34.6l-.454,1.654-.913,1.648-2.727,2.311L144.079,41.7l-1.82,1.075-.834,1.9-.152,4.045-.305,1.976-1.063,1.571-2.8,5.772.149,2.558,1.212.825L139,63.152l-.149,9.564,1.135,2.324-.226,1.32-2.426,2.226-.457,1.153,1.368,2.637-.152,2.06-.911,1.072-1.972.823-.758,1.318-1.216,3.3-1.364,1.565-.834,6.424-2.5,2.473.758,2.141-.077,1.893-1.82,1.646-1.442.249-1.061,1.4-.151,1.729.683.908,1.745.74,1.893,2.141.911,1.4.077,1.979,1.669,2.876.075,5.383-1.44,4.855-.454,3.7-.762,3.207-1.061,7.16-2.422,4.027-3.416.166-3.448,2.55-1.216.409-1.515-.33-1.82.164-.76.495,1.44,3.865.075.821-1.212.823-.909,2.465v5.607l-1.743.493-1.594,1.392-1.592.5-3.566-1.972-1.667.162-3.109.908-2.58.243-1.061.906L94.9,171.131l-1.291.823-1.82,3.123-.3,1.394-.986,1.48,1.741,1.889.077,1.642-.378,1.234-1.214.411-3.64,2.215L84.813,186l-1.317-.529-.405-2.352-1.871-1.371-4.1-1.972L72.11,179.5l.03-.1-1.212-.652H69.159l-2.531-.55-6.267-.435-3.741.326-1.62.985H52.88l-6.372-.763-1.617-1.537-1.116-2.518-1.007-6.573L40.137,164.4l-.2-2.518,2.123-2.3.809-1.646-.305-6.025-.606-1.866-1.82-.77-3.438-.109-4.852-1.315-1.62-1.1-1.415-.437-5.55.2-.3-2.1-.95-1.3-1.769-.343-.886.343-.634,1.164-1.007.614-2.087.07-2.593,1.917-1.833.689-3.98-1.578L6.4,144.277l-.192-1.851-1.389-.411-1.767,2.124-.824-.345L2.1,142.288,2.61,137.7l.568-1.714L4,134.969l.442-1.716,1.2-2.74v-2.4L5.328,126.6l-1.137-.889-.252-1.648.124-3.776.824-1.78,1.073-.482,1.009-3.019-.252-1.851L5.01,108.906,3.95,105.548l3.785-.39,2.58-.576,1.818-1.565.531-2.635-.986-1.315-1.517.328-1.592.9-2.125-.411-1.289-.9L1.063,94.7.3,92.56l.455-.5L0,88.355,1.517,85.72,2.58,81.351l.531-3.776V70.981l-.762-1.318.836-2.8,1.364-.908,1.139-1.484.455-3.051-.834-2.062-.76-.825-.758-2.062L4.1,54.82l2.046.164,4.321-.495.132-1.778,1.2.81L16.349,55.5l1.895.33H23.4l4.172.906,3.412-1.4,1.291-.989,1.442-1.981,1.667-1.32,1.366-3.8.3-1.484,1.366-2.972,2.426-1.9,1.594-.164,1.135-.742.606-2.147.077-2.064.455-2.228,1.063-.825.909-2.808.834-1.153,1.592-.414,2.127,1.979,2.8.825.834,1.16.226,2.473,1.214,1.072,1.44-2.145V31.486l.38-1.322,1.289-.081.38,1.07,1.289.913,3.412.247,1.366-.661,1.368-1.488,2.2-1.4,1.669-.748,1.364.085,1.442,1.072,1.44.249,2.351-.33,2.881-1.9.683-1.486.834-3.3.529-1.237.911-.433,3.945-.164,4.549.247,2.048-.495L97.037,17.6l2.2-2.394,2.5-4.049,6.973-.083,1.519-.495,2.2-3.718,2.428-.661.719-.91,1.139-.164,2.2,1.654,1.972.576,1.517-1.322,3.566-1.239,1.972.247,2.123.744,2.351-.164.986-1.241.834-2.891L135.373.083,136.666,0l2.5,2.727,3.792.746,3.26-1.077,1.366.411,1.592,1.077h1.214l2.046,1.072Z" transform="translate(268 337)" fill="#c0e2aa"/>
    <path id="Fill_31" data-name="Fill 31" d="M6.072,214.747l.555-.732,2.258-.655,3.613-2.216,1.205-.414.373-1.235L14,207.855l-1.728-1.892.979-1.48.3-1.4,1.807-3.125,1.281-.821,1.053-2.63,1.053-.907,2.561-.243,3.086-.909,1.656-.162,3.539,1.973,1.58-.495,1.582-1.4,1.73-.493v-5.61l.9-2.464,1.2-.826-.074-.821-1.43-3.865.754-.5,1.8-.164,1.506.331,1.207-.41L43.775,177l3.389-.164,2.406-4.031,1.053-7.163.756-3.206.451-3.705,1.43-4.857-.074-5.386-1.656-2.878-.076-1.979-.9-1.4-1.881-2.142-1.73-.74-.678-.909.15-1.73,1.053-1.4,1.432-.247,1.8-1.649.076-1.894-.75-2.142,2.482-2.474.826-6.425,1.356-1.568,1.205-3.3.754-1.318,1.957-.823.9-1.073.153-2.061L58.3,107.705l.453-1.154,2.408-2.227.225-1.32-1.127-2.325.148-9.569-.527-1.73-1.2-.828-.148-2.558,2.781-5.774,1.055-1.574.3-1.975.15-4.049.828-1.9,1.807-1.073,1.281-1.487,2.707-2.312L70.35,64.2l.451-1.655V59.594l-1.055-1.32-1.656-.085-1.733-3.221L65,53.894l-1.959-.58L62.367,51.5V48.525l1.959-4.465,1.957-.659,2.783-1.82,1.055-1.651,2.184-1.487,3.238-.416.752-.909-.076-2.067-.9-.909L75.1,32.888l1.434-.74.68-1.158L76.988,29.5l1.131-1.489,2.936-.992,1.5-.911.9-1.406-.15-5.045.828-.992,1.73-.495,1.656-2.647,1.356-1.491,3.69-.909L93.7,11.553,94.83,8.658l.754-2.816V3.362l.525-.992,2.031-1.241.413-.755,2.3,2.112,5.045,2.4,7.754.83,2.936.828L119.67,8.2l2.785,2.314,6.776,1.572,1.656-.825.225-1.158-1.656-1.986.754-.994,3.99-1.241h1.58l.9-.578-.227-.994-.979-.992L135.1,1.824,135.7,0l1.356.166,2.26,2.319,3.687,1.239,4.139,3.146,6.1,2.235,3.84.245,2.785.747,3.162,1.82L166,11.834l-.119,1.508-1.934,2.575-1.461,1.03L160.9,19.2l-.877,2.9-.119,1.93-2.169,2.442-2.048,1.677-2.11.578L152.171,31.1l-.292,1.288-3.514,1.992-1.171,1.224-2.171.834-1.813,2.7L142.1,41.721l-.468,1.928.352,3.217.936,1.608.294,2.826-.589,2.255-1.58,2.764-1.464,1.41-2.285,1.35-2.11,1.864-2.054,3.921-.4,2.056.057,3.279,1.112,3.79,2.461,4.5,2.4,1.928.705,2.568-2.226,2.89-1.406,2.442-.94.512.354,1.156-1.582-.066-.82.516-.527,1.67-1.29,1.28-.292,2.248.7,1.67.468,2.952-1,2.888-.527,2.244.235,2.248-.762,5.774-1.7,6.866-1.932,3.976v1.092l-.762,1.794-1.351,1.474-.525,2.116-.233,3.532-.235.446.116,3.334.527,1.538-.114,1.218-1.114,2.5v.768l-1.29,1.988L121,147.269l-1.288.96-1,2.178v2.308l.644,2.626-1.29,3.588.235,1.026-.644,1.09-.468,2.242v1.6l-.762.192-1,2.242-.822,3.906.059,6.593-.352.9-.411,3.332-2.107,4.159-1,1.472-.646,2.494-.112,2.564-.53.382-.413,2.114.354,2.366-.116,1.214.877,2.818.822-.064.411,1.152-1.292,3.389L109,207.641l-.877-.254-1.057.894,1.525.64-.705,2.622-.409,4.157-1.173,1.649-1.783-1.293-1.256-1.3-4.075-.687-2.637.478-.815.892-1.883.614L92.6,217.494l-.881,2.122-1.942,3.494L88.2,228.174l.318,2.327,2.694,1.572.252,1.165-1.692,3.148-1.633,2.53-1.819,2.393-1,2.476-2.258,2.259-.377,2.052-.064,4.034-1.254,1.3-1.633,1.092-.813,4.1-2.508,4.716-1.572,5.4-.815,1.982-1.315,1.982-1.946,1.847-.752,1.461-.188,12.636-2.7,1.64-3.512.137L61.357,292l-1.569-.139-1.067-.817-.311-2.462-.754-1.977-1.065-.958-4.454-1.163-2.008-1.843-1.819-.823-.974-3.208-2.506-2.118L44.39,274.1l.061-2.462-1-.834-.943-2.048-1.754-.956-.69-.892H38.241l-2.51,1.984-1.067.407-3.073-1.5-.813-1.847-1.195-1.436-2.069-1.3-2.446-.753-2.385-1.163L20.3,260.9l-1.567-1.436-2.383-4.514-.693-2.325.064-2.8-1.692-2.53-.5-1.918-.871-.86.443-.431.2-2.3-.4-1.7-6.521-4.816-2.209-.983L2.76,233.08,0,231.711l1-2.956,1.154-.712,2.008-3.392,2.811-1.1,1.4-.823.3-4.435-.6-1.809-1.406-.218Z" transform="translate(351 308)" fill="#c0e2aa"/>
    <path id="Fill_33" data-name="Fill 33" d="M97.844,154.754l-3.014.083-3.214-1.808-2.829-.742-3.9-.244-6.194-2.222-4.2-3.127-3.748-1.232-2.3-2.3-1.377-.165-.609,1.813.381,1.48.994.986.23.988-.919.575h-1.6l-4.051,1.234-.768.988,1.682,1.974-.228,1.151L60.5,155l-6.885-1.562-2.829-2.3-3.135-1.645-2.982-.823-7.876-.825-5.125-2.383-2.332-2.1L28.151,141.6l-1.758-1.643-1.835-.907-3.365.083-4.359,1.317-2.829,2.222-1.99.163-1.68-2.22-.994-2.139-1.53-1.317-2.524-.329L1.848,135.1l-.611-2.059.688-1.4.306-1.976-.688-2.387L0,125.468l1.368-3.339,2.8-2.673,1.786-3.362,1.846-.687,1.786-1.715,4.46-3.771,1.913-2.2,1.018-2.126.321-3.57-.83-3.844,2.676-1.717.83-1.3.062-2.128-1.586-2.256.024-.011,3.95-2.745,2.3-3.161.764-1.783,1.276-1.925,1.4-6.044,1.659-1.787,1.274-.549h1.784l1.786-.914.753-.326,2.345.331,1.631-.22,1.325-1.208,2.448-.22,4.385-2.419L50.2,64.605l4.791-.661,2.037-2.088,1.226-.331,1.018-.99,1.224-2.75-.1-2.639-1.633-1.87-.2-1.321,1.631-1.98.207-3.521L62.638,44.8l1.835-.223,1.426.352,1.02-2.752.818-1.1,3.769-.223,6.525-1.649,1.635-.77L81.3,37.229l.714-1.541,1.528-1.1,2.855-.77,2.143-2.864,1.734-.77,3.262.77,2.752-.218,1.835-.772,1.02-1.431.2-1.872.712-2.974,3.569-3.634,2.756-.553,2.853-.108,3.361-1.654,1.327-1.321.714-1.982-.409-1.764L113,11.24l-.813-1.654.914-3.195,1.635-.882,1.53-.22,2.343.882,2.448.329,2.139-.77,1.941-1.764,1.119-1.433,2.345-.882h3.057L135.023,0,137,.4l-3.272,1.931-3.212,1.223L129.2,5.552l-.415,1.287-1.728.9-1.188,1.094.06,1.285h-1.906l-2.141,1.866.355,1.607-.415,1.8-1.252.965-1.9,2.379-1.074.193-.42,1.028-1.364,1.35-1.254.259-.652,1.541-1.011.962-1.487,2.96-1.906,5.461-.951,3.856-1.134,7.71-.056,6.744.295,2.377,1.074,4.3,1.545,3.337,1.194,3.212-.181,4.622.594,5.135.835,3.786,1.248,3.271,1.906,4.043,1.547,1.6,1.723.257.716.833,1.665.447.3,1.028-1.489.127-2.8-1.539-1.308.322.536,1.473h.951l.833,2.052,1.906,2.052-1.962.9.237,1.986-.058,2.631.772,2.436-.417.7.538,1.73-1.134,1.478-2.083.318-.775.64-2.855.706-.953,2.372-.06,1.41.478,1.473,1.665.193.475,1.026.06,1.664,1.19,1.219-2.737.767-1.132,1.476-3.033,1.473-.716,1.215.179,1.283-1.25,1.6-2.259,1.857-1.188,1.476-1.491,3.714-.833,3.841-.3,6.148L98.972,144.8l-1.725,4.8Z" transform="translate(417 165)" fill="#c0e2aa"/>
    <path id="Fill_35" data-name="Fill 35" d="M137,70.086l-.741,1.02-.891.137-2.033,1.778-.891,3.345-2.1,1.776-.571,1.024-.447,2.8-2.6.34-.767-.887-.824-2.6-1.209-.34-.953.475-1.209,2.325-2.671,1.978-1.653,2.73-1.718.957-5.086.479-1.333.954L107.005,90.7l-.378,1.843-4.612,3.085-4.9.2-1.78.819-1.209.954-2.289,3.549L90,101.5H87.454l-1.273-1.3-1.273-2.87-1.46-1.774-2.035-1.843-2.607-.682-6.68-1.362-1.844-.614-2.16-.342-2.418.068-2.162,1.092-.318,1.774.573,2.867.127,3.345-1.4,2.183-1.844.477-1.46-.068-6.933.477L47.264,103l-2.164-.612-1.971-1.094L40.84,98.771l-2.033-1.639-2.738-.819-3.624-.41-2.162-1.639L25.067,90.99l-3.307-1.774-4.228-1.858L14.927,84.7l-2.035-2.8L9.14,77.185l-1.273-.752-1.653-.2L4.94,75.614,2.018,70.149,0,68.027l1.1-.9,2.143-1.083,1.662-1.468.535-1.531,1.426.192L7.223,61.2l1.606-1.786.178-1.149.949-.959L9.72,56.223l1.009-.64.532-1.6,1.428-2.937,1.129-1.468,2.849-8.172,1.247-2.236.771-2.107.238-1.981,1.25-2.935,1.6-2.365,3.088-1.277,1.366,1.022,2.257-1.343,1.724.448,1.424,1.087,1.546-.448-1.546-1.087-1.782-1.915-1.539.061,1.424-2.3V22.5l4.511-5.56,3.032-.255,3.976-1.022,3.562-.065L44.7,13.938,46.362,12.6l3.624-3.45L50.878,7.8l.713-1.915.058-1.406.773-1.854L55.7,0l.945,1.6,1.527-.082L59.623.7h1.147l1.449,1.888L62.6,4.316,65.04,6.039l.663-.3,1.164,1.351,3.244,1.1,2.607-1.44,2.035-.068,1.016,1.231-.633,1.233-1.271.752L73.354,11.4l1.018.41,1.018,1.368L76.28,15.1l1.844,2.737L80.413,19l2.227,1.915.824,1.231,1.527.752,1.464,1.368,1.907.959L89.953,26.8l1.08.135,1.273-.547,1.907.274.827,1.573,1.333.959L97.2,30.34l1.082,2.665-.955,3.148-1.078,1.434L95.1,40.94,95.039,42.1l1.273.821,1.527,3.009-.573,1.845-1.018,1.366-.7,1.708v2.939l1.72,1.231,3.689.547,3.751-1.3,4.258-.754,11.893.07,3.053-1.5,1.655-.139,1.524.617.7.887.253,1.845L131.16,58.3l1.524.957,1.4,2.458,1.713,1.708.511,5.329Z" transform="translate(270 224)" fill="#c0e2aa"/>
    <path id="Fill_37" data-name="Fill 37" d="M143.3,74.8l-1.954-.409-3.325,1.669H135l-2.317.891L131.579,78.4l-1.916,1.782-2.113.778-2.419-.332-2.317-.891-1.512.221-1.614.891-.9,3.23.8,1.669,1.21,1.448.4,1.78-.708,2-1.31,1.335-3.321,1.671-2.819.109-2.726.559-3.525,3.669-.7,3.007-.2,1.891-1.006,1.444-1.814.782-2.719.221-3.225-.778-1.711.778-2.118,2.894-2.823.778L88.96,110.45l-.706,1.557-1.607,1.223-1.616.78-6.448,1.667-3.725.223-.808,1.112-1.008,2.78-1.41-.356-1.814.223L67.6,121.327l-.2,3.558-1.612,2,.2,1.335,1.614,1.889.1,2.667-1.208,2.778-1.008,1-1.21.332L62.264,139l-4.735.666-2.619,3.224-4.333,2.444-2.419.221-1.31,1.223L45.236,147l-2.317-.334-.744.33-.967-1.105.1-2.669L39.9,141.778l-1.514-.666-2.015-2.335-3.423-6.891-1.407-2.333-.306-2.669.7-1.778,2.118-1.778,1.41-1.557.406-1.778-.91-.668-1.106-1.889-.908-2.558-1.714-1.669-1.913-2.446-1.512-1.448-2.619-1.11H23.07l-1.709.664H19.145l-2.02-1.112-3.119-1.112-.2-1.045,1.811-.332.4-.67-1.308-1.669-.1-1.891-.8-2.56L12.6,96.586,11.181,95.7,9.671,93.472l-.3-1.448.606-1.335,1.205-1.225.3-1.112L9.37,87.684l-.3-1.448.3-1.782,1.01-1.223-.2-4.344-.406-1.335.608-1.225h9.37l1.509-1.562,1.008-1.889,1.509-.448,1.714-1.335.1-1.45-.806-1.562L26.8,66.97l.406-1.116-.506-1-1.609-1-.3-2.453.3-1.782L24.08,57.5l-1.41-.891L19.547,56.5l-4.537-.67L14.2,54.713l-.6-1.9L12.493,50.7l-2.015-.891L8.26,48.471l-4.937-1L1.512,46.018,0,44.125,2.677,42.48,4.641,42.4l3.553.418,3.7-.334,1.435-.5,3.251-1.673,1.588-1.422,5.287-2.506,2.266-2.009L27.2,31.441l2.039-.334,1.588.668,2.719,3.346,1.133,1.84.682,2.845,1.131,2.843.836,1.12.189,1.559.7.782,3.023,1.673L44.065,48l1.614,1.673,1.711,2.787.1,3.01-.2,4.235-3.125,3.23-.2,1.559.3,3.119,1.509,1.114,1.814-.778L48.9,66.28h1.516L52.124,68.4l1.008,4.678L54.944,74.3l2.12.666,1.308,2.562,2.115,1.559h3.931l2.617,1,2.419-.223.5-1.782-2.013-2V73.3l-.708-2.339V68.953l.506-1.337,1.911-1.559,3.529.223,4.937-.446h2.016l.6-.891-.706-.891-2.217-.334-1.31.334-2.519-1.446-2.415-2.341.2-1,1.21-.668L71.37,56.476V55.362l2.011-2.453.406-1.448-.1-2.007-.706-1.562-1.918-1.448-1.811-.668-1.913-1.45.3-1.894,1.31-1.9-.806-1.225-1.814-1.784-.908-1.45.3-1.562-.3-2.341-1.208-.891L63.709,29.5l.506-2.678-1.008-.893-2.115-.448-.908-.557-.706-1.784-1.108-.673-1.006,1.452-2.22,2.009-.3,1.225-2.619,1.116-2.619,2.007-1.916.448-2.923,3.457-2.013,3.01-1.913,1.9-.808,4.128-1.308.221-1.393.332.974-2.2-.23-3.761-2.717-4.52-2.422-2.641-1.888-1-1.964-.5-1.739-1.506L29.616,26.2l1.435-4.183,2.494-2.511,2.041-5.942,1.133-.838,1.888-.5h1.814l.682-.668,1.359-3.6,4.684-2.682.982-1.253,1.21-.5,3.778.251L54.7,1.424l1.363,1,3.927.086L61.2.506,62.257,0l.982.506L64.3,2.181l2.87,1.424,1.967.583L71.327,5.7l1.282,1.255L74.841,11.3l.149,2.6.982,1.592,2.19.838.529.919-.225,2.176,1.057,1.422,2.419,2.26,3.929.167,2.645-.919-.6,2.341-.982.67-.453,1.506.3,1.172,1.656.634,2.1,1.386-.376,1.174L89.1,31.99l-3.627,1.422-2.719,1.422-2.115.668-1.741.081-.982,1.09-2.87.754-.906.833.906,2.343,2.87,1.757-.074,1.84,1.284,3.509,1.21,1.088,1.811,2.508,2.043.251L86.609,53.9l2.717.334,2.269.754,3.1,3.427,2.568.5,2.645-.084,5.29-2.59.757-1.589-.833-1.84-2.643-1.587-.455-1.5.3-1.84,2.343-3.1,2.266-1.086,1.964,1.339,1.135-.668,1.962-2.926.723-1.962,1.541-.261.381,2.858,1.133.418.88-.628,2.581-.7,1.008.767,6.676.071,2.139.9,2.519-.137.819-.767,1.765-.071.755-.835,1.765-.767.5,1.255-.944,1.463.689,2.3.064,1.463-.944.9-.759,3.832.257,1.881,1.637.838,1.51,2.089v6.615l1.133,1.324,3.149,2.506,2.143-.208,1.76-1.881,1.575.281,3.085,2.016,2.772.491L155,68.613l-.191,1.116-.942,1.114-3.34,1.669-1.507.139-2.645,2.018Z" transform="translate(408 90)" fill="#c0e2aa"/>
    <path id="Fill_39" data-name="Fill 39" d="M13.233,10.592c.371-.077.622-.149.878-.177.868-.094,1.195.307.951,1.153-.157.551-.348,1.093-.476,1.648-.088.376.034.719.474.747a.51.51,0,0,0,.537-.6c-.159-1.244.319-1.761,1.563-1.656.547.043.721-.331.467-.85-.034-.068-.071-.132-.109-.2-1.006-1.953-.7-2.779,1.385-3.482a1.738,1.738,0,0,0,1.058-.905c.954-1.712,1.561-1.915,3.4-1.217.26.1.482.2.74.028a3.481,3.481,0,0,1,3.217-.365,5.04,5.04,0,0,0,2.106-.2,1.408,1.408,0,0,1,1.415.51c.415.542-.065.988-.4,1.272-1.387,1.163-1.228,2.873-1.559,4.4-.159.736-.379,1.17-1.22,1.14-1.276-.041-1.274,1.05-1.318,1.874a3.447,3.447,0,0,1-.8,2.077c-.729.9-1.54.852-2.18-.147-.124-.19-.212-.4-.321-.6-.159-.3-.344-.754-.715-.523s.082.512.2.756a1.111,1.111,0,0,1-.425,1.5A7.513,7.513,0,0,0,19.3,19.75c-.421.92-1.865,1.56-3.15,1.688a.655.655,0,0,1-.681-.337c-.675-1.94-1.924-.457-2.884-.47-.557-.006-.384.4-.021.649a.78.78,0,0,1,.327.905c-.122.423-.488.435-.828.438a2.516,2.516,0,0,0-1.6.741c-1.285,1.059-2.263.79-2.882-.756a1.291,1.291,0,0,0-1.3-.905,12.653,12.653,0,0,1-2.473-.126c-.8-.164-1.679-.047-1.926-1.172-.071-.318-.5-.256-.792-.324a1.187,1.187,0,0,1-.719-2.058,5.489,5.489,0,0,1,1.249-1.146,2.5,2.5,0,0,0,1.36-2.961,1.331,1.331,0,0,1,.734-1.622c.264-.122.633-.252.581-.615-.059-.414-.463-.31-.742-.32a1.143,1.143,0,0,1-1.216-.824,1.279,1.279,0,0,1,.61-1.46c.721-.564,1.742-.694,2.177-1.7.289-.668.371-1.183-.333-1.537a1.334,1.334,0,0,1-.721-1.417c.025-.8-.008-1.609.01-2.414A2.154,2.154,0,0,1,5.9.015c.6-.058,1.2.019,1.371.7C7.685,2.344,9.081,2.238,10.236,2.5c.593.132,1.243.06,1.5.766s-.128,1.221-.589,1.727C10.223,6,10.1,7.4,9.565,8.6a.358.358,0,0,0,.138.5.466.466,0,0,0,.53-.066,2.113,2.113,0,0,1,1.337-.521c1.582-.041,1.966.38,1.662,2.083" transform="translate(37 31)" fill="#c0e2aa"/>
    <g id="Group_43" data-name="Group 43" transform="translate(87)">
      <path id="Clip_42-2" data-name="Clip 42" d="M0,0H27V22H0Z" transform="translate(0)" fill="none"/>
      <g id="Group_43-2" data-name="Group 43" clip-path="url(#clip-path)">
        <path id="Fill_41" data-name="Fill 41" d="M11.68,19.109c-.5,1-.821,1.721-1.224,2.392-.35.577-.8.77-1.122-.048-.36-.909-1.109-1.6-1.408-2.56a1.542,1.542,0,0,1,.293-1.756,3.384,3.384,0,0,0,1.168-2.012c.045-.4.386-.63.693-.858.782-.577.8-1.2.138-1.9-1.118-1.19-2.138-1.181-3.244.025-.441.481-.905.52-1.3-.092a2.3,2.3,0,0,1-.235-2.352c.35-.768.7-1.467-.4-2.084a1.181,1.181,0,0,1-.163-1.8c-.46-.231-.583.071-.653.292a2.832,2.832,0,0,1-1.3,1.884c-.456.248-.339.808-.464,1.228-.2.665-.585,1.077-1.315.98S.471,9.766.418,9.231C.32,8.22.579,7.219.078,6.174-.25,5.483.515,4.787,1.27,4.507A4.887,4.887,0,0,0,2.941,3.374c.481-.453.672-.865.225-1.456C2.837,1.484,2.907.974,3.435.8A10.321,10.321,0,0,1,6.033.01C6.987-.05,7.7.13,7.825,1.223c.03.269.153.577.409.638C10.045,2.3,9.593,4,10.007,5.141c.3.823-.657,1.664-.816,2.6-.1.585-.358,1.009.477,1.137a.866.866,0,0,1,.653.571c.2.436.437.525.685.031.5-1,1.207-.541,1.815-.2,1.022.581,1.446.533,1.707-.632a15,15,0,0,1,1.4-3.635A1.429,1.429,0,0,1,17.334,4.1c.534.008,1.067,0,1.6,0a1.888,1.888,0,0,1,1.913,2.77c-.269.661-.015.919.486,1.127.443.187.636,1.043,1.4.413A1.566,1.566,0,0,1,25.383,9.5c.068.567.059,1.009.831,1.014a.788.788,0,0,1,.729.768,20.466,20.466,0,0,1,0,2.929c-.059.651-.91.8-1.667.313a2.537,2.537,0,0,0-1.436-.615c-1.05.042-2.036.04-2.019-1.423a.4.4,0,0,0-.56-.388.5.5,0,0,0-.25.678c.67,1.347-.038,2.187-1.043,2.94a5.2,5.2,0,0,0-1.667,1.8c-.511,1.016-2.051,1.156-2.273,2.51-.045.258-.566.241-.821.067a2.055,2.055,0,0,0-2.167.073c-.9.4-1.4.315-1.366-1.056" transform="translate(0 -0.001)" fill="#c0e2aa"/>
      </g>
    </g>
    <path id="Fill_44" data-name="Fill 44" d="M18.884,5.112A1.976,1.976,0,0,1,20.7,4.566c.9.139,1.4.528,1.288,1.544a17,17,0,0,0-.011,1.99c.009.681.043,1.326-.85,1.55-.423.1-.481.526-.393.97a4.678,4.678,0,0,1-.093,2.085c-.17.7-.572.918-1.186.72-.582-.187-.983-.637-.656-1.25.427-.8.093-1.111-.531-1.589-.651-.5-1.072-1.268-1.874-1.659-.869-.424-1.628-.12-1.568.859.088,1.394-.7,1.848-1.816,2.107a2.842,2.842,0,0,0-1.6.891,1.026,1.026,0,0,1-1.115.428c-.5-.13-.455-.563-.492-.948-.041-.415-.041-.761-.684-.559-1.07.339-1.937,1.4-3.313.807-.395-.17-.938.62-.949,1.159-.045,2.272-.8,4.568.142,6.823.321.774.884,1.47.707,2.407-.075.385-.043.8-.446,1.013-.418.215-.751-.007-1.042-.291a1.92,1.92,0,0,0-1.656-.635,1.38,1.38,0,0,1-1.473-.75A7.994,7.994,0,0,1,.056,17.756c.043-.274.047-.641.339-.685,1.134-.165.977-.813.692-1.6a1.058,1.058,0,0,1,.535-1.466c.535-.289.606-.722-.1-.97-.283-.1-.548-.274-.466-.576A9.718,9.718,0,0,0,.992,9.211c-.054-.92.578-1.061,1.238-.872a1.742,1.742,0,0,0,2.085-.77,2.086,2.086,0,0,1,2.7-.778c-.345-1.911-.239-2.057,1.6-1.916a1.2,1.2,0,0,0,1.147-.637,31.986,31.986,0,0,0,2.245-3.1c.809-1.585,3.524-1.476,4.4.1a1.566,1.566,0,0,0,1.227.939c1.559.2,1.76.481,1.525,2.063a5.957,5.957,0,0,1-.274.876" transform="translate(62 9)" fill="#c0e2aa"/>
    <path id="Fill_46" data-name="Fill 46" d="M1.436,15c-.375-.041-.916.112-1.129-.341A1.385,1.385,0,0,1,.7,13.086c.974-1.068.956-1.341-.162-2.237-.608-.486-.871-.835.157-1.316A2.146,2.146,0,0,0,1.732,7.145c-.1-.792.065-1.156,1-1.14.29,0,.631-.032.77-.246C4.282,4.53,5.876,3.722,5.981,2.146c.029-.414.287-.561.7-.571.6-.016,1.208-.035,1.811-.014A2.41,2.41,0,0,0,10.742.7c.813-1.008,2.2-.676,3.369-.551.727.077.781.746.866,1.261A1.1,1.1,0,0,1,14.34,2.68a1.658,1.658,0,0,0-.934,2.068c.108.418.038.792-.429.831-1.964.162-2.723,1.6-3.836,2.673-.325.313-.631.642-.947.961-.274.272-.77.39-.981.2-1.064-.936-1.567-.024-2.22.447A8.107,8.107,0,0,1,3.42,11c-.655.276-.155.64.009.965A2.181,2.181,0,0,1,1.436,15" transform="translate(72 68)" fill="#c0e2aa"/>
    <path id="Fill_48" data-name="Fill 48" d="M5.226.544A18.32,18.32,0,0,0,12.068.026c.826-.158,1.732.448,2.652.582.51.077.272,2.52-.289,2.784-.937.439-1.469,1.546-2.694,1.5-.134.974-1.663,1.03-1.483,2.407.116.9-1.24,1.255-2.066,1.6-.8.34-1.167-.259-1.416-.964A1.494,1.494,0,0,0,5.224,6.887.8.8,0,0,1,4.3,6.062a2.372,2.372,0,0,0-.325-.972c-.835-1.33-1.017-1.353-2.226-.4a5.33,5.33,0,0,1-.47.355c-.363.223-.77.34-1.086-.009A.685.685,0,0,1,.295,4a6.208,6.208,0,0,0,1.741-2.36C2.69.4,4.106.769,5.226.544" transform="translate(57 66)" fill="#c0e2aa"/>
    <path id="Fill_50" data-name="Fill 50" d="M1.169,2.905C-.211,3.326.07,2.266.007,1.327-.072.2.519.012,1.4,0,2.538-.01,3.072.443,2.992,1.691c-.074,1.2-.773,1.292-1.823,1.214" transform="translate(74 69)" fill="#c0e2aa"/>
    <path id="Fill_52" data-name="Fill 52" d="M3,1.871C2.83,2.316,2.6,3,2.315,3.664a.638.638,0,0,1-.424.322A1.579,1.579,0,0,1,.428,3.27C-.4,2.318.13,1.483.673.665.954.242,1.339-.2,1.979.1A1.682,1.682,0,0,1,3,1.871" transform="translate(77 65)" fill="#c0e2aa"/>
    <path id="Fill_54" data-name="Fill 54" d="M.132,1.154C-.452-.338,1.032.067,2,.01c.609-.04,1.088.057.99.89-.253,2.171-.2,2.149-2.05,2.079-1.471-.055-.7-.947-.8-1.825" transform="translate(71 69)" fill="#c0e2aa"/>
    <path id="Fill_56" data-name="Fill 56" d="M2.959,1.541c-.083.628.189,1.643-.944,1.431C1.25,2.831-.052,3.426,0,1.638.036.445.49,0,1.51,0c.932,0,1.677.313,1.449,1.541" transform="translate(41 44)" fill="#c0e2aa"/>
    <path id="Fill_58" data-name="Fill 58" d="M.115,2.154c.177-.489.531-.245.972-.489A14.341,14.341,0,0,0,2.5.318c.442-.367.795-.367.97-.245s.177.369.266.856S4,2.154,4,2.4s-.176,0-.53-.124a1.548,1.548,0,0,0-1.5.367C1.351,3.134.647,4.111.292,3.99S-.06,2.643.115,2.154" transform="translate(15 520)" fill="#c0e2aa"/>
    <path id="Fill_60" data-name="Fill 60" d="M2.7.762C2.7.379,2.358,0,2.187,0s-.173.379-.344.379S1.328,0,.984,0,.3.379.128.762a.936.936,0,0,0,0,.954c.171.19.515.19.856.379s.685.575,1.03.765a.712.712,0,0,0,.856,0,.627.627,0,0,0,0-.765c-.171-.19-.512-.19-.512-.379S2.7,1.144,2.7.762" transform="translate(15 517)" fill="#c0e2aa"/>
    <path id="Fill_62" data-name="Fill 62" d="M0,2.409A2.681,2.681,0,0,1,.134,1.251c.136-.144.407.146.541,0S.811.529.944.239A.326.326,0,0,1,1.484.095c.134.144.134.434.268.58s.4.144.811.286a3.492,3.492,0,0,1,1.212.727c.27.29.27.578.134.722a.569.569,0,0,1-.673,0c-.27-.144-.539-.432-.809-.578a.572.572,0,0,0-.675,0c-.134.146-.134.434-.268.578s-.4.144-.541.29a1.163,1.163,0,0,0-.132.722c0,.29,0,.578-.136.578s-.4-.288-.541-.578A2.3,2.3,0,0,1,0,2.409" transform="translate(19 542)" fill="#c0e2aa"/>
    <path id="Fill_64" data-name="Fill 64" d="M3.179.25c-.212,0-.636.3-.848.3S2.118.25,1.909.1,1.273-.052,1.166.25a9.47,9.47,0,0,0,.211,1.977,17.353,17.353,0,0,1,0,3.342c-.1.758-.316.758-.634,1.216A4.414,4.414,0,0,0,0,8.607c0,.453.425.453.743.3a3.807,3.807,0,0,0,.847-.761,2.113,2.113,0,0,1,.954-.607c.212,0,.212.3.32.607s.316.607.529.607.423-.3.423-.607A6.838,6.838,0,0,0,3.5,7.088a2.976,2.976,0,0,1,0-1.368c.107-.3.318-.3.423-.607a3.553,3.553,0,0,0,0-1.519C3.814,2.985,3.6,2.378,3.5,1.922A4.19,4.19,0,0,1,3.391.859c0-.3,0-.609-.212-.609" transform="translate(11 539)" fill="#c0e2aa"/>
    <path id="Fill_66" data-name="Fill 66" d="M.09,2.118a1.639,1.639,0,0,0,.216,1.4c.218.4.436.6.87.4a14.554,14.554,0,0,0,1.52-1.1c.436-.3.654-.3.87-.5A1.438,1.438,0,0,0,4,1.418c0-.3-.216-.5-.542-.8s-.762-.7-1.086-.6-.544.7-.98,1.1-1.086.6-1.3,1" transform="translate(27 470)" fill="#c0e2aa"/>
    <path id="Fill_68" data-name="Fill 68" d="M12.767,1.512a6.206,6.206,0,0,0-1.214-.422c-.271,0-.271.282-.4.422s-.4.138-.539.28a.642.642,0,0,0,0,.7,2.16,2.16,0,0,1,.4.986,5.961,5.961,0,0,1-.539,1.687,14.233,14.233,0,0,1-.807,1.967c-.271.424-.541.424-.675.282s-.136-.422-.271-.562-.4-.14-.541-.422a4.1,4.1,0,0,1-.134-1.407,4.163,4.163,0,0,0-.132-1.405c-.136-.28-.407-.28-.812.14A9.347,9.347,0,0,1,5.482,5.448a7.723,7.723,0,0,1-1.753.562c-.268.14,0,.422,0,.844A4.26,4.26,0,0,1,3.19,8.4c-.271.562-.539,1.123-.4,1.405s.675.282,1.214-.14S5.077,8.4,5.482,8.256s.675.422,1.08.846a10.732,10.732,0,0,0,1.08.841c.134.142-.136.142-.271.424a1.594,1.594,0,0,0,0,1.123c.134.282.4.282.944.282a8.576,8.576,0,0,1,1.887.14c.541.14.809.422.675.7s-.675.562-.944.981A5.679,5.679,0,0,0,9.529,15a1.207,1.207,0,0,1-.944.846,5.554,5.554,0,0,1-2.158,0,17.818,17.818,0,0,0-2.16-.424c-.539,0-.807.28-1.078.28s-.539-.28-.675-.562-.134-.562-.271-.841-.4-.564-.4-.844a.925.925,0,0,1,.539-.7c.271-.14.539-.14.675-.28a.356.356,0,0,0-.136-.564,11.648,11.648,0,0,0-1.348-.282,12.448,12.448,0,0,0-1.346-.422c-.271,0-.271.282-.138.564s.4.562.541.844a1.565,1.565,0,0,1,0,1.123,4.673,4.673,0,0,0-.271,1.829c.134.422.675.422,1.08.559a2.42,2.42,0,0,1,.944.706c.271.28.539.562.809.562s.539-.282.809-.424a.845.845,0,0,1,.809,0,2.387,2.387,0,0,1,.809.844,3.024,3.024,0,0,1,.539,1.547,12.636,12.636,0,0,1-.268,1.405c0,.28.268.28.539.142a3.372,3.372,0,0,1,1.214-.564c.673-.14,1.753-.14,2.561-.28a4.235,4.235,0,0,0,1.755-.7,1.87,1.87,0,0,0,.809-.983,2.548,2.548,0,0,0,0-1.407,5.916,5.916,0,0,0-.541-.981.685.685,0,0,1,.136-.846,9.566,9.566,0,0,1,1.483-.983,6.188,6.188,0,0,0,2.024-1.827c.539-.844.807-1.967,1.214-2.671A1.742,1.742,0,0,1,18.3,8.678c.271,0,.271.282.673.424a7.446,7.446,0,0,0,1.887.14,5.28,5.28,0,0,1,1.619.142,1.24,1.24,0,0,1,.812.841c.134.424.134.983.271,1.265s.4.282,1.076-.14a14.725,14.725,0,0,0,2.158-1.687c.407-.422.136-.422-.134-.562a3.752,3.752,0,0,0-1.08-.562c-.537-.142-1.346-.142-1.753-.564a3.046,3.046,0,0,1-.4-1.967,5.967,5.967,0,0,1,.136-1.687c.132-.422.4-.7.266-1.125A5.513,5.513,0,0,0,22.613,1.65C22.072,1.091,21.535.529,21.264.529s-.271.562-.539.844a.807.807,0,0,1-1.082,0c-.268-.282-.268-.844-.4-1.125s-.4-.282-.539,0a6.7,6.7,0,0,1-.4,1.265c-.271.42-.809.7-1.08,1.263s-.271,1.407-.4,1.547-.4-.422-.675-.564-.537.142-.807.706A9.769,9.769,0,0,1,14.52,6.15c-.271.282-.541,0-.541-.282s.271-.562.4-.983a5.416,5.416,0,0,0,.136-1.545,4.1,4.1,0,0,1,.134-1.407c.134-.282.4-.282.539-.42a.645.645,0,0,0,0-.7A1.681,1.681,0,0,0,14.52.1a.586.586,0,0,0-.675,0,1.087,1.087,0,0,0-.136.7,1.109,1.109,0,0,1-.132.7c-.136.138-.407.138-.809,0" transform="translate(22 498)" fill="#c0e2aa"/>
    <path id="Fill_70" data-name="Fill 70" d="M11.912,1.475c.134-.294.134-.59-.134-.736A3.394,3.394,0,0,0,10.435.59,5.97,5.97,0,0,1,8.826.443,7.57,7.57,0,0,0,7.347,0c-.4,0-.67.294-.939.739a10.271,10.271,0,0,0-.8,1.769,4.607,4.607,0,0,0-.4,2.214c.134.592.67.885.939,1.328a2.219,2.219,0,0,1,.134,1.622A2.3,2.3,0,0,1,5.6,9c-.269.149-.536-.147-.805-.443s-.538-.59-.67-.59-.136.3,0,.736a3.97,3.97,0,0,0,.8,1.477c.4.443.939.736,1.208,1.032s.267.592.134.736-.4.149-.536.592-.134,1.328-.269,1.771-.4.443-.67.294-.538-.443-.805-.59a.6.6,0,0,0-.805.147c-.269.3-.536.885-.941,1.328a2.149,2.149,0,0,1-1.206.739c-.269,0-.269-.3-.4-.3s-.4.3-.536.592a1.014,1.014,0,0,0,0,.885c.134.294.4.59.67.59s.538-.3.805-.59a6.044,6.044,0,0,1,.939-.885,4.721,4.721,0,0,1,1.477-.739,3,3,0,0,1,1.611,0,4.766,4.766,0,0,1,1.477.739c.4.294.67.59.939.59s.536-.3.67-.739a2.2,2.2,0,0,0,0-1.328c-.134-.294-.4-.294-.536-.443s-.134-.443,0-.883a13.091,13.091,0,0,0,.536-1.773c.136-.736.136-1.622.269-2.064s.4-.44.536-.59.134-.443.269-1.179a9.488,9.488,0,0,0,.267-2.8,8.175,8.175,0,0,0-.805-1.918.738.738,0,0,1,.4-.888,1.573,1.573,0,0,1,.805-.147,1.548,1.548,0,0,0,.805-.149,1.675,1.675,0,0,0,.672-.736" transform="translate(9 492)" fill="#c0e2aa"/>
    <path id="Fill_72" data-name="Fill 72" d="M1.666,5.182A2.8,2.8,0,0,1,.3,3.986,2.769,2.769,0,0,1,0,2.526c0-.4,0-.663.151-.8s.455-.132.91-.132a7.638,7.638,0,0,0,1.666-.134A10.108,10.108,0,0,0,4.549.8,9.859,9.859,0,0,1,6.367.134,9.03,9.03,0,0,1,8.337,0a5.054,5.054,0,0,1,2.121.266.93.93,0,0,1,.3,1.2c-.151.4-.453.665-.3,1.064s.761.929.91,1.328-.148.665-.453.8-.606.134-.757.663a2.676,2.676,0,0,0,.3,2.127c.457.531,1.367.531,1.518.663s-.455.4-1.061.8S9.7,9.832,9.4,9.964s-.3-.132-.606-.4-.907-.531-1.061-.8.153-.531.3-.929a1.4,1.4,0,0,0-.151-1.326c-.3-.4-.91-.667-1.214-1.33s-.3-1.727-.608-2.125-.91-.134-1.362.132a5.524,5.524,0,0,1-1.214.665,7.6,7.6,0,0,0-1.212.264c-.153.134.148.4.148.667s-.3.529-.757.4" transform="translate(22 485)" fill="#c0e2aa"/>
    <g id="Group_76" data-name="Group 76" transform="translate(0 573)">
      <path id="Clip_75-2" data-name="Clip 75" d="M0,0H9V4H0Z" fill="none"/>
      <g id="Group_76-2" data-name="Group 76" clip-path="url(#clip-path-2)">
        <path id="Fill_74" data-name="Fill 74" d="M.244.77A14.808,14.808,0,0,1,1.867.462,8.855,8.855,0,0,1,3.811,0,8.931,8.931,0,0,1,5.759.462,8.247,8.247,0,0,0,7.7.616c.648,0,1.3,0,1.3.154s-.65.462-.973.769-.325.615-.65.768-.973.155-1.3.309-.32.463-.645.616-.973.154-1.3.307S3.811,4,3.488,4s-.976-.309-.976-.615.65-.616.976-.923.323-.617,0-.77a4.782,4.782,0,0,0-1.621-.153A4.755,4.755,0,0,1,.244,1.385C-.081,1.232-.081.923.244.77" transform="translate(-0.001)" fill="#c0e2aa"/>
      </g>
    </g>
    <path id="Fill_77" data-name="Fill 77" d="M6.237,11.679c3.187-.2,6.058.92,8.987,1.939,1.07.373,6.958,4.417,8.2,4.382.692-.017.8-3.558.1-4.035-1.162-.793-1.679-2.471-3.309-2.617-.006-1.423-6.607-6.524-6.129-8.465C14.4,1.62,12.666.867,11.632.222c-1-.623-1.595.168-2.046,1.135A2,2,0,0,1,7.345,2.592c-.766-.118-1.19.214-1.368,1.02a3.54,3.54,0,0,1-.6,1.334c-1.341,1.761-1.584,1.761-3.021.19a6.676,6.676,0,0,0-.562-.59C1.348,4.159.828,3.921.345,4.366A1.039,1.039,0,0,0,.3,5.872,9.091,9.091,0,0,1,2.2,9.556c.65,1.891,2.6,1.6,4.039,2.122" transform="translate(505 809)" fill="#c0e2aa"/>
    <path id="Fill_79" data-name="Fill 79" d="M3.91,2.118A1.647,1.647,0,0,1,3.7,3.52c-.219.4-.436.6-.87.4A14.313,14.313,0,0,1,1.3,2.82c-.436-.3-.653-.3-.87-.5A1.438,1.438,0,0,1,0,1.417c0-.3.217-.5.543-.8s.762-.7,1.087-.6a10.9,10.9,0,0,1,2.281,2.1" transform="translate(489 673)" fill="#c0e2aa"/>
  </g>
</svg>
