<?xml version="1.0" encoding="utf-8"?>
<!-- Generator: Adobe Illustrator 25.2.3, SVG Export Plug-In . SVG Version: 6.00 Build 0)  -->
<svg version="1.1" id="圖層_1" xmlns="http://www.w3.org/2000/svg" xmlns:xlink="http://www.w3.org/1999/xlink" x="0px" y="0px"
	 viewBox="0 0 438 140" style="enable-background:new 0 0 438 140;" xml:space="preserve">
<style type="text/css">
	.st0{fill:#323232;}
	.st1{fill:#F7F7F7;}
	.st2{fill:#231815;}
	.st3{fill:#C0E2AA;}
</style>
<g>
	<g>
		<g>
			<rect x="153.52" y="66.25" class="st0" width="132.25" height="21"/>
		</g>
		<g>
			<circle class="st1" cx="189.77" cy="53.24" r="12.66"/>
			<path class="st2" d="M189.77,66.02c-7.05,0-12.78-5.74-12.78-12.78s5.74-12.78,12.78-12.78c7.05,0,12.78,5.74,12.78,12.78
				S196.82,66.02,189.77,66.02z M189.77,40.7c-6.91,0-12.53,5.62-12.53,12.53s5.62,12.53,12.53,12.53c6.91,0,12.53-5.62,12.53-12.53
				S196.68,40.7,189.77,40.7z"/>
		</g>
		<g>
			<circle class="st3" cx="230.07" cy="53.36" r="12.75"/>
		</g>
		<g>
			<circle class="st0" cx="248.63" cy="53.36" r="12.75"/>
		</g>
		<g>
			<g>
				<polygon class="st2" points="286.24,126.96 153.39,126.96 153.39,42.64 153.89,42.64 153.89,126.46 285.74,126.46 285.74,42.64 
					286.24,42.64 				"/>
			</g>
			<g>
				<g>
					<circle class="st2" cx="153.64" cy="42.73" r="1.89"/>
				</g>
			</g>
			<g>
				<g>
					<circle class="st2" cx="285.99" cy="42.73" r="1.89"/>
				</g>
			</g>
		</g>
		<g>
			<path class="st0" d="M249.66,35.66v-4.41c-2.45-0.1-4.41-2.12-4.41-4.6v-8.38c0-2.54,2.06-4.6,4.6-4.6h14.12
				c2.54,0,4.6,2.06,4.6,4.6v8.38c0,2.54-2.06,4.6-4.6,4.6h-10.78L249.66,35.66z M249.85,14.05c-2.33,0-4.22,1.89-4.22,4.22v8.38
				c0,2.33,1.89,4.22,4.22,4.22h0.19v3.71l2.97-3.71h10.97c2.33,0,4.22-1.89,4.22-4.22v-8.38c0-2.33-1.89-4.22-4.22-4.22H249.85z"/>
		</g>
	</g>
	<g>
		<path class="st2" d="M196.09,122.61l4.62-14.03h-8.68l9.11-16.92l-1.77,11.73h8.46L196.09,122.61z M192.48,108.31h8.6l-4.02,12.19
			l10.3-16.85h-8.3l1.58-10.52L192.48,108.31z"/>
	</g>
	<g>
		<path class="st2" d="M214.91,122.61l4.62-14.03h-8.68l9.11-16.92l-1.77,11.73h8.46L214.91,122.61z M211.3,108.31h8.6l-4.02,12.19
			l10.3-16.85h-8.3l1.58-10.52L211.3,108.31z"/>
	</g>
	<g>
		<path class="st2" d="M233.73,122.61l4.62-14.03h-8.68l9.11-16.92l-1.77,11.73h8.46L233.73,122.61z M230.12,108.31h8.6l-4.02,12.19
			l10.3-16.85h-8.3l1.58-10.52L230.12,108.31z"/>
	</g>
</g>
</svg>
