<?xml version="1.0" encoding="utf-8"?>
<!-- Generator: Adobe Illustrator 25.2.3, SVG Export Plug-In . SVG Version: 6.00 Build 0)  -->
<svg version="1.1" id="圖層_1" xmlns="http://www.w3.org/2000/svg" xmlns:xlink="http://www.w3.org/1999/xlink" x="0px" y="0px"
	 viewBox="0 0 438 140" style="enable-background:new 0 0 438 140;" xml:space="preserve">
<style type="text/css">
	.st0{fill:#231815;}
	.st1{fill:#FFFFFF;}
	.st2{fill:#323232;}
	.st3{fill:#C0E2AA;}
	.st4{fill:#F7F7F7;}
</style>
<g>
	<g>
		<g>
			<g>
				<g>
					<g>
						
							<rect x="209.58" y="67.59" transform="matrix(1.953121e-03 -1 1 1.953121e-03 140.2646 279.0156)" class="st0" width="0.66" height="3.3"/>
					</g>
				</g>
				<g>
					<g>
						
							<rect x="219.16" y="66.61" transform="matrix(1.831052e-03 -1 1 1.831052e-03 149.8346 288.6201)" class="st0" width="0.66" height="5.28"/>
					</g>
				</g>
				<g>
					<g>
						
							<rect x="228.74" y="67.62" transform="matrix(1.757810e-03 -1 1 1.757810e-03 159.396 298.221)" class="st0" width="0.66" height="3.3"/>
					</g>
				</g>
			</g>
			<g>
				<g>
					<line class="st1" x1="253.6" y1="69.28" x2="230.6" y2="69.28"/>
				</g>
				<g>
					<rect x="230.6" y="68.94" class="st0" width="23" height="0.66"/>
				</g>
			</g>
			<g>
				<g>
					<g>
						
							<rect x="208.49" y="84.85" transform="matrix(0.9385 -0.3453 0.3453 0.9385 -16.4878 77.8117)" class="st0" width="3.3" height="0.66"/>
					</g>
				</g>
				<g>
					<g>
						
							<rect x="217.27" y="81.09" transform="matrix(0.9382 -0.346 0.346 0.9382 -14.563 81.2634)" class="st0" width="6.15" height="0.66"/>
					</g>
				</g>
				<g>
					<g>
						
							<rect x="228.9" y="77.34" transform="matrix(0.9385 -0.3453 0.3453 0.9385 -12.6379 84.398)" class="st0" width="3.3" height="0.66"/>
					</g>
				</g>
			</g>
			<g>
				<g>
					<line class="st1" x1="253.6" y1="69.28" x2="231.99" y2="77.14"/>
				</g>
				<g>
					
						<rect x="231.29" y="72.88" transform="matrix(0.9397 -0.3419 0.3419 0.9397 -10.3982 87.4219)" class="st0" width="23" height="0.66"/>
				</g>
			</g>
			<g>
				<g>
					<g>
						
							<rect x="209.15" y="51.63" transform="matrix(0.3399 -0.9405 0.9405 0.3399 88.1794 232.1875)" class="st0" width="0.66" height="3.3"/>
					</g>
				</g>
				<g>
					<g>
						
							<rect x="219.69" y="53.9" transform="matrix(0.3398 -0.9405 0.9405 0.3398 91.5741 244.6186)" class="st0" width="0.66" height="6.36"/>
					</g>
				</g>
				<g>
					<g>
						
							<rect x="230.22" y="59.24" transform="matrix(0.3398 -0.9405 0.9405 0.3398 94.9406 257.0306)" class="st0" width="0.66" height="3.3"/>
					</g>
				</g>
			</g>
			<g>
				<g>
					<polygon class="st0" points="250.55,70.74 250.32,70.12 252.63,69.28 231.87,61.72 232.1,61.1 254.56,69.28 					"/>
				</g>
			</g>
			<g>
				<g>
					<line class="st1" x1="253.6" y1="67.12" x2="235.98" y2="52.34"/>
				</g>
				<g>
					
						<rect x="244.46" y="48.23" transform="matrix(0.6428 -0.766 0.766 0.6428 41.6868 208.8514)" class="st0" width="0.66" height="23"/>
				</g>
			</g>
			<g>
				<g>
					<g>
						
							<rect x="230.73" y="47.06" transform="matrix(0.6207 -0.784 0.784 0.6207 49.4437 199.6264)" class="st0" width="0.66" height="3.3"/>
					</g>
				</g>
				<g>
					<g>
						
							<rect x="220.14" y="36.38" transform="matrix(0.6208 -0.784 0.784 0.6208 51.9873 188.1336)" class="st0" width="0.66" height="7.9"/>
					</g>
				</g>
				<g>
					<g>
						
							<rect x="209.56" y="30.29" transform="matrix(0.6209 -0.7839 0.7839 0.6209 54.5356 176.6472)" class="st0" width="0.66" height="3.3"/>
					</g>
				</g>
			</g>
			<g>
				<g>
					<line class="st1" x1="253.6" y1="71.88" x2="235.98" y2="86.66"/>
				</g>
				<g>
					
						<rect x="233.29" y="78.94" transform="matrix(0.766 -0.6429 0.6429 0.766 6.3272 175.9176)" class="st0" width="23" height="0.66"/>
				</g>
			</g>
			<g>
				<g>
					<g>
						
							<rect x="229.4" y="89.96" transform="matrix(0.7835 -0.6214 0.6214 0.7835 -6.0834 163.1117)" class="st0" width="3.3" height="0.66"/>
					</g>
				</g>
				<g>
					<g>
						
							<rect x="216.52" y="98.34" transform="matrix(0.7835 -0.6214 0.6214 0.7835 -13.5826 158.3492)" class="st0" width="7.9" height="0.66"/>
					</g>
				</g>
				<g>
					<g>
						
							<rect x="208.23" y="106.72" transform="matrix(0.7835 -0.6214 0.6214 0.7835 -21.0821 153.5867)" class="st0" width="3.3" height="0.66"/>
					</g>
				</g>
			</g>
		</g>
		<g>
			<g>
				<g>
					<g>
						
							<rect x="296.87" y="68.91" transform="matrix(1 -1.953121e-03 1.953121e-03 1 -0.1347 0.5832)" class="st0" width="3.3" height="0.66"/>
					</g>
				</g>
				<g>
					<g>
						
							<rect x="286.3" y="68.93" transform="matrix(1 -1.953121e-03 1.953121e-03 1 -0.1347 0.5645)" class="st0" width="5.28" height="0.66"/>
					</g>
				</g>
				<g>
					<g>
						
							<rect x="277.71" y="68.94" transform="matrix(1 -1.953121e-03 1.953121e-03 1 -0.1348 0.5458)" class="st0" width="3.3" height="0.66"/>
					</g>
				</g>
			</g>
			<g>
				<g>
					<line class="st1" x1="254.83" y1="69.28" x2="277.83" y2="69.28"/>
				</g>
				<g>
					<rect x="254.84" y="68.94" class="st0" width="23" height="0.66"/>
				</g>
			</g>
			<g>
				<g>
					<g>
						
							<rect x="297.96" y="83.53" transform="matrix(0.3453 -0.9385 0.9385 0.3453 115.3442 335.7063)" class="st0" width="0.66" height="3.3"/>
					</g>
				</g>
				<g>
					<g>
						
							<rect x="287.75" y="78.35" transform="matrix(0.3454 -0.9385 0.9385 0.3454 112.1629 323.6517)" class="st0" width="0.66" height="6.15"/>
					</g>
				</g>
				<g>
					<g>
						
							<rect x="277.55" y="76.02" transform="matrix(0.3454 -0.9385 0.9385 0.3454 109.0159 311.6219)" class="st0" width="0.66" height="3.3"/>
					</g>
				</g>
			</g>
			<g>
				<g>
					<line class="st1" x1="254.83" y1="69.28" x2="276.44" y2="77.14"/>
				</g>
				<g>
					
						<rect x="265.31" y="61.71" transform="matrix(0.342 -0.9397 0.9397 0.342 105.9916 297.7877)" class="st0" width="0.66" height="23"/>
				</g>
			</g>
			<g>
				<g>
					<g>
						
							<rect x="297.29" y="52.95" transform="matrix(0.9406 -0.3395 0.3395 0.9406 -0.3306 104.6722)" class="st0" width="3.3" height="0.66"/>
					</g>
				</g>
				<g>
					<g>
						
							<rect x="285.23" y="56.76" transform="matrix(0.9406 -0.3395 0.3395 0.9406 -2.2483 101.322)" class="st0" width="6.36" height="0.66"/>
					</g>
				</g>
				<g>
					<g>
						
							<rect x="276.23" y="60.56" transform="matrix(0.9406 -0.3395 0.3395 0.9406 -4.1661 97.972)" class="st0" width="3.3" height="0.66"/>
					</g>
				</g>
			</g>
			<g>
				<g>
					<polygon class="st0" points="257.88,70.74 253.87,69.28 276.33,61.1 276.56,61.72 255.8,69.28 258.11,70.12 					"/>
				</g>
			</g>
			<g>
				<g>
					<line class="st1" x1="254.83" y1="67.12" x2="272.45" y2="52.34"/>
				</g>
				<g>
					
						<rect x="252.15" y="59.4" transform="matrix(0.766 -0.6429 0.6429 0.766 23.3028 183.466)" class="st0" width="23" height="0.66"/>
				</g>
			</g>
			<g>
				<g>
					<g>
						
							<rect x="275.72" y="48.38" transform="matrix(0.7835 -0.6214 0.6214 0.7835 29.778 182.8909)" class="st0" width="3.3" height="0.66"/>
					</g>
				</g>
				<g>
					<g>
						
							<rect x="284.01" y="40" transform="matrix(0.7835 -0.6214 0.6214 0.7835 37.2773 187.6535)" class="st0" width="7.9" height="0.66"/>
					</g>
				</g>
				<g>
					<g>
						
							<rect x="296.89" y="31.61" transform="matrix(0.7835 -0.6214 0.6214 0.7835 44.7769 192.4163)" class="st0" width="3.3" height="0.66"/>
					</g>
				</g>
			</g>
			<g>
				<g>
					<line class="st1" x1="254.83" y1="71.88" x2="272.45" y2="86.66"/>
				</g>
				<g>
					
						<rect x="263.31" y="67.77" transform="matrix(0.6428 -0.766 0.766 0.6428 33.4522 230.276)" class="st0" width="0.66" height="23"/>
				</g>
			</g>
			<g>
				<g>
					<g>
						
							<rect x="277.04" y="88.64" transform="matrix(0.6207 -0.784 0.784 0.6207 34.4119 251.7099)" class="st0" width="0.66" height="3.3"/>
					</g>
				</g>
				<g>
					<g>
						
							<rect x="287.63" y="94.72" transform="matrix(0.6208 -0.784 0.784 0.6208 31.8402 263.1646)" class="st0" width="0.66" height="7.9"/>
					</g>
				</g>
				<g>
					<g>
						
							<rect x="298.21" y="105.4" transform="matrix(0.6209 -0.7839 0.7839 0.6209 29.2724 274.6245)" class="st0" width="0.66" height="3.3"/>
					</g>
				</g>
			</g>
		</g>
		<g>
			<path class="st0" d="M257.7,82.89v-0.66c6.56,0,11.89-5.33,11.89-11.89s-5.33-11.89-11.89-11.89v-0.66
				c6.92,0,12.55,5.63,12.55,12.55S264.62,82.89,257.7,82.89z"/>
		</g>
		<g>
			<path class="st0" d="M257.7,97.75v-0.66c14.75,0,26.76-12,26.76-26.76s-12-26.76-26.76-26.76v-0.66
				c15.12,0,27.42,12.3,27.42,27.42S272.81,97.75,257.7,97.75z"/>
		</g>
		<g>
			<path class="st0" d="M257.7,109.97v-0.66c21.49,0,38.98-17.48,38.98-38.98s-17.48-38.98-38.98-38.98V30.7
				c21.86,0,39.64,17.78,39.64,39.64S279.55,109.97,257.7,109.97z"/>
		</g>
	</g>
	<g>
		<path class="st0" d="M321.58,97.61l7.96-24.18H314.6l15.7-29.16l-3.04,20.22h14.59L321.58,97.61z M315.36,72.98h14.82l-6.92,21.01
			l17.75-29.04h-14.3l2.73-18.13L315.36,72.98z"/>
	</g>
	<g>
		<ellipse class="st2" cx="113.79" cy="86.15" rx="15.99" ry="16.17"/>
	</g>
	<g>
		<ellipse class="st3" cx="148.99" cy="86.31" rx="16.11" ry="16.29"/>
	</g>
	<g>
		<ellipse class="st4" cx="170.47" cy="86.31" rx="16.11" ry="16.29"/>
		<path class="st0" d="M170.47,102.76c-8.97,0-16.27-7.38-16.27-16.45s7.3-16.45,16.27-16.45s16.27,7.38,16.27,16.45
			S179.45,102.76,170.47,102.76z M170.47,70.18c-8.8,0-15.96,7.23-15.96,16.13s7.16,16.13,15.96,16.13s15.96-7.23,15.96-16.13
			S179.27,70.18,170.47,70.18z"/>
	</g>
	<g>
		<path class="st2" d="M171.14,58.75v-5.63c-3.1-0.13-5.57-2.71-5.57-5.87V36.54c0-3.24,2.61-5.88,5.81-5.88h17.84
			c3.21,0,5.81,2.64,5.81,5.88v10.71c0,3.24-2.61,5.87-5.81,5.87h-13.62L171.14,58.75z M171.38,31.14c-2.94,0-5.34,2.42-5.34,5.39
			v10.71c0,2.97,2.39,5.39,5.34,5.39h0.24v4.74l3.75-4.74h13.85c2.94,0,5.34-2.42,5.34-5.39V36.54c0-2.97-2.39-5.39-5.34-5.39
			H171.38z"/>
	</g>
</g>
</svg>
