<svg xmlns="http://www.w3.org/2000/svg" viewBox="0 0 447.89 182.24"><defs><style>.cls-1{fill:#323232;}.cls-2,.cls-6{fill:none;}.cls-2,.cls-4{stroke:#231815;}.cls-2,.cls-4,.cls-6{stroke-miterlimit:10;}.cls-3{fill:#231815;}.cls-4{fill:#f7f7f7;stroke-width:0.5px;}.cls-5{fill:#c0e2aa;}.cls-6{stroke:#323232;stroke-width:0.75px;}</style></defs><g id="圖層_2" data-name="圖層 2"><g id="圖層_1-2" data-name="圖層 1"><rect class="cls-1" x="22.43" y="101.9" width="7.74" height="75.81"/><line class="cls-2" x1="259.91" y1="96.99" x2="145.43" y2="96.99"/><polygon class="cls-3" points="147.41 94.09 136.57 96.99 147.41 99.9 147.41 94.09"/><polyline class="cls-2" points="3.57 178.48 59.46 178.48 109.33 128.61 444.32 128.61"/><path class="cls-3" d="M3.76,182.24a3.76,3.76,0,1,1,3.76-3.76A3.76,3.76,0,0,1,3.76,182.24Z"/><circle class="cls-3" cx="444.13" cy="128.61" r="3.76"/><polygon class="cls-1" points="214.26 50.92 202.99 71.78 214.26 71.78 208.63 88.82 223.02 65.38 212.08 65.38 214.26 50.92"/><rect class="cls-1" x="45.08" y="83.53" width="9.59" height="93.99"/><path class="cls-2" d="M27.81,73.16s-6.71-25.11,9.59-28,16.78-6.62,28.05-20.09A32.23,32.23,0,0,1,76.3,17.31"/><path class="cls-2" d="M58.77,74.9s.67-10.06,7.4-14.62S77.86,61.6,91.68,47.15s8.82-12.67,29.54-21.23,20.72-8.61,20.72-8.61"/><circle class="cls-4" cx="384" cy="102.54" r="25.72"/><circle class="cls-5" cx="347.45" cy="102.74" r="25.52"/><circle class="cls-1" cx="306.53" cy="101.99" r="25.52"/><path class="cls-6" d="M303.07,11.26V31.93A10.87,10.87,0,0,0,314,42.81h26.82l8,10v-10a10.87,10.87,0,0,0,10.88-10.88V11.26A10.87,10.87,0,0,0,348.77.38H314A10.87,10.87,0,0,0,303.07,11.26Z"/></g></g></svg>