<?xml version="1.0" encoding="utf-8"?>
<!-- Generator: Adobe Illustrator 25.2.3, SVG Export Plug-In . SVG Version: 6.00 Build 0)  -->
<svg version="1.1" id="圖層_1" xmlns="http://www.w3.org/2000/svg" xmlns:xlink="http://www.w3.org/1999/xlink" x="0px" y="0px"
	 viewBox="0 0 438 140" style="enable-background:new 0 0 438 140;" xml:space="preserve">
<style type="text/css">
	.st0{fill:#231815;}
	.st1{fill:#323232;}
	.st2{fill:#F7F7F7;}
	.st3{fill:#C0E2AA;}
</style>
<g>
	<g>
		<g>
			<path class="st0" d="M183.68,119.67l-0.22-0.4c4.24-2.28,8.13-5.18,11.56-8.61c6.14-6.14,10.57-13.8,12.8-22.14
				c2.17-8.09,2.25-16.67,0.23-24.81l0.45-0.11c2.04,8.21,1.96,16.87-0.23,25.04c-2.26,8.42-6.72,16.15-12.92,22.35
				C191.88,114.45,187.96,117.37,183.68,119.67z"/>
		</g>
		<g>
			<g>
				<polygon class="st0" points="183.79,117.85 179.91,121.25 184.97,120.25 				"/>
			</g>
		</g>
	</g>
	<g>
		<path class="st0" d="M128.39,90.71l7.96-24.18H121.4l15.7-29.16l-3.04,20.22h14.59L128.39,90.71z M122.17,66.07h14.82l-6.92,21.01
			l17.75-29.04h-14.3l2.73-18.13L122.17,66.07z"/>
	</g>
	<g>
		<circle class="st1" cx="140.28" cy="104.29" r="12.9"/>
	</g>
	<g>
		<circle class="st2" cx="170.83" cy="100.74" r="12.93"/>
		<path class="st0" d="M170.83,113.79c-7.2,0-13.05-5.85-13.05-13.05s5.85-13.05,13.05-13.05c7.2,0,13.05,5.85,13.05,13.05
			S178.02,113.79,170.83,113.79z M170.83,87.92c-7.07,0-12.82,5.75-12.82,12.82s5.75,12.82,12.82,12.82
			c7.07,0,12.82-5.75,12.82-12.82S177.9,87.92,170.83,87.92z"/>
	</g>
	<g>
		<circle class="st3" cx="182.17" cy="89.37" r="12.93"/>
	</g>
	<g>
		<g>
			<path class="st0" d="M150.09,119.27l-0.01-0.46c0.61-0.01,1.22-0.03,1.83-0.05l0.02,0.46
				C151.32,119.25,150.7,119.26,150.09,119.27z M148.24,119.26c-0.62-0.02-1.24-0.04-1.84-0.08l0.03-0.46
				c0.6,0.04,1.21,0.06,1.83,0.08L148.24,119.26z M153.77,119.09l-0.04-0.46c0.6-0.05,1.22-0.12,1.82-0.19l0.06,0.46
				C155,118.98,154.38,119.04,153.77,119.09z M144.56,119.03c-0.61-0.06-1.23-0.13-1.83-0.22l0.06-0.45
				c0.6,0.08,1.21,0.15,1.81,0.21L144.56,119.03z M157.43,118.64l-0.07-0.45c0.6-0.1,1.21-0.2,1.8-0.32l0.09,0.45
				C158.65,118.44,158.04,118.55,157.43,118.64z M140.91,118.53c-0.61-0.11-1.22-0.22-1.81-0.35l0.1-0.45
				c0.59,0.12,1.19,0.24,1.79,0.35L140.91,118.53z M161.05,117.93l-0.11-0.45c0.59-0.14,1.19-0.29,1.77-0.45l0.12,0.44
				C162.25,117.63,161.65,117.79,161.05,117.93z M137.3,117.77c-0.59-0.15-1.19-0.31-1.78-0.48l0.13-0.44
				c0.58,0.17,1.18,0.33,1.76,0.48L137.3,117.77z M164.61,116.95l-0.14-0.44c0.58-0.18,1.16-0.38,1.73-0.58l0.16,0.43
				C165.78,116.56,165.19,116.76,164.61,116.95z M133.76,116.74c-0.58-0.19-1.16-0.4-1.74-0.61l0.16-0.43
				c0.57,0.21,1.15,0.42,1.72,0.61L133.76,116.74z M168.08,115.7l-0.17-0.43c0.56-0.22,1.13-0.46,1.68-0.71l0.19,0.42
				C169.22,115.24,168.65,115.48,168.08,115.7z M130.3,115.45c-0.57-0.24-1.13-0.48-1.69-0.74l0.19-0.42
				c0.55,0.25,1.11,0.5,1.67,0.73L130.3,115.45z M171.45,114.21l-0.2-0.41c0.55-0.27,1.09-0.55,1.63-0.83l0.22,0.4
				C172.56,113.65,172.01,113.94,171.45,114.21z M126.96,113.91c-0.55-0.28-1.1-0.57-1.63-0.86l0.22-0.4
				c0.52,0.29,1.07,0.58,1.61,0.85L126.96,113.91z M174.71,112.46l-0.23-0.4c0.52-0.3,1.04-0.62,1.56-0.95l0.25,0.39
				C175.76,111.83,175.23,112.15,174.71,112.46z M123.73,112.13c-0.52-0.32-1.05-0.65-1.56-0.98l0.25-0.38
				c0.51,0.33,1.03,0.66,1.55,0.97L123.73,112.13z M177.82,110.48l-0.26-0.38c0.5-0.34,1-0.7,1.49-1.07l0.27,0.37
				C178.83,109.77,178.32,110.14,177.82,110.48z M120.65,110.11c-0.51-0.36-1-0.73-1.48-1.09l0.28-0.36
				c0.47,0.36,0.97,0.73,1.47,1.08L120.65,110.11z M180.78,108.27l-0.29-0.36c0.47-0.38,0.94-0.77,1.4-1.17l0.3,0.35
				C181.73,107.49,181.25,107.89,180.78,108.27z M117.73,107.87c-0.47-0.39-0.94-0.79-1.4-1.2l0.31-0.34
				c0.45,0.4,0.92,0.8,1.39,1.19L117.73,107.87z M183.57,105.85l-0.31-0.34c0.42-0.39,0.83-0.79,1.24-1.2l0.08-0.08l0.32,0.32
				l-0.08,0.08C184.41,105.06,183.99,105.46,183.57,105.85z M114.97,105.41c-0.26-0.25-0.53-0.51-0.78-0.77
				c-0.18-0.18-0.35-0.35-0.52-0.53l0.33-0.32c0.17,0.18,0.34,0.35,0.52,0.53c0.26,0.26,0.52,0.51,0.78,0.76L114.97,105.41z
				 M186.17,103.24l-0.34-0.31c0.41-0.44,0.82-0.9,1.22-1.36l0.35,0.3C187,102.33,186.58,102.79,186.17,103.24z M112.4,102.77
				c-0.41-0.46-0.82-0.92-1.21-1.39l0.35-0.29c0.39,0.46,0.79,0.93,1.2,1.38L112.4,102.77z M188.57,100.45l-0.36-0.29
				c0.38-0.47,0.75-0.96,1.11-1.45l0.37,0.27C189.33,99.48,188.96,99.97,188.57,100.45z M110.03,99.94
				c-0.37-0.48-0.74-0.98-1.11-1.48l0.37-0.27c0.36,0.5,0.73,0.99,1.1,1.46L110.03,99.94z M190.76,97.49l-0.38-0.26
				c0.34-0.5,0.68-1.01,1-1.53l0.39,0.24C191.45,96.46,191.11,96.98,190.76,97.49z M107.87,96.94c-0.34-0.51-0.67-1.03-0.99-1.55
				l0.39-0.24c0.32,0.52,0.65,1.03,0.98,1.54L107.87,96.94z M192.73,94.37l-0.4-0.23c0.3-0.52,0.6-1.06,0.89-1.6l0.41,0.22
				C193.33,93.3,193.03,93.84,192.73,94.37z M105.95,93.8c-0.3-0.53-0.59-1.07-0.87-1.62l0.41-0.21c0.28,0.54,0.57,1.09,0.87,1.61
				L105.95,93.8z M194.46,91.11l-0.41-0.2c0.26-0.55,0.52-1.1,0.77-1.66l0.42,0.18C194.99,90,194.73,90.56,194.46,91.11z
				 M104.26,90.52c-0.26-0.56-0.51-1.13-0.75-1.69l0.42-0.18c0.23,0.55,0.48,1.11,0.74,1.67L104.26,90.52z M195.94,87.74l-0.43-0.17
				c0.23-0.57,0.44-1.15,0.64-1.71l0.43,0.15C196.39,86.58,196.17,87.16,195.94,87.74z M102.82,87.12
				c-0.22-0.57-0.43-1.16-0.62-1.74l0.43-0.15c0.19,0.57,0.4,1.15,0.62,1.72L102.82,87.12z M197.17,84.26l-0.44-0.14
				c0.18-0.58,0.35-1.17,0.51-1.75l0.44,0.12C197.53,83.08,197.35,83.67,197.17,84.26z M101.64,83.63
				c-0.06-0.21-0.12-0.42-0.18-0.63l0.44-0.12c0.06,0.21,0.12,0.42,0.18,0.63L101.64,83.63z M198.14,80.71l-0.45-0.1
				c0.14-0.59,0.27-1.2,0.38-1.79l0.45,0.09C198.41,79.5,198.28,80.11,198.14,80.71z M198.84,77.09l-0.45-0.07
				c0.09-0.6,0.18-1.21,0.25-1.81l0.46,0.05C199.02,75.87,198.94,76.48,198.84,77.09z M199.28,73.42l-0.46-0.04
				c0.05-0.6,0.09-1.22,0.12-1.82l0.46,0.02C199.37,72.19,199.33,72.81,199.28,73.42z M199.44,69.74l-0.46,0l0-0.4
				c0-0.47-0.01-0.95-0.02-1.42l0.46-0.01c0.01,0.48,0.02,0.96,0.02,1.44L199.44,69.74z M198.88,66.08
				c-0.04-0.61-0.09-1.22-0.15-1.82l0.46-0.05c0.06,0.61,0.11,1.23,0.15,1.84L198.88,66.08z M198.51,62.45
				c-0.08-0.6-0.18-1.21-0.29-1.81l0.45-0.08c0.11,0.61,0.2,1.22,0.29,1.82L198.51,62.45z M197.87,58.85
				c-0.13-0.59-0.27-1.19-0.42-1.78l0.44-0.11c0.15,0.59,0.29,1.2,0.42,1.8L197.87,58.85z M196.97,55.3
				c-0.17-0.58-0.36-1.17-0.55-1.74l0.43-0.15c0.19,0.58,0.38,1.17,0.55,1.76L196.97,55.3z M195.8,51.84
				c-0.21-0.56-0.44-1.14-0.68-1.7l0.42-0.18c0.24,0.57,0.47,1.14,0.68,1.71L195.8,51.84z M194.39,48.47
				c-0.25-0.55-0.52-1.1-0.8-1.64l0.41-0.21c0.28,0.55,0.55,1.11,0.81,1.66L194.39,48.47z M192.72,45.21
				c-0.3-0.53-0.61-1.06-0.92-1.58l0.39-0.24c0.32,0.52,0.63,1.06,0.93,1.59L192.72,45.21z M190.82,42.09
				c-0.34-0.51-0.69-1.02-1.04-1.51l0.37-0.27c0.35,0.49,0.7,1,1.05,1.52L190.82,42.09z M188.69,39.11
				c-0.37-0.48-0.75-0.96-1.15-1.43l0.35-0.29c0.39,0.47,0.78,0.96,1.16,1.44L188.69,39.11z M186.35,36.3
				c-0.41-0.45-0.82-0.9-1.25-1.34l0.33-0.32c0.42,0.44,0.85,0.89,1.26,1.35L186.35,36.3z M183.81,33.67
				c-0.43-0.42-0.89-0.84-1.34-1.24l0.31-0.34c0.46,0.41,0.91,0.83,1.35,1.25L183.81,33.67z M181.09,31.24
				c-0.47-0.39-0.95-0.77-1.43-1.14l0.28-0.36c0.48,0.37,0.96,0.76,1.44,1.15L181.09,31.24z M178.2,29.01
				c-0.49-0.35-0.99-0.7-1.5-1.03l0.25-0.38c0.52,0.34,1.03,0.69,1.52,1.04L178.2,29.01z M175.15,27c-0.51-0.31-1.04-0.62-1.58-0.92
				l0.22-0.4c0.54,0.3,1.07,0.61,1.59,0.93L175.15,27z M171.96,25.22c-0.54-0.28-1.1-0.55-1.64-0.8l0.19-0.42
				c0.55,0.26,1.11,0.53,1.66,0.81L171.96,25.22z M168.65,23.69c-0.56-0.23-1.13-0.46-1.7-0.67l0.16-0.43
				c0.57,0.22,1.15,0.44,1.71,0.68L168.65,23.69z M131.22,23.33l-0.17-0.43c0.57-0.22,1.15-0.44,1.73-0.65l0.15,0.43
				C132.36,22.9,131.78,23.11,131.22,23.33z M165.23,22.4c-0.58-0.19-1.17-0.38-1.74-0.55l0.13-0.44c0.58,0.17,1.17,0.36,1.76,0.55
				L165.23,22.4z M134.67,22.11l-0.14-0.44c0.59-0.18,1.18-0.36,1.77-0.52l0.12,0.44C135.84,21.76,135.25,21.93,134.67,22.11z
				 M161.72,21.37c-0.59-0.15-1.19-0.29-1.78-0.42l0.1-0.45c0.6,0.13,1.2,0.27,1.8,0.42L161.72,21.37z M138.19,21.15l-0.1-0.45
				c0.6-0.14,1.21-0.27,1.8-0.39l0.09,0.45C139.39,20.88,138.79,21.01,138.19,21.15z M158.15,20.6c-0.59-0.1-1.2-0.2-1.81-0.28
				l0.06-0.45c0.61,0.09,1.23,0.18,1.82,0.29L158.15,20.6z M141.78,20.45L141.71,20c0.6-0.09,1.22-0.18,1.83-0.25l0.05,0.46
				C142.99,20.27,142.38,20.36,141.78,20.45z M154.53,20.1c-0.61-0.06-1.22-0.11-1.82-0.15l0.03-0.46c0.61,0.04,1.23,0.09,1.84,0.15
				L154.53,20.1z M145.41,20.02l-0.04-0.46c0.61-0.05,1.22-0.09,1.84-0.12l0.02,0.46C146.62,19.93,146.01,19.97,145.41,20.02z
				 M150.89,19.87c-0.48-0.01-0.96-0.02-1.45-0.02c-0.13,0-0.25,0-0.38,0l0-0.46c0.16,0,0.31,0,0.47,0c0.46,0,0.92,0.01,1.38,0.02
				L150.89,19.87z"/>
		</g>
		<g>
			<g>
				<path class="st0" d="M131.86,24.73c-0.89,0.35-1.89-0.09-2.24-0.98c-0.35-0.89,0.09-1.89,0.98-2.24
					c0.89-0.35,1.89,0.09,2.24,0.98C133.19,23.38,132.75,24.38,131.86,24.73z"/>
			</g>
		</g>
		<g>
			<g>
				<path class="st0" d="M103.38,82.54c-0.26-0.92-1.21-1.45-2.13-1.19c-0.92,0.26-1.45,1.21-1.19,2.13
					c0.26,0.92,1.21,1.45,2.13,1.19C103.11,84.41,103.64,83.45,103.38,82.54z"/>
			</g>
		</g>
	</g>
	<g>
		<path class="st1" d="M114.54,55.46l-3.22-4.02h-9.85c-2.32,0-4.2-1.88-4.2-4.2v-7.66c0-2.32,1.88-4.2,4.2-4.2h12.89
			c2.32,0,4.2,1.88,4.2,4.2v7.66c0,2.26-1.79,4.11-4.03,4.2V55.46z M101.48,35.73c-2.13,0-3.86,1.73-3.86,3.86v7.66
			c0,2.13,1.73,3.86,3.86,3.86h10.01l2.71,3.39V51.1h0.17c2.13,0,3.86-1.73,3.86-3.86v-7.66c0-2.13-1.73-3.86-3.86-3.86H101.48z"/>
	</g>
</g>
<g>
	<g>
		<g>
			<path class="st0" d="M340.25,80.66l-0.44-0.13c1.39-4.61,2.09-9.41,2.09-14.27c0-8.69-2.28-17.23-6.6-24.71
				c-4.19-7.26-10.2-13.38-17.38-17.71l0.24-0.39c7.25,4.37,13.31,10.54,17.54,17.87c4.36,7.55,6.66,16.17,6.66,24.94
				C342.36,71.16,341.65,76,340.25,80.66z"/>
		</g>
		<g>
			<g>
				<polygon class="st0" points="339.04,79.29 338.7,84.43 341.57,80.15 				"/>
			</g>
		</g>
	</g>
	<g>
		<path class="st0" d="M283.39,90.71l7.96-24.18H276.4l15.7-29.16l-3.04,20.22h14.59L283.39,90.71z M277.17,66.07h14.82l-6.92,21.01
			l17.75-29.04h-14.3l2.73-18.13L277.17,66.07z"/>
	</g>
	<g>
		<circle class="st1" cx="270.28" cy="104.29" r="12.9"/>
	</g>
	<g>
		<circle class="st2" cx="300.83" cy="100.74" r="12.93"/>
		<path class="st0" d="M300.83,113.79c-7.2,0-13.05-5.85-13.05-13.05s5.85-13.05,13.05-13.05c7.2,0,13.05,5.85,13.05,13.05
			S308.02,113.79,300.83,113.79z M300.83,87.92c-7.07,0-12.82,5.75-12.82,12.82s5.75,12.82,12.82,12.82s12.82-5.75,12.82-12.82
			S307.9,87.92,300.83,87.92z"/>
	</g>
	<g>
		<circle class="st3" cx="252.17" cy="92.37" r="12.93"/>
	</g>
	<g>
		<g>
			<path class="st0" d="M280.09,119.27l-0.01-0.46c0.61-0.01,1.22-0.03,1.83-0.05l0.02,0.46
				C281.32,119.25,280.7,119.26,280.09,119.27z M278.24,119.26c-0.62-0.02-1.24-0.04-1.84-0.08l0.03-0.46
				c0.6,0.04,1.21,0.06,1.83,0.08L278.24,119.26z M283.77,119.09l-0.04-0.46c0.6-0.05,1.22-0.12,1.82-0.19l0.06,0.46
				C285,118.98,284.38,119.04,283.77,119.09z M274.56,119.03c-0.61-0.06-1.23-0.13-1.83-0.22l0.06-0.45
				c0.6,0.08,1.21,0.15,1.81,0.21L274.56,119.03z M287.43,118.64l-0.07-0.45c0.6-0.1,1.21-0.2,1.8-0.32l0.09,0.45
				C288.65,118.44,288.04,118.55,287.43,118.64z M270.91,118.53c-0.61-0.11-1.22-0.22-1.81-0.35l0.1-0.45
				c0.59,0.12,1.19,0.24,1.79,0.35L270.91,118.53z M291.05,117.93l-0.11-0.45c0.59-0.14,1.19-0.29,1.77-0.45l0.12,0.44
				C292.25,117.63,291.65,117.79,291.05,117.93z M267.3,117.77c-0.59-0.15-1.19-0.31-1.78-0.48l0.13-0.44
				c0.58,0.17,1.18,0.33,1.76,0.48L267.3,117.77z M294.61,116.95l-0.14-0.44c0.58-0.18,1.16-0.38,1.73-0.58l0.16,0.43
				C295.78,116.56,295.19,116.76,294.61,116.95z M263.76,116.74c-0.58-0.19-1.16-0.4-1.74-0.61l0.16-0.43
				c0.57,0.21,1.15,0.42,1.72,0.61L263.76,116.74z M298.08,115.7l-0.17-0.43c0.56-0.22,1.13-0.46,1.68-0.71l0.19,0.42
				C299.22,115.24,298.65,115.48,298.08,115.7z M260.3,115.45c-0.57-0.24-1.13-0.48-1.69-0.74l0.19-0.42
				c0.55,0.25,1.11,0.5,1.67,0.73L260.3,115.45z M301.45,114.21l-0.2-0.41c0.55-0.27,1.09-0.55,1.63-0.83l0.22,0.4
				C302.56,113.65,302.01,113.94,301.45,114.21z M256.96,113.91c-0.55-0.28-1.1-0.57-1.63-0.86l0.22-0.4
				c0.52,0.29,1.07,0.58,1.61,0.85L256.96,113.91z M304.71,112.46l-0.23-0.4c0.52-0.3,1.04-0.62,1.56-0.95l0.25,0.39
				C305.76,111.83,305.23,112.15,304.71,112.46z M253.73,112.13c-0.52-0.32-1.05-0.65-1.56-0.98l0.25-0.38
				c0.51,0.33,1.03,0.66,1.55,0.97L253.73,112.13z M307.82,110.48l-0.26-0.38c0.5-0.34,1-0.7,1.49-1.07l0.27,0.37
				C308.83,109.77,308.32,110.14,307.82,110.48z M250.65,110.11c-0.51-0.36-1-0.73-1.48-1.09l0.28-0.36
				c0.47,0.36,0.97,0.73,1.47,1.08L250.65,110.11z M310.78,108.27l-0.29-0.36c0.47-0.38,0.94-0.77,1.4-1.17l0.3,0.35
				C311.73,107.49,311.25,107.89,310.78,108.27z M247.73,107.87c-0.47-0.39-0.94-0.79-1.4-1.2l0.31-0.34
				c0.45,0.4,0.92,0.8,1.39,1.19L247.73,107.87z M313.57,105.85l-0.31-0.34c0.42-0.39,0.83-0.79,1.24-1.2l0.08-0.08l0.32,0.32
				l-0.08,0.08C314.41,105.06,313.99,105.46,313.57,105.85z M244.97,105.41c-0.26-0.25-0.53-0.51-0.78-0.77
				c-0.18-0.18-0.35-0.35-0.52-0.53l0.33-0.32c0.17,0.18,0.34,0.35,0.52,0.53c0.26,0.26,0.52,0.51,0.78,0.76L244.97,105.41z
				 M316.17,103.24l-0.34-0.31c0.41-0.44,0.82-0.9,1.22-1.36l0.35,0.3C317,102.33,316.58,102.79,316.17,103.24z M242.4,102.77
				c-0.41-0.46-0.82-0.92-1.21-1.39l0.35-0.29c0.39,0.46,0.79,0.93,1.2,1.38L242.4,102.77z M318.57,100.45l-0.36-0.29
				c0.38-0.47,0.75-0.96,1.11-1.45l0.37,0.27C319.33,99.48,318.96,99.97,318.57,100.45z M240.03,99.94
				c-0.37-0.48-0.74-0.98-1.11-1.48l0.37-0.27c0.36,0.5,0.73,0.99,1.1,1.46L240.03,99.94z M320.76,97.49l-0.38-0.26
				c0.34-0.5,0.68-1.01,1-1.53l0.39,0.24C321.45,96.46,321.11,96.98,320.76,97.49z M237.87,96.94c-0.34-0.51-0.67-1.03-0.99-1.55
				l0.39-0.24c0.32,0.52,0.65,1.03,0.98,1.54L237.87,96.94z M322.73,94.37l-0.4-0.23c0.3-0.52,0.6-1.06,0.89-1.6l0.41,0.22
				C323.33,93.3,323.03,93.84,322.73,94.37z M235.95,93.8c-0.3-0.53-0.59-1.07-0.87-1.62l0.41-0.21c0.28,0.54,0.57,1.09,0.87,1.61
				L235.95,93.8z M324.46,91.11l-0.41-0.2c0.26-0.55,0.52-1.1,0.77-1.66l0.42,0.18C324.99,90,324.73,90.56,324.46,91.11z
				 M234.26,90.52c-0.26-0.56-0.51-1.13-0.75-1.69l0.42-0.18c0.23,0.55,0.48,1.11,0.74,1.67L234.26,90.52z M325.94,87.74l-0.43-0.17
				c0.23-0.57,0.44-1.15,0.64-1.71l0.43,0.15C326.39,86.58,326.17,87.16,325.94,87.74z M232.82,87.12
				c-0.22-0.57-0.43-1.16-0.62-1.74l0.43-0.15c0.19,0.57,0.4,1.15,0.62,1.72L232.82,87.12z M327.17,84.26l-0.44-0.14
				c0.18-0.58,0.35-1.17,0.51-1.75l0.44,0.12C327.53,83.08,327.35,83.67,327.17,84.26z M231.64,83.63
				c-0.06-0.21-0.12-0.42-0.18-0.63l0.44-0.12c0.06,0.21,0.12,0.42,0.18,0.63L231.64,83.63z M328.14,80.71l-0.45-0.1
				c0.14-0.59,0.27-1.2,0.38-1.79l0.45,0.09C328.41,79.5,328.28,80.11,328.14,80.71z M328.84,77.09l-0.45-0.07
				c0.09-0.6,0.18-1.21,0.25-1.81l0.46,0.05C329.02,75.87,328.94,76.48,328.84,77.09z M329.28,73.42l-0.46-0.04
				c0.05-0.6,0.09-1.22,0.12-1.82l0.46,0.02C329.37,72.19,329.33,72.81,329.28,73.42z M329.44,69.74l-0.46,0l0-0.4
				c0-0.47-0.01-0.95-0.02-1.42l0.46-0.01c0.01,0.48,0.02,0.96,0.02,1.44L329.44,69.74z M328.88,66.08
				c-0.04-0.61-0.09-1.22-0.15-1.82l0.46-0.05c0.06,0.61,0.11,1.23,0.15,1.84L328.88,66.08z M328.51,62.45
				c-0.08-0.6-0.18-1.21-0.29-1.81l0.45-0.08c0.11,0.61,0.2,1.22,0.29,1.82L328.51,62.45z M327.87,58.85
				c-0.13-0.59-0.27-1.19-0.42-1.78l0.44-0.11c0.15,0.59,0.29,1.2,0.42,1.8L327.87,58.85z M326.97,55.3
				c-0.17-0.58-0.36-1.17-0.55-1.74l0.43-0.15c0.19,0.58,0.38,1.17,0.55,1.76L326.97,55.3z M325.8,51.84
				c-0.21-0.56-0.44-1.14-0.68-1.7l0.42-0.18c0.24,0.57,0.47,1.14,0.68,1.71L325.8,51.84z M324.39,48.47
				c-0.25-0.55-0.52-1.1-0.8-1.64l0.41-0.21c0.28,0.55,0.55,1.11,0.81,1.66L324.39,48.47z M322.72,45.21
				c-0.3-0.53-0.61-1.06-0.92-1.58l0.39-0.24c0.32,0.52,0.63,1.06,0.93,1.59L322.72,45.21z M320.82,42.09
				c-0.34-0.51-0.69-1.02-1.04-1.51l0.37-0.27c0.35,0.49,0.7,1,1.05,1.52L320.82,42.09z M318.69,39.11
				c-0.37-0.48-0.75-0.96-1.15-1.43l0.35-0.29c0.39,0.47,0.78,0.96,1.16,1.44L318.69,39.11z M316.35,36.3
				c-0.41-0.45-0.82-0.9-1.25-1.34l0.33-0.32c0.42,0.44,0.85,0.89,1.26,1.35L316.35,36.3z M313.81,33.67
				c-0.43-0.42-0.89-0.84-1.34-1.24l0.31-0.34c0.46,0.41,0.91,0.83,1.35,1.25L313.81,33.67z M311.09,31.24
				c-0.47-0.39-0.95-0.77-1.43-1.14l0.28-0.36c0.48,0.37,0.96,0.76,1.44,1.15L311.09,31.24z M308.2,29.01
				c-0.49-0.35-0.99-0.7-1.5-1.03l0.25-0.38c0.52,0.34,1.03,0.69,1.52,1.04L308.2,29.01z M305.15,27c-0.51-0.31-1.04-0.62-1.58-0.92
				l0.22-0.4c0.54,0.3,1.07,0.61,1.59,0.93L305.15,27z M301.96,25.22c-0.54-0.28-1.1-0.55-1.64-0.8l0.19-0.42
				c0.55,0.26,1.11,0.53,1.66,0.81L301.96,25.22z M298.65,23.69c-0.56-0.23-1.13-0.46-1.7-0.67l0.16-0.43
				c0.57,0.22,1.15,0.44,1.71,0.68L298.65,23.69z M261.22,23.33l-0.17-0.43c0.57-0.22,1.15-0.44,1.73-0.65l0.15,0.43
				C262.36,22.9,261.78,23.11,261.22,23.33z M295.23,22.4c-0.58-0.19-1.17-0.38-1.74-0.55l0.13-0.44c0.58,0.17,1.17,0.36,1.76,0.55
				L295.23,22.4z M264.67,22.11l-0.14-0.44c0.59-0.18,1.18-0.36,1.77-0.52l0.12,0.44C265.84,21.76,265.25,21.93,264.67,22.11z
				 M291.72,21.37c-0.59-0.15-1.19-0.29-1.78-0.42l0.1-0.45c0.6,0.13,1.2,0.27,1.8,0.42L291.72,21.37z M268.19,21.15l-0.1-0.45
				c0.6-0.14,1.21-0.27,1.8-0.39l0.09,0.45C269.39,20.88,268.79,21.01,268.19,21.15z M288.15,20.6c-0.59-0.1-1.2-0.2-1.81-0.28
				l0.06-0.45c0.61,0.09,1.23,0.18,1.82,0.29L288.15,20.6z M271.78,20.45L271.71,20c0.6-0.09,1.22-0.18,1.83-0.25l0.05,0.46
				C272.99,20.27,272.38,20.36,271.78,20.45z M284.53,20.1c-0.61-0.06-1.22-0.11-1.82-0.15l0.03-0.46c0.61,0.04,1.23,0.09,1.84,0.15
				L284.53,20.1z M275.41,20.02l-0.04-0.46c0.61-0.05,1.22-0.09,1.84-0.12l0.02,0.46C276.62,19.93,276.01,19.97,275.41,20.02z
				 M280.89,19.87c-0.48-0.01-0.96-0.02-1.45-0.02c-0.13,0-0.25,0-0.38,0l0-0.46c0.16,0,0.31,0,0.47,0c0.46,0,0.92,0.01,1.38,0.02
				L280.89,19.87z"/>
		</g>
		<g>
			<g>
				<path class="st0" d="M261.86,24.73c-0.89,0.35-1.89-0.09-2.24-0.98c-0.35-0.89,0.09-1.89,0.98-2.24
					c0.89-0.35,1.89,0.09,2.24,0.98C263.19,23.38,262.75,24.38,261.86,24.73z"/>
			</g>
		</g>
		<g>
			<g>
				<path class="st0" d="M233.38,82.54c-0.26-0.92-1.21-1.45-2.13-1.19c-0.92,0.26-1.45,1.21-1.19,2.13
					c0.26,0.92,1.21,1.45,2.13,1.19C233.11,84.41,233.64,83.45,233.38,82.54z"/>
			</g>
		</g>
	</g>
	<g>
		<path class="st1" d="M262.54,67.46l-3.22-4.02h-9.85c-2.32,0-4.2-1.88-4.2-4.2v-7.66c0-2.32,1.88-4.2,4.2-4.2h12.89
			c2.32,0,4.2,1.88,4.2,4.2v7.66c0,2.26-1.79,4.11-4.03,4.2V67.46z M249.48,47.73c-2.13,0-3.86,1.73-3.86,3.86v7.66
			c0,2.13,1.73,3.86,3.86,3.86h10.01l2.71,3.39V63.1h0.17c2.13,0,3.86-1.73,3.86-3.86v-7.66c0-2.13-1.73-3.86-3.86-3.86H249.48z"/>
	</g>
</g>
</svg>
