<?xml version="1.0" encoding="utf-8"?>
<!-- Generator: Adobe Illustrator 25.2.3, SVG Export Plug-In . SVG Version: 6.00 Build 0)  -->
<svg version="1.1" id="圖層_1" xmlns="http://www.w3.org/2000/svg" xmlns:xlink="http://www.w3.org/1999/xlink" x="0px" y="0px"
	 viewBox="0 0 438 140" style="enable-background:new 0 0 438 140;" xml:space="preserve">
<style type="text/css">
	.st0{fill:#231815;}
	.st1{fill:none;stroke:#231815;stroke-miterlimit:10;}
	.st2{fill:#F7F7F7;}
	.st3{fill:#323232;}
	.st4{fill:#C0E2AA;}
</style>
<g>
	<g>
		<g>
			<g>
				<rect x="133.88" y="78.47" class="st0" width="26.44" height="0.96"/>
			</g>
			<g>
				<g>
					<polygon class="st0" points="158.42,81.73 168.79,78.94 158.42,76.16 					"/>
				</g>
			</g>
		</g>
		<g>
			<g>
				<path class="st0" d="M288.41,79.42h-3.83v-0.96h3.83V79.42z M280.75,79.42h-3.83v-0.96h3.83V79.42z M273.1,79.42h-3.83v-0.96
					h3.83V79.42z M265.44,79.42h-3.47v-0.96h3.47V79.42z"/>
			</g>
			<g>
				<g>
					<polygon class="st0" points="263.87,76.16 253.49,78.94 263.87,81.73 					"/>
				</g>
			</g>
		</g>
		<g>
			<g>
				<path class="st0" d="M240.8,50.03c-3.03,0-5.5-2.47-5.5-5.5s2.47-5.5,5.5-5.5c3.03,0,5.5,2.47,5.5,5.5S243.84,50.03,240.8,50.03
					z M240.8,39.98c-2.51,0-4.55,2.04-4.55,4.55s2.04,4.55,4.55,4.55c2.51,0,4.55-2.04,4.55-4.55S243.31,39.98,240.8,39.98z"/>
			</g>
			<g>
				<path class="st0" d="M240.8,63.26c-3.03,0-5.5-2.47-5.5-5.5s2.47-5.5,5.5-5.5c3.03,0,5.5,2.47,5.5,5.5S243.84,63.26,240.8,63.26
					z M240.8,53.21c-2.51,0-4.55,2.04-4.55,4.55s2.04,4.55,4.55,4.55c2.51,0,4.55-2.04,4.55-4.55S243.31,53.21,240.8,53.21z"/>
			</g>
			<g>
				<path class="st1" d="M240.8,76.49c-3.03,0-5.5-2.47-5.5-5.5c0-3.03,2.47-5.5,5.5-5.5c3.03,0,5.5,2.47,5.5,5.5
					C246.31,74.02,243.84,76.49,240.8,76.49z M240.8,66.44c-2.51,0-4.55,2.04-4.55,4.55c0,2.51,2.04,4.55,4.55,4.55
					c2.51,0,4.55-2.04,4.55-4.55C245.35,68.48,243.31,66.44,240.8,66.44z"/>
			</g>
			<g>
				<path class="st0" d="M240.8,89.72c-3.03,0-5.5-2.47-5.5-5.5c0-3.03,2.47-5.5,5.5-5.5c3.03,0,5.5,2.47,5.5,5.5
					C246.31,87.25,243.84,89.72,240.8,89.72z M240.8,79.67c-2.51,0-4.55,2.04-4.55,4.55c0,2.51,2.04,4.55,4.55,4.55
					c2.51,0,4.55-2.04,4.55-4.55C245.35,81.71,243.31,79.67,240.8,79.67z"/>
			</g>
			<g>
				<path class="st0" d="M240.8,103.28c-3.03,0-5.5-2.47-5.5-5.5c0-3.03,2.47-5.5,5.5-5.5c3.03,0,5.5,2.47,5.5,5.5
					C246.31,100.82,243.84,103.28,240.8,103.28z M240.8,93.24c-2.51,0-4.55,2.04-4.55,4.55c0,2.51,2.04,4.55,4.55,4.55
					c2.51,0,4.55-2.04,4.55-4.55C245.35,95.28,243.31,93.24,240.8,93.24z"/>
			</g>
			<g>
				<path class="st0" d="M240.8,116.51c-3.03,0-5.5-2.47-5.5-5.5c0-3.03,2.47-5.5,5.5-5.5c3.03,0,5.5,2.47,5.5,5.5
					C246.31,114.04,243.84,116.51,240.8,116.51z M240.8,106.46c-2.51,0-4.55,2.04-4.55,4.55c0,2.51,2.04,4.55,4.55,4.55
					c2.51,0,4.55-2.04,4.55-4.55C245.35,108.5,243.31,106.46,240.8,106.46z"/>
			</g>
			<g>
				<path class="st0" d="M226.45,50.03c-3.03,0-5.5-2.47-5.5-5.5s2.47-5.5,5.5-5.5s5.5,2.47,5.5,5.5S229.48,50.03,226.45,50.03z
					 M226.45,39.98c-2.51,0-4.55,2.04-4.55,4.55s2.04,4.55,4.55,4.55s4.55-2.04,4.55-4.55S228.96,39.98,226.45,39.98z"/>
			</g>
			<g>
				<path class="st0" d="M226.45,63.26c-3.03,0-5.5-2.47-5.5-5.5s2.47-5.5,5.5-5.5s5.5,2.47,5.5,5.5S229.48,63.26,226.45,63.26z
					 M226.45,53.21c-2.51,0-4.55,2.04-4.55,4.55s2.04,4.55,4.55,4.55s4.55-2.04,4.55-4.55S228.96,53.21,226.45,53.21z"/>
			</g>
			<g>
				<path class="st0" d="M226.45,76.49c-3.03,0-5.5-2.47-5.5-5.5c0-3.03,2.47-5.5,5.5-5.5s5.5,2.47,5.5,5.5
					C231.95,74.02,229.48,76.49,226.45,76.49z M226.45,66.44c-2.51,0-4.55,2.04-4.55,4.55c0,2.51,2.04,4.55,4.55,4.55
					s4.55-2.04,4.55-4.55C230.99,68.48,228.96,66.44,226.45,66.44z"/>
			</g>
			<g>
				<path class="st0" d="M226.45,89.72c-3.03,0-5.5-2.47-5.5-5.5c0-3.03,2.47-5.5,5.5-5.5s5.5,2.47,5.5,5.5
					C231.95,87.25,229.48,89.72,226.45,89.72z M226.45,79.67c-2.51,0-4.55,2.04-4.55,4.55c0,2.51,2.04,4.55,4.55,4.55
					s4.55-2.04,4.55-4.55C230.99,81.71,228.96,79.67,226.45,79.67z"/>
			</g>
			<g>
				<path class="st0" d="M226.45,103.28c-3.03,0-5.5-2.47-5.5-5.5c0-3.03,2.47-5.5,5.5-5.5s5.5,2.47,5.5,5.5
					C231.95,100.82,229.48,103.28,226.45,103.28z M226.45,93.24c-2.51,0-4.55,2.04-4.55,4.55c0,2.51,2.04,4.55,4.55,4.55
					s4.55-2.04,4.55-4.55C230.99,95.28,228.96,93.24,226.45,93.24z"/>
			</g>
			<g>
				<path class="st1" d="M226.45,116.51c-3.03,0-5.5-2.47-5.5-5.5c0-3.03,2.47-5.5,5.5-5.5s5.5,2.47,5.5,5.5
					C231.95,114.04,229.48,116.51,226.45,116.51z M226.45,106.46c-2.51,0-4.55,2.04-4.55,4.55c0,2.51,2.04,4.55,4.55,4.55
					s4.55-2.04,4.55-4.55C230.99,108.5,228.96,106.46,226.45,106.46z"/>
			</g>
			<g>
				<path class="st0" d="M212.1,50.03c-3.03,0-5.5-2.47-5.5-5.5s2.47-5.5,5.5-5.5s5.5,2.47,5.5,5.5S215.13,50.03,212.1,50.03z
					 M212.1,39.98c-2.51,0-4.55,2.04-4.55,4.55s2.04,4.55,4.55,4.55s4.55-2.04,4.55-4.55S214.6,39.98,212.1,39.98z"/>
			</g>
			<g>
				<path class="st1" d="M212.1,63.26c-3.03,0-5.5-2.47-5.5-5.5s2.47-5.5,5.5-5.5s5.5,2.47,5.5,5.5S215.13,63.26,212.1,63.26z
					 M212.1,53.21c-2.51,0-4.55,2.04-4.55,4.55s2.04,4.55,4.55,4.55s4.55-2.04,4.55-4.55S214.6,53.21,212.1,53.21z"/>
			</g>
			<g>
				<path class="st0" d="M212.1,76.49c-3.03,0-5.5-2.47-5.5-5.5c0-3.03,2.47-5.5,5.5-5.5s5.5,2.47,5.5,5.5
					C217.6,74.02,215.13,76.49,212.1,76.49z M212.1,66.44c-2.51,0-4.55,2.04-4.55,4.55c0,2.51,2.04,4.55,4.55,4.55
					s4.55-2.04,4.55-4.55C216.64,68.48,214.6,66.44,212.1,66.44z"/>
			</g>
			<g>
				<path class="st0" d="M212.1,89.72c-3.03,0-5.5-2.47-5.5-5.5c0-3.03,2.47-5.5,5.5-5.5s5.5,2.47,5.5,5.5
					C217.6,87.25,215.13,89.72,212.1,89.72z M212.1,79.67c-2.51,0-4.55,2.04-4.55,4.55c0,2.51,2.04,4.55,4.55,4.55
					s4.55-2.04,4.55-4.55C216.64,81.71,214.6,79.67,212.1,79.67z"/>
			</g>
			<g>
				<path class="st0" d="M212.1,103.28c-3.03,0-5.5-2.47-5.5-5.5c0-3.03,2.47-5.5,5.5-5.5s5.5,2.47,5.5,5.5
					C217.6,100.82,215.13,103.28,212.1,103.28z M212.1,93.24c-2.51,0-4.55,2.04-4.55,4.55c0,2.51,2.04,4.55,4.55,4.55
					s4.55-2.04,4.55-4.55C216.64,95.28,214.6,93.24,212.1,93.24z"/>
			</g>
			<g>
				<path class="st0" d="M212.1,116.51c-3.03,0-5.5-2.47-5.5-5.5c0-3.03,2.47-5.5,5.5-5.5s5.5,2.47,5.5,5.5
					C217.6,114.04,215.13,116.51,212.1,116.51z M212.1,106.46c-2.51,0-4.55,2.04-4.55,4.55c0,2.51,2.04,4.55,4.55,4.55
					s4.55-2.04,4.55-4.55C216.64,108.5,214.6,106.46,212.1,106.46z"/>
			</g>
			<g>
				<path class="st0" d="M197.74,50.03c-3.03,0-5.5-2.47-5.5-5.5s2.47-5.5,5.5-5.5c3.03,0,5.5,2.47,5.5,5.5
					S200.78,50.03,197.74,50.03z M197.74,39.98c-2.51,0-4.55,2.04-4.55,4.55s2.04,4.55,4.55,4.55c2.51,0,4.55-2.04,4.55-4.55
					S200.25,39.98,197.74,39.98z"/>
			</g>
			<g>
				<path class="st0" d="M197.74,63.26c-3.03,0-5.5-2.47-5.5-5.5s2.47-5.5,5.5-5.5c3.03,0,5.5,2.47,5.5,5.5
					S200.78,63.26,197.74,63.26z M197.74,53.21c-2.51,0-4.55,2.04-4.55,4.55s2.04,4.55,4.55,4.55c2.51,0,4.55-2.04,4.55-4.55
					S200.25,53.21,197.74,53.21z"/>
			</g>
			<g>
				<path class="st0" d="M197.74,76.49c-3.03,0-5.5-2.47-5.5-5.5c0-3.03,2.47-5.5,5.5-5.5c3.03,0,5.5,2.47,5.5,5.5
					C203.24,74.02,200.78,76.49,197.74,76.49z M197.74,66.44c-2.51,0-4.55,2.04-4.55,4.55c0,2.51,2.04,4.55,4.55,4.55
					c2.51,0,4.55-2.04,4.55-4.55C202.29,68.48,200.25,66.44,197.74,66.44z"/>
			</g>
			<g>
				<path class="st1" d="M197.74,89.72c-3.03,0-5.5-2.47-5.5-5.5c0-3.03,2.47-5.5,5.5-5.5c3.03,0,5.5,2.47,5.5,5.5
					C203.24,87.25,200.78,89.72,197.74,89.72z M197.74,79.67c-2.51,0-4.55,2.04-4.55,4.55c0,2.51,2.04,4.55,4.55,4.55
					c2.51,0,4.55-2.04,4.55-4.55C202.29,81.71,200.25,79.67,197.74,79.67z"/>
			</g>
			<g>
				<path class="st0" d="M197.74,103.28c-3.03,0-5.5-2.47-5.5-5.5c0-3.03,2.47-5.5,5.5-5.5c3.03,0,5.5,2.47,5.5,5.5
					C203.24,100.82,200.78,103.28,197.74,103.28z M197.74,93.24c-2.51,0-4.55,2.04-4.55,4.55c0,2.51,2.04,4.55,4.55,4.55
					c2.51,0,4.55-2.04,4.55-4.55C202.29,95.28,200.25,93.24,197.74,93.24z"/>
			</g>
			<g>
				<path class="st0" d="M197.74,116.51c-3.03,0-5.5-2.47-5.5-5.5c0-3.03,2.47-5.5,5.5-5.5c3.03,0,5.5,2.47,5.5,5.5
					C203.24,114.04,200.78,116.51,197.74,116.51z M197.74,106.46c-2.51,0-4.55,2.04-4.55,4.55c0,2.51,2.04,4.55,4.55,4.55
					c2.51,0,4.55-2.04,4.55-4.55C202.29,108.5,200.25,106.46,197.74,106.46z"/>
			</g>
			<g>
				<path class="st0" d="M183.39,50.03c-3.03,0-5.5-2.47-5.5-5.5s2.47-5.5,5.5-5.5s5.5,2.47,5.5,5.5S186.42,50.03,183.39,50.03z
					 M183.39,39.98c-2.51,0-4.55,2.04-4.55,4.55s2.04,4.55,4.55,4.55s4.55-2.04,4.55-4.55S185.89,39.98,183.39,39.98z"/>
			</g>
			<g>
				<path class="st0" d="M183.39,63.26c-3.03,0-5.5-2.47-5.5-5.5s2.47-5.5,5.5-5.5s5.5,2.47,5.5,5.5S186.42,63.26,183.39,63.26z
					 M183.39,53.21c-2.51,0-4.55,2.04-4.55,4.55s2.04,4.55,4.55,4.55s4.55-2.04,4.55-4.55S185.89,53.21,183.39,53.21z"/>
			</g>
			<g>
				<path class="st0" d="M183.39,76.49c-3.03,0-5.5-2.47-5.5-5.5c0-3.03,2.47-5.5,5.5-5.5s5.5,2.47,5.5,5.5
					C188.89,74.02,186.42,76.49,183.39,76.49z M183.39,66.44c-2.51,0-4.55,2.04-4.55,4.55c0,2.51,2.04,4.55,4.55,4.55
					s4.55-2.04,4.55-4.55C187.93,68.48,185.89,66.44,183.39,66.44z"/>
			</g>
			<g>
				<path class="st0" d="M183.39,89.72c-3.03,0-5.5-2.47-5.5-5.5c0-3.03,2.47-5.5,5.5-5.5s5.5,2.47,5.5,5.5
					C188.89,87.25,186.42,89.72,183.39,89.72z M183.39,79.67c-2.51,0-4.55,2.04-4.55,4.55c0,2.51,2.04,4.55,4.55,4.55
					s4.55-2.04,4.55-4.55C187.93,81.71,185.89,79.67,183.39,79.67z"/>
			</g>
			<g>
				<path class="st0" d="M183.39,103.28c-3.03,0-5.5-2.47-5.5-5.5c0-3.03,2.47-5.5,5.5-5.5s5.5,2.47,5.5,5.5
					C188.89,100.82,186.42,103.28,183.39,103.28z M183.39,93.24c-2.51,0-4.55,2.04-4.55,4.55c0,2.51,2.04,4.55,4.55,4.55
					s4.55-2.04,4.55-4.55C187.93,95.28,185.89,93.24,183.39,93.24z"/>
			</g>
			<g>
				<path class="st0" d="M183.39,116.51c-3.03,0-5.5-2.47-5.5-5.5c0-3.03,2.47-5.5,5.5-5.5s5.5,2.47,5.5,5.5
					C188.89,114.04,186.42,116.51,183.39,116.51z M183.39,106.46c-2.51,0-4.55,2.04-4.55,4.55c0,2.51,2.04,4.55,4.55,4.55
					s4.55-2.04,4.55-4.55C187.93,108.5,185.89,106.46,183.39,106.46z"/>
			</g>
		</g>
		<g>
			<circle class="st2" cx="312.64" cy="79.14" r="17.38"/>
			<path class="st0" d="M312.65,96.76c-0.18,0-0.37,0-0.55-0.01c-4.7-0.15-9.07-2.11-12.29-5.54c-3.22-3.43-4.92-7.91-4.77-12.61
				c0.15-4.7,2.11-9.07,5.54-12.29c3.43-3.22,7.9-4.93,12.61-4.77c9.71,0.3,17.37,8.45,17.07,18.16
				C329.96,89.21,322.12,96.76,312.65,96.76z M312.63,61.99c-4.38,0-8.52,1.64-11.73,4.65c-3.34,3.14-5.25,7.38-5.39,11.96l0,0
				c-0.14,4.58,1.51,8.93,4.64,12.27s7.38,5.25,11.96,5.39c0.18,0.01,0.36,0.01,0.54,0.01c9.21,0,16.84-7.34,17.13-16.61
				c0.29-9.45-7.16-17.37-16.61-17.66C312.99,62,312.81,61.99,312.63,61.99z"/>
		</g>
		<g>
			<circle class="st3" cx="331.79" cy="79.14" r="17.43"/>
		</g>
		<g>
			<circle class="st4" cx="107.84" cy="79.14" r="17.43"/>
		</g>
	</g>
	<g>
		<path class="st3" d="M108.66,53.48v-5.99c-3.33-0.13-5.99-2.88-5.99-6.24V29.87c0-3.44,2.8-6.25,6.25-6.25h19.17
			c3.44,0,6.25,2.8,6.25,6.25v11.38c0,3.44-2.8,6.25-6.25,6.25h-14.64L108.66,53.48z M108.91,24.13c-3.16,0-5.74,2.57-5.74,5.73
			v11.38c0,3.16,2.57,5.73,5.74,5.73h0.26v5.04l4.03-5.04h14.89c3.16,0,5.74-2.57,5.74-5.73V29.87c0-3.16-2.57-5.73-5.74-5.73
			H108.91z"/>
	</g>
</g>
</svg>
