<?xml version="1.0" encoding="utf-8"?>
<!-- Generator: Adobe Illustrator 25.2.3, SVG Export Plug-In . SVG Version: 6.00 Build 0)  -->
<svg version="1.1" id="圖層_1" xmlns="http://www.w3.org/2000/svg" xmlns:xlink="http://www.w3.org/1999/xlink" x="0px" y="0px"
	 viewBox="0 0 438 140" style="enable-background:new 0 0 438 140;" xml:space="preserve">
<style type="text/css">
	.st0{fill:#231815;}
	.st1{fill:#C0E2AA;}
	.st2{fill:#323232;}
	.st3{fill:#F7F7F7;}
</style>
<g>
	<g>
		<g>
			<polygon class="st0" points="321.84,124.59 200.21,124.59 117.85,42.22 118.39,41.68 200.53,123.82 321.84,123.82 			"/>
		</g>
		<g>
			<g>
				<path class="st0" d="M116.18,44.09c-1.13-1.13-1.13-2.95,0-4.08c1.13-1.13,2.95-1.13,4.08,0c1.13,1.13,1.13,2.95,0,4.08
					C119.13,45.22,117.3,45.22,116.18,44.09z"/>
			</g>
		</g>
		<g>
			<g>
				<circle class="st0" cx="321.7" cy="124.21" r="2.88"/>
			</g>
		</g>
	</g>
	<g>
		<g>
			
				<rect x="185.87" y="76.68" transform="matrix(0.7071 -0.7071 0.7071 0.7071 -7.2432 157.3)" class="st0" width="0.77" height="21.42"/>
		</g>
		<g>
			<g>
				<polygon class="st0" points="191.18,95.47 198.64,99.77 194.33,92.32 				"/>
			</g>
		</g>
	</g>
	<g>
		<circle class="st1" cx="140.07" cy="39.64" r="16.42"/>
	</g>
	<g>
		<circle class="st2" cx="156.95" cy="56.63" r="16.46"/>
	</g>
	<g>
		<circle class="st3" cx="162.79" cy="62.47" r="16.46"/>
		<path class="st0" d="M162.79,79.12c-4.26,0-8.53-1.62-11.78-4.87c-6.49-6.49-6.49-17.06,0-23.55c3.15-3.15,7.33-4.88,11.78-4.88
			s8.63,1.73,11.78,4.88c3.15,3.15,4.88,7.33,4.88,11.78s-1.73,8.63-4.88,11.78C171.32,77.49,167.05,79.12,162.79,79.12z
			 M162.79,46.2c-4.35,0-8.43,1.69-11.51,4.77c-6.34,6.34-6.34,16.67,0,23.01c6.34,6.34,16.67,6.34,23.01,0
			c3.07-3.07,4.77-7.16,4.77-11.51c0-4.35-1.69-8.43-4.77-11.51C171.22,47.89,167.13,46.2,162.79,46.2z"/>
	</g>
	<g>
		<path class="st0" d="M238.69,124.44c-1.05-0.22-2.07-0.68-2.92-1.34l0.47-0.61c0.77,0.59,1.67,1,2.61,1.2L238.69,124.44z
			 M241.9,124.39l-0.18-0.75c0.93-0.23,1.82-0.67,2.57-1.28l0.48,0.59C243.94,123.64,242.94,124.13,241.9,124.39z M233.7,120.64
			c-0.5-0.97-0.77-2.01-0.81-3.11l0.77-0.02c0.03,0.98,0.27,1.92,0.72,2.78L233.7,120.64z M246.76,120.43l-0.69-0.33
			c0.42-0.88,0.63-1.82,0.63-2.8c0-0.14,0-0.28-0.01-0.41l0.77-0.05c0.01,0.15,0.01,0.31,0.01,0.46
			C247.47,118.4,247.23,119.45,246.76,120.43z M234.2,114.68l-0.7-0.31c0.43-0.98,1.09-1.88,1.91-2.59l0.5,0.58
			C235.18,113,234.59,113.8,234.2,114.68z M245.88,114.13c-0.47-0.84-1.13-1.58-1.92-2.14l0.45-0.62c0.88,0.63,1.62,1.45,2.14,2.39
			L245.88,114.13z M238.44,111.01l-0.2-0.74c0.63-0.17,1.28-0.26,1.93-0.26c0,0,0.01,0,0.01,0c0.42,0,0.85,0.04,1.26,0.11
			l-0.13,0.76c-0.37-0.07-0.75-0.1-1.13-0.1c0,0-0.01,0-0.01,0C239.59,110.78,239,110.86,238.44,111.01z"/>
	</g>
	<g>
		<path class="st0" d="M252.5,124.44c-1.05-0.22-2.07-0.68-2.92-1.34l0.47-0.61c0.77,0.59,1.67,1,2.61,1.2L252.5,124.44z
			 M255.71,124.39l-0.18-0.75c0.93-0.23,1.82-0.67,2.57-1.28l0.48,0.59C257.75,123.64,256.75,124.13,255.71,124.39z M247.51,120.64
			c-0.5-0.97-0.77-2.01-0.81-3.11l0.77-0.02c0.03,0.98,0.27,1.92,0.72,2.78L247.51,120.64z M260.57,120.43l-0.69-0.33
			c0.42-0.88,0.63-1.82,0.63-2.8c0-0.14,0-0.28-0.01-0.41l0.77-0.05c0.01,0.15,0.01,0.31,0.01,0.46
			C261.28,118.4,261.04,119.45,260.57,120.43z M248.02,114.68l-0.7-0.31c0.43-0.98,1.09-1.88,1.91-2.59l0.5,0.58
			C248.99,113,248.4,113.8,248.02,114.68z M259.69,114.13c-0.47-0.84-1.13-1.58-1.92-2.14l0.45-0.62c0.88,0.63,1.62,1.45,2.14,2.39
			L259.69,114.13z M252.25,111.01l-0.2-0.74c0.63-0.17,1.25-0.27,1.94-0.26c0.42,0,0.85,0.04,1.26,0.11l-0.13,0.76
			c-0.37-0.07-0.75-0.1-1.13-0.1c0,0-0.01,0-0.01,0C253.4,110.78,252.81,110.86,252.25,111.01z"/>
	</g>
	<g>
		<path class="st0" d="M266.31,124.44c-1.05-0.22-2.07-0.68-2.92-1.34l0.47-0.61c0.77,0.59,1.67,1,2.61,1.2L266.31,124.44z
			 M269.52,124.39l-0.18-0.75c0.93-0.23,1.82-0.67,2.57-1.28l0.48,0.59C271.56,123.64,270.56,124.13,269.52,124.39z M261.32,120.64
			c-0.5-0.97-0.77-2.01-0.81-3.11l0.77-0.02c0.03,0.98,0.27,1.92,0.72,2.78L261.32,120.64z M274.38,120.43l-0.69-0.33
			c0.42-0.88,0.63-1.82,0.63-2.8c0-0.14,0-0.28-0.01-0.41l0.77-0.05c0.01,0.15,0.01,0.31,0.01,0.46
			C275.09,118.4,274.85,119.45,274.38,120.43z M261.83,114.68l-0.7-0.31c0.43-0.98,1.09-1.88,1.91-2.59l0.5,0.58
			C262.8,113,262.21,113.8,261.83,114.68z M273.5,114.13c-0.47-0.84-1.13-1.58-1.92-2.14l0.45-0.62c0.88,0.63,1.62,1.45,2.14,2.39
			L273.5,114.13z M266.06,111.01l-0.2-0.74c0.63-0.17,1.27-0.27,1.94-0.26c0.42,0,0.85,0.04,1.26,0.11l-0.13,0.76
			c-0.37-0.07-0.75-0.1-1.13-0.1c0,0-0.01,0-0.01,0C267.21,110.78,266.63,110.86,266.06,111.01z"/>
	</g>
	<g>
		<path class="st0" d="M280.12,124.44c-1.05-0.22-2.07-0.68-2.92-1.34l0.47-0.61c0.77,0.59,1.67,1,2.61,1.2L280.12,124.44z
			 M283.33,124.39l-0.18-0.75c0.93-0.23,1.82-0.67,2.57-1.28l0.48,0.59C285.37,123.64,284.38,124.13,283.33,124.39z M275.13,120.64
			c-0.5-0.97-0.77-2.01-0.81-3.11l0.77-0.02c0.03,0.98,0.27,1.92,0.72,2.78L275.13,120.64z M288.2,120.43l-0.69-0.33
			c0.42-0.88,0.63-1.82,0.63-2.8c0-0.14,0-0.28-0.01-0.41l0.77-0.05c0.01,0.15,0.01,0.31,0.01,0.46
			C288.9,118.4,288.66,119.45,288.2,120.43z M275.64,114.68l-0.7-0.31c0.43-0.98,1.09-1.88,1.91-2.59l0.5,0.58
			C276.61,113,276.02,113.8,275.64,114.68z M287.31,114.13c-0.47-0.84-1.13-1.58-1.92-2.14l0.45-0.62c0.88,0.63,1.62,1.45,2.14,2.39
			L287.31,114.13z M279.88,111.01l-0.2-0.74c0.63-0.17,1.29-0.27,1.94-0.26c0.42,0,0.85,0.04,1.26,0.11l-0.13,0.76
			c-0.37-0.07-0.75-0.1-1.13-0.1c0,0-0.01,0-0.01,0C281.02,110.78,280.44,110.86,279.88,111.01z"/>
	</g>
	<g>
		<path class="st2" d="M169.82,35.63v-4.55c-2.43-0.15-4.35-2.17-4.35-4.63v-8.27c0-2.56,2.08-4.64,4.64-4.64h13.93
			c2.56,0,4.64,2.08,4.64,4.64v8.27c0,2.56-2.08,4.64-4.64,4.64h-10.59L169.82,35.63z M170.11,14.12c-2.24,0-4.06,1.82-4.06,4.06
			v8.27c0,2.24,1.82,4.06,4.06,4.06h0.29v3.47l2.78-3.47h10.87c2.24,0,4.06-1.82,4.06-4.06v-8.27c0-2.24-1.82-4.06-4.06-4.06H170.11
			z"/>
	</g>
</g>
</svg>
