<svg xmlns="http://www.w3.org/2000/svg" viewBox="0 0 456.43 152.94"><defs><style>.cls-1,.cls-3{fill:none;}.cls-1{stroke:#c0e2aa;stroke-width:2px;}.cls-1,.cls-3,.cls-6{stroke-miterlimit:10;}.cls-2{fill:#c0e2aa;}.cls-3,.cls-6{stroke:#231815;}.cls-4{fill:#231815;}.cls-5{fill:#323232;}.cls-6{fill:#f7f7f7;stroke-width:0.5px;}</style></defs><g id="圖層_2" data-name="圖層 2"><g id="圖層_1-2" data-name="圖層 1"><polyline class="cls-1" points="9.8 149.18 95.63 149.18 122.26 116.03 452.86 116.03"/><path class="cls-2" d="M10,152.94a3.76,3.76,0,1,1,3.76-3.76A3.77,3.77,0,0,1,10,152.94Z"/><circle class="cls-2" cx="452.67" cy="116.03" r="3.76"/><line class="cls-3" x1="242.52" y1="85.12" x2="152.31" y2="85.12"/><polygon class="cls-4" points="154.29 82.21 143.45 85.12 154.29 88.02 154.29 82.21"/><circle class="cls-5" cx="289.06" cy="85.76" r="28.1"/><circle class="cls-6" cx="338.58" cy="85.76" r="28.18"/><circle class="cls-2" cx="400.41" cy="85.76" r="28.18"/><rect class="cls-5" x="48" y="44.87" width="6.19" height="103.66"/><path class="cls-5" d="M57.28,30.94a84.14,84.14,0,0,1-6.19,30.94A84.14,84.14,0,0,1,44.9,30.94,84.14,84.14,0,0,1,51.09,0,84.14,84.14,0,0,1,57.28,30.94Z"/><path class="cls-5" d="M24.77,57.34a84.1,84.1,0,0,1,30.39-8.51A84.2,84.2,0,0,1,30.38,68.37,84.22,84.22,0,0,1,0,76.89,84.17,84.17,0,0,1,24.77,57.34Z"/><path class="cls-5" d="M77.77,56.49a84.13,84.13,0,0,0-30.49-8.15,84.37,84.37,0,0,0,25,19.25,84.23,84.23,0,0,0,30.49,8.14A84.25,84.25,0,0,0,77.77,56.49Z"/></g></g></svg>