<svg xmlns="http://www.w3.org/2000/svg" viewBox="0 0 418.44 146.33"><defs><style>.cls-1,.cls-3,.cls-7{fill:none;}.cls-1,.cls-3,.cls-5{stroke:#231815;}.cls-1,.cls-3,.cls-5,.cls-7{stroke-miterlimit:10;}.cls-2{fill:#231815;}.cls-3{stroke-dasharray:4 4;}.cls-4{fill:#323232;}.cls-5{fill:#f7f7f7;stroke-width:0.5px;}.cls-6{fill:#c0e2aa;}.cls-7{stroke:#323232;stroke-width:0.75px;}</style></defs><g id="圖層_2" data-name="圖層 2"><g id="圖層_1-2" data-name="圖層 1"><line class="cls-1" x1="70.28" y1="86.37" x2="117.87" y2="86.37"/><polygon class="cls-2" points="115.89 89.27 126.73 86.37 115.89 83.46 115.89 89.27"/><line class="cls-3" x1="320.12" y1="86.37" x2="272.53" y2="86.37"/><polygon class="cls-2" points="274.51 83.46 263.67 86.37 274.51 89.27 274.51 83.46"/><circle class="cls-4" cx="243.15" cy="30.72" r="8.12"/><circle class="cls-4" cx="243.15" cy="52.11" r="8.12"/><circle class="cls-4" cx="243.15" cy="73.5" r="8.12"/><circle class="cls-4" cx="243.15" cy="94.89" r="8.12"/><circle class="cls-4" cx="243.15" cy="116.82" r="8.12"/><circle class="cls-4" cx="243.15" cy="138.21" r="8.12"/><circle class="cls-4" cx="219.94" cy="30.72" r="8.12"/><circle class="cls-4" cx="219.94" cy="52.11" r="8.12"/><circle class="cls-4" cx="219.94" cy="73.5" r="8.12"/><circle class="cls-4" cx="219.94" cy="94.89" r="8.12"/><circle class="cls-4" cx="219.94" cy="116.82" r="8.12"/><circle class="cls-4" cx="219.94" cy="138.21" r="8.12"/><circle class="cls-4" cx="196.74" cy="30.72" r="8.12"/><circle class="cls-4" cx="196.74" cy="52.11" r="8.12"/><circle class="cls-4" cx="196.74" cy="73.5" r="8.12"/><circle class="cls-4" cx="196.74" cy="94.89" r="8.12"/><circle class="cls-4" cx="196.74" cy="116.82" r="8.12"/><circle class="cls-4" cx="196.74" cy="138.21" r="8.12"/><circle class="cls-4" cx="173.53" cy="30.72" r="8.12"/><circle class="cls-4" cx="173.53" cy="52.11" r="8.12"/><circle class="cls-4" cx="173.53" cy="73.5" r="8.12"/><circle class="cls-4" cx="173.53" cy="94.89" r="8.12"/><circle class="cls-4" cx="173.53" cy="116.82" r="8.12"/><circle class="cls-4" cx="173.53" cy="138.21" r="8.12"/><circle class="cls-4" cx="150.32" cy="30.72" r="8.12"/><circle class="cls-4" cx="150.32" cy="52.11" r="8.12"/><circle class="cls-4" cx="150.32" cy="73.5" r="8.12"/><circle class="cls-4" cx="150.32" cy="94.89" r="8.12"/><circle class="cls-4" cx="150.32" cy="116.82" r="8.12"/><circle class="cls-4" cx="150.32" cy="138.21" r="8.12"/><circle class="cls-5" cx="359.3" cy="89.77" r="28.1"/><circle class="cls-4" cx="390.26" cy="89.77" r="28.18"/><circle class="cls-6" cx="28.18" cy="89.77" r="28.18"/><path class="cls-6" d="M.77,88.92C-.5,82.7,2.1,62.26,3.1,58.33a65.67,65.67,0,0,1,3.49-9.49c1.4-.23,2.7,1.92,3.43,2.85a12.52,12.52,0,0,0,2.21,1.88c1.95,2.4,4.29,4.63,6.42,6.88,1.93,2.12,3.14,3.54,5.41.91,5.19-6,3.83-17.25,11.11-21.76,6.31,57.72,17.31-23,21.19,49.32"/><path class="cls-7" d="M395.17,9.15V25.83a8.76,8.76,0,0,1-8.77,8.77H364.77l-6.46,8.08V34.6a8.77,8.77,0,0,1-8.78-8.77V9.15A8.77,8.77,0,0,1,358.31.38H386.4A8.76,8.76,0,0,1,395.17,9.15Z"/></g></g></svg>