<svg xmlns="http://www.w3.org/2000/svg" viewBox="0 0 215.63 253"><defs><style>.cls-1,.cls-2{fill:none;}.cls-1,.cls-2,.cls-5{stroke:#231815;stroke-miterlimit:10;}.cls-2{stroke-dasharray:4 4;}.cls-3{fill:#231815;}.cls-4{fill:#323232;}.cls-5{fill:#f7f7f7;stroke-width:0.5px;}.cls-6{fill:#c0e2aa;}</style></defs><g id="圖層_2" data-name="圖層 2"><g id="圖層_1-2" data-name="圖層 1"><path class="cls-1" d="M.72,246.49c9.32,0,9.32,6,18.63,6s9.32-6,18.64-6,9.32,6,18.63,6,9.32-6,18.64-6,9.31,6,18.63,6,9.32-6,18.64-6,9.31,6,18.63,6,9.32-6,18.64-6,9.32,6,18.64,6,9.32-6,18.64-6,9.32,6,18.64,6"/><line class="cls-2" x1="107.59" y1="232.99" x2="107.59" y2="205.73"/><polygon class="cls-3" points="110.49 207.71 107.59 196.87 104.68 207.71 110.49 207.71"/><line class="cls-2" x1="136.98" y1="232.99" x2="136.98" y2="205.73"/><polygon class="cls-3" points="139.89 207.71 136.98 196.87 134.08 207.71 139.89 207.71"/><line class="cls-2" x1="78.19" y1="232.99" x2="78.19" y2="205.73"/><polygon class="cls-3" points="81.1 207.71 78.19 196.87 75.29 207.71 81.1 207.71"/><line class="cls-2" x1="107.59" y1="17.41" x2="107.59" y2="44.66"/><polygon class="cls-3" points="104.68 42.68 107.59 53.52 110.49 42.68 104.68 42.68"/><line class="cls-2" x1="78.19" y1="17.41" x2="78.19" y2="44.66"/><polygon class="cls-3" points="75.29 42.68 78.19 53.52 81.1 42.68 75.29 42.68"/><line class="cls-2" x1="136.98" y1="17.41" x2="136.98" y2="44.66"/><polygon class="cls-3" points="134.08 42.68 136.98 53.52 139.89 42.68 134.08 42.68"/><rect class="cls-4" x="100.85" y="62.01" width="13.92" height="215.63" transform="translate(277.64 62.01) rotate(90)"/><rect class="cls-4" x="100.85" y="-19.99" width="13.92" height="215.63" transform="translate(195.64 -19.99) rotate(90)"/><circle class="cls-4" cx="41.63" cy="128.74" r="33.76"/><circle class="cls-5" cx="109.43" cy="128.9" r="33.85"/><circle class="cls-6" cx="177.24" cy="128.9" r="33.85"/><path class="cls-1" d="M.72.5c9.32,0,9.32,6,18.63,6S28.67.5,38,.5s9.32,6,18.63,6,9.32-6,18.64-6,9.31,6,18.63,6,9.32-6,18.64-6,9.31,6,18.63,6,9.32-6,18.64-6,9.32,6,18.64,6,9.32-6,18.64-6,9.32,6,18.64,6"/></g></g></svg>