<svg xmlns="http://www.w3.org/2000/svg" viewBox="0 0 210.77 209.63"><defs><style>.cls-1{fill:none;stroke-dasharray:4;}.cls-1,.cls-2{stroke:#231815;stroke-miterlimit:10;}.cls-2{fill:#f7f7f7;stroke-width:0.5px;}.cls-3{fill:#c0e2aa;}.cls-4{fill:#323232;}</style></defs><g id="圖層_2" data-name="圖層 2"><g id="圖層_1-2" data-name="圖層 1"><polygon class="cls-1" points="209.85 104.82 195.36 114.28 207.59 126.54 191.45 132.78 200.84 147.32 183.75 150.05 189.9 166.23 172.62 165.35 175.29 182.45 158.56 178.01 157.63 195.3 142.19 187.49 137.67 204.2 124.21 193.32 116.3 208.72 105.38 195.28 94.47 208.72 86.56 193.32 73.09 204.2 68.58 187.49 53.14 195.3 52.21 178.01 35.48 182.45 38.15 165.35 20.86 166.23 27.02 150.05 9.93 147.32 19.32 132.78 3.18 126.53 15.41 114.28 0.91 104.82 15.41 95.35 3.18 83.1 19.32 76.85 9.93 62.31 27.02 59.58 20.86 43.4 38.15 44.28 35.48 27.18 52.21 31.62 53.14 14.33 68.58 22.15 73.09 5.43 86.56 16.31 94.47 0.91 105.38 14.35 116.3 0.91 124.21 16.31 137.68 5.43 142.19 22.15 157.63 14.33 158.56 31.62 175.29 27.18 172.62 44.28 189.91 43.4 183.75 59.58 200.84 62.31 191.45 76.85 207.59 83.1 195.36 95.35 209.85 104.82"/><circle class="cls-2" cx="73.52" cy="104.4" r="37.83"/><circle class="cls-3" cx="99.99" cy="105.43" r="37.99"/><circle class="cls-4" cx="137.98" cy="105.43" r="37.99"/></g></g></svg>