<svg xmlns="http://www.w3.org/2000/svg" viewBox="0 0 216.57 225.08"><defs><style>.cls-1{fill:#323232;}.cls-2{fill:#f7f7f7;stroke-width:0.5px;}.cls-2,.cls-4,.cls-6{stroke:#231815;stroke-miterlimit:10;}.cls-3{fill:#c0e2aa;}.cls-4,.cls-6{fill:none;}.cls-5{fill:#231815;}.cls-6{stroke-dasharray:4;}</style></defs><g id="圖層_2" data-name="圖層 2"><g id="圖層_1-2" data-name="圖層 1"><rect class="cls-1" x="3.52" y="51.3" width="208.86" height="41.77"/><circle class="cls-2" cx="57.55" cy="25.43" r="25.18"/><circle class="cls-3" cx="137.72" cy="25.67" r="25.37"/><circle class="cls-1" cx="174.63" cy="25.67" r="25.37"/><polyline class="cls-4" points="3.76 29.35 3.76 224.58 212.81 224.58 212.81 29.35"/><circle class="cls-5" cx="3.76" cy="29.54" r="3.76"/><circle class="cls-5" cx="212.81" cy="29.54" r="3.76"/><line class="cls-4" x1="108.28" y1="105.45" x2="108.28" y2="152.35"/><polygon class="cls-5" points="105.38 150.36 108.28 161.21 111.19 150.36 105.38 150.36"/><rect class="cls-6" x="31.67" y="171.21" width="41.17" height="52.6"/><path class="cls-1" d="M52.89,203.88a2.85,2.85,0,1,0,2.84,2.85A2.84,2.84,0,0,0,52.89,203.88Z"/><path class="cls-1" d="M59.28,195.61a13,13,0,0,0-12.82,0,.76.76,0,0,0-.37.65.67.67,0,0,0,.09.34l3.59,6.17a.7.7,0,0,0,.61.34.62.62,0,0,0,.34-.09A4.38,4.38,0,0,1,55,203a.62.62,0,0,0,.34.09.7.7,0,0,0,.61-.34l3.59-6.17A.75.75,0,0,0,59.28,195.61Z"/><path class="cls-1" d="M65,206H57.89a.69.69,0,0,0-.71.71,4.34,4.34,0,0,1-2.13,3.7.71.71,0,0,0-.25,1l3.58,6.18a.72.72,0,0,0,1,.25,12.89,12.89,0,0,0,6.43-11.12A.79.79,0,0,0,65,206Z"/><path class="cls-1" d="M50.75,210.43a4.33,4.33,0,0,1-2.16-3.7.69.69,0,0,0-.71-.71H40.75a.69.69,0,0,0-.71.71,12.91,12.91,0,0,0,6.39,11.12.89.89,0,0,0,.37.12.7.7,0,0,0,.62-.34L51,211.45A.74.74,0,0,0,50.75,210.43Z"/><rect class="cls-6" x="88.91" y="171.21" width="41.17" height="52.6"/><path class="cls-1" d="M110.13,203.88a2.85,2.85,0,1,0,2.84,2.85A2.83,2.83,0,0,0,110.13,203.88Z"/><path class="cls-1" d="M116.52,195.61a13,13,0,0,0-12.82,0,.76.76,0,0,0-.37.65.59.59,0,0,0,.1.34l3.58,6.17a.7.7,0,0,0,.62.34A.67.67,0,0,0,108,203a4.36,4.36,0,0,1,4.26,0,.64.64,0,0,0,.34.09.71.71,0,0,0,.62-.34l3.58-6.17A.74.74,0,0,0,116.52,195.61Z"/><path class="cls-1" d="M122.27,206h-7.14a.69.69,0,0,0-.71.71,4.34,4.34,0,0,1-2.13,3.7.72.72,0,0,0-.25,1l3.59,6.18a.72.72,0,0,0,1,.25A12.9,12.9,0,0,0,123,206.73.79.79,0,0,0,122.27,206Z"/><path class="cls-1" d="M108,210.43a4.31,4.31,0,0,1-2.16-3.7.69.69,0,0,0-.71-.71H98a.69.69,0,0,0-.71.71,12.91,12.91,0,0,0,6.39,11.12.94.94,0,0,0,.37.12.7.7,0,0,0,.62-.34l3.59-6.18A.75.75,0,0,0,108,210.43Z"/><rect class="cls-6" x="144.61" y="171.21" width="41.17" height="52.6"/><path class="cls-1" d="M165.83,203.88a2.85,2.85,0,1,0,2.84,2.85A2.84,2.84,0,0,0,165.83,203.88Z"/><path class="cls-1" d="M172.22,195.61a13,13,0,0,0-12.82,0,.74.74,0,0,0-.37.65.67.67,0,0,0,.09.34l3.59,6.17a.7.7,0,0,0,.61.34.62.62,0,0,0,.34-.09,4.38,4.38,0,0,1,4.27,0,.62.62,0,0,0,.34.09.7.7,0,0,0,.61-.34l3.59-6.17A.75.75,0,0,0,172.22,195.61Z"/><path class="cls-1" d="M178,206h-7.13a.69.69,0,0,0-.71.71,4.36,4.36,0,0,1-2.13,3.7.71.71,0,0,0-.25,1l3.58,6.18a.72.72,0,0,0,1,.25,12.89,12.89,0,0,0,6.43-11.12A.8.8,0,0,0,178,206Z"/><path class="cls-1" d="M163.69,210.43a4.33,4.33,0,0,1-2.16-3.7.69.69,0,0,0-.71-.71h-7.13a.69.69,0,0,0-.71.71,12.91,12.91,0,0,0,6.39,11.12.89.89,0,0,0,.37.12.71.71,0,0,0,.62-.34l3.58-6.18A.74.74,0,0,0,163.69,210.43Z"/></g></g></svg>