<svg xmlns="http://www.w3.org/2000/svg" width="542" height="77.124" viewBox="0 0 542 77.124">
  <g id="Group_20" data-name="Group 20" transform="translate(0 0.25)">
    <path id="Stroke_1" data-name="Stroke 1" d="M88,.973H0" transform="translate(324 20.428)" fill="none" stroke="#231815" stroke-miterlimit="10" stroke-width="1"/>
    <path id="Fill_2" data-name="Fill 2" d="M17,0,0,4.377,17,8.755Z" transform="translate(310 17.509)" fill="#231815"/>
    <path id="Stroke_3" data-name="Stroke 3" d="M0,.973H88" transform="translate(100 20.428)" fill="none" stroke="#231815" stroke-miterlimit="10" stroke-width="1"/>
    <path id="Fill_4" data-name="Fill 4" d="M0,8.755,17,4.378,0,0Z" transform="translate(185 17.509)" fill="#231815"/>
    <g id="Group_19" data-name="Group 19">
      <path id="Stroke_5" data-name="Stroke 5" d="M0,0H121.644l44.9,24H364.4L411.037,0H530.62" transform="translate(5.689 51.873)" fill="none" stroke="#c0e2aa" stroke-miterlimit="10" stroke-width="2" stroke-dasharray="4 4"/>
      <path id="Fill_7" data-name="Fill 7" d="M5.99,11.644A5.909,5.909,0,0,1,0,5.822,5.909,5.909,0,0,1,5.99,0a5.909,5.909,0,0,1,5.99,5.822,5.909,5.909,0,0,1-5.99,5.822" transform="translate(0 46.051)" fill="#c0e2aa"/>
      <path id="Fill_9" data-name="Fill 9" d="M5.99,11.644a5.909,5.909,0,0,0,5.99-5.822A5.909,5.909,0,0,0,5.99,0,5.909,5.909,0,0,0,0,5.822a5.909,5.909,0,0,0,5.99,5.822" transform="translate(530.021 46.051)" fill="#c0e2aa"/>
      <path id="Fill_11" data-name="Fill 11" d="M51.483,25.022c0,13.82-11.524,25.022-25.742,25.022S0,38.842,0,25.022,11.524,0,25.742,0,51.483,11.2,51.483,25.022" transform="translate(477.449)" fill="#f7f7f7"/>
      <path id="Stroke_13" data-name="Stroke 13" d="M51.483,25.022c0,13.82-11.524,25.022-25.742,25.022S0,38.842,0,25.022,11.524,0,25.742,0,51.483,11.2,51.483,25.022Z" transform="translate(477.449)" fill="none" stroke="#231815" stroke-miterlimit="10" stroke-width="0.5"/>
      <path id="Fill_15" data-name="Fill 15" d="M51.086,24.828c0,13.713-11.436,24.83-25.542,24.83S0,38.541,0,24.828,11.435,0,25.544,0,51.086,11.116,51.086,24.828" transform="translate(441.06 0.386)" fill="#c0e2aa"/>
      <path id="Fill_17" data-name="Fill 17" d="M51.086,24.828c0,13.713-11.436,24.83-25.542,24.83S0,38.541,0,24.828,11.435,0,25.544,0,51.086,11.116,51.086,24.828" transform="translate(36.433 0.386)" fill="#323232"/>
    </g>
  </g>
</svg>
