<?xml version="1.0" encoding="utf-8"?>
<!-- Generator: Adobe Illustrator 25.2.3, SVG Export Plug-In . SVG Version: 6.00 Build 0)  -->
<svg version="1.1" id="圖層_1" xmlns="http://www.w3.org/2000/svg" xmlns:xlink="http://www.w3.org/1999/xlink" x="0px" y="0px"
	 viewBox="0 0 438 140" style="enable-background:new 0 0 438 140;" xml:space="preserve">
<style type="text/css">
	.st0{fill:#231815;}
	.st1{fill:#C0E2AA;}
	.st2{fill:#F7F7F7;}
	.st3{fill:#323232;}
</style>
<g>
	<g>
		<g>
			<g>
				
					<rect x="275.12" y="72.32" transform="matrix(0.9999 -0.0117 0.0117 0.9999 -0.8313 3.4625)" class="st0" width="39.88" height="0.69"/>
			</g>
			<g>
				<g>
					<polygon class="st0" points="276.47,70.86 268.99,72.96 276.52,74.89 					"/>
				</g>
			</g>
		</g>
		<g>
			<g>
				
					<rect x="129.92" y="47.41" transform="matrix(8.924274e-03 -1 1 8.924274e-03 56.4256 202.2854)" class="st0" width="0.69" height="50.54"/>
			</g>
			<g>
				<g>
					<polygon class="st0" points="154.14,74.9 161.67,72.96 154.18,70.88 					"/>
				</g>
			</g>
		</g>
		<g>
			<g>
				<path class="st1" d="M286.63,110.62h-1.57v-1.38h1.22l1.06-0.56l0.65,1.22L286.63,110.62z M282.29,110.62h-2.77v-1.38h2.77
					V110.62z M276.75,110.62h-2.77v-1.38h2.77V110.62z M271.21,110.62h-2.77v-1.38h2.77V110.62z M265.67,110.62h-2.77v-1.38h2.77
					V110.62z M260.13,110.62h-2.77v-1.38h2.77V110.62z M254.59,110.62h-2.77v-1.38h2.77V110.62z M249.05,110.62h-2.77v-1.38h2.77
					V110.62z M243.51,110.62h-2.77v-1.38h2.77V110.62z M237.97,110.62h-2.77v-1.38h2.77V110.62z M232.43,110.62h-2.77v-1.38h2.77
					V110.62z M226.89,110.62h-2.77v-1.38h2.77V110.62z M221.35,110.62h-2.77v-1.38h2.77V110.62z M215.82,110.62h-2.77v-1.38h2.77
					V110.62z M210.28,110.62h-2.77v-1.38h2.77V110.62z M204.74,110.62h-2.77v-1.38h2.77V110.62z M199.2,110.62h-2.77v-1.38h2.77
					V110.62z M193.66,110.62h-2.77v-1.38h2.77V110.62z M188.12,110.62h-2.77v-1.38h2.77V110.62z M182.58,110.62h-2.77v-1.38h2.77
					V110.62z M177.04,110.62h-2.77v-1.38h2.77V110.62z M171.5,110.62h-2.77v-1.38h2.77V110.62z M165.96,110.62h-2.77v-1.38h2.77
					V110.62z M160.42,110.62h-2.77v-1.38h2.77V110.62z M154.88,110.62h-1.66l-1.28-0.71l0.67-1.21l0.97,0.53h1.31V110.62z
					 M290.44,108.6l-0.65-1.22l2.45-1.3l0.65,1.22L290.44,108.6z M149.51,108.58l-2.43-1.33l0.67-1.21l2.43,1.33L149.51,108.58z
					 M295.34,106.01l-0.65-1.22l2.45-1.3l0.65,1.22L295.34,106.01z M144.66,105.91l-2.43-1.33l0.67-1.21l2.43,1.33L144.66,105.91z
					 M300.23,103.42l-0.65-1.22l2.45-1.3l0.65,1.22L300.23,103.42z M139.8,103.24l-2.43-1.33l0.67-1.21l2.43,1.33L139.8,103.24z
					 M305.13,100.82l-0.65-1.22l2.45-1.3l0.65,1.22L305.13,100.82z M134.95,100.57l-2.43-1.33l0.67-1.21l2.43,1.33L134.95,100.57z
					 M310.02,98.23l-0.65-1.22l2.45-1.3l0.65,1.22L310.02,98.23z M130.1,97.9l-2.43-1.33l0.67-1.21l2.43,1.33L130.1,97.9z
					 M314.92,95.64l-0.65-1.22l2.45-1.3l0.65,1.22L314.92,95.64z M125.24,95.23l-2.37-1.3l0.3-0.55l-0.03-0.75h0.24l2.53,1.39
					L125.24,95.23z M399.58,94.01h-2.32v-1.38h2.32V94.01z M394.49,94.01h-2.77v-1.38h2.77V94.01z M388.95,94.01h-2.77v-1.38h2.77
					V94.01z M383.41,94.01h-2.77v-1.38h2.77V94.01z M377.87,94.01h-2.77v-1.38h2.77V94.01z M372.33,94.01h-2.77v-1.38h2.77V94.01z
					 M366.79,94.01h-2.77v-1.38h2.77V94.01z M361.25,94.01h-2.77v-1.38h2.77V94.01z M355.71,94.01h-2.77v-1.38h2.77V94.01z
					 M350.18,94.01h-2.77v-1.38h2.77V94.01z M344.64,94.01h-2.77v-1.38h2.77V94.01z M339.1,94.01h-2.77v-1.38h2.77V94.01z
					 M333.56,94.01h-2.77v-1.38h2.77V94.01z M328.02,94.01h-2.77v-1.38h2.77V94.01z M322.48,94.01h-2.77v-1.38h2.77V94.01z
					 M120.37,94.01h-2.77v-1.38h2.77V94.01z M114.83,94.01h-2.77v-1.38h2.77V94.01z M109.29,94.01h-2.77v-1.38h2.77V94.01z
					 M103.75,94.01h-2.77v-1.38h2.77V94.01z M98.21,94.01h-2.77v-1.38h2.77V94.01z M92.67,94.01H89.9v-1.38h2.77V94.01z
					 M87.13,94.01h-2.77v-1.38h2.77V94.01z M81.6,94.01h-2.77v-1.38h2.77V94.01z M76.06,94.01h-2.77v-1.38h2.77V94.01z M70.52,94.01
					h-2.77v-1.38h2.77V94.01z M64.98,94.01h-2.77v-1.38h2.77V94.01z M59.44,94.01h-2.77v-1.38h2.77V94.01z M53.9,94.01h-2.77v-1.38
					h2.77V94.01z M48.36,94.01h-2.77v-1.38h2.77V94.01z M42.82,94.01h-2.77v-1.38h2.77V94.01z"/>
			</g>
			<g>
				<g>
					<circle class="st1" cx="40.18" cy="93.32" r="2.6"/>
				</g>
			</g>
			<g>
				<g>
					<circle class="st1" cx="399.45" cy="93.32" r="2.6"/>
				</g>
			</g>
		</g>
		<g>
			<circle class="st2" cx="371.31" cy="74.85" r="17.31"/>
			<path class="st0" d="M371.31,92.33c-9.64,0-17.48-7.84-17.48-17.48s7.84-17.48,17.48-17.48s17.48,7.84,17.48,17.48
				S380.95,92.33,371.31,92.33z M371.31,57.71c-9.45,0-17.14,7.69-17.14,17.14s7.69,17.14,17.14,17.14
				c9.45,0,17.14-7.69,17.14-17.14S380.76,57.71,371.31,57.71z"/>
		</g>
		<g>
			<circle class="st1" cx="338.2" cy="74.88" r="17.18"/>
		</g>
		<g>
			<circle class="st3" cx="79.25" cy="74.88" r="17.18"/>
		</g>
		<g>
			<path class="st3" d="M113.81,60.31v-6.08c-3.37-0.14-6.08-2.92-6.08-6.33V36.35c0-3.49,2.84-6.34,6.34-6.34h19.45
				c3.49,0,6.34,2.84,6.34,6.34V47.9c0,3.49-2.84,6.34-6.34,6.34h-14.85L113.81,60.31z M114.07,30.53c-3.21,0-5.82,2.61-5.82,5.82
				V47.9c0,3.21,2.61,5.82,5.82,5.82h0.26v5.11l4.09-5.11h15.1c3.21,0,5.82-2.61,5.82-5.82V36.35c0-3.21-2.61-5.82-5.82-5.82H114.07
				z"/>
		</g>
	</g>
	<g>
		<path class="st2" d="M175.21,71.89c0-4.02,2.61-6.38,5.86-6.38c1.77,0,2.99,0.76,3.78,1.57l-1.3,1.55
			c-0.59-0.58-1.29-1.02-2.39-1.02c-2.03,0-3.45,1.58-3.45,4.21c0,2.66,1.22,4.25,3.61,4.25c0.59,0,1.19-0.16,1.53-0.46v-2.41h-2.16
			v-2h4.34v5.51c-0.83,0.81-2.26,1.47-3.96,1.47C177.73,78.17,175.21,75.96,175.21,71.89z"/>
		<path class="st2" d="M187.65,65.74h7.49v2.03h-5.05v2.82h4.29v2.04h-4.29v3.27h5.23v2.04h-7.67V65.74z"/>
		<path class="st2" d="M204.44,77.94l-2.51-4.62h-1.7v4.62h-2.44V65.74h4.26c2.56,0,4.58,0.89,4.58,3.69c0,1.83-0.92,2.97-2.33,3.51
			l2.85,5H204.44z M200.24,71.39h1.58c1.57,0,2.42-0.66,2.42-1.96c0-1.32-0.86-1.76-2.42-1.76h-1.58V71.39z"/>
		<path class="st2" d="M209.05,65.74h2.71l2.08,5.71c0.26,0.76,0.5,1.57,0.74,2.36h0.08c0.26-0.79,0.48-1.6,0.74-2.36l2.03-5.71
			h2.71v12.21h-2.23v-5.1c0-1.16,0.18-2.85,0.3-4.01h-0.07l-0.99,2.87l-1.88,5.13h-1.4l-1.9-5.13l-0.97-2.87h-0.07
			c0.12,1.16,0.31,2.85,0.31,4.01v5.1h-2.19V65.74z"/>
		<path class="st2" d="M228.86,74.81h-3.96l-0.86,3.13h-2.47l3.91-12.21h2.87l3.93,12.21h-2.56L228.86,74.81z M228.33,72.91
			l-0.36-1.34c-0.38-1.27-0.71-2.67-1.07-3.99h-0.07c-0.31,1.34-0.68,2.72-1.04,3.99l-0.36,1.34H228.33z"/>
		<path class="st2" d="M233.71,65.74h2.49l3.55,6.5l1.22,2.64h0.08c-0.13-1.27-0.31-2.89-0.31-4.27v-4.87h2.31v12.21h-2.47
			l-3.53-6.53l-1.24-2.62h-0.08c0.12,1.32,0.3,2.85,0.3,4.25v4.9h-2.31V65.74z"/>
		<path class="st2" d="M248.13,73.47l-3.66-7.74h2.59l1.22,2.97c0.35,0.91,0.68,1.77,1.06,2.71h0.07c0.38-0.94,0.74-1.8,1.09-2.71
			l1.22-2.97h2.54l-3.68,7.74v4.47h-2.44V73.47z"/>
	</g>
</g>
</svg>
