<?xml version="1.0" encoding="utf-8"?>
<!-- Generator: Adobe Illustrator 25.2.3, SVG Export Plug-In . SVG Version: 6.00 Build 0)  -->
<svg version="1.1" id="圖層_1" xmlns="http://www.w3.org/2000/svg" xmlns:xlink="http://www.w3.org/1999/xlink" x="0px" y="0px"
	 viewBox="0 0 438 140" style="enable-background:new 0 0 438 140;" xml:space="preserve">
<style type="text/css">
	.st0{fill:#231815;}
	.st1{fill:#C0E2AA;}
	.st2{fill:#F7F7F7;}
	.st3{fill:#323232;}
</style>
<g>
	<g>
		<g>
			<g>
				<rect x="260.77" y="72.11" class="st0" width="54.23" height="0.69"/>
			</g>
			<g>
				<g>
					<polygon class="st0" points="262.14,70.44 254.64,72.45 262.14,74.46 					"/>
				</g>
			</g>
		</g>
		<g>
			<g>
				<rect x="104.99" y="72.11" class="st0" width="54.88" height="0.69"/>
			</g>
			<g>
				<g>
					<polygon class="st0" points="158.5,74.46 166.01,72.45 158.5,70.44 					"/>
				</g>
			</g>
		</g>
		<g>
			<g>
				<path class="st1" d="M286.63,110.62h-1.57v-1.38h1.22l1.06-0.56l0.65,1.22L286.63,110.62z M282.29,110.62h-2.77v-1.38h2.77
					V110.62z M276.75,110.62h-2.77v-1.38h2.77V110.62z M271.21,110.62h-2.77v-1.38h2.77V110.62z M265.67,110.62h-2.77v-1.38h2.77
					V110.62z M260.13,110.62h-2.77v-1.38h2.77V110.62z M254.59,110.62h-2.77v-1.38h2.77V110.62z M249.05,110.62h-2.77v-1.38h2.77
					V110.62z M243.51,110.62h-2.77v-1.38h2.77V110.62z M237.97,110.62h-2.77v-1.38h2.77V110.62z M232.43,110.62h-2.77v-1.38h2.77
					V110.62z M226.89,110.62h-2.77v-1.38h2.77V110.62z M221.35,110.62h-2.77v-1.38h2.77V110.62z M215.82,110.62h-2.77v-1.38h2.77
					V110.62z M210.28,110.62h-2.77v-1.38h2.77V110.62z M204.74,110.62h-2.77v-1.38h2.77V110.62z M199.2,110.62h-2.77v-1.38h2.77
					V110.62z M193.66,110.62h-2.77v-1.38h2.77V110.62z M188.12,110.62h-2.77v-1.38h2.77V110.62z M182.58,110.62h-2.77v-1.38h2.77
					V110.62z M177.04,110.62h-2.77v-1.38h2.77V110.62z M171.5,110.62h-2.77v-1.38h2.77V110.62z M165.96,110.62h-2.77v-1.38h2.77
					V110.62z M160.42,110.62h-2.77v-1.38h2.77V110.62z M154.88,110.62h-1.66l-1.28-0.71l0.67-1.21l0.97,0.53h1.31V110.62z
					 M290.44,108.6l-0.65-1.22l2.45-1.3l0.65,1.22L290.44,108.6z M149.51,108.58l-2.43-1.33l0.67-1.21l2.43,1.33L149.51,108.58z
					 M295.34,106.01l-0.65-1.22l2.45-1.3l0.65,1.22L295.34,106.01z M144.66,105.91l-2.43-1.33l0.67-1.21l2.43,1.33L144.66,105.91z
					 M300.23,103.42l-0.65-1.22l2.45-1.3l0.65,1.22L300.23,103.42z M139.8,103.24l-2.43-1.33l0.67-1.21l2.43,1.33L139.8,103.24z
					 M305.13,100.82l-0.65-1.22l2.45-1.3l0.65,1.22L305.13,100.82z M134.95,100.57l-2.43-1.33l0.67-1.21l2.43,1.33L134.95,100.57z
					 M310.02,98.23l-0.65-1.22l2.45-1.3l0.65,1.22L310.02,98.23z M130.1,97.9l-2.43-1.33l0.67-1.21l2.43,1.33L130.1,97.9z
					 M314.92,95.64l-0.65-1.22l2.45-1.3l0.65,1.22L314.92,95.64z M125.24,95.23l-2.37-1.3l0.3-0.55l-0.03-0.75h0.24l2.53,1.39
					L125.24,95.23z M399.58,94.01h-2.32v-1.38h2.32V94.01z M394.49,94.01h-2.77v-1.38h2.77V94.01z M388.95,94.01h-2.77v-1.38h2.77
					V94.01z M383.41,94.01h-2.77v-1.38h2.77V94.01z M377.87,94.01h-2.77v-1.38h2.77V94.01z M372.33,94.01h-2.77v-1.38h2.77V94.01z
					 M366.79,94.01h-2.77v-1.38h2.77V94.01z M361.25,94.01h-2.77v-1.38h2.77V94.01z M355.71,94.01h-2.77v-1.38h2.77V94.01z
					 M350.18,94.01h-2.77v-1.38h2.77V94.01z M344.64,94.01h-2.77v-1.38h2.77V94.01z M339.1,94.01h-2.77v-1.38h2.77V94.01z
					 M333.56,94.01h-2.77v-1.38h2.77V94.01z M328.02,94.01h-2.77v-1.38h2.77V94.01z M322.48,94.01h-2.77v-1.38h2.77V94.01z
					 M120.37,94.01h-2.77v-1.38h2.77V94.01z M114.83,94.01h-2.77v-1.38h2.77V94.01z M109.29,94.01h-2.77v-1.38h2.77V94.01z
					 M103.75,94.01h-2.77v-1.38h2.77V94.01z M98.21,94.01h-2.77v-1.38h2.77V94.01z M92.67,94.01H89.9v-1.38h2.77V94.01z
					 M87.13,94.01h-2.77v-1.38h2.77V94.01z M81.6,94.01h-2.77v-1.38h2.77V94.01z M76.06,94.01h-2.77v-1.38h2.77V94.01z M70.52,94.01
					h-2.77v-1.38h2.77V94.01z M64.98,94.01h-2.77v-1.38h2.77V94.01z M59.44,94.01h-2.77v-1.38h2.77V94.01z M53.9,94.01h-2.77v-1.38
					h2.77V94.01z M48.36,94.01h-2.77v-1.38h2.77V94.01z M42.82,94.01h-2.77v-1.38h2.77V94.01z"/>
			</g>
			<g>
				<g>
					<circle class="st1" cx="40.18" cy="93.32" r="2.6"/>
				</g>
			</g>
			<g>
				<g>
					<circle class="st1" cx="399.45" cy="93.32" r="2.6"/>
				</g>
			</g>
		</g>
		<g>
			<circle class="st2" cx="363.49" cy="74.74" r="17.31"/>
			<path class="st0" d="M363.49,92.23c-9.64,0-17.48-7.84-17.48-17.48s7.84-17.48,17.48-17.48s17.48,7.84,17.48,17.48
				S373.13,92.23,363.49,92.23z M363.49,57.61c-9.45,0-17.14,7.69-17.14,17.14s7.69,17.14,17.14,17.14
				c9.45,0,17.14-7.69,17.14-17.14S372.94,57.61,363.49,57.61z"/>
		</g>
		<g>
			<circle class="st1" cx="338.89" cy="74.88" r="17.18"/>
		</g>
		<g>
			<circle class="st3" cx="79.25" cy="74.88" r="17.18"/>
		</g>
		<g>
			<path class="st3" d="M113.81,60.31v-6.08c-3.37-0.14-6.08-2.92-6.08-6.33V36.35c0-3.49,2.84-6.34,6.34-6.34h19.45
				c3.49,0,6.34,2.84,6.34,6.34V47.9c0,3.49-2.84,6.34-6.34,6.34h-14.85L113.81,60.31z M114.07,30.53c-3.21,0-5.82,2.61-5.82,5.82
				V47.9c0,3.21,2.61,5.82,5.82,5.82h0.26v5.11l4.09-5.11h15.1c3.21,0,5.82-2.61,5.82-5.82V36.35c0-3.21-2.61-5.82-5.82-5.82H114.07
				z"/>
		</g>
	</g>
	<g>
		<path class="st2" d="M184.47,66.38h-3.43v-2.03h9.34v2.03h-3.46v10.18h-2.44V66.38z"/>
		<path class="st2" d="M197.34,73.42h-3.96l-0.86,3.13h-2.47l3.91-12.21h2.87l3.93,12.21h-2.56L197.34,73.42z M196.82,71.53
			l-0.36-1.34c-0.38-1.27-0.71-2.67-1.07-3.99h-0.07c-0.31,1.34-0.68,2.72-1.04,3.99l-0.36,1.34H196.82z"/>
		<path class="st2" d="M202.19,64.35h2.44v12.21h-2.44V64.35z"/>
		<path class="st2" d="M206.43,64.35h2.49l0.97,5.95c0.18,1.29,0.38,2.59,0.56,3.89h0.07c0.25-1.3,0.51-2.62,0.78-3.89l1.42-5.95
			h2.08l1.42,5.95c0.26,1.25,0.51,2.57,0.78,3.89h0.08c0.18-1.32,0.36-2.62,0.54-3.89l0.96-5.95h2.33l-2.26,12.21h-3.04l-1.37-6.04
			c-0.2-0.96-0.38-1.9-0.53-2.82h-0.07c-0.17,0.92-0.33,1.86-0.53,2.82l-1.34,6.04h-2.99L206.43,64.35z"/>
		<path class="st2" d="M228.46,73.42h-3.96l-0.86,3.13h-2.47l3.91-12.21h2.87l3.93,12.21h-2.56L228.46,73.42z M227.93,71.53
			l-0.36-1.34c-0.38-1.27-0.71-2.67-1.07-3.99h-0.07c-0.31,1.34-0.68,2.72-1.04,3.99l-0.36,1.34H227.93z"/>
		<path class="st2" d="M233.31,64.35h2.49l3.55,6.5l1.22,2.64h0.08c-0.13-1.27-0.31-2.89-0.31-4.27v-4.87h2.31v12.21h-2.47
			l-3.53-6.53l-1.24-2.62h-0.08c0.12,1.32,0.3,2.85,0.3,4.25v4.9h-2.31V64.35z"/>
	</g>
</g>
</svg>
