<svg xmlns="http://www.w3.org/2000/svg" width="23" height="22.373" viewBox="0 0 23 22.373">
  <g id="link" transform="translate(0 0)">
    <path id="Fill_1" data-name="Fill 1" d="M13.449,1.586a5.216,5.216,0,0,0-7.491,0L1.531,6.11a5.551,5.551,0,0,0,0,7.656,5.053,5.053,0,0,0,1.065.826l.808-.826a1.892,1.892,0,0,0,.334-1.632,2.57,2.57,0,0,1-.334-.282,2.779,2.779,0,0,1,0-3.828L7.831,3.5a2.611,2.611,0,0,1,3.745,0,2.752,2.752,0,0,1,0,3.828L8.65,10.318A7.951,7.951,0,0,1,8.981,13.8c.013-.013.028-.021.041-.034l4.427-4.524a5.5,5.5,0,0,0,0-7.656" transform="translate(8)" fill="#323332"/>
    <path id="Fill_3" data-name="Fill 3" d="M14.4.806A5.242,5.242,0,0,0,13.292,0L12.45.806c-.553.529-.358,1.147-.348,1.593a2.639,2.639,0,0,1,.348.275,2.59,2.59,0,0,1,0,3.738L7.476,11.174a2.853,2.853,0,0,1-3.905,0,2.566,2.566,0,0,1,0-3.738L6.979,4.173a7.3,7.3,0,0,1-.345-3.4C6.621.786,6.6.794,6.591.806L1.618,5.567a5.128,5.128,0,0,0,0,7.476,5.7,5.7,0,0,0,7.811,0L14.4,8.282a5.172,5.172,0,0,0,0-7.476" transform="translate(0 7.782)" fill="#323332"/>
  </g>
</svg>
