<svg id="LOGO" xmlns="http://www.w3.org/2000/svg" xmlns:xlink="http://www.w3.org/1999/xlink" width="274" height="52" viewBox="0 0 274 52">
  <defs>
    <clipPath id="clip-path">
      <path id="Clip_16" data-name="Clip 16" d="M0,52H274V0H0Z" fill="none"/>
    </clipPath>
  </defs>
  <path id="Fill_1" data-name="Fill 1" d="M2.84,14,.394,12.222A8.255,8.255,0,0,0,1.975,7.341,8.324,8.324,0,0,0,0,1.958L2.3,0A11.341,11.341,0,0,1,5,7.341,11.259,11.259,0,0,1,2.84,14" transform="translate(39 19)" fill="#323232"/>
  <path id="Fill_3" data-name="Fill 3" d="M1.716,26,.43,25.145A19.487,19.487,0,0,0,4.422,13.294,19.46,19.46,0,0,0,0,.9L1.256,0A20.87,20.87,0,0,1,6,13.294,20.9,20.9,0,0,1,1.716,26" transform="translate(48 13)" fill="#323232"/>
  <path id="Fill_5" data-name="Fill 5" d="M1.021,36l-.636-.434A28.415,28.415,0,0,0,6.218,18.254,28.391,28.391,0,0,0,0,.447L.625,0A29.1,29.1,0,0,1,7,18.254,29.127,29.127,0,0,1,1.021,36" transform="translate(54 8)" fill="#323232"/>
  <path id="Fill_7" data-name="Fill 7" d="M3,.724l-3,0V.276l3,0Z" transform="translate(0 25)" fill="#323232"/>
  <path id="Fill_9" data-name="Fill 9" d="M3,.725l-3,0V.275l3,0Z" transform="translate(6 25)" fill="#323232"/>
  <path id="Fill_11" data-name="Fill 11" d="M3,.724l-3,0V.276l3,0Z" transform="translate(12 25)" fill="#323232"/>
  <path id="Fill_13" data-name="Fill 13" d="M15,.5H0" transform="translate(15 25)" fill="#fff"/>
  <path id="Clip_16-2" data-name="Clip 16" d="M0,52H274V0H0Z" fill="none"/>
  <g id="LOGO-2" data-name="LOGO" clip-path="url(#clip-path)">
    <path id="Fill_15" data-name="Fill 15" d="M0,.722H15V.278H0Z" transform="translate(15 25)" fill="#323232"/>
    <path id="Fill_17" data-name="Fill 17" d="M.206,1,0,.648,2.794,0,3,.352Z" transform="translate(0 35)" fill="#323232"/>
    <path id="Fill_18" data-name="Fill 18" d="M.189,2,0,1.465,3.813,0,4,.535Z" transform="translate(6 33)" fill="#323232"/>
    <path id="Fill_19" data-name="Fill 19" d="M.206,1,0,.647,2.794,0,3,.352Z" transform="translate(13 31)" fill="#323232"/>
    <path id="Fill_20" data-name="Fill 20" d="M14,0,0,5" transform="translate(16 26)" fill="#fff"/>
    <path id="Fill_21" data-name="Fill 21" d="M.181,6,0,5.491,14.818,0,15,.509Z" transform="translate(16 25)" fill="#323232"/>
    <path id="Fill_22" data-name="Fill 22" d="M2.8,1,0,.357.2,0,3,.644Z" transform="translate(0 14)" fill="#323232"/>
    <path id="Fill_23" data-name="Fill 23" d="M3.822,2,0,.528.18,0,4,1.472Z" transform="translate(6 16)" fill="#323232"/>
    <path id="Fill_24" data-name="Fill 24" d="M2.8,1,0,.357.2,0,3,.644Z" transform="translate(13 19)" fill="#323232"/>
    <path id="Fill_25" data-name="Fill 25" d="M12.27,7,12.1,6.477l1.415-.565L0,.524.173,0,15,5.912Z" transform="translate(16 20)" fill="#323232"/>
    <path id="Fill_26" data-name="Fill 26" d="M12,10,0,0" transform="translate(19 14)" fill="#fff"/>
    <path id="Fill_27" data-name="Fill 27" d="M11.67,10,0,.387.33,0,12,9.614Z" transform="translate(19 14)" fill="#323232"/>
    <path id="Fill_28" data-name="Fill 28" d="M1.727,2,0,.4.273,0,2,1.6Z" transform="translate(14 11)" fill="#323232"/>
    <path id="Fill_29" data-name="Fill 29" d="M3.7,4,0,.461.3,0,4,3.539Z" transform="translate(6 4)" fill="#323232"/>
    <path id="Fill_30" data-name="Fill 30" d="M1.727,2,0,.4.273,0,2,1.6Z" transform="translate(1)" fill="#323232"/>
    <path id="Fill_31" data-name="Fill 31" d="M12,0,0,10" transform="translate(19 27)" fill="#fff"/>
    <path id="Fill_32" data-name="Fill 32" d="M.329,10,0,9.614,11.669,0,12,.387Z" transform="translate(19 27)" fill="#323232"/>
    <path id="Fill_33" data-name="Fill 33" d="M.273,2,0,1.6,1.727,0,2,.4Z" transform="translate(14 39)" fill="#323232"/>
    <path id="Fill_34" data-name="Fill 34" d="M.3,4,0,3.539,3.7,0,4,.461Z" transform="translate(6 43)" fill="#323232"/>
    <path id="Fill_35" data-name="Fill 35" d="M.273,2,0,1.6,1.727,0,2,.4Z" transform="translate(1 50)" fill="#323232"/>
    <path id="Fill_36" data-name="Fill 36" d="M12.874,20h0a5.465,5.465,0,0,0-.7-.832,12.492,12.492,0,0,0,4.54-5.357,30.765,30.765,0,0,1-1.946-6.7,16.462,16.462,0,0,1-1.49,2.986,6.884,6.884,0,0,0-.913-.659c1.389-1.98,2.464-5.082,3.194-9.221l1.082.154c-.25,1.266-.558,2.588-.913,3.929h6V5.27H20.006a30.537,30.537,0,0,1-2.186,8.563A11.35,11.35,0,0,0,22,18.86a3.158,3.158,0,0,0-.768.791,11.654,11.654,0,0,1-3.964-4.7A14.3,14.3,0,0,1,12.874,20Zm2.569-14.73h0l-.024.044a34.778,34.778,0,0,0,1.825,7.245A31.45,31.45,0,0,0,18.926,5.27H15.443ZM.528,19.892h0A2.746,2.746,0,0,0,0,19.145a24.019,24.019,0,0,0,6.172-1.8,31.563,31.563,0,0,0-3.963-1.3c.378-.428.825-.943,1.273-1.537l-3.195.153-.144-.9.479-.018c1.042-.038,2.223-.082,3.507-.158A17.9,17.9,0,0,0,5.4,11.659H1.272V8.3H5.956V7.224H1.969V4.764H.432V3.886H1.969V1.625H5.956V0h.985V1.625h4.227V3.886h1.658v.878H11.168V7.224H6.941V8.3h4.852v3.359H6.581c-.253.463-.568.948-.872,1.417-.1.157-.2.314-.3.47,1.115-.057,2.347-.114,3.539-.17h.013l.58-.027a3.922,3.922,0,0,0,.023-.5v-.7h1.01V13.3l1.465-.087-.024.834-1.561.087a4.954,4.954,0,0,1-2.21,3.1c1.025.416,2.022.878,2.81,1.3l-.816.68a25.067,25.067,0,0,0-2.93-1.4A25.313,25.313,0,0,1,.529,19.892Zm8.863-5.686-4.66.24c-.144.179-.28.354-.411.524-.179.231-.347.449-.526.662A34.487,34.487,0,0,1,7.18,16.795,4.806,4.806,0,0,0,9.392,14.206ZM6.941,9.134v1.713h3.8V9.134Zm-4.636,0v1.713H5.956V9.134ZM6.941,4.743V6.389h3.171V4.743ZM3,4.743V6.389H5.956V4.743ZM6.941,2.46V3.909h3.171V2.46ZM3,2.46V3.909H5.956V2.46Z" transform="translate(76 15)" fill="#323232"/>
    <path id="Fill_37" data-name="Fill 37" d="M4.817,20H3.654V6.894A21.661,21.661,0,0,1,.727,10.176,3.745,3.745,0,0,0,0,9.229,25.738,25.738,0,0,0,6.293.154L7.406.441A31.039,31.039,0,0,1,4.817,5.22V20ZM22,19.1H6.849V18.085h8.544A99.662,99.662,0,0,0,17.933,6.762l1.21.22c-.615,3.239-1.67,7.927-2.637,11.1H22V19.1ZM11.472,16.807h0A74.751,74.751,0,0,0,9.68,7.2L10.745,7A79.322,79.322,0,0,1,12.633,16.5l-1.16.308ZM20.911,5.265H7.987V4.229H20.911V5.264ZM14.182,3.788h0a31.78,31.78,0,0,0-1.161-3.5L14.085,0,14.1.029a31.669,31.669,0,0,1,1.2,3.45l-1.112.308Z" transform="translate(101 15)" fill="#323232"/>
    <path id="Fill_38" data-name="Fill 38" d="M.579,19h0A3.827,3.827,0,0,0,0,18a1.607,1.607,0,0,0,.964-1.467V0H17.786V5.978H10.253a21.821,21.821,0,0,0,.626,3.889h8.735v1.022H11.167c1.358,4.077,3.924,6.711,6.538,6.711h.033c.789-.022,1.075-.8,1.226-3.334A2.958,2.958,0,0,0,20,14.778c-.215,2.963-.749,3.865-2.287,3.865h-.038A6.393,6.393,0,0,1,13.1,16.468a14.052,14.052,0,0,1-3.107-5.579H2.119v6.422L7.967,15.89a4.028,4.028,0,0,0,.144.978C1.706,18.515,1.055,18.714.58,19ZM2.119,5.978V9.867H9.675a24.508,24.508,0,0,1-.6-3.889ZM2.119,1V4.956H16.631V1Z" transform="translate(128 16)" fill="#323232"/>
    <path id="Fill_39" data-name="Fill 39" d="M21,19H0V17.945H9.847v-6.07H2.165V10.841H9.847V5.41h-8.7V4.377H19.787V5.41H11.036v5.431h7.848v1.034H11.036v6.07H21V19ZM12.083,4.289h0A26.094,26.094,0,0,0,7.872.572L8.753,0a23.324,23.324,0,0,1,4.281,3.673l-.951.615Z" transform="translate(152 15)" fill="#323232"/>
    <path id="Fill_40" data-name="Fill 40" d="M20.431,20h0c-.875-.285-4.007-1.278-7.578-2.122l.588-.679c2.894.662,5.854,1.45,7.726,2.057L20.431,20ZM1.35,19.979h0a6.581,6.581,0,0,0-.686-.788A32.594,32.594,0,0,0,8.07,17.2l1.1.569a33.088,33.088,0,0,1-7.821,2.211Zm17.413-3.044H3.361V10.263h15.4v6.672ZM4.513,14.945v1.226H17.585V14.945Zm0-1.969v1.2H17.585v-1.2Zm0-1.948v1.183H17.585V11.029Zm13.367-1.86H3.63l.319-2.035H0V6.259H4.073L4.367,4.31H18.32l-.171,1.949H22v.875H18.076l-.2,2.034Zm-6.426-2.1c-.047.469-.1.906-.148,1.336h5.543l.124-1.27h-.025V7.068H11.453Zm-6.4,0L4.856,8.4h5.42c.02-.174.045-.349.071-.534.036-.257.073-.522.1-.8Zm6.6-1.991c-.012.192-.029.385-.048.589s-.038.423-.051.636h5.4V6.259h.1l.1-1.182Zm-6.353,0L5.126,6.3h5.4c.048-.407.073-.811.1-1.2l0-.024ZM1.962,5.45H.859v-3.3h9.835A11.06,11.06,0,0,0,9.32.349L10.325,0a10.146,10.146,0,0,1,1.644,2.145h9.172v3.3H20.013V3.064H1.962V5.449Z" transform="translate(177 15)" fill="#323232"/>
    <path id="Fill_41" data-name="Fill 41" d="M9.562,20h0a8.383,8.383,0,0,0-.837-.655,9.236,9.236,0,0,0,3.354-5.508l1.1.152a13.662,13.662,0,0,1-.6,1.814,16.244,16.244,0,0,1,2.9,2.1l-.671.7A17.558,17.558,0,0,0,12.2,16.612,10.037,10.037,0,0,1,9.562,20Zm-3.105-.051c-.393,0-.814-.012-1.185-.035a2.223,2.223,0,0,0-.287-.919,16.583,16.583,0,0,0,1.8.087.6.6,0,0,0,.574-.217c.352-.413.56-2.3.743-6.734H1.318V1.246H9.178v.941H5.846V4.547H8.652v.919H5.846V7.781H8.652v.9H5.846v2.514H9.131v.5c-.234,5.309-.4,7.178-.886,7.782a1.465,1.465,0,0,1-1.151.458C6.93,19.943,6.7,19.948,6.456,19.948ZM2.3,8.677v2.514H4.84V8.677Zm0-3.211V7.781H4.84V5.466Zm0-3.28V4.547H4.84V2.186ZM15.553,19.934h0a8.215,8.215,0,0,0-.934-.655,8.589,8.589,0,0,0,3.5-5.6l1.1.153a10.28,10.28,0,0,1-.719,2.294,19.126,19.126,0,0,1,3.308,2.624l-.743.743a20.844,20.844,0,0,0-3-2.534,9.152,9.152,0,0,1-2.516,2.971ZM.814,18.535h0L0,18.23a22.118,22.118,0,0,0,1.15-4.854l.79.22A29.387,29.387,0,0,1,.814,18.535ZM2.9,17.684h0a35.265,35.265,0,0,0-.382-3.955l.766-.087c.195,1.265.362,2.891.409,3.955l-.791.088Zm2.109-.656h0A24.771,24.771,0,0,0,3.93,13.464l.695-.153a22.942,22.942,0,0,1,1.127,3.52l-.743.2ZM6.949,16h0a26.846,26.846,0,0,0-1.6-2.929l.645-.24a20.435,20.435,0,0,1,1.63,2.842L6.95,16Zm13.925-3.039h-4.7V8.109h4.7v4.852ZM17.111,8.941v3.191h2.8V8.941Zm-2.276,4.021H10.3V8.109h4.531v4.852Zm-3.6-4.021v3.191h2.635V8.941ZM9.635,6.58h0l-.022-.018a8.551,8.551,0,0,0-.816-.6A17.3,17.3,0,0,0,15.266,0l1.1.306c-.073.111-.148.219-.22.323s-.141.2-.212.311A21.259,21.259,0,0,0,22,5.575a2.833,2.833,0,0,0-.622.829,24.019,24.019,0,0,1-5.969-4.72,19.43,19.43,0,0,1-5.774,4.9Zm9.585-.547H11.934V5.115H19.22v.917Z" transform="translate(202 15)" fill="#323232"/>
    <path id="Fill_42" data-name="Fill 42" d="M11,18H9.859V10.153H0V9.118H9.859v-8.1H1.209V0H19.7V1.013H11v8.1H21v1.035H11V18ZM14.956,7.911h0l-.971-.324a32.076,32.076,0,0,0,2.891-5.454l1.187.367a44.508,44.508,0,0,1-3.105,5.41ZM5.4,7.781h0A26.353,26.353,0,0,0,3.011,2.544l1-.281A25.319,25.319,0,0,1,6.47,7.416l-1.065.365Z" transform="translate(228 17)" fill="#323232"/>
    <path id="Fill_43" data-name="Fill 43" d="M3.064,20H1.932V10.931H16.5v9H15.347v-1.2H3.064V20Zm0-8.025v5.72H15.347v-5.72ZM18.034,9.8h0a18.834,18.834,0,0,0-1.6-2.062C2.289,8.516,1.134,8.58.354,8.847A5.534,5.534,0,0,0,0,7.783,5.653,5.653,0,0,0,1.91,6.431,45.544,45.544,0,0,0,7.614,0L8.723.489A51.516,51.516,0,0,1,2.1,7.518l13.532-.665a37.924,37.924,0,0,0-3.842-3.592l.895-.555A33.408,33.408,0,0,1,19,9.135l-.965.665Z" transform="translate(255 15)" fill="#323232"/>
  </g>
</svg>
