<svg xmlns="http://www.w3.org/2000/svg" width="258.589" height="350.302" viewBox="0 0 258.589 350.302">
  <g id="Group_1" data-name="Group 1" transform="translate(1748.358 1523.009)">
    <path id="Fill_248" data-name="Fill 248" d="M0,350.3H258.589V0H0Z" transform="translate(-1748.358 -1523.009)" fill="#fff"/>
    <path id="Fill_260" data-name="Fill 260" d="M22.01,34.113h0a9.051,9.051,0,0,0-1.19-1.422,21.32,21.32,0,0,0,7.762-9.138,52.465,52.465,0,0,1-3.328-11.42,27.983,27.983,0,0,1-2.543,5.092A12.3,12.3,0,0,0,21.148,16.1c2.373-3.378,4.211-8.669,5.46-15.728l1.85.264c-.422,2.125-.947,4.38-1.561,6.7H37.164V8.986H34.205c-.857,6.261-2.045,10.9-3.737,14.605,1.908,3.991,4.312,6.876,7.146,8.574A5.513,5.513,0,0,0,36.3,33.513,19.87,19.87,0,0,1,29.525,25.5a24.416,24.416,0,0,1-7.515,8.612ZM26.4,8.986l-.041.076a58.841,58.841,0,0,0,3.12,12.356A53.39,53.39,0,0,0,32.358,8.986ZM.9,33.925h0A4.681,4.681,0,0,0,0,32.651a41.005,41.005,0,0,0,10.553-3.069,54.6,54.6,0,0,0-6.774-2.21c.645-.728,1.408-1.607,2.175-2.62l-5.461.262L.247,23.479l1.164-.044c1.687-.063,3.6-.135,5.652-.256a30.223,30.223,0,0,0,2.175-3.3H2.177V14.154h8.007V12.319H3.366V8.127H.739v-1.5H3.366V2.771h6.818V0h1.683V2.771H19.1V6.628h2.834v1.5H19.1v4.192H11.867v1.835h8.294v5.728H11.251c-.451.824-1.014,1.686-1.558,2.52-.154.236-.306.468-.455.7,2.039-.1,4.284-.207,6.456-.307l.608-.028a6.405,6.405,0,0,0,.041-.861v-1.2h1.726v1.986l2.506-.15-.043,1.423-2.668.15a8.451,8.451,0,0,1-3.778,5.279c1.74.7,3.447,1.489,4.8,2.21l-1.4,1.161a42.924,42.924,0,0,0-5.009-2.4A43.317,43.317,0,0,1,.905,33.924Zm15.151-9.7-7.967.413c-.245.3-.476.6-.7.889-.307.4-.6.767-.9,1.131a58.447,58.447,0,0,1,5.79,1.984A8.183,8.183,0,0,0,16.056,24.227Zm-4.189-8.65V18.5h6.488V15.577Zm-7.925,0V18.5h6.242V15.577Zm7.925-7.489V10.9h5.421V8.088Zm-6.735,0V10.9h5.052V8.088Zm6.735-3.9V6.665h5.421V4.192Zm-6.735,0V6.665h5.052V4.192Z" transform="translate(-1702.306 -1297.275)" fill="#323232"/>
    <path id="Fill_261" data-name="Fill 261" d="M8.171,34H6.2V11.719A36.828,36.828,0,0,1,1.231,17.3,6.272,6.272,0,0,0,0,15.688,43.732,43.732,0,0,0,10.675.262l1.891.486A52.839,52.839,0,0,1,8.171,8.873V34Zm29.155-1.535H11.621V30.74h14.5A168.84,168.84,0,0,0,30.427,11.5l2.055.373c-1.046,5.508-2.836,13.479-4.477,18.871h9.321v1.723ZM19.464,28.57h0a126.77,126.77,0,0,0-3.04-16.325l1.807-.338a134.851,134.851,0,0,1,3.2,16.139l-1.97.524ZM35.48,8.949H13.55V7.188H35.48V8.948ZM24.062,6.44h0A53.564,53.564,0,0,0,22.093.486L23.9,0l.039.1a53.76,53.76,0,0,1,2.012,5.814l-1.888.524Z" transform="translate(-1659.061 -1297.424)" fill="#323232"/>
    <path id="Fill_262" data-name="Fill 262" d="M.986,32.013h0A6.551,6.551,0,0,0,0,30.33a2.716,2.716,0,0,0,1.642-2.472V0H30.348V10.073H17.494a35.814,35.814,0,0,0,1.066,6.552H33.466v1.722H19.055c2.317,6.869,6.695,11.309,11.155,11.309h.055c1.494-.039,1.865-1.843,2.093-5.617a5.105,5.105,0,0,0,1.767.862c-.191,2.591-.537,4.175-1.12,5.139a2.9,2.9,0,0,1-2.783,1.376h-.059a10.972,10.972,0,0,1-7.817-3.666,23.6,23.6,0,0,1-5.3-9.4H3.614V29.169l9.977-2.4a6.616,6.616,0,0,0,.247,1.647C2.911,31.2,1.8,31.532.987,32.012Zm2.628-21.94v6.552H16.508a40.966,40.966,0,0,1-1.027-6.552Zm0-8.39V8.349H28.375V1.683Z" transform="translate(-1612.696 -1295.215)" fill="#323232"/>
    <path id="Fill_263" data-name="Fill 263" d="M36.258,32.353H0v-1.8H17V20.221H3.737v-1.76H17V9.212H1.971V7.453h32.2v1.76H19.054v9.248H32.605v1.76H19.054V30.556h17.2v1.8ZM20.86,7.3h0A44.916,44.916,0,0,0,13.592.974L15.111,0A40.291,40.291,0,0,1,22.5,6.253L20.861,7.3Z" transform="translate(-1572.08 -1297.051)" fill="#323232"/>
    <path id="Fill_264" data-name="Fill 264" d="M34.206,34.225h0c-2.992-1-7.9-2.475-12.688-3.632l.986-1.161c4.861,1.137,9.817,2.486,12.936,3.519l-1.233,1.274ZM2.259,34.186h0A11.028,11.028,0,0,0,1.111,32.84c4.183-.692,9.785-2.084,12.4-3.408l1.85.974a54.458,54.458,0,0,1-13.1,3.781Zm29.156-5.2H5.627V17.562H31.415v11.42ZM7.555,25.575v2.1H29.442v-2.1Zm0-3.371v2.059H29.442V22.2Zm0-3.332h0V20.9H29.442V18.873ZM29.936,15.69H6.078l.533-3.482H0v-1.5H6.817l.492-3.332H30.675l-.286,3.332h6.446v1.5h-6.57l-.328,3.481ZM19.177,12.1h0c-.079.791-.16,1.538-.247,2.283h9.283l.2-2.171h-.041V12.1h-9.2Zm-10.718,0-.328,2.283h9.076c.034-.293.074-.589.117-.9.06-.441.123-.9.171-1.381ZM19.506,8.689c-.019.315-.047.631-.077.966-.033.37-.066.752-.087,1.13h9.033v-.076h.164L28.7,8.689Zm-10.636,0-.286,2.1h9.033c.083-.721.126-1.451.164-2.1Zm-5.584.637H1.438V3.669H17.9A18.7,18.7,0,0,0,15.605.6L17.288,0A17.315,17.315,0,0,1,20.04,3.669H35.4V9.324H33.508V5.243H3.286V9.325Z" transform="translate(-1701.773 -1249.266)" fill="#323232"/>
    <path id="Fill_265" data-name="Fill 265" d="M16.384,34.262h0a14.619,14.619,0,0,0-1.436-1.123A15.829,15.829,0,0,0,20.7,23.7l1.889.261a23.537,23.537,0,0,1-1.027,3.11,27.687,27.687,0,0,1,4.969,3.593l-1.152,1.2A29.648,29.648,0,0,0,20.9,28.458a17.157,17.157,0,0,1-4.516,5.8Zm-5.313-.088c-.677,0-1.4-.022-2.037-.061a3.863,3.863,0,0,0-.494-1.573,27.86,27.86,0,0,0,3.082.15,1.024,1.024,0,0,0,.985-.375c.605-.711.963-3.944,1.274-11.533H2.259V2.135H15.728v1.61H10.019V7.79h4.8V9.362h-4.8V13.33h4.8v1.535h-4.8v4.307h5.625v.861c-.4,9.09-.673,12.291-1.517,13.332a2.527,2.527,0,0,1-1.973.785C11.876,34.165,11.491,34.174,11.07,34.174ZM3.942,14.866v4.306H8.3V14.866Zm0-5.5V13.33H8.3V9.362Zm0-5.617V7.79H8.3V3.745ZM26.65,34.15h0a14.2,14.2,0,0,0-1.6-1.122,13.467,13.467,0,0,0,3.845-4.035,17,17,0,0,0,2.151-5.551l1.887.262a17.642,17.642,0,0,1-1.23,3.93,33.712,33.712,0,0,1,5.667,4.495L36.095,33.4a35.892,35.892,0,0,0-5.132-4.344,15.617,15.617,0,0,1-4.312,5.094ZM1.4,31.755h0L0,31.229a37.607,37.607,0,0,0,1.971-8.312l1.355.375A50.908,50.908,0,0,1,1.4,31.754Zm3.572-1.462h0a60.645,60.645,0,0,0-.658-6.778l1.315-.148c.331,2.155.617,4.942.7,6.779l-1.353.148Zm3.614-1.122h0a42.609,42.609,0,0,0-1.849-6.1L7.925,22.8a39.117,39.117,0,0,1,1.93,6.029l-1.27.337Zm3.325-1.76h0a46.222,46.222,0,0,0-2.75-5.017l1.109-.411a35.321,35.321,0,0,1,2.792,4.867l-1.149.562ZM35.766,22.2H27.717V13.892h8.049V22.2Zm-6.447-6.891V20.78h4.805V15.314ZM25.42,22.2H17.657V13.891H25.42V22.2Zm-6.161-6.888v5.467h4.516V15.315Zm-2.75-4.044h0a14.165,14.165,0,0,0-1.438-1.05C19.845,7.581,23.989,3.761,26.156,0l1.891.525c-.129.2-.26.386-.387.569-.115.167-.235.339-.353.517A36.376,36.376,0,0,0,37.7,9.55a4.806,4.806,0,0,0-1.067,1.423A41.186,41.186,0,0,1,26.4,2.883a33.277,33.277,0,0,1-9.894,8.389Zm16.424-.936H20.449V8.763H32.932v1.571Z" transform="translate(-1659.267 -1249.303)" fill="#323232"/>
    <path id="Fill_266" data-name="Fill 266" d="M19.054,31.267H17.082V17.636H0v-1.8H17.082V1.76H2.093V0H34.124V1.76H19.054V15.84H36.382v1.8H19.054V31.266Zm6.858-17.525h0l-1.684-.561a56.2,56.2,0,0,0,5.009-9.473l2.055.636a77.769,77.769,0,0,1-5.379,9.4Zm-16.55-.224h0a45.8,45.8,0,0,0-4.146-9.1l1.723-.488a44.112,44.112,0,0,1,4.271,8.95l-1.848.636Z" transform="translate(-1615.323 -1246.345)" fill="#323232"/>
    <path id="Fill_267" data-name="Fill 267" d="M5.338,33.773H3.368V18.46H28.743v15.2H26.733V31.639H5.338v2.134Zm0-13.553v9.661H26.733V20.22Zm26.077-3.671h0a31.527,31.527,0,0,0-2.793-3.481C3.991,14.38,1.979,14.487.615,14.939A9.08,9.08,0,0,0,0,13.142a9.87,9.87,0,0,0,3.326-2.284A77.8,77.8,0,0,0,13.262,0l1.931.822A88,88,0,0,1,3.654,12.693l23.572-1.124A65.464,65.464,0,0,0,20.533,5.5l1.559-.935c4.429,3.4,9.057,7.966,11.006,10.859l-1.682,1.122Z" transform="translate(-1570.109 -1248.853)" fill="#323232"/>
    <path id="Fill_268" data-name="Fill 268" d="M6.723,33.14.932,28.932A19.529,19.529,0,0,0,4.678,17.376,19.691,19.691,0,0,0,0,4.639L5.452,0a26.851,26.851,0,0,1,6.384,17.376A26.654,26.654,0,0,1,6.723,33.14" transform="translate(-1602.622 -1417.048)" fill="#323232"/>
    <path id="Fill_269" data-name="Fill 269" d="M3.894,62.934.976,60.864a49.28,49.28,0,0,0,9.057-28.686A49.093,49.093,0,0,0,0,2.166L2.849,0A52.653,52.653,0,0,1,13.611,32.179,52.838,52.838,0,0,1,3.894,62.934" transform="translate(-1581.134 -1431.85)" fill="#323232"/>
    <path id="Fill_270" data-name="Fill 270" d="M2.335,86.765.883,85.72A71,71,0,0,0,14.207,44,70.811,70.811,0,0,0,0,1.076L1.431,0A72.587,72.587,0,0,1,16,44,72.757,72.757,0,0,1,2.335,86.765" transform="translate(-1564.672 -1443.668)" fill="#323232"/>
    <path id="Fill_271" data-name="Fill 271" d="M6.318,1.414,0,1.4,0,.135,6.321.146Z" transform="translate(-1697.068 -1402.402)" fill="#323232"/>
    <path id="Fill_272" data-name="Fill 272" d="M7.984,1.414,0,1.4,0,.134,7.985.148Z" transform="translate(-1682.768 -1402.376)" fill="#323232"/>
    <path id="Fill_273" data-name="Fill 273" d="M6.318,1.414,0,1.4,0,.135,6.319.146Z" transform="translate(-1666.8 -1402.348)" fill="#323232"/>
    <path id="Fill_274" data-name="Fill 274" d="M37.457.774H0" transform="translate(-1660.682 -1402.343)" fill="#323232"/>
    <path id="Fill_275" data-name="Fill 275" d="M0,1.408H37.455V.14H0Z" transform="translate(-1660.68 -1402.343)" fill="#323232"/>
    <path id="Fill_276" data-name="Fill 276" d="M.437,3.38,0,2.189,5.929,0l.437,1.192Z" transform="translate(-1696.747 -1377.436)" fill="#323232"/>
    <path id="Fill_277" data-name="Fill 277" d="M.437,4.44,0,3.25,8.812,0l.437,1.189Z" transform="translate(-1682.006 -1383.939)" fill="#323232"/>
    <path id="Fill_278" data-name="Fill 278" d="M.437,3.38,0,2.188,5.929,0l.437,1.191Z" transform="translate(-1664.382 -1389.383)" fill="#323232"/>
    <path id="Fill_279" data-name="Fill 279" d="M35.2,0,0,12.85" transform="translate(-1658.423 -1401.569)" fill="#323232"/>
    <path id="Fill_280" data-name="Fill 280" d="M.432,14.038,0,12.847,35.2,0l.43,1.189Z" transform="translate(-1658.639 -1402.163)" fill="#323232"/>
    <path id="Fill_281" data-name="Fill 281" d="M5.941,3.347,0,1.194.429,0,6.37,2.154Z" transform="translate(-1697.819 -1429.213)" fill="#323232"/>
    <path id="Fill_282" data-name="Fill 282" d="M9.162,4.513,0,1.192.429,0,9.591,3.319Z" transform="translate(-1682.715 -1423.739)" fill="#323232"/>
    <path id="Fill_283" data-name="Fill 283" d="M5.941,3.347,0,1.194.429,0,6.37,2.154Z" transform="translate(-1664.39 -1417.1)" fill="#323232"/>
    <path id="Fill_284" data-name="Fill 284" d="M30.479,15.919l-.43-1.192,3.517-1.282L0,1.189.432,0,37.26,13.445Z" transform="translate(-1658.639 -1415.013)" fill="#323232"/>
    <path id="Fill_285" data-name="Fill 285" d="M28.693,24.149,0,0" transform="translate(-1651.918 -1429.244)" fill="#323232"/>
    <path id="Fill_286" data-name="Fill 286" d="M28.691,25.12,0,.971.81,0,29.5,24.151Z" transform="translate(-1652.323 -1429.73)" fill="#323232"/>
    <path id="Fill_287" data-name="Fill 287" d="M4.953,4.928,0,.992.785,0,5.739,3.934Z" transform="translate(-1663.174 -1437.926)" fill="#323232"/>
    <path id="Fill_288" data-name="Fill 288" d="M9.6,8.614,0,.992.784,0l9.6,7.622Z" transform="translate(-1682.369 -1453.171)" fill="#323232"/>
    <path id="Fill_289" data-name="Fill 289" d="M4.953,4.926,0,.992.785,0,5.739,3.934Z" transform="translate(-1696.921 -1464.73)" fill="#323232"/>
    <path id="Fill_290" data-name="Fill 290" d="M28.693,0,0,24.149" transform="translate(-1651.918 -1397.316)" fill="#323232"/>
    <path id="Fill_291" data-name="Fill 291" d="M.81,25.12,0,24.149,28.691,0,29.5.971Z" transform="translate(-1652.323 -1397.802)" fill="#323232"/>
    <path id="Fill_292" data-name="Fill 292" d="M.785,4.926,0,3.933,4.953,0l.785.992Z" transform="translate(-1663.174 -1369.412)" fill="#323232"/>
    <path id="Fill_293" data-name="Fill 293" d="M.784,8.614,0,7.622,9.6,0l.785.991Z" transform="translate(-1682.369 -1357.853)" fill="#323232"/>
    <path id="Fill_294" data-name="Fill 294" d="M.785,4.926,0,3.934,4.953,0l.785.994Z" transform="translate(-1696.921 -1342.608)" fill="#323232"/>
  </g>
</svg>
