<svg id="Group_1" data-name="Group 1" xmlns="http://www.w3.org/2000/svg" xmlns:xlink="http://www.w3.org/1999/xlink" width="157" height="67" viewBox="0 0 157 67">
  <defs>
    <clipPath id="clip-path">
      <path id="Clip_2" data-name="Clip 2" d="M0,0H48V67H0Z" fill="none"/>
    </clipPath>
  </defs>
  <g id="Group_3" data-name="Group 3">
    <path id="Clip_2-2" data-name="Clip 2" d="M0,0H48V67H0Z" fill="none"/>
    <g id="Group_3-2" data-name="Group 3" clip-path="url(#clip-path)">
      <path id="Fill_1" data-name="Fill 1" d="M48,42.9a24,24,0,1,1-48,0A23.054,23.054,0,0,1,.383,38.69a135.922,135.922,0,0,1,2.27-22.673A56.322,56.322,0,0,1,5.614,7.9c1.2-.2,2.307,1.642,2.925,2.445a10.4,10.4,0,0,0,1.89,1.6c1.653,2.043,3.651,3.958,5.451,5.874a8.167,8.167,0,0,0,1.961,1.807c.654.346,1.309.272,2.127-.475a3.809,3.809,0,0,0,.526-.547C24.927,13.444,23.764,3.868,29.959,0c5.36,49.234,14.68-19.281,18.006,41.664a5.057,5.057,0,0,1,.017.51c.018.239.018.494.018.73" transform="translate(-0.001 0)" fill="#323232"/>
    </g>
  </g>
  <path id="Fill_4" data-name="Fill 4" d="M29.6,50H19.684V38.051H0V30.669L17.271,0H29.6V29.508H35v8.543H29.6V50ZM19.794,9.7l-.429.958,0,.005c-1.24,2.773-2.311,5.167-3.669,7.87L9.731,29.354l-.03.154h9.983V18.7c0-2.831.18-5.86.355-8.789l.012-.2L19.794,9.7Z" transform="translate(57 10)" fill="#323232"/>
  <path id="Fill_6" data-name="Fill 6" d="M6.831,20H4.594L15.146,0h2.227L6.831,20Zm10.426-.056c-2.759,0-4.691-2.413-4.7-5.867a7.14,7.14,0,0,1,1.289-4.3A4.272,4.272,0,0,1,17.36,8.008a4.138,4.138,0,0,1,3.482,1.73A6.959,6.959,0,0,1,22,13.81,6.949,6.949,0,0,1,20.551,18.4,4.289,4.289,0,0,1,17.257,19.944Zm.046-9.577c-1.082,0-1.7,1.316-1.7,3.612a4.7,4.7,0,0,0,.824,3.224,1.227,1.227,0,0,0,.9.382c1.072,0,1.638-1.247,1.638-3.606C18.96,12.331,18.673,10.367,17.3,10.367ZM4.7,11.922c-2.759,0-4.69-2.41-4.7-5.86a7.132,7.132,0,0,1,1.288-4.3A4.271,4.271,0,0,1,4.8,0,4.141,4.141,0,0,1,8.281,1.725,6.945,6.945,0,0,1,9.439,5.794a6.936,6.936,0,0,1-1.449,4.59A4.293,4.293,0,0,1,4.7,11.922Zm.046-9.565c-1.082,0-1.7,1.315-1.7,3.607a4.636,4.636,0,0,0,.818,3.216,1.235,1.235,0,0,0,.9.383c1.354,0,1.638-1.957,1.638-3.6S6.111,2.357,4.741,2.357Z" transform="translate(135 41)" fill="#323232"/>
  <path id="Fill_8" data-name="Fill 8" d="M30.37,9.6H13.255L12.18,17.839a21.323,21.323,0,0,1,2.658-.133c3.886.03,8.513,1.125,11.757,3.746C29.98,24.119,32,28.269,32,34c0,9.677-7.344,18-19.745,18A27.246,27.246,0,0,1,0,49.351L1.9,40.6a23.1,23.1,0,0,0,9.777,2.319c4.774,0,9.233-2.638,9.224-8.082-.009-5.743-4.285-8.712-12.774-8.712a37.763,37.763,0,0,0-5.649.39L5.511,0H30.37Z" transform="translate(98 9)" fill="#323232"/>
</svg>
