<svg xmlns="http://www.w3.org/2000/svg" width="155" height="67" viewBox="0 0 155 67">
  <g id="Group_1" data-name="Group 1" transform="translate(-378 -398)">
    <path id="Fill_10" data-name="Fill 10" d="M0,38H5V0H0Z" transform="translate(378 426)" fill="#323232"/>
    <path id="Fill_12" data-name="Fill 12" d="M0,38H5V0H0Z" transform="translate(389 426)" fill="#323232"/>
    <path id="Fill_13" data-name="Fill 13" d="M0,30H5V0H0Z" transform="translate(400 435)" fill="#323232"/>
    <path id="Fill_14" data-name="Fill 14" d="M.578,23c-.066-.245-1.6-6.037.617-9.465a5.181,5.181,0,0,1,3.627-2.318c5.513-.958,6.415-2.065,9.407-5.738.539-.664,1.145-1.405,1.854-2.242A13.49,13.49,0,0,1,20.661,0L21,.7a12.713,12.713,0,0,0-4.314,3.036c-.706.831-1.307,1.57-1.846,2.23-2.968,3.644-4.078,5.007-9.883,6.015a4.431,4.431,0,0,0-3.1,1.969c-2.032,3.141-.535,8.794-.52,8.851Z" transform="translate(381 399)" fill="#323232"/>
    <path id="Fill_15" data-name="Fill 15" d="M.788,24,0,23.947c.012-.177.326-4.339,3.217-6.3A6.529,6.529,0,0,1,6.2,16.657c1.8-.268,3.846-.574,7.452-4.337,1.171-1.22,2.011-2.156,2.686-2.908,2.6-2.9,2.756-3.07,9.6-5.892C33.83.266,34.4.016,34.436,0L34.6.354H35c0,.281,0,.281-8.766,3.894C19.557,7,19.458,7.11,16.921,9.938c-.679.755-1.525,1.7-2.7,2.927-3.794,3.956-6.074,4.3-7.9,4.571a5.806,5.806,0,0,0-2.655.868C1.083,20.045.79,23.96.788,24" transform="translate(389 398)" fill="#323232"/>
    <path id="Fill_16" data-name="Fill 16" d="M.788,24,0,23.948c.012-.177.326-4.339,3.217-6.3A6.541,6.541,0,0,1,6.2,16.658c1.8-.268,3.846-.574,7.452-4.337,1.171-1.221,2.011-2.156,2.686-2.908,2.6-2.9,2.756-3.071,9.6-5.892C33.83.267,34.4.017,34.436,0L34.6.355H35c0,.281,0,.281-8.766,3.893C19.557,7,19.458,7.111,16.921,9.938c-.679.756-1.525,1.7-2.7,2.928-3.794,3.956-6.074,4.3-7.9,4.571a5.791,5.791,0,0,0-2.655.868C1.083,20.047.79,23.962.788,24" transform="translate(404 399)" fill="#323232"/>
    <path id="Fill_17" data-name="Fill 17" d="M1.66,33.276a18.26,18.26,0,0,0,8.262,2.271c4.548,0,6.915-2.465,6.907-5.693-.012-4.289-3.769-6.178-7.86-6.2H5.983V16.909H8.764c3.067-.023,6.945-1.3,6.945-4.964,0-2.649-1.89-4.494-5.483-4.494A14.8,14.8,0,0,0,2.907,9.685L1.245,2.87A21.482,21.482,0,0,1,12.32,0c8.059,0,12.406,4.693,12.406,10.3,0,4.319-2.346,7.8-6.809,9.577v.128A10.228,10.228,0,0,1,26,30.3C26,37.372,20.269,43,10.608,43A20.679,20.679,0,0,1,0,40.4Z" transform="translate(427 422)" fill="#323232"/>
    <path id="Fill_18" data-name="Fill 18" d="M0,4.515C0,1.878,1.723,0,4.011,0,6.326,0,7.98,1.785,8,4.515,8,7.152,6.4,9,3.989,9,1.684,9,0,7.152,0,4.515" transform="translate(486 456)" fill="#323232"/>
    <path id="Fill_19" data-name="Fill 19" d="M5.591,16H3.759L12.392,0h1.822L5.591,16Zm8.528-.047c-2.258,0-3.838-1.93-3.843-4.693a5.622,5.622,0,0,1,1.054-3.437,3.523,3.523,0,0,1,2.875-1.417A3.411,3.411,0,0,1,17.053,7.79,5.478,5.478,0,0,1,18,11.048a5.474,5.474,0,0,1-1.185,3.673A3.543,3.543,0,0,1,14.119,15.953Zm.038-7.66c-.886,0-1.394,1.053-1.394,2.89a3.736,3.736,0,0,0,.666,2.568,1.017,1.017,0,0,0,.744.316c1.106,0,1.338-1.568,1.338-2.884S15.277,8.294,14.157,8.294ZM3.843,9.537C1.585,9.537,0,7.609,0,4.849A5.615,5.615,0,0,1,1.054,1.414,3.522,3.522,0,0,1,3.928,0,3.415,3.415,0,0,1,6.777,1.38a5.466,5.466,0,0,1,.947,3.255A5.468,5.468,0,0,1,6.538,8.307,3.545,3.545,0,0,1,3.843,9.537ZM3.88,1.886c-.885,0-1.393,1.051-1.393,2.885a3.68,3.68,0,0,0,.659,2.564,1.025,1.025,0,0,0,.751.317c1.108,0,1.34-1.567,1.34-2.881S5,1.886,3.88,1.886Z" transform="translate(515 449)" fill="#323232"/>
    <path id="Fill_20" data-name="Fill 20" d="M24.676,7.751H10.768L9.9,14.408a17.583,17.583,0,0,1,2.16-.108,15.953,15.953,0,0,1,9.552,3.026C24.359,19.481,26,22.834,26,27.463,26,35.279,20.034,42,9.957,42A22.269,22.269,0,0,1,0,39.861l1.546-7.069a18.864,18.864,0,0,0,7.943,1.872c3.88,0,7.5-2.132,7.5-6.528C16.977,23.5,13.5,21.1,6.6,21.1a31.05,31.05,0,0,0-4.591.313L4.478,0h20.2Z" transform="translate(458 423)" fill="#323232"/>
    <path id="Fill_21" data-name="Fill 21" d="M20,0V4.423L8.365,31H1.3L12.858,5.931v-.1H0V0Z" transform="translate(496 434)" fill="#323232"/>
  </g>
</svg>
