<svg xmlns="http://www.w3.org/2000/svg" width="172.432" height="89.407" viewBox="0 0 172.432 89.407">
  <g id="Group_16" data-name="Group 16" transform="translate(0.001 0)">
    <path id="Fill_31" data-name="Fill 31" d="M0,51.891H6.724V0H0Z" transform="translate(-0.001 37.515)" fill="#323232"/>
    <path id="Fill_32" data-name="Fill 32" d="M0,51.891H6.723V0H0Z" transform="translate(14.507 37.515)" fill="#323232"/>
    <path id="Fill_33" data-name="Fill 33" d="M0,40.64H6.723V0H0Z" transform="translate(29.493 48.766)" fill="#323232"/>
    <path id="Fill_34" data-name="Fill 34" d="M.78,31.446c-.089-.334-2.157-8.254.83-12.941a6.974,6.974,0,0,1,4.885-3.168c7.427-1.312,8.642-2.826,12.672-7.845.727-.908,1.543-1.924,2.5-3.067A18.16,18.16,0,0,1,27.833,0l.457.956a17.1,17.1,0,0,0-5.812,4.149c-.95,1.136-1.761,2.147-2.486,3.049C15.994,13.136,14.5,15,6.678,16.38A5.954,5.954,0,0,0,2.5,19.072c-2.739,4.294-.722,12.023-.7,12.1Z" transform="translate(3.218 0.478)" fill="#323232"/>
    <path id="Fill_35" data-name="Fill 35" d="M1.058,32.308,0,32.238C.017,32,.437,26.4,4.319,23.762a8.731,8.731,0,0,1,4-1.337c2.419-.363,5.16-.774,10-5.839,1.57-1.642,2.7-2.9,3.6-3.914,3.49-3.9,3.7-4.135,12.886-7.931C45.411.361,46.17.024,46.222,0l.221.478h.537c0,.379,0,.379-11.766,5.241-8.963,3.7-9.1,3.854-12.5,7.659-.911,1.018-2.046,2.284-3.628,3.941-5.091,5.326-8.152,5.785-10.61,6.154a7.758,7.758,0,0,0-3.562,1.166c-3.458,2.346-3.851,7.616-3.854,7.669" transform="translate(14.408 0)" fill="#323232"/>
    <path id="Fill_36" data-name="Fill 36" d="M1.057,32.308,0,32.238C.017,32,.436,26.4,4.318,23.763a8.726,8.726,0,0,1,4-1.338c2.419-.362,5.16-.774,10-5.839,1.569-1.641,2.7-2.9,3.6-3.914,3.49-3.9,3.7-4.135,12.886-7.93C45.41.361,46.169.025,46.221,0l.221.479h.537c0,.378,0,.378-11.766,5.24-8.963,3.7-9.1,3.854-12.5,7.659-.911,1.018-2.046,2.285-3.628,3.941-5.091,5.326-8.152,5.785-10.61,6.154A7.748,7.748,0,0,0,4.911,24.64c-3.457,2.346-3.851,7.615-3.854,7.668" transform="translate(34.391 0.477)" fill="#323232"/>
    <path id="Fill_37" data-name="Fill 37" d="M31.245,9.792H13.636L12.53,18.2a22.224,22.224,0,0,1,2.735-.136c4,.031,8.757,1.149,12.1,3.823,3.483,2.722,5.561,6.958,5.561,12.805,0,9.875-7.555,18.367-20.314,18.367A28.206,28.206,0,0,1,0,50.357l1.956-8.929a23.943,23.943,0,0,0,10.059,2.365c4.912,0,9.5-2.692,9.49-8.248C21.5,29.687,17.1,26.656,8.362,26.656a39.409,39.409,0,0,0-5.812.4L5.67,0H31.245Z" transform="translate(49.821 34.345)" fill="#323232"/>
    <path id="Fill_38" data-name="Fill 38" d="M17.5,53.872A14.727,14.727,0,0,1,9.562,51.71a16.392,16.392,0,0,1-5.43-5.836C1.448,41.223.019,34.728,0,27.091,0,19.248,1.506,12.6,4.354,7.871A16.579,16.579,0,0,1,9.92,2.1,15.1,15.1,0,0,1,17.854,0a14.864,14.864,0,0,1,8.152,2.239A16.2,16.2,0,0,1,31.38,8.2c2.529,4.579,3.865,10.981,3.865,18.513a50.777,50.777,0,0,1-1.17,11.373,27.028,27.028,0,0,1-3.429,8.545A15.836,15.836,0,0,1,25.082,52,15.346,15.346,0,0,1,17.5,53.872ZM17.739,9.2a3.98,3.98,0,0,0-2.887,1.257A11.9,11.9,0,0,0,12.2,16.249a49.883,49.883,0,0,0-.935,10.731c-.042,8.545,1.129,14.075,3.48,16.438a4.136,4.136,0,0,0,3.015,1.291c2.058,0,3.625-1.5,4.659-4.445s1.563-7.459,1.563-13.372C23.982,15.15,21.882,9.2,17.739,9.2Z" transform="translate(89.804 33.534)" fill="#323232"/>
    <path id="Fill_39" data-name="Fill 39" d="M7.016,20.648h-2.3L15.552,0h2.286Zm10.7-.059c-2.832,0-4.815-2.49-4.822-6.056A7.4,7.4,0,0,1,14.221,10.1a4.378,4.378,0,0,1,3.607-1.829A4.241,4.241,0,0,1,21.4,10.054a7.212,7.212,0,0,1,1.189,4.2A7.2,7.2,0,0,1,21.1,19,4.4,4.4,0,0,1,17.719,20.589Zm.048-9.887c-1.111,0-1.748,1.359-1.748,3.729a4.868,4.868,0,0,0,.85,3.333,1.255,1.255,0,0,0,.918.391c1.389,0,1.68-2.025,1.68-3.724S19.173,10.7,17.767,10.7ZM4.823,12.308C1.991,12.308.007,9.82,0,6.258A7.387,7.387,0,0,1,1.323,1.825,4.38,4.38,0,0,1,4.93,0,4.243,4.243,0,0,1,8.5,1.781a7.2,7.2,0,0,1,1.188,4.2A7.188,7.188,0,0,1,8.206,10.72,4.4,4.4,0,0,1,4.823,12.308Zm.048-9.875c-1.111,0-1.749,1.357-1.749,3.723a4.8,4.8,0,0,0,.843,3.324,1.263,1.263,0,0,0,.925.392c1.39,0,1.682-2.021,1.682-3.716S6.277,2.434,4.871,2.434Z" transform="translate(128.819 66.258)" fill="#323232"/>
    <path id="Fill_40" data-name="Fill 40" d="M15.08,6.15H10.9v18h-7v-18H0L7.15,0Z" transform="translate(157.351 63.256)" fill="#7dae60"/>
  </g>
</svg>
