<svg xmlns="http://www.w3.org/2000/svg" width="75" height="36" viewBox="0 0 75 36">
  <g id="Group_15" data-name="Group 15" transform="translate(-688 -430)">
    <path id="Fill_26" data-name="Fill 26" d="M14.238,4.429H6.214l-.5,3.8a10.3,10.3,0,0,1,1.246-.061A9.258,9.258,0,0,1,12.468,9.9,6.937,6.937,0,0,1,15,15.694C15,20.159,11.559,24,5.745,24A12.955,12.955,0,0,1,0,22.778l.891-4.04a10.975,10.975,0,0,0,4.585,1.071c2.238,0,4.328-1.218,4.324-3.731,0-2.65-2.008-4.02-5.988-4.02a18.051,18.051,0,0,0-2.65.179L2.584,0H14.238Z" transform="translate(715 442)" fill="#323232"/>
    <path id="Fill_27" data-name="Fill 27" d="M0,2.508A2.431,2.431,0,0,1,2.507,0,2.388,2.388,0,0,1,5,2.508,2.376,2.376,0,0,1,2.493,5,2.4,2.4,0,0,1,0,2.508" transform="translate(733 460)" fill="#323232"/>
    <path id="Fill_28" data-name="Fill 28" d="M3.105,9H2.088l4.8-9H7.9L3.105,9Zm4.739-.024c-1.255,0-2.132-1.086-2.134-2.642,0-1.608.9-2.731,2.181-2.731a1.888,1.888,0,0,1,1.583.779A3.111,3.111,0,0,1,10,6.215a3.105,3.105,0,0,1-.659,2.066A1.958,1.958,0,0,1,7.844,8.976Zm.021-4.311c-.491,0-.773.593-.773,1.626a2.108,2.108,0,0,0,.371,1.448.562.562,0,0,0,.412.175c.487,0,.744-.561.744-1.623S8.358,4.665,7.864,4.665Zm-5.729.7C.881,5.364,0,4.28,0,2.728,0,1.122.9,0,2.182,0S4.291,1.024,4.291,2.608a3.1,3.1,0,0,1-.659,2.064A1.96,1.96,0,0,1,2.135,5.364Zm.021-4.3c-.492,0-.774.591-.774,1.623A2.076,2.076,0,0,0,1.75,4.128a.566.566,0,0,0,.415.175c.486,0,.743-.56.743-1.62S2.648,1.061,2.155,1.061Z" transform="translate(753 456)" fill="#323232"/>
    <path id="Fill_34" data-name="Fill 34" d="M0,25H1V0H0Z" transform="translate(699 440)" fill="#323232"/>
    <path id="Fill_35" data-name="Fill 35" d="M3,7.5A20.4,20.4,0,0,1,1.5,15,20.4,20.4,0,0,1,0,7.5,20.406,20.406,0,0,1,1.5,0,20.406,20.406,0,0,1,3,7.5" transform="translate(698 430)" fill="#323232"/>
    <path id="Fill_36" data-name="Fill 36" d="M5.84,2.125A18.96,18.96,0,0,1,13,0,20.116,20.116,0,0,1,7.162,4.875,18.971,18.971,0,0,1,0,7,20.17,20.17,0,0,1,5.84,2.125" transform="translate(688 441)" fill="#323232"/>
    <path id="Fill_37" data-name="Fill 37" d="M7.142,2.081A18.4,18.4,0,0,0,0,0,20.2,20.2,0,0,0,5.859,4.919,18.4,18.4,0,0,0,13,7,20.158,20.158,0,0,0,7.142,2.081" transform="translate(699 441)" fill="#323232"/>
    <path id="Fill_38" data-name="Fill 38" d="M10.148,17h-3.4V12.938H0V10.427L5.922,0h4.226V10.033H12v2.905H10.148V17ZM6.787,3.3l-.193.426C6.2,4.593,5.83,5.415,5.381,6.3L3.336,9.98l-.01.053H6.749V6.359c0-.954.061-1.976.12-2.964l.006-.1-.088,0Z" transform="translate(739 449)" fill="#323232"/>
  </g>
</svg>
