<svg xmlns="http://www.w3.org/2000/svg" width="127" height="45" viewBox="0 0 127 45">
  <g id="Group_14" data-name="Group 14" transform="translate(-551 -419)">
    <path id="Fill_22" data-name="Fill 22" d="M6.083,5.678H6l-4.989,2.5L0,3.413,6.9,0H12V28H6.083Z" transform="translate(606 436)" fill="#323232"/>
    <path id="Fill_23" data-name="Fill 23" d="M6.083,5.678H6l-4.989,2.5L0,3.413,6.9,0H12V28H6.083Z" transform="translate(623 436)" fill="#323232"/>
    <path id="Fill_24" data-name="Fill 24" d="M0,3.01C0,1.25,1.078,0,2.507,0,3.954,0,4.989,1.19,5,3.01,5,4.768,4,6,2.493,6,1.053,6,0,4.768,0,3.01" transform="translate(641 458)" fill="#323232"/>
    <path id="Fill_25" data-name="Fill 25" d="M3.726,11H2.506L8.262,0H9.476L3.726,11Zm5.687-.031c-1.5,0-2.558-1.327-2.561-3.226C6.852,5.777,7.929,4.4,9.471,4.4a2.249,2.249,0,0,1,1.9.951A3.854,3.854,0,0,1,12,7.6a3.843,3.843,0,0,1-.79,2.525A2.331,2.331,0,0,1,9.413,10.969ZM9.438,5.7c-.591,0-.93.724-.93,1.987a2.593,2.593,0,0,0,.453,1.775.665.665,0,0,0,.486.208c.585,0,.895-.686.895-1.983S10.03,5.7,9.438,5.7Zm-6.877.855C1.057,6.557,0,5.231,0,3.334,0,1.371,1.077,0,2.619,0a2.251,2.251,0,0,1,1.9.948,3.841,3.841,0,0,1,.631,2.237,3.84,3.84,0,0,1-.79,2.525A2.332,2.332,0,0,1,2.561,6.557ZM2.587,1.3c-.591,0-.93.723-.93,1.983a2.557,2.557,0,0,0,.449,1.772A.67.67,0,0,0,2.6,5.26c.585,0,.895-.685.895-1.98S3.178,1.3,2.587,1.3Z" transform="translate(666 453)" fill="#323232"/>
    <path id="Fill_29" data-name="Fill 29" d="M34.571,45H31.144v-.867h3.426V45Zm-6.854,0H24.292v-.867h3.425V45Zm-6.854,0H17.438v-.867h3.426V45Zm-6.854,0H10.584v-.867h3.425V45ZM7.158,45H3.73v-.867H7.158V45Zm-6.3-.561H0V40.974H.857v3.464ZM35,43.22h-.857V39.753H35v3.466ZM.857,37.507H0V34.04H.857v3.466ZM35,36.286h-.857V32.82H35v3.465ZM.857,30.573H0V27.108H.857v3.464ZM35,29.353h-.857V25.886H35v3.466ZM.857,23.64H0V20.174H.857v3.465ZM35,22.421h-.857V18.954H35V22.42ZM.857,16.707H0V13.241H.857v3.465ZM35,15.486h-.857V12.02H35v3.465ZM.857,9.775H0V6.308H.857V9.774ZM35,8.553h-.857V5.087H35V8.552ZM.857,2.84H0V0H1.476V.867H.857V2.839ZM35,1.621h-.857V.867H32.317V0H35V1.62ZM28.892.867H25.465V0h3.427V.866Zm-6.854,0H18.61V0h3.427V.866Zm-6.855,0H11.757V0h3.425V.866ZM8.33.867H4.9V0H8.33V.866Z" transform="translate(551 419)" fill="#323232"/>
    <path id="Fill_30" data-name="Fill 30" d="M2.5,0A2.5,2.5,0,1,0,5,2.5,2.494,2.494,0,0,0,2.5,0" transform="translate(567 447)" fill="#323232"/>
    <path id="Fill_31" data-name="Fill 31" d="M10.723,1.471A9.962,9.962,0,0,0,.3,1.471a.663.663,0,0,0-.3.563.573.573,0,0,0,.075.3L2.988,7.7a.574.574,0,0,0,.5.3.477.477,0,0,0,.275-.08,3.344,3.344,0,0,1,3.465,0A.488.488,0,0,0,7.509,8a.572.572,0,0,0,.5-.3l2.913-5.373a.674.674,0,0,0-.2-.859" transform="translate(564 438)" fill="#323232"/>
    <path id="Fill_32" data-name="Fill 32" d="M8.374,0H2.591a.576.576,0,0,0-.576.6A3.676,3.676,0,0,1,.288,3.7a.6.6,0,0,0-.2.827L2.991,9.7a.569.569,0,0,0,.8.207A10.872,10.872,0,0,0,9,.6.656.656,0,0,0,8.374,0" transform="translate(571 449)" fill="#323232"/>
    <path id="Fill_33" data-name="Fill 33" d="M8.712,3.695A3.633,3.633,0,0,1,6.954.6.577.577,0,0,0,6.377,0H.578A.577.577,0,0,0,0,.6,10.856,10.856,0,0,0,5.2,9.9a.7.7,0,0,0,.3.1A.574.574,0,0,0,6,9.716L8.912,4.547a.632.632,0,0,0-.2-.852" transform="translate(559 449)" fill="#323232"/>
    <path id="Fill_39" data-name="Fill 39" d="M0,21V18.108l2.358-2.471C6.138,11.77,8.23,9.3,8.254,6.723A2.727,2.727,0,0,0,5.246,3.764a6.581,6.581,0,0,0-3.835,1.5L.3,1.88A9.781,9.781,0,0,1,6.109,0c4.42,0,6.537,2.825,6.537,6.333,0,3.594-2.348,6.473-5.033,9.161L5.986,17.045v.063H13V21Z" transform="translate(650 443)" fill="#323232"/>
  </g>
</svg>
