<svg xmlns="http://www.w3.org/2000/svg" xmlns:xlink="http://www.w3.org/1999/xlink" width="134.972" height="40.406" viewBox="0 0 134.972 40.406">
  <defs>
    <clipPath id="clip-path">
      <path id="Clip_6" data-name="Clip 6" d="M0,0H15.911V14.542H0Z" fill="none"/>
    </clipPath>
  </defs>
  <g id="Group_17" data-name="Group 17" transform="translate(-386.459 -686)">
    <path id="Fill_1" data-name="Fill 1" d="M0,37.378V32.23l4.236-4.4c6.788-6.884,10.545-11.276,10.59-15.864,0-2.983-1.658-5.267-5.4-5.267A11.856,11.856,0,0,0,2.537,9.37l-2-6.024A17.67,17.67,0,0,1,10.975,0c7.937,0,11.743,5.029,11.743,11.274,0,6.4-4.22,11.519-9.041,16.3l-2.926,2.759v.113h12.6v6.928Z" transform="translate(428.921 688.809)" fill="#323232"/>
    <path id="Fill_3" data-name="Fill 3" d="M23.26,0V5.251L9.728,36.807H1.512L14.954,7.041V6.928H0V0Z" transform="translate(458.007 689.381)" fill="#323232"/>
    <g id="Group_7" data-name="Group 7" transform="translate(484.615 711.864)">
      <path id="Clip_6-2" data-name="Clip 6" d="M0,0H15.911V14.542H0Z" fill="none"/>
      <g id="Group_7-2" data-name="Group 7" clip-path="url(#clip-path)">
        <path id="Fill_5" data-name="Fill 5" d="M4.941,14.542H3.323L10.954,0h1.61L4.941,14.542ZM12.48,14.5c-1.994,0-3.391-1.754-3.4-4.266a5.211,5.211,0,0,1,.932-3.124,3.083,3.083,0,0,1,2.539-1.288A2.989,2.989,0,0,1,15.074,7.08a5.079,5.079,0,0,1,.837,2.961,5.069,5.069,0,0,1-1.047,3.338A3.1,3.1,0,0,1,12.48,14.5Zm.032-6.962c-.782,0-1.23.957-1.23,2.625a3.426,3.426,0,0,0,.6,2.348.884.884,0,0,0,.647.276c.775,0,1.184-.907,1.184-2.623S13.3,7.538,12.513,7.538ZM3.4,8.669C1.4,8.669.005,6.917,0,4.408A5.2,5.2,0,0,1,.932,1.285,3.085,3.085,0,0,1,3.472,0,2.989,2.989,0,0,1,5.99,1.254a5.071,5.071,0,0,1,.837,2.959A5.06,5.06,0,0,1,5.779,7.551,3.1,3.1,0,0,1,3.4,8.669Zm.033-6.953c-.782,0-1.231.956-1.231,2.622a3.377,3.377,0,0,0,.593,2.341.892.892,0,0,0,.653.277c.775,0,1.184-.905,1.184-2.617S4.214,1.715,3.429,1.715Z" fill="#323232"/>
      </g>
    </g>
    <path id="Fill_18" data-name="Fill 18" d="M28.345,25.233A14.172,14.172,0,1,1,0,25.233a13.4,13.4,0,0,1,.225-2.478A79.644,79.644,0,0,1,1.566,9.42,33.02,33.02,0,0,1,3.315,4.645c.708-.118,1.362.966,1.727,1.438a6.2,6.2,0,0,0,1.116.944c.976,1.2,2.157,2.328,3.218,3.454a4.823,4.823,0,0,0,1.159,1.063,1.007,1.007,0,0,0,1.255-.28,2.228,2.228,0,0,0,.312-.321C14.719,7.907,14.032,2.274,17.692,0c3.164,28.957,8.668-11.34,10.632,24.5.01.1.01.2.01.3.011.14.011.29.011.429" transform="translate(386.459 686)" fill="#323232"/>
    <path id="Fill_30" data-name="Fill 30" d="M0,18H4.181V0h7V18h3.9L7.931,24.15Z" transform="translate(506.351 701.256)" fill="#606060"/>
  </g>
</svg>
