<svg xmlns="http://www.w3.org/2000/svg" width="152.349" height="39.406" viewBox="0 0 152.349 39.406">
  <g id="Group_18" data-name="Group 18" transform="translate(-537.082 -686)">
    <path id="Fill_8" data-name="Fill 8" d="M0,31.809V27.427l3.605-3.742c5.777-5.858,8.973-9.6,9.011-13.5,0-2.538-1.41-4.482-4.6-4.482A10.1,10.1,0,0,0,2.159,7.974L.457,2.848A15.039,15.039,0,0,1,9.339,0c6.754,0,9.993,4.281,9.993,9.594,0,5.444-3.591,9.8-7.693,13.875l-2.49,2.348v.1h10.72v5.9Z" transform="translate(580.671 693.111)" fill="#323232"/>
    <path id="Fill_10" data-name="Fill 10" d="M10.495,32.295A8.831,8.831,0,0,1,5.733,31a9.826,9.826,0,0,1-3.256-3.5C.868,24.713.011,20.82,0,16.241c0-4.7.9-8.687,2.61-11.523A9.939,9.939,0,0,1,5.947,1.262,9.052,9.052,0,0,1,10.7,0a8.772,8.772,0,0,1,8.11,4.913c1.516,2.745,2.318,6.583,2.318,11.1a30.432,30.432,0,0,1-.7,6.818,16.2,16.2,0,0,1-2.056,5.122,9.493,9.493,0,0,1-3.336,3.223A9.2,9.2,0,0,1,10.495,32.295Zm.14-26.78A2.387,2.387,0,0,0,8.9,6.268c-1.419,1.423-2.163,4.848-2.15,9.906-.024,5.122.678,8.438,2.087,9.854a2.48,2.48,0,0,0,1.808.774c1.233,0,2.173-.9,2.793-2.665a25.9,25.9,0,0,0,.937-8.017C14.378,9.083,13.119,5.514,10.635,5.514Z" transform="translate(604.673 693.111)" fill="#323232"/>
    <path id="Fill_12" data-name="Fill 12" d="M0,3.364A3.119,3.119,0,0,1,3.048,0,3.065,3.065,0,0,1,6.079,3.364,3.053,3.053,0,1,1,0,3.364" transform="translate(629.38 718.587)" fill="#323232"/>
    <path id="Fill_14" data-name="Fill 14" d="M8.007,24.748A8.682,8.682,0,0,1,2.02,22.727,6.178,6.178,0,0,1,0,18.114,6.621,6.621,0,0,1,3.917,11.97l0-.082A6.018,6.018,0,0,1,.733,6.619,6.093,6.093,0,0,1,2.943,1.8,8.43,8.43,0,0,1,8.376,0a7.56,7.56,0,0,1,5.351,1.877A5.75,5.75,0,0,1,15.5,6.08a6.022,6.022,0,0,1-3.253,5.308v.086A7.092,7.092,0,0,1,15.1,13.744a6.322,6.322,0,0,1,1.192,3.791,6.7,6.7,0,0,1-2.308,5.252A9,9,0,0,1,8.007,24.748ZM7.751,13.8A3.872,3.872,0,0,0,5.2,17.55a3.751,3.751,0,0,0,1,2.682,2.769,2.769,0,0,0,2.014.827,2.907,2.907,0,0,0,2.882-3.175C11.091,15.971,9.9,14.522,7.751,13.8ZM8.141,3.624A2.56,2.56,0,0,0,5.605,6.447C5.6,8.322,7.212,9.315,8.564,9.818a3.415,3.415,0,0,0,2.111-3.17,3.586,3.586,0,0,0-.59-2.084A2.29,2.29,0,0,0,8.141,3.624Z" transform="translate(637.93 700.545)" fill="#323232"/>
    <path id="Fill_16" data-name="Fill 16" d="M4.206,12.374H2.829L9.324,0h1.371L4.206,12.374Zm6.418-.036c-1.7,0-2.887-1.492-2.892-3.629,0-2.21,1.216-3.754,2.957-3.754a2.542,2.542,0,0,1,2.142,1.07,4.32,4.32,0,0,1,.713,2.518,4.312,4.312,0,0,1-.892,2.841A2.635,2.635,0,0,1,10.624,12.338Zm.029-5.924c-.666,0-1.049.814-1.049,2.234a2.915,2.915,0,0,0,.509,2,.753.753,0,0,0,.551.235c.659,0,1.008-.771,1.008-2.231S11.319,6.414,10.652,6.414ZM2.89,7.376C1.191,7.376,0,5.885,0,3.75,0,1.542,1.215,0,2.955,0A2.546,2.546,0,0,1,5.1,1.067a4.312,4.312,0,0,1,.713,2.518,4.306,4.306,0,0,1-.892,2.84A2.639,2.639,0,0,1,2.89,7.376Zm.029-5.918c-.666,0-1.048.813-1.048,2.23a2.871,2.871,0,0,0,.5,1.992.759.759,0,0,0,.556.236c.659,0,1.008-.77,1.008-2.227S3.586,1.459,2.919,1.459Z" transform="translate(656.001 712.733)" fill="#323232"/>
    <path id="Fill_20" data-name="Fill 20" d="M.137,12.148H.863V0H.137Z" transform="translate(567.181 713.258)" fill="#323232"/>
    <path id="Fill_22" data-name="Fill 22" d="M1.45,3.626A9.874,9.874,0,0,1,.725,7.253,9.874,9.874,0,0,1,0,3.626,9.872,9.872,0,0,1,.725,0,9.872,9.872,0,0,1,1.45,3.626" transform="translate(566.956 708)" fill="#323232"/>
    <path id="Fill_23" data-name="Fill 23" d="M2.9,1A9.874,9.874,0,0,1,6.465,0a9.873,9.873,0,0,1-2.9,2.291A9.871,9.871,0,0,1,0,3.289,9.86,9.86,0,0,1,2.9,1" transform="translate(561.693 713.721)" fill="#323232"/>
    <path id="Fill_24" data-name="Fill 24" d="M3.572.954A9.842,9.842,0,0,0,0,0,9.868,9.868,0,0,0,2.93,2.255,9.871,9.871,0,0,0,6.5,3.209,9.875,9.875,0,0,0,3.572.954" transform="translate(567.235 713.666)" fill="#323232"/>
    <path id="Fill_25" data-name="Fill 25" d="M0,27.5H1.642V0H0Z" transform="translate(549.816 697.904)" fill="#323232"/>
    <path id="Fill_26" data-name="Fill 26" d="M3.284,8.21a22.32,22.32,0,0,1-1.643,8.209A22.342,22.342,0,0,1,0,8.21,22.351,22.351,0,0,1,1.641,0,22.328,22.328,0,0,1,3.284,8.21" transform="translate(548.995 686)" fill="#323232"/>
    <path id="Fill_27" data-name="Fill 27" d="M6.572,2.26A22.347,22.347,0,0,1,14.634,0,22.339,22.339,0,0,1,8.061,5.187,22.355,22.355,0,0,1,0,7.446,22.333,22.333,0,0,1,6.572,2.26" transform="translate(537.082 698.954)" fill="#323232"/>
    <path id="Fill_28" data-name="Fill 28" d="M8.088,2.161A22.323,22.323,0,0,0,0,0,22.325,22.325,0,0,0,6.635,5.105a22.317,22.317,0,0,0,8.089,2.16,22.344,22.344,0,0,0-6.636-5.1" transform="translate(549.626 698.826)" fill="#323232"/>
    <path id="Fill_29" data-name="Fill 29" d="M15.08,6.15H10.9v18h-7v-18H0L7.15,0Z" transform="translate(674.351 701.256)" fill="#7dae60"/>
  </g>
</svg>
