<svg xmlns="http://www.w3.org/2000/svg" width="71.723" height="36.839" viewBox="0 0 71.723 36.839">
  <g id="Group_2" data-name="Group 2" transform="translate(-741 -642)">
    <g id="Group_13" data-name="Group 13" transform="translate(127.707 450.487)">
      <path id="Path_1" data-name="Path 1" d="M651.936,222.2h4.18v-18h7v18h3.9l-7.15,6.15Z" fill="#606060"/>
      <path id="Path_2" data-name="Path 2" d="M669.936,222.2h4.18v-18h7v18h3.9l-7.15,6.15Z" fill="#606060"/>
      <g id="Group_12" data-name="Group 12">
        <g id="Group_2-2" data-name="Group 2">
          <path id="Path_3" data-name="Path 3" d="M641.733,228.108h-2.819V227.4h2.819Zm-5.638,0h-2.819V227.4h2.819Zm-5.638,0h-2.819V227.4h2.819Zm-5.639,0H622V227.4h2.819Zm-5.638,0h-2.819V227.4h2.819ZM614,227.652h-.7v-2.819h.7Zm28.087-.992h-.7v-2.819h.7ZM614,222.014h-.7V219.2h.7Zm28.087-.992h-.7V218.2h.7ZM614,216.376h-.7v-2.819h.7Zm28.087-.993h-.7v-2.819h.7ZM614,210.738h-.7v-2.819h.7Zm28.087-.993h-.7v-2.819h.7ZM614,205.1h-.7V202.28h.7Zm28.087-.992h-.7v-2.819h.7ZM614,199.461h-.7v-2.819h.7Zm28.087-.992h-.7V195.65h.7ZM614,193.823h-.7v-2.31h1.214v.705H614Zm28.087-.992h-.7v-.613h-1.5v-.705h2.206Zm-5.025-.613h-2.819v-.705h2.819Zm-5.638,0H628.6v-.705h2.82Zm-5.639,0h-2.819v-.705h2.819Zm-5.638,0h-2.819v-.705h2.819Z" fill="#323232"/>
        </g>
        <g id="Group_11" data-name="Group 11">
          <g id="Group_4" data-name="Group 4">
            <g id="Group_3" data-name="Group 3">
              <path id="Path_4" data-name="Path 4" d="M628.121,214.162a1.939,1.939,0,1,0,1.939,1.939A1.934,1.934,0,0,0,628.121,214.162Z" fill="#323232"/>
            </g>
          </g>
          <g id="Group_6" data-name="Group 6">
            <g id="Group_5" data-name="Group 5">
              <path id="Path_5" data-name="Path 5" d="M632.483,208.514a8.866,8.866,0,0,0-8.746,0,.515.515,0,0,0-.253.443.416.416,0,0,0,.064.231l2.444,4.215a.485.485,0,0,0,.422.232.424.424,0,0,0,.231-.063,2.977,2.977,0,0,1,2.909,0,.424.424,0,0,0,.232.063.484.484,0,0,0,.421-.232l2.445-4.215A.507.507,0,0,0,632.483,208.514Z" fill="#323232"/>
            </g>
          </g>
          <g id="Group_8" data-name="Group 8">
            <g id="Group_7" data-name="Group 7">
              <path id="Path_6" data-name="Path 6" d="M636.4,215.616h-4.868a.477.477,0,0,0-.485.485,2.975,2.975,0,0,1-1.454,2.529.483.483,0,0,0-.169.674l2.445,4.215a.488.488,0,0,0,.674.169,8.8,8.8,0,0,0,4.384-7.587A.544.544,0,0,0,636.4,215.616Z" fill="#323232"/>
            </g>
          </g>
          <g id="Group_10" data-name="Group 10">
            <g id="Group_9" data-name="Group 9">
              <path id="Path_7" data-name="Path 7" d="M626.667,218.63a2.948,2.948,0,0,1-1.476-2.529.476.476,0,0,0-.484-.485h-4.869a.477.477,0,0,0-.484.485,8.805,8.805,0,0,0,4.362,7.587.6.6,0,0,0,.253.084.486.486,0,0,0,.422-.232l2.444-4.215A.507.507,0,0,0,626.667,218.63Z" fill="#323232"/>
            </g>
          </g>
        </g>
      </g>
    </g>
  </g>
</svg>
