<svg id="青平台" xmlns="http://www.w3.org/2000/svg" xmlns:xlink="http://www.w3.org/1999/xlink" width="213" height="82" viewBox="0 0 213 82">
  <defs>
    <clipPath id="clip-path">
      <path id="Clip_15" data-name="Clip 15" d="M0,82H213V0H0Z" fill="none"/>
    </clipPath>
  </defs>
  <path id="Fill_1" data-name="Fill 1" d="M0,0V6H1.4V3.587H4.817v-1.1H1.4V1.1H5V0Z" transform="translate(0 63)" fill="#3e3a39"/>
  <g id="Group_61" data-name="Group 61">
    <path id="Fill_2" data-name="Fill 2" d="M2.809,5.015A3.016,3.016,0,0,1,.743,4.354,2.33,2.33,0,0,1,0,2.525,2.516,2.516,0,0,1,.344,1.2,2.33,2.33,0,0,1,1.337.316,3.483,3.483,0,0,1,2.873,0a3.051,3.051,0,0,1,2.07.655,2.321,2.321,0,0,1,.748,1.834,2.336,2.336,0,0,1-.779,1.842A3.09,3.09,0,0,1,2.809,5.015Zm.037-3.983a1.433,1.433,0,0,0-1.07.39,1.493,1.493,0,0,0-.381,1.086A1.5,1.5,0,0,0,1.771,3.6a1.426,1.426,0,0,0,1.065.385A1.459,1.459,0,0,0,3.911,3.6,1.482,1.482,0,0,0,4.3,2.507,1.5,1.5,0,0,0,3.92,1.416,1.444,1.444,0,0,0,2.846,1.031Z" transform="translate(6.299 64.196)" fill="#3e3a39"/>
    <path id="Fill_4" data-name="Fill 4" d="M3.779,3.966v.761H5.1V0H3.752V2.572a1.032,1.032,0,0,1-.1.453,1.188,1.188,0,0,1-.285.38,1.522,1.522,0,0,1-1.033.4,1.016,1.016,0,0,1-.739-.236.973.973,0,0,1-.24-.724V0H0V3.087A1.742,1.742,0,0,0,.485,4.4a1.874,1.874,0,0,0,1.364.471,2.43,2.43,0,0,0,1.93-.905" transform="translate(13.249 64.341)" fill="#3e3a39"/>
    <path id="Fill_6" data-name="Fill 6" d="M2.224,1.177A1.608,1.608,0,0,1,2.8,1.069a1.13,1.13,0,0,1,.793.235,1.011,1.011,0,0,1,.249.761V4.871H5.193V1.8A1.749,1.749,0,0,0,4.7.466,1.988,1.988,0,0,0,3.28,0,2.441,2.441,0,0,0,1.323.905V.144H0V4.871H1.35V2.3a1.1,1.1,0,0,1,.381-.815,1.462,1.462,0,0,1,.494-.307" transform="translate(19.892 64.196)" fill="#3e3a39"/>
    <path id="Fill_8" data-name="Fill 8" d="M2.329,6.609a2.4,2.4,0,0,1-1.205-.3A2.1,2.1,0,0,1,.3,5.455,2.744,2.744,0,0,1,0,4.147,2.833,2.833,0,0,1,.3,2.83a2.235,2.235,0,0,1,.857-.905,2.529,2.529,0,0,1,1.309-.33,2.209,2.209,0,0,1,1.786.77V0H5.6V6.465H4.277V5.722a2.029,2.029,0,0,1-.82.661A2.737,2.737,0,0,1,2.329,6.609Zm.517-3.974a1.464,1.464,0,0,0-1.079.374,1.524,1.524,0,0,0-.372,1.11,1.472,1.472,0,0,0,.372,1.068A1.387,1.387,0,0,0,2.8,5.568a1.658,1.658,0,0,0,.6-.109,1.4,1.4,0,0,0,.49-.317,1.235,1.235,0,0,0,.275-.417,1.287,1.287,0,0,0,.1-.489V3.992a1.478,1.478,0,0,0-.1-.535,1.371,1.371,0,0,0-.281-.443A1.366,1.366,0,0,0,2.846,2.635Z" transform="translate(26.345 62.602)" fill="#3e3a39"/>
    <path id="Fill_10" data-name="Fill 10" d="M1.93,5A2.351,2.351,0,0,1,.5,4.622,1.267,1.267,0,0,1,0,3.549,1.259,1.259,0,0,1,.652,2.39,4.491,4.491,0,0,1,2.71,1.974l1.16-.028V1.765a.715.715,0,0,0-.29-.611A1.381,1.381,0,0,0,2.756.941c-.681,0-1.093.2-1.224.58L.309,1.4A1.5,1.5,0,0,1,1.074.344,3.611,3.611,0,0,1,2.8,0C4.37,0,5.166.627,5.166,1.864V4.871H3.915V4.227a2.71,2.71,0,0,1-.892.584A3,3,0,0,1,1.93,5ZM3.87,2.743,2.737,2.77a2.749,2.749,0,0,0-1.074.184.541.541,0,0,0-.339.5.494.494,0,0,0,.248.444,1.367,1.367,0,0,0,.72.154,2.454,2.454,0,0,0,.7-.094,1.5,1.5,0,0,0,.534-.276A.845.845,0,0,0,3.87,3Z" transform="translate(33.177 64.196)" fill="#3e3a39"/>
    <path id="Fill_12" data-name="Fill 12" d="M.915,0V1.259H0v1H.915V4.391a1.737,1.737,0,0,0,.407,1.281,1.8,1.8,0,0,0,1.306.4,4.431,4.431,0,0,0,1.332-.2l-.181-.969a2.652,2.652,0,0,1-.8.127.755.755,0,0,1-.543-.167.7.7,0,0,1-.172-.52V2.263H3.815v-1H2.266V0Z" transform="translate(39.259 63.082)" fill="#3e3a39"/>
    <path id="Clip_15-2" data-name="Clip 15" d="M0,82H213V0H0Z" fill="none"/>
    <g id="Group_61-2" data-name="Group 61" clip-path="url(#clip-path)">
      <path id="Fill_14" data-name="Fill 14" d="M0,4.726H1.35V0H0Z" transform="translate(44.27 64.34)" fill="#3e3a39"/>
      <path id="Fill_16" data-name="Fill 16" d="M0,1.159H1.387V0H0Z" transform="translate(44.252 62.548)" fill="#3e3a39"/>
      <path id="Fill_17" data-name="Fill 17" d="M2.809,5.016A3.016,3.016,0,0,1,.743,4.355,2.333,2.333,0,0,1,0,2.526,2.511,2.511,0,0,1,.344,1.205,2.32,2.32,0,0,1,1.337.317,3.482,3.482,0,0,1,2.873,0a3.05,3.05,0,0,1,2.07.656,2.32,2.32,0,0,1,.748,1.833,2.338,2.338,0,0,1-.779,1.843A3.09,3.09,0,0,1,2.809,5.016Zm.037-3.983a1.433,1.433,0,0,0-1.07.39,1.49,1.49,0,0,0-.381,1.086A1.5,1.5,0,0,0,1.771,3.6a1.428,1.428,0,0,0,1.065.385A1.462,1.462,0,0,0,3.911,3.6,1.482,1.482,0,0,0,4.3,2.508,1.508,1.508,0,0,0,3.92,1.417,1.444,1.444,0,0,0,2.846,1.032Z" transform="translate(46.926 64.196)" fill="#3e3a39"/>
      <path id="Fill_18" data-name="Fill 18" d="M0,.144V4.871H1.35V2.3a1.1,1.1,0,0,1,.381-.815,1.455,1.455,0,0,1,.494-.307A1.6,1.6,0,0,1,2.8,1.068a1.131,1.131,0,0,1,.793.235,1.011,1.011,0,0,1,.25.761V4.871h1.35V1.8A1.748,1.748,0,0,0,4.7.466,1.989,1.989,0,0,0,3.281,0,2.44,2.44,0,0,0,1.323.905V.144Z" transform="translate(53.921 64.196)" fill="#3e3a39"/>
      <path id="Fill_19" data-name="Fill 19" d="M3.77,1.81h-1.5V1.666a.572.572,0,0,1,.214-.494,1.1,1.1,0,0,1,.656-.159,3.085,3.085,0,0,1,.689.073l.2-.933A4.376,4.376,0,0,0,2.845,0,2.11,2.11,0,0,0,1.427.438,1.518,1.518,0,0,0,.915,1.657V1.81H0V2.816H.915V6.536h1.35V2.816h1.5Z" transform="translate(62.803 62.53)" fill="#3e3a39"/>
      <path id="Fill_20" data-name="Fill 20" d="M2.809,5.016A3.019,3.019,0,0,1,.743,4.355,2.333,2.333,0,0,1,0,2.526,2.511,2.511,0,0,1,.344,1.205,2.323,2.323,0,0,1,1.337.317,3.487,3.487,0,0,1,2.873,0a3.047,3.047,0,0,1,2.07.656,2.32,2.32,0,0,1,.748,1.833,2.338,2.338,0,0,1-.779,1.843A3.09,3.09,0,0,1,2.809,5.016Zm.037-3.983a1.429,1.429,0,0,0-1.069.39,1.49,1.49,0,0,0-.382,1.086A1.5,1.5,0,0,0,1.771,3.6a1.428,1.428,0,0,0,1.065.385A1.459,1.459,0,0,0,3.911,3.6,1.482,1.482,0,0,0,4.3,2.508,1.508,1.508,0,0,0,3.92,1.417,1.444,1.444,0,0,0,2.846,1.032Z" transform="translate(67.171 64.196)" fill="#3e3a39"/>
      <path id="Fill_21" data-name="Fill 21" d="M0,.081V4.807H1.35V2.326a1.09,1.09,0,0,1,.407-.833,1.665,1.665,0,0,1,1.124-.38,2.681,2.681,0,0,1,.526.054L3.561.045A3.469,3.469,0,0,0,3.036,0,2.137,2.137,0,0,0,1.323.851V.081Z" transform="translate(74.167 64.26)" fill="#3e3a39"/>
      <path id="Fill_22" data-name="Fill 22" d="M4.975,2.68H1.45V1.186H5.166V0H0V6.465H1.45v-2.6H4.975Z" transform="translate(81.589 62.602)" fill="#3e3a39"/>
      <path id="Fill_23" data-name="Fill 23" d="M0,0V3.087A1.744,1.744,0,0,0,.485,4.4a1.877,1.877,0,0,0,1.364.471A2.433,2.433,0,0,0,3.78,3.966v.761H5.1V0H3.752V2.572a1.032,1.032,0,0,1-.1.453,1.19,1.19,0,0,1-.285.38,1.52,1.52,0,0,1-1.033.4,1.022,1.022,0,0,1-.739-.235.977.977,0,0,1-.24-.724V0Z" transform="translate(87.77 64.341)" fill="#3e3a39"/>
      <path id="Fill_24" data-name="Fill 24" d="M.915,0V1.259H0v1H.915V4.391a1.737,1.737,0,0,0,.407,1.281,1.8,1.8,0,0,0,1.3.4,4.432,4.432,0,0,0,1.333-.2l-.181-.969a2.652,2.652,0,0,1-.8.127.755.755,0,0,1-.543-.167.7.7,0,0,1-.172-.52V2.263H3.815v-1H2.266V0Z" transform="translate(93.932 63.082)" fill="#3e3a39"/>
      <path id="Fill_25" data-name="Fill 25" d="M3.78,4.726H5.1V0H3.753V2.572a1.033,1.033,0,0,1-.105.453,1.18,1.18,0,0,1-.285.38,1.517,1.517,0,0,1-1.033.4,1.019,1.019,0,0,1-.739-.235.974.974,0,0,1-.24-.724V0H0V3.087A1.747,1.747,0,0,0,.485,4.4a1.878,1.878,0,0,0,1.364.471A2.433,2.433,0,0,0,3.78,3.966Z" transform="translate(98.898 64.341)" fill="#3e3a39"/>
      <path id="Fill_26" data-name="Fill 26" d="M1.323.851V.081H0V4.808H1.35V2.327a1.086,1.086,0,0,1,.407-.833,1.666,1.666,0,0,1,1.124-.381,2.73,2.73,0,0,1,.526.054L3.562.046A3.486,3.486,0,0,0,3.036,0,2.138,2.138,0,0,0,1.323.851" transform="translate(105.541 64.259)" fill="#3e3a39"/>
      <path id="Fill_27" data-name="Fill 27" d="M2.71,5.016a2.886,2.886,0,0,1-2-.643A2.316,2.316,0,0,1,0,2.571,2.667,2.667,0,0,1,.33,1.245,2.326,2.326,0,0,1,1.283.331,3.058,3.058,0,0,1,2.737,0,2.806,2.806,0,0,1,4.7.638a2.32,2.32,0,0,1,.693,1.787v.408H1.278a1.133,1.133,0,0,0,.2.625,1.254,1.254,0,0,0,.516.427,1.812,1.812,0,0,0,.766.154c.7,0,1.147-.216,1.315-.643H5.329a1.867,1.867,0,0,1-.838,1.223A3.41,3.41,0,0,1,2.71,5.016Zm0-4.056a1.541,1.541,0,0,0-.956.3,1.05,1.05,0,0,0-.44.752H4.133a.962.962,0,0,0-.39-.775A1.711,1.711,0,0,0,2.71.959Z" transform="translate(109.646 64.196)" fill="#3e3a39"/>
      <path id="Fill_28" data-name="Fill 28" d="M3.861,4.219H5.647v1.05a4.066,4.066,0,0,1-1.795.344,2.477,2.477,0,0,1-1.758-.561,2.162,2.162,0,0,1-.6-1.657,2.245,2.245,0,0,1,.566-1.644,2.148,2.148,0,0,1,1.6-.575,2.308,2.308,0,0,1,1.128.241,1.372,1.372,0,0,1,.621.746l1.45-.171A2.527,2.527,0,0,0,5.764.515,3.811,3.811,0,0,0,3.7,0a4.328,4.328,0,0,0-1.98.425A2.992,2.992,0,0,0,.439,1.62,3.573,3.573,0,0,0,0,3.422,3.117,3.117,0,0,0,1.02,5.9a4.161,4.161,0,0,0,2.832.892,6.266,6.266,0,0,0,1.713-.231A4.694,4.694,0,0,0,6.988,5.9V3.1H3.861Z" transform="translate(0 74.453)" fill="#3e3a39"/>
      <path id="Fill_29" data-name="Fill 29" d="M2.71,5.016a2.889,2.889,0,0,1-2-.643A2.316,2.316,0,0,1,0,2.571,2.658,2.658,0,0,1,.331,1.245a2.32,2.32,0,0,1,.95-.914A3.071,3.071,0,0,1,2.737,0,2.806,2.806,0,0,1,4.7.638a2.323,2.323,0,0,1,.693,1.788v.407H1.278a1.133,1.133,0,0,0,.2.625,1.238,1.238,0,0,0,.516.427,1.812,1.812,0,0,0,.766.154c.7,0,1.146-.216,1.314-.643h1.26a1.867,1.867,0,0,1-.838,1.222A3.41,3.41,0,0,1,2.71,5.016ZM2.71.96a1.546,1.546,0,0,0-.957.3,1.056,1.056,0,0,0-.439.752H4.133a.964.964,0,0,0-.39-.775A1.712,1.712,0,0,0,2.71.96Z" transform="translate(8.156 76.209)" fill="#3e3a39"/>
      <path id="Fill_30" data-name="Fill 30" d="M3.28,0A2.44,2.44,0,0,0,1.323.905V.144H0V4.871H1.35V2.3a1.1,1.1,0,0,1,.38-.815,1.465,1.465,0,0,1,.494-.307A1.6,1.6,0,0,1,2.8,1.068a1.129,1.129,0,0,1,.793.236,1.008,1.008,0,0,1,.249.761V4.871h1.35V1.8A1.749,1.749,0,0,0,4.7.466,1.987,1.987,0,0,0,3.28,0" transform="translate(14.854 76.209)" fill="#3e3a39"/>
      <path id="Fill_31" data-name="Fill 31" d="M2.71,5.016a2.886,2.886,0,0,1-2-.643A2.316,2.316,0,0,1,0,2.571,2.658,2.658,0,0,1,.331,1.245,2.318,2.318,0,0,1,1.283.331,3.063,3.063,0,0,1,2.737,0,2.806,2.806,0,0,1,4.7.638a2.323,2.323,0,0,1,.693,1.788v.407H1.278a1.133,1.133,0,0,0,.2.625,1.235,1.235,0,0,0,.516.427,1.812,1.812,0,0,0,.766.154c.7,0,1.146-.216,1.314-.643h1.26a1.867,1.867,0,0,1-.838,1.222A3.41,3.41,0,0,1,2.71,5.016ZM2.71.96a1.546,1.546,0,0,0-.957.3,1.056,1.056,0,0,0-.439.752H4.133a.964.964,0,0,0-.39-.775A1.712,1.712,0,0,0,2.71.96Z" transform="translate(21.306 76.209)" fill="#3e3a39"/>
      <path id="Fill_32" data-name="Fill 32" d="M1.323.851V.081H0V4.808H1.35V2.327a1.089,1.089,0,0,1,.407-.833,1.666,1.666,0,0,1,1.124-.381,2.737,2.737,0,0,1,.526.054L3.561.046A3.486,3.486,0,0,0,3.035,0,2.136,2.136,0,0,0,1.323.851" transform="translate(28.003 76.272)" fill="#3e3a39"/>
      <path id="Fill_33" data-name="Fill 33" d="M1.93,5A2.354,2.354,0,0,1,.5,4.622,1.267,1.267,0,0,1,0,3.549,1.259,1.259,0,0,1,.652,2.39,4.5,4.5,0,0,1,2.71,1.974l1.16-.028v-.18a.716.716,0,0,0-.29-.612A1.381,1.381,0,0,0,2.756.941c-.681,0-1.093.2-1.224.58L.309,1.4A1.494,1.494,0,0,1,1.075.344,3.6,3.6,0,0,1,2.8,0C4.37,0,5.166.627,5.166,1.865V4.871H3.915V4.227a2.71,2.71,0,0,1-.892.584A3,3,0,0,1,1.93,5ZM3.87,2.743,2.737,2.77a2.73,2.73,0,0,0-1.074.185.538.538,0,0,0-.339.5.494.494,0,0,0,.248.444,1.387,1.387,0,0,0,.721.155,2.449,2.449,0,0,0,.7-.1,1.512,1.512,0,0,0,.535-.276A.846.846,0,0,0,3.87,3Z" transform="translate(31.972 76.209)" fill="#3e3a39"/>
      <path id="Fill_34" data-name="Fill 34" d="M2.982,5.034a.756.756,0,0,1-.544-.168.7.7,0,0,1-.172-.52V2.263h1.55v-1H2.266V0H.916V1.259H0v1H.916V4.392a1.738,1.738,0,0,0,.407,1.28,1.8,1.8,0,0,0,1.306.4,4.412,4.412,0,0,0,1.332-.2L3.78,4.908a2.678,2.678,0,0,1-.8.127" transform="translate(38.053 75.095)" fill="#3e3a39"/>
      <path id="Fill_35" data-name="Fill 35" d="M0,4.726H1.35V0H0Z" transform="translate(43.065 76.354)" fill="#3e3a39"/>
      <path id="Fill_36" data-name="Fill 36" d="M0,1.158H1.386V0H0Z" transform="translate(43.047 74.561)" fill="#3e3a39"/>
      <path id="Fill_37" data-name="Fill 37" d="M2.809,5.016A3.011,3.011,0,0,1,.743,4.355,2.331,2.331,0,0,1,0,2.526,2.516,2.516,0,0,1,.344,1.205,2.323,2.323,0,0,1,1.337.317,3.487,3.487,0,0,1,2.873,0,3.052,3.052,0,0,1,4.944.656a2.322,2.322,0,0,1,.748,1.833,2.338,2.338,0,0,1-.78,1.843A3.09,3.09,0,0,1,2.809,5.016Zm.037-3.983a1.429,1.429,0,0,0-1.069.39A1.49,1.49,0,0,0,1.4,2.508,1.5,1.5,0,0,0,1.771,3.6a1.431,1.431,0,0,0,1.065.385A1.459,1.459,0,0,0,3.911,3.6,1.482,1.482,0,0,0,4.3,2.508,1.5,1.5,0,0,0,3.92,1.417,1.444,1.444,0,0,0,2.846,1.032Z" transform="translate(45.72 76.209)" fill="#3e3a39"/>
      <path id="Fill_38" data-name="Fill 38" d="M3.281,0A2.443,2.443,0,0,0,1.323.905V.144H0V4.871H1.35V2.3a1.1,1.1,0,0,1,.381-.815,1.458,1.458,0,0,1,.494-.307A1.6,1.6,0,0,1,2.8,1.068a1.127,1.127,0,0,1,.793.236,1,1,0,0,1,.249.761V4.871H5.193V1.8A1.749,1.749,0,0,0,4.7.466,1.99,1.99,0,0,0,3.281,0" transform="translate(52.717 76.209)" fill="#3e3a39"/>
      <path id="Fill_39" data-name="Fill 39" d="M4.332,2.3A5.421,5.421,0,0,0,3.063,2L2.438,1.91a3.28,3.28,0,0,1-.8-.19.319.319,0,0,1-.208-.3q0-.489,1.123-.489a1.918,1.918,0,0,1,.816.14.727.727,0,0,1,.39.44l1.278-.145A1.606,1.606,0,0,0,4.251.33,3.553,3.553,0,0,0,2.556,0,3.422,3.422,0,0,0,.793.38a1.187,1.187,0,0,0-.63,1.068,1.177,1.177,0,0,0,.459,1.01,3.746,3.746,0,0,0,1.59.512l.58.082a3.169,3.169,0,0,1,.82.189.338.338,0,0,1,.231.308.4.4,0,0,1-.281.381,2.543,2.543,0,0,1-.907.117q-1.205,0-1.36-.679H0a1.623,1.623,0,0,0,.77,1.24,3.655,3.655,0,0,0,1.9.408,3.579,3.579,0,0,0,1.848-.385,1.251,1.251,0,0,0,.626-1.136,1.3,1.3,0,0,0-.186-.72,1.342,1.342,0,0,0-.63-.47" transform="translate(59.069 76.209)" fill="#3e3a39"/>
      <path id="Fill_40" data-name="Fill 40" d="M0,2.409H1.088L1.759,0H.381Z" transform="translate(65.132 79.577)" fill="#3e3a39"/>
      <path id="Fill_41" data-name="Fill 41" d="M6.525,0H0V1.2H2.537V6.465h1.45V1.2H6.525Z" transform="translate(70.407 74.615)" fill="#3e3a39"/>
      <path id="Fill_42" data-name="Fill 42" d="M1.93,5A2.354,2.354,0,0,1,.5,4.622,1.267,1.267,0,0,1,0,3.549,1.258,1.258,0,0,1,.653,2.39,4.492,4.492,0,0,1,2.71,1.974l1.16-.028v-.18a.716.716,0,0,0-.29-.612A1.381,1.381,0,0,0,2.756.941c-.681,0-1.093.2-1.224.58L.309,1.4A1.494,1.494,0,0,1,1.075.344,3.6,3.6,0,0,1,2.8,0C4.37,0,5.166.627,5.166,1.865V4.871H3.915V4.227a2.71,2.71,0,0,1-.892.584A3,3,0,0,1,1.93,5ZM3.87,2.743,2.737,2.77a2.73,2.73,0,0,0-1.074.185.538.538,0,0,0-.339.5.494.494,0,0,0,.248.444,1.387,1.387,0,0,0,.721.155,2.449,2.449,0,0,0,.7-.1,1.512,1.512,0,0,0,.535-.276A.846.846,0,0,0,3.87,3Z" transform="translate(76.876 76.209)" fill="#3e3a39"/>
      <path id="Fill_43" data-name="Fill 43" d="M0,1.158H1.387V0H0Z" transform="translate(83.52 74.561)" fill="#3e3a39"/>
      <path id="Fill_44" data-name="Fill 44" d="M0,4.726H1.35V0H0Z" transform="translate(83.538 76.354)" fill="#3e3a39"/>
      <path id="Fill_45" data-name="Fill 45" d="M5.973,3.341,4.8.036H3.625l-1.169,3.3L1.415,0H0L1.677,4.726H3.018l1.16-3.214,1.16,3.214H6.679L8.356,0H7.015Z" transform="translate(85.839 76.354)" fill="#3e3a39"/>
      <path id="Fill_46" data-name="Fill 46" d="M1.93,5A2.356,2.356,0,0,1,.5,4.622,1.268,1.268,0,0,1,0,3.549,1.259,1.259,0,0,1,.652,2.39,4.494,4.494,0,0,1,2.71,1.974l1.16-.028v-.18a.718.718,0,0,0-.29-.612A1.381,1.381,0,0,0,2.756.941c-.681,0-1.093.2-1.224.58L.309,1.4A1.5,1.5,0,0,1,1.074.344,3.611,3.611,0,0,1,2.8,0C4.37,0,5.166.627,5.166,1.865V4.871H3.915V4.227a2.716,2.716,0,0,1-.892.584A3,3,0,0,1,1.93,5ZM3.87,2.743,2.737,2.77a2.73,2.73,0,0,0-1.074.185.538.538,0,0,0-.34.5.494.494,0,0,0,.249.444,1.38,1.38,0,0,0,.72.155,2.44,2.44,0,0,0,.7-.1,1.512,1.512,0,0,0,.535-.276A.847.847,0,0,0,3.87,3Z" transform="translate(94.657 76.209)" fill="#3e3a39"/>
      <path id="Fill_47" data-name="Fill 47" d="M3.28,0A2.44,2.44,0,0,0,1.323.905V.144H0V4.871H1.35V2.3a1.1,1.1,0,0,1,.38-.815,1.465,1.465,0,0,1,.494-.307A1.6,1.6,0,0,1,2.8,1.068a1.129,1.129,0,0,1,.793.236,1.008,1.008,0,0,1,.249.761V4.871h1.35V1.8A1.749,1.749,0,0,0,4.7.466,1.987,1.987,0,0,0,3.28,0" transform="translate(101.319 76.209)" fill="#3e3a39"/>
      <path id="Fill_48" data-name="Fill 48" d="M3.077,10.544H0V0H16.542V8.536a1.572,1.572,0,0,1-.894,1.512,7.76,7.76,0,0,1-3.077.432,21.346,21.346,0,0,1-2.6-.194l-.42-1.642a18.209,18.209,0,0,0,1.973.13,6.094,6.094,0,0,0,1.629-.13.605.605,0,0,0,.342-.584V6.785H3.077v3.758Zm0-6.46v1.4H13.491v-1.4Zm0-2.722V2.787H13.491V1.362Z" transform="translate(130.273 71.455)" fill="#3e3a39"/>
      <path id="Fill_49" data-name="Fill 49" d="M11.914,5.769h7.441V4.451H11.914V3.133H20.7L18.939,1.772H11.914V0H8.863V1.772H.447V3.133H8.863V4.451H1.6V5.769H8.863V7.109H0V8.47H20.881V7.109H11.914Z" transform="translate(128.038 61.709)" fill="#3e3a39"/>
      <path id="Fill_50" data-name="Fill 50" d="M2.735,0,0,.842A28.821,28.821,0,0,1,3.5,5.51l1.736-.519A30,30,0,0,0,2.735,0" transform="translate(161.775 66.118)" fill="#3e3a39"/>
      <path id="Fill_51" data-name="Fill 51" d="M1.709,5.532A26.692,26.692,0,0,0,5.575.994L2.892,0A28.709,28.709,0,0,1,0,4.9Z" transform="translate(173.637 66.226)" fill="#3e3a39"/>
      <path id="Fill_52" data-name="Fill 52" d="M12.545,9.464V1.62H20.46V0H1.447V1.62H9.494V9.464H0v1.62H9.494v7.563h3.051V11.084h9.961l-1.948-1.62Z" transform="translate(159.435 63.353)" fill="#3e3a39"/>
      <path id="Fill_53" data-name="Fill 53" d="M13.6,0H0V9.313H3.076V7.585h8.7L9.756,6.076,3.076,6.007V1.555H13.6V9.313h3.051V0H13.6Z" transform="translate(194.092 72.6)" fill="#3e3a39"/>
      <path id="Fill_54" data-name="Fill 54" d="M14.333,2.312,11.887,3.565Q13.675,4.971,15.2,6.374,9.363,6.612,3.867,6.7q.946-.67,1.945-1.448Q7.6,3.824,10.467.993L7.548,0A30.8,30.8,0,0,1,4.576,3.371Q3.209,4.689,2.183,5.51A8.247,8.247,0,0,1,0,6.72l.4,2.2q7.81-.366,16.331-1.059,1,1.016,1.84,2.009l1.657-.82a55.3,55.3,0,0,0-5.891-6.742" transform="translate(192.776 61.904)" fill="#3e3a39"/>
      <path id="Fill_55" data-name="Fill 55" d="M26.535.307,0,0,6.877,3.726l19.681-.555Z" transform="translate(184.159 44.145)" fill="#3e3a39"/>
      <path id="Fill_56" data-name="Fill 56" d="M6.828,3.7l19.108-.537L25.913.3,0,0Z" transform="translate(171.535 29.124)" fill="#3e3a39"/>
      <path id="Fill_57" data-name="Fill 57" d="M24.965,3.152,24.942.288,0,0V.189L6.428,3.672Z" transform="translate(158.848 14.107)" fill="#3e3a39"/>
      <path id="Fill_58" data-name="Fill 58" d="M.046,0,0,7,124.424,5.921V5.836l-5.911-3.213Z" transform="translate(34.168 0)" fill="#3e3a39"/>
      <path id="Fill_59" data-name="Fill 59" d="M124.568,5.808l-5.852-3.181L.048,0,0,7,124.568,5.92Z" transform="translate(17.369 21.191)" fill="#3e3a39"/>
      <path id="Fill_60" data-name="Fill 60" d="M.047,0,0,7,127.241,5.9V5.542L122.013,2.7Z" transform="translate(0.289 42.383)" fill="#3e3a39"/>
    </g>
  </g>
</svg>
