<svg xmlns="http://www.w3.org/2000/svg" width="267.375" height="250" viewBox="0 0 267.375 250">
  <g id="pic3" transform="translate(0.375 0.5)">
    <path id="Stroke_1" data-name="Stroke 1" d="M.5,22V0" transform="translate(161 206)" fill="none" stroke="#231815" stroke-miterlimit="10" stroke-width="1" stroke-dasharray="4 4"/>
    <path id="Fill_2" data-name="Fill 2" d="M9,16,4.5,0,0,16Z" transform="translate(156 193)" fill="#231815"/>
    <path id="Stroke_3" data-name="Stroke 3" d="M.5,22V0" transform="translate(189 206)" fill="none" stroke="#231815" stroke-miterlimit="10" stroke-width="1" stroke-dasharray="4 4"/>
    <path id="Fill_4" data-name="Fill 4" d="M9,16,4.5,0,0,16Z" transform="translate(186 193)" fill="#231815"/>
    <path id="Stroke_5" data-name="Stroke 5" d="M.5,22V0" transform="translate(132 206)" fill="none" stroke="#231815" stroke-miterlimit="10" stroke-width="1" stroke-dasharray="4 4"/>
    <path id="Fill_6" data-name="Fill 6" d="M9,16,4.5,0,0,16Z" transform="translate(128 193)" fill="#231815"/>
    <path id="Stroke_7" data-name="Stroke 7" d="M.5,0V22" transform="translate(161 18)" fill="none" stroke="#231815" stroke-miterlimit="10" stroke-width="1" stroke-dasharray="4 4"/>
    <path id="Fill_8" data-name="Fill 8" d="M0,0,4.5,16,9,0Z" transform="translate(156 37)" fill="#231815"/>
    <path id="Stroke_9" data-name="Stroke 9" d="M.5,0V22" transform="translate(132 18)" fill="none" stroke="#231815" stroke-miterlimit="10" stroke-width="1" stroke-dasharray="4 4"/>
    <path id="Fill_10" data-name="Fill 10" d="M0,0,4.5,16,9,0Z" transform="translate(128 37)" fill="#231815"/>
    <path id="Stroke_11" data-name="Stroke 11" d="M.5,0V22" transform="translate(189 18)" fill="none" stroke="#231815" stroke-miterlimit="10" stroke-width="1" stroke-dasharray="4 4"/>
    <path id="Fill_12" data-name="Fill 12" d="M0,0,4.5,16,9,0Z" transform="translate(186 37)" fill="#231815"/>
    <path id="Fill_13" data-name="Fill 13" d="M0,13H211V0H0Z" transform="translate(56 161)" fill="#231815"/>
    <path id="Fill_14" data-name="Fill 14" d="M0,13H211V0H0Z" transform="translate(56 80)" fill="#231815"/>
    <g id="Group_29" data-name="Group 29">
      <path id="Fill_15" data-name="Fill 15" d="M.016,31.907A32.948,32.948,0,1,1,31.93,65.834,32.938,32.938,0,0,1,.016,31.907" transform="translate(63.648 93.757)" fill="#231815"/>
      <path id="Fill_17" data-name="Fill 17" d="M66.074,33.014A33.037,33.037,0,1,1,33.038,0,33.025,33.025,0,0,1,66.074,33.014" transform="translate(129.742 93.823)" fill="#f7f7f7"/>
      <path id="Stroke_19" data-name="Stroke 19" d="M66.074,33.014A33.037,33.037,0,1,1,33.038,0,33.025,33.025,0,0,1,66.074,33.014Z" transform="translate(129.742 93.823)" fill="none" stroke="#231815" stroke-miterlimit="10" stroke-width="0.5"/>
      <path id="Fill_21" data-name="Fill 21" d="M66.074,33.014A33.037,33.037,0,1,1,33.038,0,33.025,33.025,0,0,1,66.074,33.014" transform="translate(195.926 93.823)" fill="#c0e2aa"/>
      <path id="Stroke_23" data-name="Stroke 23" d="M0,0C9.092,0,9.092,9.069,18.186,9.069S27.281,0,36.376,0s9.092,9.069,18.186,9.069S63.656,0,72.75,0s9.094,9.069,18.189,9.069S100.03,0,109.122,0s9.092,9.069,18.187,9.069S136.4,0,145.5,0s9.094,9.069,18.186,9.069S172.79,0,181.89,0s9.1,9.069,18.2,9.069" transform="translate(56.671)" fill="none" stroke="#231815" stroke-miterlimit="10" stroke-width="1"/>
      <path id="Stroke_25" data-name="Stroke 25" d="M0,0C9.092,0,9.092,9.069,18.186,9.069S27.281,0,36.376,0s9.092,9.069,18.186,9.069S63.656,0,72.75,0s9.094,9.069,18.189,9.069S100.03,0,109.122,0s9.092,9.069,18.187,9.069S136.4,0,145.5,0s9.094,9.069,18.186,9.069S172.79,0,181.89,0s9.1,9.069,18.2,9.069" transform="translate(56.671 239.931)" fill="none" stroke="#231815" stroke-miterlimit="10" stroke-width="1"/>
      <path id="Stroke_27" data-name="Stroke 27" d="M0,8.559V24.826a8.56,8.56,0,0,0,8.567,8.561H29.679l6.3,7.874V33.387a8.56,8.56,0,0,0,8.567-8.561V8.559A8.56,8.56,0,0,0,35.981,0H8.567A8.56,8.56,0,0,0,0,8.559Z" transform="translate(0 97.943)" fill="none" stroke="#231815" stroke-miterlimit="10" stroke-width="0.75"/>
    </g>
  </g>
</svg>
