<svg xmlns="http://www.w3.org/2000/svg" width="299.692" height="250.628" viewBox="0 0 299.692 250.628">
  <g id="pic2" transform="translate(1.317 1.314)">
    <path id="Stroke_1" data-name="Stroke 1" d="M249,124l-25.444,10.444L246.3,149.916l-27.057,4.916,19.013,19.9-27.485-.862,14.449,23.427-26.706-6.559,9.293,25.915L183.034,204.7l3.733,27.281L165.012,215.14,162.981,242.6l-17.755-21.028L137.5,248l-13-24.266L111.5,248l-7.724-26.427L86.017,242.6l-2.031-27.46L62.231,231.982,65.962,204.7,41.187,216.649l9.295-25.917-26.708,6.559,14.451-23.427-27.484.862,19.013-19.894L2.7,149.916l22.747-15.473L0,124l25.444-10.442L2.7,98.084l27.057-4.917L10.741,73.272l27.485.862L23.777,50.707l26.706,6.559L41.191,31.349,65.966,43.3,62.233,16.017,83.988,32.86,86.019,5.4l17.755,21.028L111.5,0l13,24.266L137.5,0l7.724,26.427L162.981,5.4l2.033,27.46,21.755-16.841L183.036,43.3l24.775-11.949-9.293,25.917,26.708-6.559L210.776,74.136l27.484-.862L219.247,93.168,246.3,98.084l-22.747,15.473Z" fill="none" stroke="#231815" stroke-miterlimit="10" stroke-width="1" stroke-dasharray="4"/>
    <path id="Fill_3" data-name="Fill 3" d="M88,44A44,44,0,1,1,44,0,44,44,0,0,1,88,44" transform="translate(44 79)" fill="#f7f7f7"/>
    <path id="Stroke_5" data-name="Stroke 5" d="M88,44A44,44,0,1,1,44,0,44,44,0,0,1,88,44Z" transform="translate(44 79)" fill="none" stroke="#231815" stroke-miterlimit="10" stroke-width="0.5"/>
    <path id="Fill_7" data-name="Fill 7" d="M88,44A44,44,0,1,1,44,0,44,44,0,0,1,88,44" transform="translate(73 81)" fill="#c0e2aa"/>
    <path id="Fill_9" data-name="Fill 9" d="M88,44A44,44,0,1,1,44,0,44,44,0,0,1,88,44" transform="translate(118 81)" fill="#231815"/>
    <path id="Stroke_11" data-name="Stroke 11" d="M53,10.165V29.483A10.175,10.175,0,0,1,42.808,39.649H17.689L10.192,49V39.649A10.175,10.175,0,0,1,0,29.483V10.165A10.175,10.175,0,0,1,10.192,0H42.808A10.175,10.175,0,0,1,53,10.165Z" transform="translate(245 19)" fill="none" stroke="#231815" stroke-miterlimit="10" stroke-width="0.75"/>
  </g>
</svg>
