<svg id="Group_7" data-name="Group 7" xmlns="http://www.w3.org/2000/svg" xmlns:xlink="http://www.w3.org/1999/xlink" width="98" height="156" viewBox="0 0 98 156">
  <defs>
    <clipPath id="clip-path">
      <path id="Clip_2" data-name="Clip 2" d="M0,0H74V74H0Z" transform="translate(0 0)" fill="none"/>
    </clipPath>
    <clipPath id="clip-path-2">
      <path id="Clip_5" data-name="Clip 5" d="M0,0H69V66H0Z" fill="none"/>
    </clipPath>
  </defs>
  <g id="Group_3" data-name="Group 3" transform="translate(24 82)">
    <path id="Clip_2-2" data-name="Clip 2" d="M0,0H74V74H0Z" transform="translate(0 0)" fill="none"/>
    <g id="Group_3-2" data-name="Group 3" clip-path="url(#clip-path)">
      <path id="Fill_1" data-name="Fill 1" d="M74,37A37,37,0,1,1,37,0,37,37,0,0,1,74,37" transform="translate(0 0)" fill="#323232"/>
    </g>
  </g>
  <g id="Group_6" data-name="Group 6">
    <path id="Clip_5-2" data-name="Clip 5" d="M0,0H69V66H0Z" fill="none"/>
    <g id="Group_6-2" data-name="Group 6" clip-path="url(#clip-path-2)">
      <path id="Fill_4" data-name="Fill 4" d="M56.062,66l0,0L45.277,52.447H13.8A13.847,13.847,0,0,1,0,38.58V13.865A13.846,13.846,0,0,1,13.8,0h41.41A13.846,13.846,0,0,1,69,13.865V38.58A13.853,13.853,0,0,1,56.062,52.419V66ZM13.8,1.722A12.128,12.128,0,0,0,1.711,13.865V38.58A12.129,12.129,0,0,0,13.8,50.726H46.1L54.351,61.1V50.726h.855A12.13,12.13,0,0,0,67.292,38.58V13.865A12.128,12.128,0,0,0,55.206,1.722Z" transform="translate(-0.001 -0.001)" fill="#fff"/>
    </g>
  </g>
</svg>
