<svg xmlns="http://www.w3.org/2000/svg" xmlns:xlink="http://www.w3.org/1999/xlink" width="240.561" height="213.577" viewBox="0 0 240.561 213.577">
  <defs>
    <clipPath id="clip-path">
      <path id="Clip_4" data-name="Clip 4" d="M0,0H17V10.65H0Z" transform="translate(0 0)" fill="none"/>
    </clipPath>
  </defs>
  <g id="img" transform="translate(0 0.577)">
    <path id="Stroke_1" data-name="Stroke 1" d="M49.795,0c8.871,34.445-.672,72.387-28.63,99.312A108.419,108.419,0,0,1,0,115.214" transform="translate(187 91.977)" fill="none" stroke="#231815" stroke-miterlimit="10" stroke-width="1"/>
    <g id="Group_5" data-name="Group 5" transform="translate(174 202.35)">
      <path id="Clip_4-2" data-name="Clip 4" d="M0,0H17V10.65H0Z" transform="translate(0 0)" fill="none"/>
      <g id="Group_5-2" data-name="Group 5" clip-path="url(#clip-path)">
        <path id="Fill_3" data-name="Fill 3" d="M12.757,0,0,10.65,17,7.135Z" transform="translate(0 0)" fill="#231815"/>
      </g>
    </g>
    <path id="Fill_6" data-name="Fill 6" d="M.014,26.272C.492,11.308,13.407-.449,28.865.013s27.6,12.97,27.122,27.933-13.4,26.72-28.853,26.259S-.466,41.235.014,26.272" transform="translate(56 151.036)" fill="#323232"/>
    <path id="Fill_8" data-name="Fill 8" d="M56,27.108c0,14.973-12.536,27.11-28,27.11S0,42.082,0,27.108,12.537,0,28,0,56,12.136,56,27.108" transform="translate(122 143.291)" fill="#f7f7f7"/>
    <path id="Stroke_10" data-name="Stroke 10" d="M56,27.108c0,14.973-12.536,27.11-28,27.11S0,42.082,0,27.108,12.537,0,28,0,56,12.136,56,27.108Z" transform="translate(122 143.291)" fill="none" stroke="#231815" stroke-miterlimit="10" stroke-width="0.5"/>
    <path id="Fill_12" data-name="Fill 12" d="M56,27.108c0,14.973-12.535,27.11-28,27.11S0,42.082,0,27.108,12.537,0,28,0,56,12.136,56,27.108" transform="translate(147 119.086)" fill="#c0e2aa"/>
    <path id="Stroke_14" data-name="Stroke 14" d="M65.168,6.655C103.559-7.277,148.53.666,179.42,30.483c42.107,40.646,42.107,106.547,0,147.191s-110.374,40.646-152.48,0A102.971,102.971,0,0,1,0,134.355" transform="translate(5)" fill="none" stroke="#231815" stroke-miterlimit="10" stroke-width="1" stroke-dasharray="4 4"/>
    <path id="Fill_16" data-name="Fill 16" d="M7.506,10.281A5.557,5.557,0,0,1,.381,7.267,5.269,5.269,0,0,1,3.494.369a5.557,5.557,0,0,1,7.125,3.014,5.271,5.271,0,0,1-3.114,6.9" transform="translate(65 0.968)" fill="#231815"/>
    <path id="Fill_18" data-name="Fill 18" d="M10.791,3.873A5.527,5.527,0,0,0,4,.2,5.3,5.3,0,0,0,.21,6.777,5.526,5.526,0,0,0,7,10.447a5.306,5.306,0,0,0,3.792-6.574" transform="translate(0 128.768)" fill="#231815"/>
    <path id="Stroke_20" data-name="Stroke 20" d="M0,8.435V24.467A8.544,8.544,0,0,0,8.654,32.9H29.981l6.366,7.76V32.9A8.544,8.544,0,0,0,45,24.467V8.435A8.543,8.543,0,0,0,36.346,0H8.654A8.543,8.543,0,0,0,0,8.435Z" transform="translate(115 61.964)" fill="none" stroke="#323232" stroke-miterlimit="10" stroke-width="0.75"/>
  </g>
</svg>
