<svg xmlns="http://www.w3.org/2000/svg" width="187" height="168.487" viewBox="0 0 187 168.487">
  <g id="Group_473" data-name="Group 473" transform="translate(-129.5 -128.261)">
    <g id="Group_267" data-name="Group 267" transform="translate(604.5 320.01)">
      <path id="Path_50" data-name="Path 50" d="M-351.965-154.892c-5.016,1.647-8.535,5.5-8.535,10v23.206c0,5.993,6.256,10.851,13.974,10.851h21.345l10.027,10.113c.8.8,2.449.4,2.513-.612l.593-9.5h9.074c7.718,0,13.974-4.858,13.974-10.852v-23.205c0-5.993-6.256-10.852-13.974-10.852" fill="none" stroke="#fff" stroke-miterlimit="10" stroke-width="2"/>
      <path id="Path_51" data-name="Path 51" d="M-312.858-119.724h-31.284A1.858,1.858,0,0,1-346-121.583v-41.283a1.985,1.985,0,0,1,2-1.858h31.142c1.858,0,1.858.832,1.858,1.858v41.283A1.858,1.858,0,0,1-312.858-119.724Z" fill="none" stroke="#fff" stroke-miterlimit="10" stroke-width="1.5"/>
      <path id="Path_52" data-name="Path 52" d="M-344.142-165.04a37.353,37.353,0,0,0,4.792-4.684h32.829s-.479,3-4.479,5" fill="none" stroke="#fff" stroke-linecap="round" stroke-linejoin="round" stroke-width="1.5"/>
      <path id="Path_53" data-name="Path 53" d="M-306.521-169.724v43.7s.521,6.3-6.479,6.3" fill="none" stroke="#fff" stroke-linecap="round" stroke-linejoin="round" stroke-width="1.5"/>
      <rect id="Rectangle_117" data-name="Rectangle 117" width="20" height="5" rx="0.369" transform="translate(-340 -158.724)" fill="none" stroke="#fff" stroke-miterlimit="10" stroke-width="1"/>
    </g>
    <g id="Group_296" data-name="Group 296" transform="translate(438 366.297)">
      <g id="Group_289" data-name="Group 289">
        <g id="Group_287" data-name="Group 287">
          <path id="Path_62" data-name="Path 62" d="M-256.144-190.9h-35.669A2.078,2.078,0,0,1-294-192.849v-43.239a2.078,2.078,0,0,1,2.187-1.948h26.9a2.331,2.331,0,0,1,1.524.551l8.953,7.75a1.854,1.854,0,0,1,.663,1.406l-.186,35.489A2.08,2.08,0,0,1-256.144-190.9Zm-35.079-.526h34.491a2.08,2.08,0,0,0,2.187-1.939l.182-34.741a1.848,1.848,0,0,0-.663-1.407l-8.6-7.445a2.33,2.33,0,0,0-1.524-.551h-26.072a2.078,2.078,0,0,0-2.187,1.948v42.187A2.078,2.078,0,0,0-291.223-191.427Zm34.267-.2H-291a2.078,2.078,0,0,1-2.187-1.948v-41.785A2.078,2.078,0,0,1-291-237.309h25.755a2.338,2.338,0,0,1,1.524.551l8.466,7.329a1.847,1.847,0,0,1,.663,1.406l-.18,34.456A2.08,2.08,0,0,1-256.956-191.628Zm-33.451-.526h32.863a2.08,2.08,0,0,0,2.187-1.939l.177-33.709a1.854,1.854,0,0,0-.663-1.406l-8.115-7.024a2.33,2.33,0,0,0-1.524-.551h-24.925a2.078,2.078,0,0,0-2.187,1.948V-194.1A2.078,2.078,0,0,0-290.407-192.154Z" fill="#fff"/>
        </g>
        <g id="Group_288" data-name="Group 288">
          <path id="Path_63" data-name="Path 63" d="M-256.31-191.05h-35.336A2.078,2.078,0,0,1-293.833-193v-42.941a2.078,2.078,0,0,1,2.187-1.948h26.667a2.336,2.336,0,0,1,1.524.551l8.853,7.664a1.849,1.849,0,0,1,.663,1.406l-.185,35.277A2.079,2.079,0,0,1-256.31-191.05Zm-34.264-.955h33.2a2.079,2.079,0,0,0,2.186-1.939l.178-33.92a1.848,1.848,0,0,0-.662-1.406l-8.215-7.111a2.33,2.33,0,0,0-1.524-.551h-25.16a2.078,2.078,0,0,0-2.187,1.948v41.031A2.078,2.078,0,0,0-290.574-192.005Z" fill="#fff"/>
        </g>
      </g>
      <g id="Group_290" data-name="Group 290">
        <rect id="Rectangle_125" data-name="Rectangle 125" width="13.845" height="0.429" transform="translate(-286.681 -226.779)" fill="none" stroke="#fff" stroke-linecap="round" stroke-linejoin="round" stroke-width="0.75"/>
      </g>
      <g id="Group_291" data-name="Group 291">
        <rect id="Rectangle_126" data-name="Rectangle 126" width="22.917" height="0.429" transform="translate(-286.681 -221.913)" fill="none" stroke="#fff" stroke-linecap="round" stroke-linejoin="round" stroke-width="0.75"/>
      </g>
      <g id="Group_292" data-name="Group 292">
        <rect id="Rectangle_127" data-name="Rectangle 127" width="22.917" height="0.429" transform="translate(-286.681 -217.046)" fill="none" stroke="#fff" stroke-linecap="round" stroke-linejoin="round" stroke-width="0.75"/>
      </g>
      <g id="Group_293" data-name="Group 293">
        <rect id="Rectangle_128" data-name="Rectangle 128" width="22.917" height="0.429" transform="translate(-286.681 -212.18)" fill="none" stroke="#fff" stroke-linecap="round" stroke-linejoin="round" stroke-width="0.75"/>
      </g>
      <g id="Group_294" data-name="Group 294">
        <rect id="Rectangle_129" data-name="Rectangle 129" width="22.917" height="0.429" transform="translate(-286.681 -207.447)" fill="none" stroke="#fff" stroke-linecap="round" stroke-linejoin="round" stroke-width="0.75"/>
      </g>
      <g id="Group_295" data-name="Group 295">
        <rect id="Rectangle_130" data-name="Rectangle 130" width="22.917" height="0.429" transform="translate(-286.681 -202.714)" fill="none" stroke="#fff" stroke-linecap="round" stroke-linejoin="round" stroke-width="0.75"/>
      </g>
      <path id="Path_64" data-name="Path 64" d="M-298.965-220.892c-5.016,1.647-8.535,5.5-8.535,10v23.206c0,5.993,6.256,10.851,13.974,10.851h21.345l10.027,10.113c.8.8,2.449.4,2.513-.612l.593-9.5h9.074c7.718,0,13.974-4.858,13.974-10.852v-23.205c0-5.993-6.256-10.852-13.974-10.852" fill="none" stroke="#fff" stroke-miterlimit="10" stroke-width="2"/>
    </g>
    <g id="Group_299" data-name="Group 299" transform="translate(288 313.529)">
      <path id="Path_65" data-name="Path 65" d="M-102.465-72.392c-5.016,1.647-8.535,5.5-8.535,10v23.206c0,5.993,6.256,10.851,13.974,10.851h21.345l10.027,10.113c.8.8,2.449.4,2.513-.612l.593-9.5h9.074c7.718,0,13.974-4.858,13.974-10.852V-62.393c0-5.993-6.256-10.852-13.974-10.852" fill="none" stroke="#fff" stroke-miterlimit="10" stroke-width="2"/>
      <line id="Line_20" data-name="Line 20" x2="8.193" y2="4.461" transform="translate(-107.231 -95.545)" fill="none" stroke="#fff" stroke-miterlimit="10" stroke-width="2"/>
      <line id="Line_21" data-name="Line 21" x2="4.865" y2="7.959" transform="translate(-93.013 -108.448)" fill="none" stroke="#fff" stroke-miterlimit="10" stroke-width="2"/>
      <line id="Line_22" data-name="Line 22" x1="8.193" y2="4.461" transform="translate(-50.341 -95.545)" fill="none" stroke="#fff" stroke-miterlimit="10" stroke-width="2"/>
      <line id="Line_23" data-name="Line 23" x1="4.865" y2="7.959" transform="translate(-61.231 -108.448)" fill="none" stroke="#fff" stroke-miterlimit="10" stroke-width="2"/>
      <g id="Group_298" data-name="Group 298">
        <g id="Group_297" data-name="Group 297">
          <path id="Path_66" data-name="Path 66" d="M-74.576-94.359-93.11-60.073h18.533l-9.267,28.011,23.655-38.525H-78.168Z" fill="#fff"/>
        </g>
      </g>
      <line id="Line_24" data-name="Line 24" y1="11.04" transform="translate(-74.634 -113.529)" fill="none" stroke="#fff" stroke-miterlimit="10" stroke-width="2"/>
    </g>
  </g>
</svg>
