<svg xmlns="http://www.w3.org/2000/svg" width="255.529" height="84.711" viewBox="0 0 255.529 84.711">
  <g id="Group_442" data-name="Group 442" transform="translate(67.529 351.435)">
    <g id="Group_433" data-name="Group 433">
      <g id="Group_429" data-name="Group 429">
        <g id="Group_428" data-name="Group 428">
          <rect id="Rectangle_174" data-name="Rectangle 174" width="19.928" height="1.381" transform="translate(11.072 -297.023)" fill="#fff"/>
        </g>
      </g>
      <g id="Group_432" data-name="Group 432">
        <g id="Group_431" data-name="Group 431">
          <g id="Group_430" data-name="Group 430">
            <path id="Path_142" data-name="Path 142" d="M13.809-300.345,3-296.332l10.809,4.013Z" fill="#fff"/>
          </g>
        </g>
      </g>
    </g>
    <g id="Group_436" data-name="Group 436">
      <g id="Group_435" data-name="Group 435">
        <g id="Group_434" data-name="Group 434">
          <rect id="Rectangle_175" data-name="Rectangle 175" width="19.928" height="1.381" transform="translate(79.072 -297.023)" fill="#fff"/>
        </g>
      </g>
    </g>
    <g id="Group_439" data-name="Group 439">
      <g id="Group_438" data-name="Group 438">
        <g id="Group_437" data-name="Group 437">
          <rect id="Rectangle_176" data-name="Rectangle 176" width="19.928" height="1.381" transform="translate(44.072 -297.023)" fill="#fff"/>
        </g>
      </g>
    </g>
    <path id="Path_143" data-name="Path 143" d="M187-321.773c0,7.573-3.837,14.357-9.888,18.933a9.038,9.038,0,0,0-3.882,7.115v.764c0,5.2-5.029,9.408-11.233,9.408h-6.69c-6.2,0-11.233-4.212-11.233-9.408v-.764a9.038,9.038,0,0,0-3.882-7.115c-6.051-4.576-9.888-11.36-9.888-18.933,0-13.78,12.694-24.951,28.348-24.951S187-335.553,187-321.773Z" fill="none" stroke="#fff" stroke-miterlimit="10" stroke-width="2"/>
    <rect id="Rectangle_177" data-name="Rectangle 177" width="18.071" height="4.257" rx="2.129" transform="translate(149.851 -286.071)" fill="none" stroke="#fff" stroke-miterlimit="10" stroke-width="2"/>
    <rect id="Rectangle_178" data-name="Rectangle 178" width="18.071" height="4.257" rx="2.129" transform="translate(149.851 -281.614)" fill="none" stroke="#fff" stroke-miterlimit="10" stroke-width="2"/>
    <rect id="Rectangle_179" data-name="Rectangle 179" width="18.071" height="4.257" rx="2.129" transform="translate(149.851 -277.027)" fill="none" stroke="#fff" stroke-miterlimit="10" stroke-width="2"/>
    <path id="Path_144" data-name="Path 144" d="M165.184-272.77c0,2.787-2.7,5.046-6.024,5.046s-6.024-2.259-6.024-5.046" fill="none" stroke="#fff" stroke-miterlimit="10" stroke-width="2"/>
    <path id="Path_145" data-name="Path 145" d="M153.34-285.934c1.825-8.3-8.41-15.291-6.138-23.763,2.284-10.1,16.084-5.258,13.908,3.23-1.088,3.865-6.686-.032-5.5-2.8.265-5.423,9.116-9.156,12.774-3.976,4.5,8.51-4.667,17.433-3.642,26.421" fill="none" stroke="#fff" stroke-miterlimit="10" stroke-width="2"/>
    <line id="Line_31" data-name="Line 31" x2="8.193" y2="4.461" transform="translate(-67.051 -333.451)" fill="none" stroke="#fff" stroke-miterlimit="10" stroke-width="2"/>
    <line id="Line_32" data-name="Line 32" x2="4.865" y2="7.959" transform="translate(-52.833 -346.354)" fill="none" stroke="#fff" stroke-miterlimit="10" stroke-width="2"/>
    <line id="Line_33" data-name="Line 33" x1="8.193" y2="4.461" transform="translate(-10.161 -333.451)" fill="none" stroke="#fff" stroke-miterlimit="10" stroke-width="2"/>
    <line id="Line_34" data-name="Line 34" x1="4.865" y2="7.959" transform="translate(-21.051 -346.354)" fill="none" stroke="#fff" stroke-miterlimit="10" stroke-width="2"/>
    <g id="Group_441" data-name="Group 441">
      <g id="Group_440" data-name="Group 440">
        <path id="Path_146" data-name="Path 146" d="M-34.4-332.265-52.93-297.979H-34.4l-9.267,28.011,23.655-38.525H-37.989Z" fill="#fff"/>
      </g>
    </g>
    <line id="Line_35" data-name="Line 35" y1="11.04" transform="translate(-34.454 -351.435)" fill="none" stroke="#fff" stroke-miterlimit="10" stroke-width="2"/>
  </g>
</svg>
