<svg xmlns="http://www.w3.org/2000/svg" width="254.686" height="97.162" viewBox="0 0 254.686 97.162">
  <g id="Group_427" data-name="Group 427" transform="translate(56.686 482.458)">
    <g id="Group_418" data-name="Group 418">
      <g id="Group_414" data-name="Group 414">
        <g id="Group_413" data-name="Group 413">
          <rect id="Rectangle_171" data-name="Rectangle 171" width="19.928" height="1.381" transform="translate(11.072 -421.023)" fill="#fff"/>
        </g>
      </g>
      <g id="Group_417" data-name="Group 417">
        <g id="Group_416" data-name="Group 416">
          <g id="Group_415" data-name="Group 415">
            <path id="Path_138" data-name="Path 138" d="M13.809-424.345,3-420.332l10.809,4.013Z" fill="#fff"/>
          </g>
        </g>
      </g>
    </g>
    <g id="Group_421" data-name="Group 421">
      <g id="Group_420" data-name="Group 420">
        <g id="Group_419" data-name="Group 419">
          <rect id="Rectangle_172" data-name="Rectangle 172" width="19.928" height="1.381" transform="translate(79.072 -421.023)" fill="#fff"/>
        </g>
      </g>
    </g>
    <g id="Group_424" data-name="Group 424">
      <g id="Group_423" data-name="Group 423">
        <g id="Group_422" data-name="Group 422">
          <rect id="Rectangle_173" data-name="Rectangle 173" width="19.928" height="1.381" transform="translate(44.072 -421.023)" fill="#fff"/>
        </g>
      </g>
    </g>
    <line id="Line_28" data-name="Line 28" x2="4.865" y2="7.959" transform="translate(-55.833 -471.354)" fill="none" stroke="#fff" stroke-miterlimit="10" stroke-width="2"/>
    <line id="Line_29" data-name="Line 29" x1="4.865" y2="7.959" transform="translate(-24.051 -471.354)" fill="none" stroke="#fff" stroke-miterlimit="10" stroke-width="2"/>
    <g id="Group_426" data-name="Group 426">
      <g id="Group_425" data-name="Group 425">
        <path id="Path_139" data-name="Path 139" d="M-37.4-457.265-55.93-422.979H-37.4l-9.267,28.011,23.655-38.525H-40.989Z" fill="#fff"/>
      </g>
    </g>
    <line id="Line_30" data-name="Line 30" y1="11.04" transform="translate(-37.454 -476.435)" fill="none" stroke="#fff" stroke-miterlimit="10" stroke-width="2"/>
    <text id="_" data-name="?" transform="translate(134.772 -411.716) rotate(4.885)" fill="#fff" font-size="75.473" font-family="ArialRoundedMTBold, Arial Rounded MT Bold"><tspan x="0" y="0">?</tspan></text>
    <path id="Path_140" data-name="Path 140" d="M187.749-453.672c5.436,2.032,9.251,6.79,9.251,12.335v28.63c0,7.394-6.781,13.388-15.147,13.388H158.717l-10.868,12.476a1.567,1.567,0,0,1-2.724-.755l-.643-11.721h-9.835c-8.366,0-15.147-5.994-15.147-13.388v-28.63c0-7.393,6.781-13.387,15.147-13.387" fill="none" stroke="#fff" stroke-miterlimit="10" stroke-width="2"/>
    <path id="Path_141" data-name="Path 141" d="M153.91-399.224" fill="none" stroke="#fff" stroke-miterlimit="10" stroke-width="2"/>
  </g>
</svg>
