<svg xmlns="http://www.w3.org/2000/svg" width="167" height="97.162" viewBox="0 0 167 97.162">
  <g id="Group_232" data-name="Group 232" transform="translate(254 482.458)">
    <g id="Group_228" data-name="Group 228">
      <g id="Group_224" data-name="Group 224">
        <g id="Group_223" data-name="Group 223">
          <rect id="Rectangle_106" data-name="Rectangle 106" width="19.928" height="1.381" transform="translate(-245.928 -422.023)" fill="#fff"/>
        </g>
      </g>
      <g id="Group_227" data-name="Group 227">
        <g id="Group_226" data-name="Group 226">
          <g id="Group_225" data-name="Group 225">
            <path id="Path_38" data-name="Path 38" d="M-243.191-425.345-254-421.332l10.809,4.013Z" fill="#fff"/>
          </g>
        </g>
      </g>
    </g>
    <g id="Group_231" data-name="Group 231">
      <g id="Group_230" data-name="Group 230">
        <g id="Group_229" data-name="Group 229">
          <rect id="Rectangle_107" data-name="Rectangle 107" width="19.928" height="1.381" transform="translate(-212.928 -422.023)" fill="#fff"/>
        </g>
      </g>
    </g>
    <text id="_" data-name="?" transform="translate(-150.228 -411.716) rotate(4.885)" fill="#fff" font-size="75.473" font-family="ArialRoundedMTBold, Arial Rounded MT Bold"><tspan x="0" y="0">?</tspan></text>
    <path id="Path_39" data-name="Path 39" d="M-97.251-453.672c5.436,2.032,9.251,6.79,9.251,12.335v28.63c0,7.394-6.781,13.388-15.147,13.388h-23.136l-10.868,12.476a1.567,1.567,0,0,1-2.724-.755l-.643-11.721h-9.835c-8.366,0-15.147-5.994-15.147-13.388v-28.63c0-7.393,6.781-13.387,15.147-13.387" fill="none" stroke="#fff" stroke-miterlimit="10" stroke-width="2"/>
    <path id="Path_40" data-name="Path 40" d="M-131.09-399.224" fill="none" stroke="#fff" stroke-miterlimit="10" stroke-width="2"/>
    <path id="Path_41" data-name="Path 41" d="M-143.58-399.224" fill="none" stroke="#fff" stroke-miterlimit="10" stroke-width="2"/>
  </g>
</svg>
