<svg xmlns="http://www.w3.org/2000/svg" width="161.5" height="78.998" viewBox="0 0 161.5 78.998">
  <g id="Group_451" data-name="Group 451" transform="translate(-208.5 262.474)">
    <g id="Group_443" data-name="Group 443">
      <path id="Path_147" data-name="Path 147" d="M256.142-211.724H224.858A1.858,1.858,0,0,1,223-213.583v-41.283a1.985,1.985,0,0,1,2-1.858h31.142c1.858,0,1.858.832,1.858,1.858v41.283A1.858,1.858,0,0,1,256.142-211.724Z" fill="none" stroke="#fff" stroke-miterlimit="10" stroke-width="1.5"/>
      <path id="Path_148" data-name="Path 148" d="M224.858-257.04a37.353,37.353,0,0,0,4.792-4.684h32.829s-.479,3-4.479,5" fill="none" stroke="#fff" stroke-linecap="round" stroke-linejoin="round" stroke-width="1.5"/>
      <path id="Path_149" data-name="Path 149" d="M262.479-261.724v43.7s.521,6.3-6.479,6.3" fill="none" stroke="#fff" stroke-linecap="round" stroke-linejoin="round" stroke-width="1.5"/>
      <rect id="Rectangle_180" data-name="Rectangle 180" width="20" height="5" rx="0.369" transform="translate(229 -250.724)" fill="none" stroke="#fff" stroke-miterlimit="10" stroke-width="1"/>
    </g>
    <g id="Group_444" data-name="Group 444">
      <path id="Path_150" data-name="Path 150" d="M218.035-241.892c-5.016,1.647-8.535,5.5-8.535,10v23.206c0,5.993,6.256,10.851,13.974,10.851h21.345l10.027,10.113c.8.8,2.449.4,2.513-.612l.593-9.5h9.074c7.718,0,13.974-4.858,13.974-10.852v-23.205c0-5.993-6.256-10.852-13.974-10.852" fill="none" stroke="#fff" stroke-miterlimit="10" stroke-width="2"/>
    </g>
    <g id="Group_446" data-name="Group 446">
      <g id="Group_445" data-name="Group 445">
        <path id="Path_151" data-name="Path 151" d="M291.949-185.7a38.69,38.69,0,0,1,3.594-28.688,38.606,38.606,0,0,1,18.912-16.746,38.775,38.775,0,0,1,26.559-.925,38.5,38.5,0,0,1,20.06,15.4,38.73,38.73,0,0,1,4.817,31.513,1.343,1.343,0,0,0,2.588.714,41.5,41.5,0,0,0-3.285-30.539,41.257,41.257,0,0,0-20.071-18.393,41.317,41.317,0,0,0-28.285-1.47,41.438,41.438,0,0,0-21.91,16.33,41.407,41.407,0,0,0-5.567,33.512,1.343,1.343,0,0,0,2.588-.713Z" fill="#fff"/>
      </g>
    </g>
    <g id="Group_447" data-name="Group 447">
      <rect id="Rectangle_181" data-name="Rectangle 181" width="8.735" height="1.342" transform="translate(322.627 -209.161)" fill="#fff"/>
    </g>
    <g id="Group_448" data-name="Group 448">
      <path id="Path_152" data-name="Path 152" d="M340.512-198.43a10.194,10.194,0,0,1-10.183-10.183A10.194,10.194,0,0,1,340.512-218.8,10.194,10.194,0,0,1,350.7-208.613,10.194,10.194,0,0,1,340.512-198.43Zm0-18.129a7.956,7.956,0,0,0-7.947,7.946,7.956,7.956,0,0,0,7.947,7.947,7.956,7.956,0,0,0,7.946-7.947A7.956,7.956,0,0,0,340.512-216.559Z" fill="#fff"/>
    </g>
    <g id="Group_449" data-name="Group 449">
      <path id="Path_153" data-name="Path 153" d="M313.563-198.43a10.194,10.194,0,0,1-10.183-10.183A10.194,10.194,0,0,1,313.563-218.8a10.194,10.194,0,0,1,10.183,10.183A10.194,10.194,0,0,1,313.563-198.43Zm0-18.129a7.956,7.956,0,0,0-7.947,7.946,7.956,7.956,0,0,0,7.947,7.947,7.956,7.956,0,0,0,7.946-7.947A7.956,7.956,0,0,0,313.563-216.559Z" fill="#fff"/>
    </g>
    <g id="Group_450" data-name="Group 450">
      <path id="Path_154" data-name="Path 154" d="M354.732-255.966l1.7,4.906a.144.144,0,0,0,.039.062l3.1,2.683a.208.208,0,0,1,0,.273l-3.1,2.683a.138.138,0,0,0-.039.062l-1.7,4.906c-.037.108-.136.108-.173,0l-1.7-4.906a.139.139,0,0,0-.04-.062l-3.1-2.683a.208.208,0,0,1,0-.273l3.1-2.683a.145.145,0,0,0,.04-.062l1.7-4.906C354.6-256.074,354.7-256.074,354.732-255.966Z" fill="#fff"/>
    </g>
  </g>
</svg>
