<svg xmlns="http://www.w3.org/2000/svg" width="161.5" height="75.56" viewBox="0 0 161.5 75.56">
  <g id="Group_470" data-name="Group 470" transform="translate(-208.5 167.036)">
    <g id="Group_462" data-name="Group 462">
      <g id="Group_455" data-name="Group 455">
        <g id="Group_453" data-name="Group 453">
          <path id="Path_155" data-name="Path 155" d="M260.856-119.9H225.187A2.078,2.078,0,0,1,223-121.849v-43.239a2.078,2.078,0,0,1,2.187-1.948h26.9a2.33,2.33,0,0,1,1.524.551l8.953,7.75a1.854,1.854,0,0,1,.663,1.406l-.186,35.489A2.08,2.08,0,0,1,260.856-119.9Zm-35.079-.526h34.491a2.08,2.08,0,0,0,2.187-1.939l.182-34.741a1.847,1.847,0,0,0-.663-1.407l-8.6-7.445a2.33,2.33,0,0,0-1.524-.551H225.777a2.078,2.078,0,0,0-2.187,1.948v42.187A2.078,2.078,0,0,0,225.777-120.427Zm34.267-.2H226a2.078,2.078,0,0,1-2.187-1.948v-41.785A2.078,2.078,0,0,1,226-166.309h25.755a2.338,2.338,0,0,1,1.524.551l8.466,7.329a1.847,1.847,0,0,1,.663,1.406l-.18,34.456A2.08,2.08,0,0,1,260.044-120.628Zm-33.451-.526h32.863a2.08,2.08,0,0,0,2.187-1.939l.177-33.709a1.854,1.854,0,0,0-.663-1.406l-8.115-7.024a2.33,2.33,0,0,0-1.524-.551H226.593a2.078,2.078,0,0,0-2.187,1.948V-123.1A2.078,2.078,0,0,0,226.593-121.154Z" fill="#fff"/>
        </g>
        <g id="Group_454" data-name="Group 454">
          <path id="Path_156" data-name="Path 156" d="M260.69-120.05H225.354A2.078,2.078,0,0,1,223.167-122v-42.941a2.078,2.078,0,0,1,2.187-1.948h26.667a2.336,2.336,0,0,1,1.524.551l8.853,7.664a1.849,1.849,0,0,1,.663,1.406l-.185,35.277A2.079,2.079,0,0,1,260.69-120.05ZM226.426-121h33.2a2.079,2.079,0,0,0,2.186-1.939l.178-33.92a1.848,1.848,0,0,0-.662-1.406l-8.215-7.111a2.33,2.33,0,0,0-1.524-.551h-25.16a2.078,2.078,0,0,0-2.187,1.948v41.031A2.078,2.078,0,0,0,226.426-121Z" fill="#fff"/>
        </g>
      </g>
      <g id="Group_456" data-name="Group 456">
        <rect id="Rectangle_182" data-name="Rectangle 182" width="13.845" height="0.429" transform="translate(230.319 -155.779)" fill="none" stroke="#fff" stroke-linecap="round" stroke-linejoin="round" stroke-width="0.75"/>
      </g>
      <g id="Group_457" data-name="Group 457">
        <rect id="Rectangle_183" data-name="Rectangle 183" width="22.917" height="0.429" transform="translate(230.319 -150.913)" fill="none" stroke="#fff" stroke-linecap="round" stroke-linejoin="round" stroke-width="0.75"/>
      </g>
      <g id="Group_458" data-name="Group 458">
        <rect id="Rectangle_184" data-name="Rectangle 184" width="22.917" height="0.429" transform="translate(230.319 -146.046)" fill="none" stroke="#fff" stroke-linecap="round" stroke-linejoin="round" stroke-width="0.75"/>
      </g>
      <g id="Group_459" data-name="Group 459">
        <rect id="Rectangle_185" data-name="Rectangle 185" width="22.917" height="0.429" transform="translate(230.319 -141.18)" fill="none" stroke="#fff" stroke-linecap="round" stroke-linejoin="round" stroke-width="0.75"/>
      </g>
      <g id="Group_460" data-name="Group 460">
        <rect id="Rectangle_186" data-name="Rectangle 186" width="22.917" height="0.429" transform="translate(230.319 -136.447)" fill="none" stroke="#fff" stroke-linecap="round" stroke-linejoin="round" stroke-width="0.75"/>
      </g>
      <g id="Group_461" data-name="Group 461">
        <rect id="Rectangle_187" data-name="Rectangle 187" width="22.917" height="0.429" transform="translate(230.319 -131.714)" fill="none" stroke="#fff" stroke-linecap="round" stroke-linejoin="round" stroke-width="0.75"/>
      </g>
      <path id="Path_157" data-name="Path 157" d="M218.035-149.892c-5.016,1.647-8.535,5.5-8.535,10v23.206c0,5.993,6.256,10.851,13.974,10.851h21.345l10.027,10.113c.8.8,2.449.4,2.513-.612l.593-9.5h9.074c7.718,0,13.974-4.858,13.974-10.852v-23.205c0-5.993-6.256-10.852-13.974-10.852" fill="none" stroke="#fff" stroke-miterlimit="10" stroke-width="2"/>
    </g>
    <g id="Group_464" data-name="Group 464">
      <g id="Group_463" data-name="Group 463">
        <path id="Path_158" data-name="Path 158" d="M291.949-93.7a38.69,38.69,0,0,1,3.594-28.688,38.606,38.606,0,0,1,18.912-16.746,38.775,38.775,0,0,1,26.559-.925,38.5,38.5,0,0,1,20.06,15.4,38.73,38.73,0,0,1,4.817,31.513,1.343,1.343,0,0,0,2.588.714,41.5,41.5,0,0,0-3.285-30.539,41.257,41.257,0,0,0-20.071-18.393,41.317,41.317,0,0,0-28.285-1.47,41.438,41.438,0,0,0-21.91,16.33,41.407,41.407,0,0,0-5.567,33.512,1.343,1.343,0,0,0,2.588-.713Z" fill="#fff"/>
      </g>
    </g>
    <g id="Group_465" data-name="Group 465">
      <rect id="Rectangle_188" data-name="Rectangle 188" width="8.735" height="1.342" transform="translate(322.627 -117.161)" fill="#fff"/>
    </g>
    <g id="Group_466" data-name="Group 466">
      <path id="Path_159" data-name="Path 159" d="M340.512-106.43a10.194,10.194,0,0,1-10.183-10.183A10.194,10.194,0,0,1,340.512-126.8,10.194,10.194,0,0,1,350.7-116.613,10.194,10.194,0,0,1,340.512-106.43Zm0-18.129a7.956,7.956,0,0,0-7.947,7.946,7.956,7.956,0,0,0,7.947,7.947,7.956,7.956,0,0,0,7.946-7.947A7.956,7.956,0,0,0,340.512-124.559Z" fill="#fff"/>
    </g>
    <g id="Group_467" data-name="Group 467">
      <path id="Path_160" data-name="Path 160" d="M313.563-106.43a10.194,10.194,0,0,1-10.183-10.183A10.194,10.194,0,0,1,313.563-126.8a10.194,10.194,0,0,1,10.183,10.183A10.194,10.194,0,0,1,313.563-106.43Zm0-18.129a7.956,7.956,0,0,0-7.947,7.946,7.956,7.956,0,0,0,7.947,7.947,7.956,7.956,0,0,0,7.946-7.947A7.956,7.956,0,0,0,313.563-124.559Z" fill="#fff"/>
    </g>
    <g id="Group_468" data-name="Group 468">
      <path id="Path_161" data-name="Path 161" d="M354.732-163.966l1.7,4.906a.144.144,0,0,0,.039.062l3.1,2.683a.208.208,0,0,1,0,.273l-3.1,2.683a.138.138,0,0,0-.039.062l-1.7,4.906c-.037.108-.136.108-.173,0l-1.7-4.906a.139.139,0,0,0-.04-.062l-3.1-2.683a.208.208,0,0,1,0-.273l3.1-2.683a.145.145,0,0,0,.04-.062l1.7-4.906C354.6-164.074,354.7-164.074,354.732-163.966Z" fill="#fff"/>
    </g>
    <g id="Group_469" data-name="Group 469">
      <path id="Path_162" data-name="Path 162" d="M363.034-152.081l1.152,3.331a.09.09,0,0,0,.027.042l2.106,1.822a.143.143,0,0,1,0,.186l-2.106,1.821a.1.1,0,0,0-.027.042l-1.152,3.332c-.025.073-.092.073-.117,0l-1.152-3.332a.118.118,0,0,0-.027-.042l-2.106-1.821a.14.14,0,0,1,0-.186l2.106-1.822a.109.109,0,0,0,.027-.042l1.152-3.331C362.942-152.155,363.009-152.155,363.034-152.081Z" fill="#fff"/>
    </g>
  </g>
</svg>
