<svg xmlns="http://www.w3.org/2000/svg" width="213.478" height="140.413" viewBox="0 0 213.478 140.413">
  <g id="Group_471" data-name="Group 471" transform="translate(-76 -129)">
    <g id="Group_307" data-name="Group 307" transform="translate(442.645 390.953)">
      <g id="Group_301" data-name="Group 301">
        <g id="Group_300" data-name="Group 300">
          <path id="Path_67" data-name="Path 67" d="M-295.657-123.779a39.5,39.5,0,0,1,3.7-29.35,39.409,39.409,0,0,1,19.412-17.1,39.591,39.591,0,0,1,27.05-.872,39.327,39.327,0,0,1,20.5,15.825,39.55,39.55,0,0,1,4.844,32.066,1.349,1.349,0,0,0,2.6.716,42.326,42.326,0,0,0-3.458-31.351,42.131,42.131,0,0,0-20.53-18.632,42.112,42.112,0,0,0-28.761-1.407,42.277,42.277,0,0,0-22.277,16.634,42.232,42.232,0,0,0-5.679,34.185,1.349,1.349,0,0,0,2.6-.716Z" fill="#fff"/>
        </g>
      </g>
      <g id="Group_302" data-name="Group 302">
        <path id="Path_68" data-name="Path 68" d="M-266.259-139.8H-286.9A3.811,3.811,0,0,1-290.7-143.6v-6.886A3.81,3.81,0,0,1-286.9-154.3h20.638a3.81,3.81,0,0,1,3.806,3.806v6.886A3.81,3.81,0,0,1-266.259-139.8ZM-286.9-152.05a1.562,1.562,0,0,0-1.56,1.56v6.886a1.561,1.561,0,0,0,1.56,1.559h20.638a1.561,1.561,0,0,0,1.56-1.559v-6.886a1.562,1.562,0,0,0-1.56-1.56Z" fill="#fff"/>
      </g>
      <g id="Group_303" data-name="Group 303">
        <path id="Path_69" data-name="Path 69" d="M-231-139.8h-20.638a3.811,3.811,0,0,1-3.806-3.806v-6.886a3.81,3.81,0,0,1,3.806-3.806H-231a3.81,3.81,0,0,1,3.806,3.806v6.886A3.81,3.81,0,0,1-231-139.8Zm-20.638-12.252a1.562,1.562,0,0,0-1.56,1.56v6.886a1.561,1.561,0,0,0,1.56,1.559H-231a1.561,1.561,0,0,0,1.56-1.559v-6.886a1.562,1.562,0,0,0-1.56-1.56Z" fill="#fff"/>
      </g>
      <g id="Group_304" data-name="Group 304">
        <rect id="Rectangle_131" data-name="Rectangle 131" width="8.915" height="1.348" transform="translate(-263.576 -147.721)" fill="#fff"/>
      </g>
      <g id="Group_306" data-name="Group 306">
        <g id="Group_305" data-name="Group 305">
          <path id="Path_70" data-name="Path 70" d="M-267-174.815a7.3,7.3,0,0,1-4.32-1.1c-1.106-.718-2.091-1.613-3.15-2.4a14.743,14.743,0,0,1-2.978-2.957c-.838-1.1-1.209-2.433-2.025-3.524-1.026-1.374-3.367-.031-2.327,1.36a12.836,12.836,0,0,1,1.049,2.052,12.559,12.559,0,0,0,1.408,2.036,17.767,17.767,0,0,0,3.513,3.361,37.019,37.019,0,0,0,3.727,2.748,9.984,9.984,0,0,0,5.1,1.114,1.349,1.349,0,0,0,0-2.7Z" fill="#fff"/>
        </g>
      </g>
      <text id="_" data-name="?" transform="translate(-216.395 -191.21) rotate(4.885)" fill="#fff" font-size="75.473" font-family="ArialRoundedMTBold, Arial Rounded MT Bold"><tspan x="0" y="0">?</tspan></text>
      <path id="Path_71" data-name="Path 71" d="M-163.418-233.167c5.436,2.033,9.251,6.791,9.251,12.336V-192.2c0,7.394-6.782,13.388-15.147,13.388H-192.45l-10.869,12.476a1.566,1.566,0,0,1-2.723-.754l-.643-11.722h-9.835c-8.366,0-15.147-5.994-15.147-13.388v-28.629c0-7.394,6.781-13.388,15.147-13.388" fill="none" stroke="#fff" stroke-miterlimit="10" stroke-width="2"/>
      <path id="Path_72" data-name="Path 72" d="M-197.257-178.719" fill="none" stroke="#fff" stroke-miterlimit="10" stroke-width="2"/>
    </g>
    <g id="Group_317" data-name="Group 317" transform="translate(46.5 409.167)">
      <g id="Group_310" data-name="Group 310">
        <g id="Group_308" data-name="Group 308">
          <path id="Path_73" data-name="Path 73" d="M81.856-212.9H46.187A2.078,2.078,0,0,1,44-214.849v-43.239a2.078,2.078,0,0,1,2.187-1.948h26.9a2.33,2.33,0,0,1,1.524.551l8.953,7.75a1.854,1.854,0,0,1,.663,1.406l-.186,35.489A2.08,2.08,0,0,1,81.856-212.9Zm-35.079-.526H81.268a2.08,2.08,0,0,0,2.187-1.939l.182-34.741a1.848,1.848,0,0,0-.663-1.407l-8.6-7.445a2.331,2.331,0,0,0-1.524-.551H46.777a2.078,2.078,0,0,0-2.187,1.948v42.187A2.078,2.078,0,0,0,46.777-213.427Zm34.267-.2H47a2.078,2.078,0,0,1-2.187-1.948v-41.785A2.078,2.078,0,0,1,47-259.309H72.758a2.338,2.338,0,0,1,1.524.551l8.466,7.329a1.847,1.847,0,0,1,.663,1.406l-.18,34.456A2.08,2.08,0,0,1,81.044-213.628Zm-33.451-.526H80.456a2.08,2.08,0,0,0,2.187-1.939L82.82-249.8a1.854,1.854,0,0,0-.663-1.406l-8.115-7.024a2.33,2.33,0,0,0-1.524-.551H47.593a2.078,2.078,0,0,0-2.187,1.948V-216.1A2.078,2.078,0,0,0,47.593-214.154Z" fill="#fff"/>
        </g>
        <g id="Group_309" data-name="Group 309">
          <path id="Path_74" data-name="Path 74" d="M81.69-213.05H46.354A2.078,2.078,0,0,1,44.167-215v-42.941a2.078,2.078,0,0,1,2.187-1.948H73.021a2.336,2.336,0,0,1,1.524.551l8.853,7.664a1.849,1.849,0,0,1,.663,1.406l-.185,35.277A2.079,2.079,0,0,1,81.69-213.05Zm-34.264-.955h33.2a2.079,2.079,0,0,0,2.186-1.939l.178-33.92a1.848,1.848,0,0,0-.662-1.406l-8.215-7.111a2.331,2.331,0,0,0-1.524-.551H47.426a2.078,2.078,0,0,0-2.187,1.948v41.031A2.078,2.078,0,0,0,47.426-214.005Z" fill="#fff"/>
        </g>
      </g>
      <g id="Group_311" data-name="Group 311">
        <rect id="Rectangle_132" data-name="Rectangle 132" width="13.845" height="0.429" transform="translate(51.319 -248.779)" fill="none" stroke="#fff" stroke-linecap="round" stroke-linejoin="round" stroke-width="0.75"/>
      </g>
      <g id="Group_312" data-name="Group 312">
        <rect id="Rectangle_133" data-name="Rectangle 133" width="22.917" height="0.429" transform="translate(51.319 -243.913)" fill="none" stroke="#fff" stroke-linecap="round" stroke-linejoin="round" stroke-width="0.75"/>
      </g>
      <g id="Group_313" data-name="Group 313">
        <rect id="Rectangle_134" data-name="Rectangle 134" width="22.917" height="0.429" transform="translate(51.319 -239.046)" fill="none" stroke="#fff" stroke-linecap="round" stroke-linejoin="round" stroke-width="0.75"/>
      </g>
      <g id="Group_314" data-name="Group 314">
        <rect id="Rectangle_135" data-name="Rectangle 135" width="22.917" height="0.429" transform="translate(51.319 -234.18)" fill="none" stroke="#fff" stroke-linecap="round" stroke-linejoin="round" stroke-width="0.75"/>
      </g>
      <g id="Group_315" data-name="Group 315">
        <rect id="Rectangle_136" data-name="Rectangle 136" width="22.917" height="0.429" transform="translate(51.319 -229.447)" fill="none" stroke="#fff" stroke-linecap="round" stroke-linejoin="round" stroke-width="0.75"/>
      </g>
      <g id="Group_316" data-name="Group 316">
        <rect id="Rectangle_137" data-name="Rectangle 137" width="22.917" height="0.429" transform="translate(51.319 -224.714)" fill="none" stroke="#fff" stroke-linecap="round" stroke-linejoin="round" stroke-width="0.75"/>
      </g>
      <path id="Path_75" data-name="Path 75" d="M39.035-242.892c-5.016,1.647-8.535,5.5-8.535,10v23.206c0,5.993,6.256,10.851,13.974,10.851H65.819l10.027,10.113c.8.8,2.449.4,2.513-.612l.593-9.5h9.074c7.718,0,13.974-4.858,13.974-10.852v-23.205c0-5.993-6.256-10.852-13.974-10.852" fill="none" stroke="#fff" stroke-miterlimit="10" stroke-width="2"/>
    </g>
  </g>
</svg>
