<svg xmlns="http://www.w3.org/2000/svg" width="155" height="80" viewBox="0 0 155 80">
  <g id="Group_242" data-name="Group 242" transform="translate(254 346.724)">
    <g id="Group_238" data-name="Group 238">
      <g id="Group_234" data-name="Group 234">
        <g id="Group_233" data-name="Group 233">
          <rect id="Rectangle_108" data-name="Rectangle 108" width="19.928" height="1.381" transform="translate(-245.928 -301.023)" fill="#fff"/>
        </g>
      </g>
      <g id="Group_237" data-name="Group 237">
        <g id="Group_236" data-name="Group 236">
          <g id="Group_235" data-name="Group 235">
            <path id="Path_42" data-name="Path 42" d="M-243.191-304.345-254-300.332l10.809,4.013Z" fill="#fff"/>
          </g>
        </g>
      </g>
    </g>
    <g id="Group_241" data-name="Group 241">
      <g id="Group_240" data-name="Group 240">
        <g id="Group_239" data-name="Group 239">
          <rect id="Rectangle_109" data-name="Rectangle 109" width="19.928" height="1.381" transform="translate(-212.928 -301.023)" fill="#fff"/>
        </g>
      </g>
    </g>
    <path id="Path_43" data-name="Path 43" d="M-100-321.679c0,7.3-3.9,13.836-10.062,18.246a8.6,8.6,0,0,0-3.951,6.856v.736c0,5.008-5.118,9.067-11.431,9.067h-6.808c-6.313,0-11.431-4.059-11.431-9.067v-.736a8.6,8.6,0,0,0-3.951-6.856c-6.157-4.41-10.062-10.948-10.062-18.246,0-13.279,12.918-24.045,28.848-24.045S-100-334.958-100-321.679Z" fill="none" stroke="#fff" stroke-miterlimit="10" stroke-width="2"/>
    <rect id="Rectangle_110" data-name="Rectangle 110" width="18.39" height="4.549" rx="2.129" transform="translate(-137.805 -287.328)" fill="none" stroke="#fff" stroke-miterlimit="10" stroke-width="2"/>
    <rect id="Rectangle_111" data-name="Rectangle 111" width="18.39" height="4.549" rx="2.129" transform="translate(-137.805 -282.565)" fill="none" stroke="#fff" stroke-miterlimit="10" stroke-width="2"/>
    <rect id="Rectangle_112" data-name="Rectangle 112" width="18.39" height="4.549" rx="2.129" transform="translate(-137.805 -277.664)" fill="none" stroke="#fff" stroke-miterlimit="10" stroke-width="2"/>
    <path id="Path_44" data-name="Path 44" d="M-122.2-273.115c0,2.977-2.745,5.391-6.13,5.391s-6.13-2.414-6.13-5.391" fill="none" stroke="#fff" stroke-miterlimit="10" stroke-width="2"/>
    <path id="Path_45" data-name="Path 45" d="M-134.254-287.181c1.858-8.868-8.558-16.339-6.246-25.391,2.324-10.794,16.367-5.618,14.153,3.451-1.107,4.13-6.8-.034-5.6-3,.27-5.795,9.277-9.784,13-4.249,4.583,9.093-4.75,18.627-3.707,28.23" fill="none" stroke="#fff" stroke-miterlimit="10" stroke-width="2"/>
  </g>
</svg>
