<svg xmlns="http://www.w3.org/2000/svg" width="244.368" height="93.086" viewBox="0 0 244.368 93.086">
  <g id="Group_412" data-name="Group 412" transform="translate(52.686 601.435)">
    <g id="Group_389" data-name="Group 389">
      <g id="Group_387" data-name="Group 387">
        <path id="Path_124" data-name="Path 124" d="M170.824-523.462H119.167A3.01,3.01,0,0,1,116-526.284V-588.9a3.009,3.009,0,0,1,3.167-2.821h38.96a3.379,3.379,0,0,1,2.207.8L173.3-579.7a2.678,2.678,0,0,1,.96,2.036l-.269,51.4A3.012,3.012,0,0,1,170.824-523.462Zm-50.8-.762h49.95a3.012,3.012,0,0,0,3.168-2.808l.263-50.313a2.678,2.678,0,0,0-.96-2.037l-12.456-10.783a3.379,3.379,0,0,0-2.207-.8H120.022a3.009,3.009,0,0,0-3.167,2.821v61.1A3.009,3.009,0,0,0,120.022-524.224Zm49.626-.292h-49.3a3.009,3.009,0,0,1-3.167-2.821V-587.85a3.009,3.009,0,0,1,3.167-2.821h37.3a3.379,3.379,0,0,1,2.207.8l12.262,10.614a2.678,2.678,0,0,1,.96,2.036l-.261,49.9A3.011,3.011,0,0,1,169.648-524.516Zm-48.445-.761H168.8a3.011,3.011,0,0,0,3.167-2.808l.256-48.817a2.678,2.678,0,0,0-.96-2.037l-11.752-10.173a3.384,3.384,0,0,0-2.207-.8H121.2a3.009,3.009,0,0,0-3.167,2.822v58.99A3.009,3.009,0,0,0,121.2-525.277Z" fill="none" stroke="#fff" stroke-miterlimit="10" stroke-width="0.75"/>
      </g>
      <g id="Group_388" data-name="Group 388">
        <path id="Path_125" data-name="Path 125" d="M170.583-523.679H119.409a3.009,3.009,0,0,1-3.167-2.821v-62.187a3.009,3.009,0,0,1,3.167-2.821h38.62a3.379,3.379,0,0,1,2.207.8l12.821,11.1a2.678,2.678,0,0,1,.96,2.036l-.267,51.088A3.011,3.011,0,0,1,170.583-523.679Zm-49.622-1.382h48.076a3.011,3.011,0,0,0,3.167-2.808l.258-49.124a2.675,2.675,0,0,0-.96-2.036l-11.9-10.3a3.381,3.381,0,0,0-2.208-.8H120.961a3.009,3.009,0,0,0-3.167,2.821v59.423A3.009,3.009,0,0,0,120.961-525.061Z" fill="none" stroke="#fff" stroke-miterlimit="10" stroke-width="0.75"/>
      </g>
    </g>
    <g id="Group_390" data-name="Group 390">
      <path id="Path_126" data-name="Path 126" d="M129.2-518.27h47.982a2.927,2.927,0,0,0,3.108-2.684l.253-46.958a2.531,2.531,0,0,0-.942-1.946l-3.659-2.889v.277l3.42,2.7a2.539,2.539,0,0,1,.943,1.947l-.252,46.664a2.927,2.927,0,0,1-3.108,2.685H129.438a2.925,2.925,0,0,1-3.109-2.7v-1.239h-.237v1.445A2.924,2.924,0,0,0,129.2-518.27Z" fill="none" stroke="#fff" stroke-miterlimit="10" stroke-width="0.75"/>
      <path id="Path_127" data-name="Path 127" d="M181.365-570.5l-5.423-4.3v.279l5.185,4.111a2.535,2.535,0,0,1,.942,1.947l-.262,48.836a2.928,2.928,0,0,1-3.109,2.684H127.677a2.925,2.925,0,0,1-3.109-2.7v-2.767h-.237v2.974a2.924,2.924,0,0,0,3.108,2.7h51.5a2.926,2.926,0,0,0,3.108-2.684l.264-49.129A2.535,2.535,0,0,0,181.365-570.5Z" fill="none" stroke="#fff" stroke-miterlimit="10" stroke-width="0.75"/>
      <path id="Path_128" data-name="Path 128" d="M128.278-517.47H178.1a2.927,2.927,0,0,0,3.109-2.684l.258-48.1a2.534,2.534,0,0,0-.942-1.946l-4.582-3.628v.375l4.261,3.37a2.533,2.533,0,0,1,.942,1.946l-.256,47.7a2.927,2.927,0,0,1-3.109,2.685H128.6a2.925,2.925,0,0,1-3.109-2.7v-1.967h-.32v2.246A2.924,2.924,0,0,0,128.278-517.47Z" fill="none" stroke="#fff" stroke-miterlimit="10" stroke-width="0.75"/>
      <path id="Path_129" data-name="Path 129" d="M179.6-569.858a2.531,2.531,0,0,1,.942,1.946l-.253,46.958a2.927,2.927,0,0,1-3.108,2.684H129.2a2.924,2.924,0,0,1-3.108-2.7v-1.445h-.6v1.967a2.925,2.925,0,0,0,3.109,2.7H177.78a2.927,2.927,0,0,0,3.109-2.685l.256-47.7a2.533,2.533,0,0,0-.942-1.946l-4.261-3.37v.7Z" fill="none" stroke="#fff" stroke-miterlimit="10" stroke-width="0.75"/>
      <path id="Path_130" data-name="Path 130" d="M180.524-570.2a2.534,2.534,0,0,1,.942,1.946l-.258,48.1a2.927,2.927,0,0,1-3.109,2.684H128.278a2.924,2.924,0,0,1-3.108-2.7v-2.246h-.6v2.767a2.925,2.925,0,0,0,3.109,2.7H178.7a2.928,2.928,0,0,0,3.109-2.684l.262-48.836a2.535,2.535,0,0,0-.942-1.947l-5.185-4.111v.7Z" fill="none" stroke="#fff" stroke-miterlimit="10" stroke-width="0.75"/>
    </g>
    <g id="Group_391" data-name="Group 391">
      <path id="Path_131" data-name="Path 131" d="M138.2-510.253h47.982a2.926,2.926,0,0,0,3.108-2.684l.253-46.958a2.533,2.533,0,0,0-.942-1.946l-3.659-2.888v.277l3.42,2.7a2.539,2.539,0,0,1,.943,1.947l-.252,46.665a2.927,2.927,0,0,1-3.108,2.684H138.438a2.925,2.925,0,0,1-3.109-2.7V-514.4h-.237v1.446A2.924,2.924,0,0,0,138.2-510.253Z" fill="none" stroke="#fff" stroke-miterlimit="10" stroke-width="0.75"/>
      <path id="Path_132" data-name="Path 132" d="M190.365-562.484l-5.423-4.3v.279l5.185,4.111a2.535,2.535,0,0,1,.942,1.947l-.262,48.836a2.928,2.928,0,0,1-3.109,2.684H136.677a2.925,2.925,0,0,1-3.109-2.7V-514.4h-.237v2.974a2.925,2.925,0,0,0,3.108,2.7h51.5a2.927,2.927,0,0,0,3.108-2.685l.264-49.129A2.533,2.533,0,0,0,190.365-562.484Z" fill="none" stroke="#fff" stroke-miterlimit="10" stroke-width="0.75"/>
      <path id="Path_133" data-name="Path 133" d="M137.278-509.452H187.1a2.928,2.928,0,0,0,3.109-2.685l.258-48.094a2.535,2.535,0,0,0-.942-1.947l-4.582-3.628v.375l4.261,3.37a2.535,2.535,0,0,1,.942,1.947l-.256,47.7a2.927,2.927,0,0,1-3.109,2.684H137.6a2.925,2.925,0,0,1-3.109-2.7V-514.4h-.32v2.246A2.925,2.925,0,0,0,137.278-509.452Z" fill="none" stroke="#fff" stroke-miterlimit="10" stroke-width="0.75"/>
      <path id="Path_134" data-name="Path 134" d="M188.6-561.841a2.533,2.533,0,0,1,.942,1.946l-.253,46.958a2.926,2.926,0,0,1-3.108,2.684H138.2a2.924,2.924,0,0,1-3.108-2.7V-514.4h-.6v1.967a2.925,2.925,0,0,0,3.109,2.7H186.78a2.927,2.927,0,0,0,3.109-2.684l.256-47.7a2.535,2.535,0,0,0-.942-1.947l-4.261-3.37v.7Z" fill="none" stroke="#fff" stroke-miterlimit="10" stroke-width="0.75"/>
      <path id="Path_135" data-name="Path 135" d="M189.524-562.178a2.535,2.535,0,0,1,.942,1.947l-.258,48.094a2.928,2.928,0,0,1-3.109,2.685H137.278a2.925,2.925,0,0,1-3.108-2.7V-514.4h-.6v2.767a2.925,2.925,0,0,0,3.109,2.7H187.7a2.928,2.928,0,0,0,3.109-2.684l.262-48.836a2.535,2.535,0,0,0-.942-1.947l-5.185-4.111v.7Z" fill="none" stroke="#fff" stroke-miterlimit="10" stroke-width="0.75"/>
    </g>
    <g id="Group_392" data-name="Group 392">
      <rect id="Rectangle_162" data-name="Rectangle 162" width="20.051" height="0.621" transform="translate(126.6 -575.421)" fill="none" stroke="#fff" stroke-linecap="round" stroke-linejoin="round" stroke-width="0.75"/>
    </g>
    <g id="Group_393" data-name="Group 393">
      <rect id="Rectangle_163" data-name="Rectangle 163" width="33.189" height="0.621" transform="translate(126.6 -568.374)" fill="none" stroke="#fff" stroke-linecap="round" stroke-linejoin="round" stroke-width="0.75"/>
    </g>
    <g id="Group_394" data-name="Group 394">
      <rect id="Rectangle_164" data-name="Rectangle 164" width="33.189" height="0.621" transform="translate(126.6 -561.326)" fill="none" stroke="#fff" stroke-linecap="round" stroke-linejoin="round" stroke-width="0.75"/>
    </g>
    <g id="Group_395" data-name="Group 395">
      <rect id="Rectangle_165" data-name="Rectangle 165" width="33.189" height="0.621" transform="translate(126.6 -554.279)" fill="none" stroke="#fff" stroke-linecap="round" stroke-linejoin="round" stroke-width="0.75"/>
    </g>
    <g id="Group_396" data-name="Group 396">
      <rect id="Rectangle_166" data-name="Rectangle 166" width="33.189" height="0.621" transform="translate(126.6 -547.425)" fill="none" stroke="#fff" stroke-linecap="round" stroke-linejoin="round" stroke-width="0.75"/>
    </g>
    <g id="Group_397" data-name="Group 397">
      <rect id="Rectangle_167" data-name="Rectangle 167" width="33.189" height="0.621" transform="translate(126.6 -540.57)" fill="none" stroke="#fff" stroke-linecap="round" stroke-linejoin="round" stroke-width="0.75"/>
    </g>
    <g id="Group_403" data-name="Group 403">
      <g id="Group_399" data-name="Group 399">
        <g id="Group_398" data-name="Group 398">
          <rect id="Rectangle_168" data-name="Rectangle 168" width="19.928" height="1.381" transform="translate(11.072 -547.023)" fill="#fff"/>
        </g>
      </g>
      <g id="Group_402" data-name="Group 402">
        <g id="Group_401" data-name="Group 401">
          <g id="Group_400" data-name="Group 400">
            <path id="Path_136" data-name="Path 136" d="M13.809-550.345,3-546.332l10.809,4.013Z" fill="#fff"/>
          </g>
        </g>
      </g>
    </g>
    <g id="Group_406" data-name="Group 406">
      <g id="Group_405" data-name="Group 405">
        <g id="Group_404" data-name="Group 404">
          <rect id="Rectangle_169" data-name="Rectangle 169" width="19.928" height="1.381" transform="translate(79.072 -547.023)" fill="#fff"/>
        </g>
      </g>
    </g>
    <g id="Group_409" data-name="Group 409">
      <g id="Group_408" data-name="Group 408">
        <g id="Group_407" data-name="Group 407">
          <rect id="Rectangle_170" data-name="Rectangle 170" width="19.928" height="1.381" transform="translate(44.072 -547.023)" fill="#fff"/>
        </g>
      </g>
    </g>
    <line id="Line_25" data-name="Line 25" x2="4.865" y2="7.959" transform="translate(-51.833 -596.354)" fill="none" stroke="#fff" stroke-miterlimit="10" stroke-width="2" stroke-dasharray="3"/>
    <line id="Line_26" data-name="Line 26" x1="4.865" y2="7.959" transform="translate(-20.051 -596.354)" fill="none" stroke="#fff" stroke-miterlimit="10" stroke-width="2" stroke-dasharray="3"/>
    <g id="Group_411" data-name="Group 411">
      <g id="Group_410" data-name="Group 410">
        <path id="Path_137" data-name="Path 137" d="M-33.4-582.265-51.93-547.979H-33.4l-9.267,28.011,23.655-38.525H-36.989Z" fill="#fff"/>
      </g>
    </g>
    <line id="Line_27" data-name="Line 27" y1="11.04" transform="translate(-33.454 -601.435)" fill="none" stroke="#fff" stroke-miterlimit="10" stroke-width="2" stroke-dasharray="3"/>
  </g>
</svg>
