<svg xmlns="http://www.w3.org/2000/svg" width="198.75" height="144.716" viewBox="0 0 198.75 144.716">
  <g id="Group_474" data-name="Group 474" transform="translate(-978.125 -139.299)">
    <g id="Group_286" data-name="Group 286" transform="translate(1339.625 383.297)">
      <path id="Path_50" data-name="Path 50" d="M-351.965-154.892c-5.016,1.647-8.535,5.5-8.535,10v23.206c0,5.993,6.256,10.851,13.974,10.851h21.345l10.027,10.113c.8.8,2.449.4,2.513-.612l.593-9.5h9.074c7.718,0,13.974-4.858,13.974-10.852v-23.205c0-5.993-6.256-10.852-13.974-10.852" fill="none" stroke="#fff" stroke-miterlimit="10" stroke-width="2"/>
      <path id="Path_51" data-name="Path 51" d="M-312.858-119.724h-31.284A1.858,1.858,0,0,1-346-121.583v-41.283a1.985,1.985,0,0,1,2-1.858h31.142c1.858,0,1.858.832,1.858,1.858v41.283A1.858,1.858,0,0,1-312.858-119.724Z" fill="none" stroke="#fff" stroke-miterlimit="10" stroke-width="1.5"/>
      <path id="Path_52" data-name="Path 52" d="M-344.142-165.04a37.353,37.353,0,0,0,4.792-4.684h32.829s-.479,3-4.479,5" fill="none" stroke="#fff" stroke-linecap="round" stroke-linejoin="round" stroke-width="1.5"/>
      <path id="Path_53" data-name="Path 53" d="M-306.521-169.724v43.7s.521,6.3-6.479,6.3" fill="none" stroke="#fff" stroke-linecap="round" stroke-linejoin="round" stroke-width="1.5"/>
      <rect id="Rectangle_117" data-name="Rectangle 117" width="20" height="5" rx="0.369" transform="translate(-340 -158.724)" fill="none" stroke="#fff" stroke-miterlimit="10" stroke-width="1"/>
    </g>
    <g id="Group_285" data-name="Group 285" transform="translate(1364.875 377.335)">
      <g id="Group_271" data-name="Group 271">
        <g id="Group_269" data-name="Group 269">
          <path id="Path_54" data-name="Path 54" d="M-256.144-190.9h-35.669A2.078,2.078,0,0,1-294-192.849v-43.239a2.078,2.078,0,0,1,2.187-1.948h26.9a2.331,2.331,0,0,1,1.524.551l8.953,7.75a1.854,1.854,0,0,1,.663,1.406l-.186,35.489A2.08,2.08,0,0,1-256.144-190.9Zm-35.079-.526h34.491a2.08,2.08,0,0,0,2.187-1.939l.182-34.741a1.848,1.848,0,0,0-.663-1.407l-8.6-7.445a2.33,2.33,0,0,0-1.524-.551h-26.072a2.078,2.078,0,0,0-2.187,1.948v42.187A2.078,2.078,0,0,0-291.223-191.427Zm34.267-.2H-291a2.078,2.078,0,0,1-2.187-1.948v-41.785A2.078,2.078,0,0,1-291-237.309h25.755a2.338,2.338,0,0,1,1.524.551l8.466,7.329a1.847,1.847,0,0,1,.663,1.406l-.18,34.456A2.08,2.08,0,0,1-256.956-191.628Zm-33.451-.526h32.863a2.08,2.08,0,0,0,2.187-1.939l.177-33.709a1.854,1.854,0,0,0-.663-1.406l-8.115-7.024a2.33,2.33,0,0,0-1.524-.551h-24.925a2.078,2.078,0,0,0-2.187,1.948V-194.1A2.078,2.078,0,0,0-290.407-192.154Z" fill="#fff"/>
        </g>
        <g id="Group_270" data-name="Group 270">
          <path id="Path_55" data-name="Path 55" d="M-256.31-191.05h-35.336A2.078,2.078,0,0,1-293.833-193v-42.941a2.078,2.078,0,0,1,2.187-1.948h26.667a2.336,2.336,0,0,1,1.524.551l8.853,7.664a1.849,1.849,0,0,1,.663,1.406l-.185,35.277A2.079,2.079,0,0,1-256.31-191.05Zm-34.264-.955h33.2a2.079,2.079,0,0,0,2.186-1.939l.178-33.92a1.848,1.848,0,0,0-.662-1.406l-8.215-7.111a2.33,2.33,0,0,0-1.524-.551h-25.16a2.078,2.078,0,0,0-2.187,1.948v41.031A2.078,2.078,0,0,0-290.574-192.005Z" fill="#fff"/>
        </g>
      </g>
      <g id="Group_272" data-name="Group 272">
        <rect id="Rectangle_118" data-name="Rectangle 118" width="13.845" height="0.429" transform="translate(-286.681 -226.779)" fill="none" stroke="#fff" stroke-linecap="round" stroke-linejoin="round" stroke-width="0.75"/>
      </g>
      <g id="Group_273" data-name="Group 273">
        <rect id="Rectangle_119" data-name="Rectangle 119" width="22.917" height="0.429" transform="translate(-286.681 -221.913)" fill="none" stroke="#fff" stroke-linecap="round" stroke-linejoin="round" stroke-width="0.75"/>
      </g>
      <g id="Group_274" data-name="Group 274">
        <rect id="Rectangle_120" data-name="Rectangle 120" width="22.917" height="0.429" transform="translate(-286.681 -217.046)" fill="none" stroke="#fff" stroke-linecap="round" stroke-linejoin="round" stroke-width="0.75"/>
      </g>
      <g id="Group_275" data-name="Group 275">
        <rect id="Rectangle_121" data-name="Rectangle 121" width="22.917" height="0.429" transform="translate(-286.681 -212.18)" fill="none" stroke="#fff" stroke-linecap="round" stroke-linejoin="round" stroke-width="0.75"/>
      </g>
      <g id="Group_276" data-name="Group 276">
        <rect id="Rectangle_122" data-name="Rectangle 122" width="22.917" height="0.429" transform="translate(-286.681 -207.447)" fill="none" stroke="#fff" stroke-linecap="round" stroke-linejoin="round" stroke-width="0.75"/>
      </g>
      <g id="Group_277" data-name="Group 277">
        <rect id="Rectangle_123" data-name="Rectangle 123" width="22.917" height="0.429" transform="translate(-286.681 -202.714)" fill="none" stroke="#fff" stroke-linecap="round" stroke-linejoin="round" stroke-width="0.75"/>
      </g>
      <path id="Path_56" data-name="Path 56" d="M-298.965-220.892c-5.016,1.647-8.535,5.5-8.535,10v23.206c0,5.993,6.256,10.851,13.974,10.851h21.345l10.027,10.113c.8.8,2.449.4,2.513-.612l.593-9.5h9.074c7.718,0,13.974-4.858,13.974-10.852v-23.205c0-5.993-6.256-10.852-13.974-10.852" fill="none" stroke="#fff" stroke-miterlimit="10" stroke-width="2"/>
      <g id="Group_279" data-name="Group 279">
        <g id="Group_278" data-name="Group 278">
          <path id="Path_57" data-name="Path 57" d="M-266.051-102.7a38.69,38.69,0,0,1,3.594-28.688,38.606,38.606,0,0,1,18.912-16.746,38.775,38.775,0,0,1,26.559-.925,38.5,38.5,0,0,1,20.06,15.4,38.73,38.73,0,0,1,4.817,31.513,1.343,1.343,0,0,0,2.588.714,41.5,41.5,0,0,0-3.285-30.539,41.257,41.257,0,0,0-20.071-18.393,41.317,41.317,0,0,0-28.285-1.47,41.438,41.438,0,0,0-21.91,16.33,41.407,41.407,0,0,0-5.567,33.512,1.343,1.343,0,0,0,2.588-.713Z" fill="#fff"/>
        </g>
      </g>
      <g id="Group_280" data-name="Group 280">
        <rect id="Rectangle_124" data-name="Rectangle 124" width="8.735" height="1.342" transform="translate(-235.373 -126.161)" fill="#fff"/>
      </g>
      <g id="Group_281" data-name="Group 281">
        <path id="Path_58" data-name="Path 58" d="M-217.488-115.43a10.194,10.194,0,0,1-10.183-10.183A10.194,10.194,0,0,1-217.488-135.8,10.194,10.194,0,0,1-207.3-125.613,10.194,10.194,0,0,1-217.488-115.43Zm0-18.129a7.956,7.956,0,0,0-7.947,7.946,7.956,7.956,0,0,0,7.947,7.947,7.956,7.956,0,0,0,7.946-7.947A7.956,7.956,0,0,0-217.488-133.559Z" fill="#fff"/>
      </g>
      <g id="Group_282" data-name="Group 282">
        <path id="Path_59" data-name="Path 59" d="M-244.437-115.43a10.194,10.194,0,0,1-10.183-10.183A10.194,10.194,0,0,1-244.437-135.8a10.194,10.194,0,0,1,10.183,10.183A10.194,10.194,0,0,1-244.437-115.43Zm0-18.129a7.956,7.956,0,0,0-7.947,7.946,7.956,7.956,0,0,0,7.947,7.947,7.956,7.956,0,0,0,7.946-7.947A7.956,7.956,0,0,0-244.437-133.559Z" fill="#fff"/>
      </g>
      <g id="Group_283" data-name="Group 283">
        <path id="Path_60" data-name="Path 60" d="M-203.268-172.966l1.7,4.906a.144.144,0,0,0,.039.062l3.1,2.683a.208.208,0,0,1,0,.273l-3.1,2.683a.138.138,0,0,0-.039.062l-1.7,4.906c-.037.108-.136.108-.173,0l-1.7-4.906a.139.139,0,0,0-.04-.062l-3.1-2.683a.208.208,0,0,1,0-.273l3.1-2.683a.145.145,0,0,0,.04-.062l1.7-4.906C-203.4-173.074-203.3-173.074-203.268-172.966Z" fill="#fff"/>
      </g>
      <g id="Group_284" data-name="Group 284">
        <path id="Path_61" data-name="Path 61" d="M-194.966-161.081l1.152,3.331a.09.09,0,0,0,.027.042l2.106,1.822a.143.143,0,0,1,0,.186l-2.106,1.821a.1.1,0,0,0-.027.042l-1.152,3.332c-.025.073-.092.073-.117,0l-1.152-3.332a.117.117,0,0,0-.027-.042l-2.106-1.821a.14.14,0,0,1,0-.186l2.106-1.822a.109.109,0,0,0,.027-.042l1.152-3.331C-195.058-161.155-194.991-161.155-194.966-161.081Z" fill="#fff"/>
      </g>
    </g>
  </g>
</svg>
