<svg id="Group_6" data-name="Group 6" xmlns="http://www.w3.org/2000/svg" xmlns:xlink="http://www.w3.org/1999/xlink" width="142" height="128" viewBox="0 0 142 128">
  <defs>
    <clipPath id="clip-path">
      <path id="Clip_2" data-name="Clip 2" d="M0,0H142V128H0Z" fill="none"/>
    </clipPath>
  </defs>
  <g id="Group_3" data-name="Group 3">
    <path id="Clip_2-2" data-name="Clip 2" d="M0,0H142V128H0Z" fill="none"/>
    <g id="Group_3-2" data-name="Group 3" clip-path="url(#clip-path)">
      <path id="Fill_1" data-name="Fill 1" d="M142,26.187V79.451a26.2,26.2,0,0,1-26.175,26.189H45.886L28.016,128V105.639H26.149A26.194,26.194,0,0,1,0,79.451V26.187A26.194,26.194,0,0,1,26.149,0h89.677A26.2,26.2,0,0,1,142,26.187" fill="#fff"/>
    </g>
  </g>
  <path id="Fill_4" data-name="Fill 4" d="M29,0l12.4,50.234H51V62H0V50.234H9.609L22,0" transform="translate(47 22)" fill="#575757"/>
</svg>
