<svg xmlns="http://www.w3.org/2000/svg" xmlns:xlink="http://www.w3.org/1999/xlink" width="238.934" height="215.578" viewBox="0 0 238.934 215.578">
  <defs>
    <clipPath id="clip-path">
      <path id="Clip_4" data-name="Clip 4" d="M0,0H16V12H0Z" transform="translate(0 0)" fill="none"/>
    </clipPath>
  </defs>
  <g id="Group_24" data-name="Group 24" transform="translate(0.375 0.578)">
    <path id="Stroke_1" data-name="Stroke 1" d="M47.916,0a105.877,105.877,0,0,1-27.55,99.99A104.871,104.871,0,0,1,0,116" transform="translate(187 93)" fill="none" stroke="#231815" stroke-miterlimit="10" stroke-width="1"/>
    <g id="Group_5" data-name="Group 5" transform="translate(175 203)">
      <path id="Clip_4-2" data-name="Clip 4" d="M0,0H16V12H0Z" transform="translate(0 0)" fill="none"/>
      <g id="Group_5-2" data-name="Group 5" clip-path="url(#clip-path)">
        <path id="Fill_3" data-name="Fill 3" d="M12.007,0,0,12,16,8.039Z" transform="translate(0 0)" fill="#231815"/>
      </g>
    </g>
    <path id="Stroke_6" data-name="Stroke 6" d="M31.524,0,0,58.339H31.524L15.764,106,56,40.449H25.416Z" transform="translate(52 41)" fill="none" stroke="#231815" stroke-miterlimit="10" stroke-width="1"/>
    <path id="Fill_8" data-name="Fill 8" d="M.013,26.651A27.5,27.5,0,1,1,26.649,54.987,27.5,27.5,0,0,1,.013,26.651" transform="translate(63 152)" fill="#323232"/>
    <path id="Fill_10" data-name="Fill 10" d="M55,27.5A27.5,27.5,0,1,1,27.5,0,27.5,27.5,0,0,1,55,27.5" transform="translate(128 144)" fill="#f7f7f7"/>
    <path id="Stroke_12" data-name="Stroke 12" d="M55,27.5A27.5,27.5,0,1,1,27.5,0,27.5,27.5,0,0,1,55,27.5Z" transform="translate(128 144)" fill="none" stroke="#231815" stroke-miterlimit="10" stroke-width="0.5"/>
    <path id="Fill_14" data-name="Fill 14" d="M55,27.5A27.5,27.5,0,1,1,27.5,0,27.5,27.5,0,0,1,55,27.5" transform="translate(152 120)" fill="#c0e2aa"/>
    <path id="Stroke_16" data-name="Stroke 16" d="M63.624,6.714A104.857,104.857,0,1,1,0,135.543" transform="translate(10)" fill="none" stroke="#231815" stroke-miterlimit="10" stroke-width="1" stroke-dasharray="4 4"/>
    <path id="Fill_18" data-name="Fill 18" d="M7.506,10.619a5.5,5.5,0,1,1,3.114-7.125,5.5,5.5,0,0,1-3.114,7.125" transform="translate(68 1)" fill="#231815"/>
    <path id="Fill_20" data-name="Fill 20" d="M10.791,4A5.5,5.5,0,1,0,7,10.79,5.5,5.5,0,0,0,10.791,4" transform="translate(4 131)" fill="#231815"/>
    <path id="Stroke_22" data-name="Stroke 22" d="M0,8.5V24.669a8.48,8.48,0,0,0,8.461,8.506H29.314L35.539,41V33.176A8.48,8.48,0,0,0,44,24.669V8.5A8.48,8.48,0,0,0,35.539,0H8.461A8.48,8.48,0,0,0,0,8.5Z" transform="translate(0 34)" fill="none" stroke="#323232" stroke-miterlimit="10" stroke-width="0.75"/>
  </g>
</svg>
